<?xml version="1.0" encoding="UTF-8" standalone="no"?>
<!DOCTYPE svg PUBLIC "-//W3C//DTD SVG 1.1//EN"
 "http://www.w3.org/Graphics/SVG/1.1/DTD/svg11.dtd">
<!-- Generated by graphviz version 2.38.0 (20140413.2041)
 -->
<!-- Title: %3 Pages: 1 -->
<svg width="280pt" height="264pt"
 viewBox="0.00 0.00 279.50 264.00" xmlns="http://www.w3.org/2000/svg" xmlns:xlink="http://www.w3.org/1999/xlink">
<g id="graph0" class="graph" transform="scale(1 1) rotate(0) translate(4 260)">
<title>%3</title>
<polygon fill="white" stroke="none" points="-4,4 -4,-260 275.5,-260 275.5,4 -4,4"/>
<!-- a -->
<g id="node1" class="node"><title>a</title>
<polygon fill="none" stroke="gray" points="84.5,-219.5 84.5,-255.5 166.5,-255.5 166.5,-219.5 84.5,-219.5"/>
<text text-anchor="start" x="92.5" y="-241.3" font-family="Times New Roman,serif" font-size="14.00" fill="gray">Brainstorm </text>
<text text-anchor="start" x="96" y="-227.3" font-family="Times New Roman,serif" font-size="14.00" fill="gray"> </text>
<text text-anchor="start" x="100" y="-227.3" font-family="Times New Roman,serif" font-style="italic" font-size="14.00" fill="gray">Complete</text>
</g>
<!-- b -->
<g id="node2" class="node"><title>b</title>
<polygon fill="none" stroke="gray" points="0,-146.5 0,-182.5 107,-182.5 107,-146.5 0,-146.5"/>
<text text-anchor="start" x="8" y="-168.3" font-family="Times New Roman,serif" font-size="14.00" fill="gray">Specify Format </text>
<text text-anchor="start" x="24" y="-154.3" font-family="Times New Roman,serif" font-size="14.00" fill="gray"> </text>
<text text-anchor="start" x="28" y="-154.3" font-family="Times New Roman,serif" font-style="italic" font-size="14.00" fill="gray">Complete</text>
</g>
<!-- a&#45;&gt;b -->
<g id="edge1" class="edge"><title>a&#45;&gt;b</title>
<path fill="none" stroke="black" d="M108.071,-219.313C99.05,-210.417 87.887,-199.409 78.0121,-189.672"/>
<polygon fill="black" stroke="black" points="80.3466,-187.058 70.7687,-182.529 75.4315,-192.042 80.3466,-187.058"/>
</g>
<!-- f -->
<g id="node6" class="node"><title>f</title>
<polygon fill="none" stroke="black" points="125.5,-146.5 125.5,-182.5 271.5,-182.5 271.5,-146.5 125.5,-146.5"/>
<text text-anchor="start" x="133.5" y="-168.3" font-family="Times New Roman,serif" font-size="14.00">Abbreviation Resolver </text>
<text text-anchor="start" x="163" y="-154.3" font-family="Times New Roman,serif" font-size="14.00"> </text>
<text text-anchor="start" x="167" y="-154.3" font-family="Times New Roman,serif" font-style="italic" font-size="14.00">In Progress</text>
</g>
<!-- a&#45;&gt;f -->
<g id="edge2" class="edge"><title>a&#45;&gt;f</title>
<path fill="none" stroke="black" d="M143.171,-219.313C152.317,-210.417 163.635,-199.409 173.647,-189.672"/>
<polygon fill="black" stroke="black" points="176.263,-192.01 180.991,-182.529 171.383,-186.992 176.263,-192.01"/>
</g>
<!-- d -->
<g id="node4" class="node"><title>d</title>
<polygon fill="none" stroke="gray" points="25,-73.5 25,-109.5 100,-109.5 100,-73.5 25,-73.5"/>
<text text-anchor="start" x="42.5" y="-95.3" font-family="Times New Roman,serif" font-size="14.00" fill="gray">Parser </text>
<text text-anchor="start" x="33" y="-81.3" font-family="Times New Roman,serif" font-size="14.00" fill="gray"> </text>
<text text-anchor="start" x="37" y="-81.3" font-family="Times New Roman,serif" font-style="italic" font-size="14.00" fill="gray">Complete</text>
</g>
<!-- b&#45;&gt;d -->
<g id="edge3" class="edge"><title>b&#45;&gt;d</title>
<path fill="none" stroke="black" d="M55.6786,-146.313C56.6957,-138.289 57.9306,-128.547 59.0687,-119.569"/>
<polygon fill="black" stroke="black" points="62.556,-119.89 60.3414,-109.529 55.6116,-119.009 62.556,-119.89"/>
</g>
<!-- c -->
<g id="node3" class="node"><title>c</title>
<polygon fill="none" stroke="black" points="136,-73.5 136,-109.5 241,-109.5 241,-73.5 136,-73.5"/>
<text text-anchor="start" x="144" y="-87.8" font-family="Times New Roman,serif" font-size="14.00">DOT Generator</text>
</g>
<!-- e -->
<g id="node5" class="node"><title>e</title>
<polygon fill="none" stroke="black" points="48,-0.5 48,-36.5 203,-36.5 203,-0.5 48,-0.5"/>
<text text-anchor="start" x="56" y="-14.8" font-family="Times New Roman,serif" font-size="14.00">Command Line Interface</text>
</g>
<!-- c&#45;&gt;e -->
<g id="edge5" class="edge"><title>c&#45;&gt;e</title>
<path fill="none" stroke="black" d="M173.249,-73.3129C165.511,-64.5918 155.971,-53.8402 147.458,-44.2459"/>
<polygon fill="black" stroke="black" points="149.865,-41.6858 140.61,-36.5288 144.629,-46.3318 149.865,-41.6858"/>
</g>
<!-- d&#45;&gt;e -->
<g id="edge4" class="edge"><title>d&#45;&gt;e</title>
<path fill="none" stroke="black" d="M77.7505,-73.3129C85.489,-64.5918 95.0291,-53.8402 103.542,-44.2459"/>
<polygon fill="black" stroke="black" points="106.371,-46.3318 110.39,-36.5288 101.135,-41.6858 106.371,-46.3318"/>
</g>
<!-- f&#45;&gt;c -->
<g id="edge6" class="edge"><title>f&#45;&gt;c</title>
<path fill="none" stroke="black" d="M196.079,-146.313C194.949,-138.289 193.577,-128.547 192.313,-119.569"/>
<polygon fill="black" stroke="black" points="195.759,-118.943 190.898,-109.529 188.827,-119.919 195.759,-118.943"/>
</g>
</g>
</svg>
