<svg xmlns="http://www.w3.org/2000/svg" xmlns:xlink="http://www.w3.org/1999/xlink" width="565pt" height="556pt" viewBox="0.00 0.00 565.27 556.00">
<g id="graph0" class="graph" transform="scale(1 1) rotate(0) translate(4 552)">
<title>%0</title>
<polygon fill="#ffffff" stroke="transparent" points="-4,4 -4,-552 561.2735,-552 561.2735,4 -4,4"/>
<!-- iOSDevelopment -->
<g id="node1" class="node">
<title>iOSDevelopment</title>
<polygon fill="none" stroke="#c0c0c0" points="232.6462,-511.5 232.6462,-547.5 352.8482,-547.5 352.8482,-511.5 232.6462,-511.5"/>
<text text-anchor="start" x="240.6462" y="-531.9" font-family="Times,serif" font-size="14.00" fill="#c0c0c0">iOS Development </text>
<text text-anchor="start" x="263.7784" y="-517.9" font-family="Times,serif" font-size="14.00" fill="#c0c0c0"> </text>
<text text-anchor="start" x="267.2784" y="-517.9" font-family="Times,serif" font-style="italic" font-size="14.00" fill="#c0c0c0">Complete</text>
</g>
<!-- TextRendering -->
<g id="node2" class="node">
<title>TextRendering</title>
<polygon fill="none" stroke="#c0c0c0" points="179.2598,-438.5 179.2598,-474.5 286.2346,-474.5 286.2346,-438.5 179.2598,-438.5"/>
<text text-anchor="start" x="187.2598" y="-458.9" font-family="Times,serif" font-size="14.00" fill="#c0c0c0">Text Rendering </text>
<text text-anchor="start" x="203.7784" y="-444.9" font-family="Times,serif" font-size="14.00" fill="#c0c0c0"> </text>
<text text-anchor="start" x="207.2784" y="-444.9" font-family="Times,serif" font-style="italic" font-size="14.00" fill="#c0c0c0">Complete</text>
</g>
<!-- iOSDevelopment&#45;&gt;TextRendering -->
<g id="edge1" class="edge">
<title>iOSDevelopment-&gt;TextRendering</title>
<path fill="none" stroke="#000000" d="M277.9157,-511.4551C270.7041,-502.6809 261.9055,-491.9759 253.9962,-482.353"/>
<polygon fill="#000000" stroke="#000000" points="256.6696,-480.0934 247.616,-474.5904 251.2618,-484.5382 256.6696,-480.0934"/>
</g>
<!-- TileRenderer -->
<g id="node3" class="node">
<title>TileRenderer</title>
<polygon fill="none" stroke="#c0c0c0" points="307.3222,-438.5 307.3222,-474.5 404.1722,-474.5 404.1722,-438.5 307.3222,-438.5"/>
<text text-anchor="start" x="315.3222" y="-458.9" font-family="Times,serif" font-size="14.00" fill="#c0c0c0">Tile Renderer </text>
<text text-anchor="start" x="326.7784" y="-444.9" font-family="Times,serif" font-size="14.00" fill="#c0c0c0"> </text>
<text text-anchor="start" x="330.2784" y="-444.9" font-family="Times,serif" font-style="italic" font-size="14.00" fill="#c0c0c0">Complete</text>
</g>
<!-- iOSDevelopment&#45;&gt;TileRenderer -->
<g id="edge2" class="edge">
<title>iOSDevelopment-&gt;TileRenderer</title>
<path fill="none" stroke="#000000" d="M308.3202,-511.4551C315.8924,-502.6809 325.131,-491.9759 333.4357,-482.353"/>
<polygon fill="#000000" stroke="#000000" points="336.2511,-484.4477 340.135,-474.5904 330.9517,-479.8742 336.2511,-484.4477"/>
</g>
<!-- WindowInfrastructure -->
<g id="node14" class="node">
<title>WindowInfrastructure</title>
<polygon fill="none" stroke="#000000" points="132.805,-292.5 132.805,-328.5 276.6894,-328.5 276.6894,-292.5 132.805,-292.5"/>
<text text-anchor="start" x="140.805" y="-306.3" font-family="Times,serif" font-size="14.00" fill="#000000">Window Infrastructure</text>
</g>
<!-- TextRendering&#45;&gt;WindowInfrastructure -->
<g id="edge3" class="edge">
<title>TextRendering-&gt;WindowInfrastructure</title>
<path fill="none" stroke="#000000" d="M229.2576,-438.3042C224.4789,-413.3868 215.8501,-368.3938 210.2106,-338.9877"/>
<polygon fill="#000000" stroke="#000000" points="213.6017,-338.0869 208.2808,-328.9251 206.727,-339.4054 213.6017,-338.0869"/>
</g>
<!-- Camera -->
<g id="node4" class="node">
<title>Camera</title>
<polygon fill="none" stroke="#c0c0c0" points="341.7784,-365.5 341.7784,-401.5 415.716,-401.5 415.716,-365.5 341.7784,-365.5"/>
<text text-anchor="start" x="355.2314" y="-385.9" font-family="Times,serif" font-size="14.00" fill="#c0c0c0">Camera </text>
<text text-anchor="start" x="349.7784" y="-371.9" font-family="Times,serif" font-size="14.00" fill="#c0c0c0"> </text>
<text text-anchor="start" x="353.2784" y="-371.9" font-family="Times,serif" font-style="italic" font-size="14.00" fill="#c0c0c0">Complete</text>
</g>
<!-- TileRenderer&#45;&gt;Camera -->
<g id="edge4" class="edge">
<title>TileRenderer-&gt;Camera</title>
<path fill="none" stroke="#000000" d="M361.4326,-438.4551C364.0035,-430.2951 367.1006,-420.4652 369.9604,-411.3887"/>
<polygon fill="#000000" stroke="#000000" points="373.3806,-412.18 373.0475,-401.5904 366.7041,-410.0764 373.3806,-412.18"/>
</g>
<!-- Objects -->
<g id="node5" class="node">
<title>Objects</title>
<polygon fill="none" stroke="#000000" points="337.3131,-292.5 337.3131,-328.5 420.1813,-328.5 420.1813,-292.5 337.3131,-292.5"/>
<text text-anchor="start" x="355.6164" y="-312.9" font-family="Times,serif" font-size="14.00" fill="#000000">Objects </text>
<text text-anchor="start" x="345.3131" y="-298.9" font-family="Times,serif" font-size="14.00" fill="#000000"> </text>
<text text-anchor="start" x="348.8131" y="-298.9" font-family="Times,serif" font-style="italic" font-size="14.00" fill="#000000">In Progress</text>
</g>
<!-- Camera&#45;&gt;Objects -->
<g id="edge5" class="edge">
<title>Camera-&gt;Objects</title>
<path fill="none" stroke="#000000" d="M378.7472,-365.4551C378.7472,-357.3828 378.7472,-347.6764 378.7472,-338.6817"/>
<polygon fill="#000000" stroke="#000000" points="382.2473,-338.5903 378.7472,-328.5904 375.2473,-338.5904 382.2473,-338.5903"/>
</g>
<!-- EntityAnimations -->
<g id="node6" class="node">
<title>EntityAnimations</title>
<polygon fill="none" stroke="#000000" points="438.2209,-292.5 438.2209,-328.5 557.2735,-328.5 557.2735,-292.5 438.2209,-292.5"/>
<text text-anchor="start" x="446.2209" y="-306.3" font-family="Times,serif" font-size="14.00" fill="#000000">Entity Animations</text>
</g>
<!-- Camera&#45;&gt;EntityAnimations -->
<g id="edge6" class="edge">
<title>Camera-&gt;EntityAnimations</title>
<path fill="none" stroke="#000000" d="M408.1629,-365.4551C423.6102,-355.979 442.7288,-344.2508 459.3317,-334.0658"/>
<polygon fill="#000000" stroke="#000000" points="461.5636,-336.8028 468.2574,-328.5904 457.9033,-330.836 461.5636,-336.8028"/>
</g>
<!-- TileProperties -->
<g id="node7" class="node">
<title>TileProperties</title>
<polygon fill="none" stroke="#000000" points="345.3436,-219.5 345.3436,-255.5 444.1508,-255.5 444.1508,-219.5 345.3436,-219.5"/>
<text text-anchor="start" x="353.3436" y="-233.3" font-family="Times,serif" font-size="14.00" fill="#000000">Tile Properties</text>
</g>
<!-- Objects&#45;&gt;TileProperties -->
<g id="edge7" class="edge">
<title>Objects-&gt;TileProperties</title>
<path fill="none" stroke="#000000" d="M382.7023,-292.4551C384.4907,-284.2951 386.6452,-274.4652 388.6346,-265.3887"/>
<polygon fill="#000000" stroke="#000000" points="392.06,-266.1079 390.7822,-255.5904 385.2223,-264.6091 392.06,-266.1079"/>
</g>
<!-- Character -->
<g id="node8" class="node">
<title>Character</title>
<polygon fill="none" stroke="#000000" points="462.5438,-219.5 462.5438,-255.5 532.9506,-255.5 532.9506,-219.5 462.5438,-219.5"/>
<text text-anchor="middle" x="497.7472" y="-233.3" font-family="Times,serif" font-size="14.00" fill="#000000">Character</text>
</g>
<!-- EntityAnimations&#45;&gt;Character -->
<g id="edge8" class="edge">
<title>EntityAnimations-&gt;Character</title>
<path fill="none" stroke="#000000" d="M497.7472,-292.4551C497.7472,-284.3828 497.7472,-274.6764 497.7472,-265.6817"/>
<polygon fill="#000000" stroke="#000000" points="501.2473,-265.5903 497.7472,-255.5904 494.2473,-265.5904 501.2473,-265.5903"/>
</g>
<!-- PathFinding -->
<g id="node9" class="node">
<title>PathFinding</title>
<polygon fill="none" stroke="#000000" points="362.7714,-146.5 362.7714,-182.5 450.723,-182.5 450.723,-146.5 362.7714,-146.5"/>
<text text-anchor="start" x="370.7714" y="-160.3" font-family="Times,serif" font-size="14.00" fill="#000000">Path Finding</text>
</g>
<!-- TileProperties&#45;&gt;PathFinding -->
<g id="edge9" class="edge">
<title>TileProperties-&gt;PathFinding</title>
<path fill="none" stroke="#000000" d="M397.7135,-219.4551C399.0404,-211.3828 400.636,-201.6764 402.1146,-192.6817"/>
<polygon fill="#000000" stroke="#000000" points="405.6049,-193.0257 403.7734,-182.5904 398.6976,-191.8902 405.6049,-193.0257"/>
</g>
<!-- Character&#45;&gt;PathFinding -->
<g id="edge10" class="edge">
<title>Character-&gt;PathFinding</title>
<path fill="none" stroke="#000000" d="M475.2528,-219.4551C463.7683,-210.2422 449.6302,-198.9006 437.1861,-188.918"/>
<polygon fill="#000000" stroke="#000000" points="439.2886,-186.1177 429.2982,-182.5904 434.9084,-191.5779 439.2886,-186.1177"/>
</g>
<!-- Interaction -->
<g id="node10" class="node">
<title>Interaction</title>
<polygon fill="none" stroke="#000000" points="362.4288,-73.5 362.4288,-109.5 439.0656,-109.5 439.0656,-73.5 362.4288,-73.5"/>
<text text-anchor="middle" x="400.7472" y="-87.3" font-family="Times,serif" font-size="14.00" fill="#000000">Interaction</text>
</g>
<!-- PathFinding&#45;&gt;Interaction -->
<g id="edge11" class="edge">
<title>PathFinding-&gt;Interaction</title>
<path fill="none" stroke="#000000" d="M405.2641,-146.4551C404.6006,-138.3828 403.8028,-128.6764 403.0635,-119.6817"/>
<polygon fill="#000000" stroke="#000000" points="406.5416,-119.27 402.2341,-109.5904 399.5651,-119.8435 406.5416,-119.27"/>
</g>
<!-- TaptoMove -->
<g id="node11" class="node">
<title>TaptoMove</title>
<polygon fill="none" stroke="#000000" points="246.5887,-73.5 246.5887,-109.5 334.9057,-109.5 334.9057,-73.5 246.5887,-73.5"/>
<text text-anchor="start" x="254.5887" y="-87.3" font-family="Times,serif" font-size="14.00" fill="#000000">Tap to Move</text>
</g>
<!-- PathFinding&#45;&gt;TaptoMove -->
<g id="edge12" class="edge">
<title>PathFinding-&gt;TaptoMove</title>
<path fill="none" stroke="#000000" d="M378.073,-146.4551C363.0152,-136.979 344.3786,-125.2508 328.1942,-115.0658"/>
<polygon fill="#000000" stroke="#000000" points="329.8213,-111.9544 319.4935,-109.5904 326.0929,-117.8788 329.8213,-111.9544"/>
</g>
<!-- TaptoUse -->
<g id="node12" class="node">
<title>TaptoUse</title>
<polygon fill="none" stroke="#000000" points="158.0354,-.5 158.0354,-36.5 235.459,-36.5 235.459,-.5 158.0354,-.5"/>
<text text-anchor="start" x="166.0354" y="-14.3" font-family="Times,serif" font-size="14.00" fill="#000000">Tap to Use</text>
</g>
<!-- Interaction&#45;&gt;TaptoUse -->
<g id="edge13" class="edge">
<title>Interaction-&gt;TaptoUse</title>
<path fill="none" stroke="#000000" d="M362.3764,-77.7693C329.2497,-65.9151 281.2147,-48.7261 245.3958,-35.9086"/>
<polygon fill="#000000" stroke="#000000" points="246.2342,-32.4913 235.6396,-32.4174 243.8757,-39.082 246.2342,-32.4913"/>
</g>
<!-- TaptoMove&#45;&gt;TaptoUse -->
<g id="edge14" class="edge">
<title>TaptoMove-&gt;TaptoUse</title>
<path fill="none" stroke="#000000" d="M267.5112,-73.4551C255.6481,-64.2422 241.0439,-52.9006 228.1896,-42.918"/>
<polygon fill="#000000" stroke="#000000" points="230.0865,-39.9597 220.0416,-36.5904 225.7929,-45.4883 230.0865,-39.9597"/>
</g>
<!-- PopupWindow -->
<g id="node13" class="node">
<title>PopupWindow</title>
<polygon fill="none" stroke="#000000" points="0,-146.5 0,-182.5 103.4944,-182.5 103.4944,-146.5 0,-146.5"/>
<text text-anchor="start" x="8" y="-160.3" font-family="Times,serif" font-size="14.00" fill="#000000">Popup Window</text>
</g>
<!-- PopupWindow&#45;&gt;TaptoUse -->
<g id="edge15" class="edge">
<title>PopupWindow-&gt;TaptoUse</title>
<path fill="none" stroke="#000000" d="M60.8946,-146.4255C71.472,-126.7481 90.3338,-95.1358 112.7472,-73 124.6182,-61.2761 139.3948,-50.6826 153.2299,-42.0199"/>
<polygon fill="#000000" stroke="#000000" points="155.4096,-44.7914 162.1455,-36.6135 151.78,-38.8059 155.4096,-44.7914"/>
</g>
<!-- WindowInfrastructure&#45;&gt;PopupWindow -->
<g id="edge16" class="edge">
<title>WindowInfrastructure-&gt;PopupWindow</title>
<path fill="none" stroke="#000000" d="M158.9524,-292.4951C140.2651,-283.5444 119.4142,-271.3266 103.7472,-256 85.1996,-237.8553 71.2283,-211.6853 62.4636,-191.977"/>
<polygon fill="#000000" stroke="#000000" points="65.6119,-190.4369 58.4701,-182.611 59.1728,-193.1825 65.6119,-190.4369"/>
</g>
<!-- ActionSearch -->
<g id="node15" class="node">
<title>ActionSearch</title>
<polygon fill="none" stroke="#000000" points="112.9025,-219.5 112.9025,-255.5 208.5919,-255.5 208.5919,-219.5 112.9025,-219.5"/>
<text text-anchor="start" x="120.9025" y="-233.3" font-family="Times,serif" font-size="14.00" fill="#000000">Action Search</text>
</g>
<!-- WindowInfrastructure&#45;&gt;ActionSearch -->
<g id="edge17" class="edge">
<title>WindowInfrastructure-&gt;ActionSearch</title>
<path fill="none" stroke="#000000" d="M193.8708,-292.4551C188.7409,-283.9441 182.516,-273.6165 176.8536,-264.2219"/>
<polygon fill="#000000" stroke="#000000" points="179.8108,-262.3481 171.651,-255.5904 173.8156,-265.9617 179.8108,-262.3481"/>
</g>
<!-- RoutineTicker -->
<g id="node16" class="node">
<title>RoutineTicker</title>
<polygon fill="none" stroke="#000000" points="226.5645,-219.5 226.5645,-255.5 326.9299,-255.5 326.9299,-219.5 226.5645,-219.5"/>
<text text-anchor="start" x="234.5645" y="-233.3" font-family="Times,serif" font-size="14.00" fill="#000000">Routine Ticker</text>
</g>
<!-- WindowInfrastructure&#45;&gt;RoutineTicker -->
<g id="edge18" class="edge">
<title>WindowInfrastructure-&gt;RoutineTicker</title>
<path fill="none" stroke="#000000" d="M222.545,-292.4551C231.372,-283.5054 242.1803,-272.547 251.8165,-262.7769"/>
<polygon fill="#000000" stroke="#000000" points="254.3744,-265.1678 258.9047,-255.5904 249.3906,-260.2523 254.3744,-265.1678"/>
</g>
<!-- ActionInsertion -->
<g id="node18" class="node">
<title>ActionInsertion</title>
<polygon fill="none" stroke="#000000" points="121.0652,-146.5 121.0652,-182.5 228.4292,-182.5 228.4292,-146.5 121.0652,-146.5"/>
<text text-anchor="start" x="129.0652" y="-160.3" font-family="Times,serif" font-size="14.00" fill="#000000">Action Insertion</text>
</g>
<!-- ActionSearch&#45;&gt;ActionInsertion -->
<g id="edge19" class="edge">
<title>ActionSearch-&gt;ActionInsertion</title>
<path fill="none" stroke="#000000" d="M164.2079,-219.4551C165.756,-211.3828 167.6175,-201.6764 169.3425,-192.6817"/>
<polygon fill="#000000" stroke="#000000" points="172.8316,-193.0706 171.2778,-182.5904 165.9569,-191.7521 172.8316,-193.0706"/>
</g>
<!-- RoutineEditor -->
<g id="node17" class="node">
<title>RoutineEditor</title>
<polygon fill="none" stroke="#000000" points="246.3338,-146.5 246.3338,-182.5 345.1606,-182.5 345.1606,-146.5 246.3338,-146.5"/>
<text text-anchor="start" x="254.3338" y="-160.3" font-family="Times,serif" font-size="14.00" fill="#000000">Routine Editor</text>
</g>
<!-- RoutineTicker&#45;&gt;RoutineEditor -->
<g id="edge20" class="edge">
<title>RoutineTicker-&gt;RoutineEditor</title>
<path fill="none" stroke="#000000" d="M281.4438,-219.4551C283.5677,-211.2951 286.1261,-201.4652 288.4885,-192.3887"/>
<polygon fill="#000000" stroke="#000000" points="291.907,-193.1496 291.0388,-182.5904 285.1327,-191.3863 291.907,-193.1496"/>
</g>
<!-- RoutineTicker&#45;&gt;ActionInsertion -->
<g id="edge21" class="edge">
<title>RoutineTicker-&gt;ActionInsertion</title>
<path fill="none" stroke="#000000" d="M251.5337,-219.4551C238.5384,-210.1545 222.5117,-198.6844 208.4676,-188.6332"/>
<polygon fill="#000000" stroke="#000000" points="210.1931,-185.5641 200.0241,-182.5904 206.1191,-191.2565 210.1931,-185.5641"/>
</g>
<!-- ActionInsertion&#45;&gt;TaptoMove -->
<g id="edge22" class="edge">
<title>ActionInsertion-&gt;TaptoMove</title>
<path fill="none" stroke="#000000" d="M203.4214,-146.4551C218.4792,-136.979 237.1158,-125.2508 253.3002,-115.0658"/>
<polygon fill="#000000" stroke="#000000" points="255.4015,-117.8788 262.0009,-109.5904 251.6731,-111.9544 255.4015,-117.8788"/>
</g>
<!-- ActionInsertion&#45;&gt;TaptoUse -->
<g id="edge23" class="edge">
<title>ActionInsertion-&gt;TaptoUse</title>
<path fill="none" stroke="#000000" d="M149.9779,-146.4C139.1266,-136.9206 127.5569,-124.3073 121.7472,-110 115.5603,-94.7638 114.2822,-87.6524 121.7472,-73 128.0971,-60.5363 138.7791,-50.254 150.1201,-42.1085"/>
<polygon fill="#000000" stroke="#000000" points="152.0674,-45.0168 158.442,-36.5543 148.1814,-39.1945 152.0674,-45.0168"/>
</g>
<!-- PickandPlace -->
<g id="node19" class="node">
<title>PickandPlace</title>
<polygon fill="none" stroke="#000000" points="130.5375,-73.5 130.5375,-109.5 228.9569,-109.5 228.9569,-73.5 130.5375,-73.5"/>
<text text-anchor="start" x="138.5375" y="-87.3" font-family="Times,serif" font-size="14.00" fill="#000000">Pick and Place</text>
</g>
<!-- ActionInsertion&#45;&gt;PickandPlace -->
<g id="edge24" class="edge">
<title>ActionInsertion-&gt;PickandPlace</title>
<path fill="none" stroke="#000000" d="M175.9832,-146.4551C176.536,-138.3828 177.2009,-128.6764 177.8169,-119.6817"/>
<polygon fill="#000000" stroke="#000000" points="181.3165,-119.8062 178.5081,-109.5904 174.3329,-119.3278 181.3165,-119.8062"/>
</g>
</g>
</svg>