<?xml version="1.0" encoding="UTF-8" standalone="no"?>
<!DOCTYPE svg PUBLIC "-//W3C//DTD SVG 1.1//EN"
 "http://www.w3.org/Graphics/SVG/1.1/DTD/svg11.dtd">
<!-- Generated by graphviz version 2.38.0 (20140413.2041)
 -->
<!-- Title: %3 Pages: 1 -->
<svg width="787pt" height="191pt"
 viewBox="0.00 0.00 787.00 191.00" xmlns="http://www.w3.org/2000/svg" xmlns:xlink="http://www.w3.org/1999/xlink">
<g id="graph0" class="graph" transform="scale(1 1) rotate(0) translate(4 187)">
<title>%3</title>
<polygon fill="white" stroke="none" points="-4,4 -4,-187 783,-187 783,4 -4,4"/>
<!-- ImprovedSyntaxHighlighting -->
<g id="node1" class="node"><title>ImprovedSyntaxHighlighting</title>
<polygon fill="none" stroke="gray" points="0,-146.5 0,-182.5 187,-182.5 187,-146.5 0,-146.5"/>
<text text-anchor="start" x="8" y="-168.3" font-family="Times New Roman,serif" font-size="14.00" fill="gray">Improved Syntax Highlighting </text>
<text text-anchor="start" x="64" y="-154.3" font-family="Times New Roman,serif" font-size="14.00" fill="gray"> </text>
<text text-anchor="start" x="68" y="-154.3" font-family="Times New Roman,serif" font-style="italic" font-size="14.00" fill="gray">Complete</text>
</g>
<!-- BetterMobile -->
<g id="node2" class="node"><title>BetterMobile</title>
<polygon fill="none" stroke="gray" points="45.5,-73.5 45.5,-109.5 141.5,-109.5 141.5,-73.5 45.5,-73.5"/>
<text text-anchor="start" x="53.5" y="-95.3" font-family="Times New Roman,serif" font-size="14.00" fill="gray">Better Mobile </text>
<text text-anchor="start" x="64" y="-81.3" font-family="Times New Roman,serif" font-size="14.00" fill="gray"> </text>
<text text-anchor="start" x="68" y="-81.3" font-family="Times New Roman,serif" font-style="italic" font-size="14.00" fill="gray">Complete</text>
</g>
<!-- ImprovedSyntaxHighlighting&#45;&gt;BetterMobile -->
<g id="edge1" class="edge"><title>ImprovedSyntaxHighlighting&#45;&gt;BetterMobile</title>
<path fill="none" stroke="black" d="M93.5,-146.313C93.5,-138.289 93.5,-128.547 93.5,-119.569"/>
<polygon fill="black" stroke="black" points="97.0001,-119.529 93.5,-109.529 90.0001,-119.529 97.0001,-119.529"/>
</g>
<!-- ProjectPages -->
<g id="node3" class="node"><title>ProjectPages</title>
<polygon fill="none" stroke="gray" points="205,-146.5 205,-182.5 302,-182.5 302,-146.5 205,-146.5"/>
<text text-anchor="start" x="213" y="-168.3" font-family="Times New Roman,serif" font-size="14.00" fill="gray">Project Pages </text>
<text text-anchor="start" x="224" y="-154.3" font-family="Times New Roman,serif" font-size="14.00" fill="gray"> </text>
<text text-anchor="start" x="228" y="-154.3" font-family="Times New Roman,serif" font-style="italic" font-size="14.00" fill="gray">Complete</text>
</g>
<!-- PostTags -->
<g id="node4" class="node"><title>PostTags</title>
<polygon fill="none" stroke="black" points="216.5,-73.5 216.5,-109.5 290.5,-109.5 290.5,-73.5 216.5,-73.5"/>
<text text-anchor="start" x="224.5" y="-87.8" font-family="Times New Roman,serif" font-size="14.00">Post Tags</text>
</g>
<!-- ProjectPages&#45;&gt;PostTags -->
<g id="edge2" class="edge"><title>ProjectPages&#45;&gt;PostTags</title>
<path fill="none" stroke="black" d="M253.5,-146.313C253.5,-138.289 253.5,-128.547 253.5,-119.569"/>
<polygon fill="black" stroke="black" points="257,-119.529 253.5,-109.529 250,-119.529 257,-119.529"/>
</g>
<!-- BetterRelatedPostLists -->
<g id="node5" class="node"><title>BetterRelatedPostLists</title>
<polygon fill="none" stroke="black" points="176,-0.5 176,-36.5 331,-36.5 331,-0.5 176,-0.5"/>
<text text-anchor="start" x="184" y="-14.8" font-family="Times New Roman,serif" font-size="14.00">Better Related Post Lists</text>
</g>
<!-- PostTags&#45;&gt;BetterRelatedPostLists -->
<g id="edge3" class="edge"><title>PostTags&#45;&gt;BetterRelatedPostLists</title>
<path fill="none" stroke="black" d="M253.5,-73.3129C253.5,-65.2895 253.5,-55.5475 253.5,-46.5691"/>
<polygon fill="black" stroke="black" points="257,-46.5288 253.5,-36.5288 250,-46.5289 257,-46.5288"/>
</g>
<!-- StyleImprovements -->
<g id="node6" class="node"><title>StyleImprovements</title>
<polygon fill="none" stroke="gray" points="441.5,-146.5 441.5,-182.5 573.5,-182.5 573.5,-146.5 441.5,-146.5"/>
<text text-anchor="start" x="449.5" y="-168.3" font-family="Times New Roman,serif" font-size="14.00" fill="gray">Style Improvements </text>
<text text-anchor="start" x="478" y="-154.3" font-family="Times New Roman,serif" font-size="14.00" fill="gray"> </text>
<text text-anchor="start" x="482" y="-154.3" font-family="Times New Roman,serif" font-style="italic" font-size="14.00" fill="gray">Complete</text>
</g>
<!-- Comments -->
<g id="node7" class="node"><title>Comments</title>
<polygon fill="none" stroke="gray" points="309,-73.5 309,-109.5 390,-109.5 390,-73.5 309,-73.5"/>
<text text-anchor="start" x="317" y="-95.3" font-family="Times New Roman,serif" font-size="14.00" fill="gray">Comments </text>
<text text-anchor="start" x="320" y="-81.3" font-family="Times New Roman,serif" font-size="14.00" fill="gray"> </text>
<text text-anchor="start" x="324" y="-81.3" font-family="Times New Roman,serif" font-style="italic" font-size="14.00" fill="gray">Complete</text>
</g>
<!-- StyleImprovements&#45;&gt;Comments -->
<g id="edge4" class="edge"><title>StyleImprovements&#45;&gt;Comments</title>
<path fill="none" stroke="black" d="M469.655,-146.494C447.83,-136.686 420.191,-124.266 396.925,-113.811"/>
<polygon fill="black" stroke="black" points="398.14,-110.52 387.584,-109.614 395.271,-116.905 398.14,-110.52"/>
</g>
<!-- IntegrateSunsetColorSimulator -->
<g id="node8" class="node"><title>IntegrateSunsetColorSimulator</title>
<polygon fill="none" stroke="black" points="408,-73.5 408,-109.5 607,-109.5 607,-73.5 408,-73.5"/>
<text text-anchor="start" x="416" y="-87.8" font-family="Times New Roman,serif" font-size="14.00">Integrate Sunset Color Simulator</text>
</g>
<!-- StyleImprovements&#45;&gt;IntegrateSunsetColorSimulator -->
<g id="edge5" class="edge"><title>StyleImprovements&#45;&gt;IntegrateSunsetColorSimulator</title>
<path fill="none" stroke="black" d="M507.5,-146.313C507.5,-138.289 507.5,-128.547 507.5,-119.569"/>
<polygon fill="black" stroke="black" points="511,-119.529 507.5,-109.529 504,-119.529 511,-119.529"/>
</g>
<!-- Search -->
<g id="node9" class="node"><title>Search</title>
<polygon fill="none" stroke="black" points="625,-73.5 625,-109.5 680,-109.5 680,-73.5 625,-73.5"/>
<text text-anchor="middle" x="652.5" y="-87.8" font-family="Times New Roman,serif" font-size="14.00">Search</text>
</g>
<!-- StyleImprovements&#45;&gt;Search -->
<g id="edge6" class="edge"><title>StyleImprovements&#45;&gt;Search</title>
<path fill="none" stroke="black" d="M542.231,-146.494C564.371,-135.653 593.03,-121.62 615.582,-110.577"/>
<polygon fill="black" stroke="black" points="617.394,-113.587 624.836,-106.046 614.316,-107.3 617.394,-113.587"/>
</g>
<!-- NextandPreviousPostLinks -->
<g id="node10" class="node"><title>NextandPreviousPostLinks</title>
<polygon fill="none" stroke="gray" points="592,-146.5 592,-182.5 779,-182.5 779,-146.5 592,-146.5"/>
<text text-anchor="start" x="600" y="-168.3" font-family="Times New Roman,serif" font-size="14.00" fill="gray">Next and Previous Post Links </text>
<text text-anchor="start" x="656" y="-154.3" font-family="Times New Roman,serif" font-size="14.00" fill="gray"> </text>
<text text-anchor="start" x="660" y="-154.3" font-family="Times New Roman,serif" font-style="italic" font-size="14.00" fill="gray">Complete</text>
</g>
</g>
</svg>
