<?xml version="1.0" encoding="UTF-8" standalone="no"?>
<!DOCTYPE svg PUBLIC "-//W3C//DTD SVG 1.1//EN"
 "http://www.w3.org/Graphics/SVG/1.1/DTD/svg11.dtd">
<!-- Generated by graphviz version 2.38.0 (20140413.2041)
 -->
<!-- Title: %3 Pages: 1 -->
<svg width="689pt" height="483pt"
 viewBox="0.00 0.00 689.26 483.00" xmlns="http://www.w3.org/2000/svg" xmlns:xlink="http://www.w3.org/1999/xlink">
<g id="graph0" class="graph" transform="scale(1 1) rotate(0) translate(4 479)">
<title>%3</title>
<polygon fill="white" stroke="none" points="-4,4 -4,-479 685.259,-479 685.259,4 -4,4"/>
<!-- Renderer -->
<g id="node1" class="node"><title>Renderer</title>
<polygon fill="none" stroke="gray" points="227.259,-438.5 227.259,-474.5 302.259,-474.5 302.259,-438.5 227.259,-438.5"/>
<text text-anchor="start" x="237.259" y="-460.3" font-family="Times New Roman,serif" font-size="14.00" fill="gray">Renderer </text>
<text text-anchor="start" x="235.259" y="-446.3" font-family="Times New Roman,serif" font-size="14.00" fill="gray"> </text>
<text text-anchor="start" x="239.259" y="-446.3" font-family="Times New Roman,serif" font-style="italic" font-size="14.00" fill="gray">Complete</text>
</g>
<!-- Grid -->
<g id="node2" class="node"><title>Grid</title>
<polygon fill="none" stroke="gray" points="274.259,-365.5 274.259,-401.5 349.259,-401.5 349.259,-365.5 274.259,-365.5"/>
<text text-anchor="start" x="296.759" y="-387.3" font-family="Times New Roman,serif" font-size="14.00" fill="gray">Grid </text>
<text text-anchor="start" x="282.259" y="-373.3" font-family="Times New Roman,serif" font-size="14.00" fill="gray"> </text>
<text text-anchor="start" x="286.259" y="-373.3" font-family="Times New Roman,serif" font-style="italic" font-size="14.00" fill="gray">Complete</text>
</g>
<!-- Renderer&#45;&gt;Grid -->
<g id="edge1" class="edge"><title>Renderer&#45;&gt;Grid</title>
<path fill="none" stroke="black" d="M276.136,-438.313C281.736,-429.853 288.601,-419.484 294.804,-410.112"/>
<polygon fill="black" stroke="black" points="297.885,-411.799 300.486,-401.529 292.048,-407.935 297.885,-411.799"/>
</g>
<!-- Touch -->
<g id="node3" class="node"><title>Touch</title>
<polygon fill="none" stroke="gray" points="181.259,-365.5 181.259,-401.5 256.259,-401.5 256.259,-365.5 181.259,-365.5"/>
<text text-anchor="start" x="198.259" y="-387.3" font-family="Times New Roman,serif" font-size="14.00" fill="gray">Touch </text>
<text text-anchor="start" x="189.259" y="-373.3" font-family="Times New Roman,serif" font-size="14.00" fill="gray"> </text>
<text text-anchor="start" x="193.259" y="-373.3" font-family="Times New Roman,serif" font-style="italic" font-size="14.00" fill="gray">Complete</text>
</g>
<!-- Renderer&#45;&gt;Touch -->
<g id="edge2" class="edge"><title>Renderer&#45;&gt;Touch</title>
<path fill="none" stroke="black" d="M253.623,-438.313C248.143,-429.853 241.424,-419.484 235.353,-410.112"/>
<polygon fill="black" stroke="black" points="238.166,-408.018 229.791,-401.529 232.292,-411.824 238.166,-408.018"/>
</g>
<!-- Advancing -->
<g id="node4" class="node"><title>Advancing</title>
<polygon fill="none" stroke="black" points="298.259,-292.5 298.259,-328.5 385.259,-328.5 385.259,-292.5 298.259,-292.5"/>
<text text-anchor="start" x="309.759" y="-314.3" font-family="Times New Roman,serif" font-size="14.00">Advancing </text>
<text text-anchor="start" x="306.259" y="-300.3" font-family="Times New Roman,serif" font-size="14.00"> </text>
<text text-anchor="start" x="310.259" y="-300.3" font-family="Times New Roman,serif" font-style="italic" font-size="14.00">In Progress</text>
</g>
<!-- Grid&#45;&gt;Advancing -->
<g id="edge3" class="edge"><title>Grid&#45;&gt;Advancing</title>
<path fill="none" stroke="black" d="M319.021,-365.313C322.485,-357.115 326.707,-347.123 330.568,-337.985"/>
<polygon fill="black" stroke="black" points="333.895,-339.103 334.563,-328.529 327.447,-336.378 333.895,-339.103"/>
</g>
<!-- BlockDragging -->
<g id="node6" class="node"><title>BlockDragging</title>
<polygon fill="none" stroke="black" points="137.759,-292.5 137.759,-328.5 241.759,-328.5 241.759,-292.5 137.759,-292.5"/>
<text text-anchor="start" x="145.759" y="-306.8" font-family="Times New Roman,serif" font-size="14.00">Block Dragging</text>
</g>
<!-- Grid&#45;&gt;BlockDragging -->
<g id="edge4" class="edge"><title>Grid&#45;&gt;BlockDragging</title>
<path fill="none" stroke="black" d="M282.537,-365.494C266.209,-355.991 245.666,-344.036 228.064,-333.792"/>
<polygon fill="black" stroke="black" points="229.569,-330.618 219.165,-328.614 226.048,-336.669 229.569,-330.618"/>
</g>
<!-- Touch&#45;&gt;BlockDragging -->
<g id="edge5" class="edge"><title>Touch&#45;&gt;BlockDragging</title>
<path fill="none" stroke="black" d="M211.739,-365.313C208.39,-357.115 204.309,-347.123 200.576,-337.985"/>
<polygon fill="black" stroke="black" points="203.736,-336.463 196.714,-328.529 197.255,-339.11 203.736,-336.463"/>
</g>
<!-- IntentionalAdvance -->
<g id="node9" class="node"><title>IntentionalAdvance</title>
<polygon fill="none" stroke="black" points="239.759,-219.5 239.759,-255.5 367.759,-255.5 367.759,-219.5 239.759,-219.5"/>
<text text-anchor="start" x="247.759" y="-233.8" font-family="Times New Roman,serif" font-size="14.00">Intentional Advance</text>
</g>
<!-- Touch&#45;&gt;IntentionalAdvance -->
<g id="edge6" class="edge"><title>Touch&#45;&gt;IntentionalAdvance</title>
<path fill="none" stroke="black" d="M229.176,-365.176C235.452,-354.715 243.592,-341.108 250.759,-329 263.631,-307.251 278.126,-282.481 288.699,-264.36"/>
<polygon fill="black" stroke="black" points="291.828,-265.943 293.842,-255.541 285.781,-262.416 291.828,-265.943"/>
</g>
<!-- NewRows -->
<g id="node5" class="node"><title>NewRows</title>
<polygon fill="none" stroke="black" points="386.259,-219.5 386.259,-255.5 473.259,-255.5 473.259,-219.5 386.259,-219.5"/>
<text text-anchor="start" x="396.259" y="-241.3" font-family="Times New Roman,serif" font-size="14.00">New Rows </text>
<text text-anchor="start" x="394.259" y="-227.3" font-family="Times New Roman,serif" font-size="14.00"> </text>
<text text-anchor="start" x="398.259" y="-227.3" font-family="Times New Roman,serif" font-style="italic" font-size="14.00">In Progress</text>
</g>
<!-- Advancing&#45;&gt;NewRows -->
<g id="edge7" class="edge"><title>Advancing&#45;&gt;NewRows</title>
<path fill="none" stroke="black" d="M363.061,-292.313C374.411,-283.156 388.535,-271.76 400.86,-261.816"/>
<polygon fill="black" stroke="black" points="403.067,-264.532 408.652,-255.529 398.672,-259.084 403.067,-264.532"/>
</g>
<!-- Advancing&#45;&gt;IntentionalAdvance -->
<g id="edge8" class="edge"><title>Advancing&#45;&gt;IntentionalAdvance</title>
<path fill="none" stroke="black" d="M332.56,-292.313C328.079,-283.941 322.597,-273.697 317.622,-264.403"/>
<polygon fill="black" stroke="black" points="320.677,-262.694 312.873,-255.529 314.506,-265.997 320.677,-262.694"/>
</g>
<!-- Lose -->
<g id="node14" class="node"><title>Lose</title>
<polygon fill="none" stroke="black" points="396.759,-146.5 396.759,-182.5 450.759,-182.5 450.759,-146.5 396.759,-146.5"/>
<text text-anchor="middle" x="423.759" y="-160.8" font-family="Times New Roman,serif" font-size="14.00">Lose</text>
</g>
<!-- NewRows&#45;&gt;Lose -->
<g id="edge9" class="edge"><title>NewRows&#45;&gt;Lose</title>
<path fill="none" stroke="black" d="M428.306,-219.313C427.628,-211.289 426.805,-201.547 426.046,-192.569"/>
<polygon fill="black" stroke="black" points="429.527,-192.199 425.198,-182.529 422.552,-192.788 429.527,-192.199"/>
</g>
<!-- Matches -->
<g id="node7" class="node"><title>Matches</title>
<polygon fill="none" stroke="black" points="157.759,-219.5 157.759,-255.5 221.759,-255.5 221.759,-219.5 157.759,-219.5"/>
<text text-anchor="middle" x="189.759" y="-233.8" font-family="Times New Roman,serif" font-size="14.00">Matches</text>
</g>
<!-- BlockDragging&#45;&gt;Matches -->
<g id="edge10" class="edge"><title>BlockDragging&#45;&gt;Matches</title>
<path fill="none" stroke="black" d="M189.759,-292.313C189.759,-284.289 189.759,-274.547 189.759,-265.569"/>
<polygon fill="black" stroke="black" points="193.259,-265.529 189.759,-255.529 186.259,-265.529 193.259,-265.529"/>
</g>
<!-- Falling -->
<g id="node8" class="node"><title>Falling</title>
<polygon fill="none" stroke="black" points="48.7587,-219.5 48.7587,-255.5 102.759,-255.5 102.759,-219.5 48.7587,-219.5"/>
<text text-anchor="middle" x="75.7587" y="-233.8" font-family="Times New Roman,serif" font-size="14.00">Falling</text>
</g>
<!-- BlockDragging&#45;&gt;Falling -->
<g id="edge11" class="edge"><title>BlockDragging&#45;&gt;Falling</title>
<path fill="none" stroke="black" d="M162.453,-292.494C147.224,-283.009 128.073,-271.081 111.645,-260.85"/>
<polygon fill="black" stroke="black" points="113.18,-257.683 102.842,-255.368 109.48,-263.625 113.18,-257.683"/>
</g>
<!-- StopClock -->
<g id="node10" class="node"><title>StopClock</title>
<polygon fill="none" stroke="black" points="279.259,-146.5 279.259,-182.5 360.259,-182.5 360.259,-146.5 279.259,-146.5"/>
<text text-anchor="start" x="287.259" y="-160.8" font-family="Times New Roman,serif" font-size="14.00">Stop Clock</text>
</g>
<!-- Matches&#45;&gt;StopClock -->
<g id="edge12" class="edge"><title>Matches&#45;&gt;StopClock</title>
<path fill="none" stroke="black" d="M220.897,-219.494C238.455,-209.904 260.587,-197.817 279.457,-187.511"/>
<polygon fill="black" stroke="black" points="281.325,-190.479 288.424,-182.614 277.97,-184.335 281.325,-190.479"/>
</g>
<!-- ClearAnimation -->
<g id="node12" class="node"><title>ClearAnimation</title>
<polygon fill="none" stroke="black" points="154.259,-146.5 154.259,-182.5 261.259,-182.5 261.259,-146.5 154.259,-146.5"/>
<text text-anchor="start" x="162.259" y="-160.8" font-family="Times New Roman,serif" font-size="14.00">Clear Animation</text>
</g>
<!-- Matches&#45;&gt;ClearAnimation -->
<g id="edge13" class="edge"><title>Matches&#45;&gt;ClearAnimation</title>
<path fill="none" stroke="black" d="M194.116,-219.313C196.172,-211.202 198.674,-201.336 200.97,-192.277"/>
<polygon fill="black" stroke="black" points="204.377,-193.082 203.441,-182.529 197.591,-191.362 204.377,-193.082"/>
</g>
<!-- TumbleAnimation -->
<g id="node11" class="node"><title>TumbleAnimation</title>
<polygon fill="none" stroke="black" points="15.7587,-146.5 15.7587,-182.5 135.759,-182.5 135.759,-146.5 15.7587,-146.5"/>
<text text-anchor="start" x="23.7587" y="-160.8" font-family="Times New Roman,serif" font-size="14.00">Tumble Animation</text>
</g>
<!-- Falling&#45;&gt;TumbleAnimation -->
<g id="edge14" class="edge"><title>Falling&#45;&gt;TumbleAnimation</title>
<path fill="none" stroke="black" d="M75.7587,-219.313C75.7587,-211.289 75.7587,-201.547 75.7587,-192.569"/>
<polygon fill="black" stroke="black" points="79.2588,-192.529 75.7587,-182.529 72.2588,-192.529 79.2588,-192.529"/>
</g>
<!-- Combo -->
<g id="node13" class="node"><title>Combo</title>
<polygon fill="none" stroke="black" points="216.259,-73.5 216.259,-109.5 275.259,-109.5 275.259,-73.5 216.259,-73.5"/>
<text text-anchor="middle" x="245.759" y="-87.8" font-family="Times New Roman,serif" font-size="14.00">Combo</text>
</g>
<!-- Falling&#45;&gt;Combo -->
<g id="edge15" class="edge"><title>Falling&#45;&gt;Combo</title>
<path fill="none" stroke="black" d="M48.7211,-223.444C33.3597,-214.423 15.4964,-200.831 6.75867,-183 -0.477352,-168.233 -3.52113,-158.835 6.75867,-146 31.2571,-115.411 144.394,-101.135 205.816,-95.5391"/>
<polygon fill="black" stroke="black" points="206.274,-99.0125 215.93,-94.6535 205.663,-92.0392 206.274,-99.0125"/>
</g>
<!-- StopClock&#45;&gt;Combo -->
<g id="edge16" class="edge"><title>StopClock&#45;&gt;Combo</title>
<path fill="none" stroke="black" d="M301.845,-146.313C292.574,-137.417 281.101,-126.409 270.952,-116.672"/>
<polygon fill="black" stroke="black" points="273.146,-113.927 263.507,-109.529 268.3,-118.978 273.146,-113.927"/>
</g>
<!-- ClearAnimation&#45;&gt;Combo -->
<g id="edge17" class="edge"><title>ClearAnimation&#45;&gt;Combo</title>
<path fill="none" stroke="black" d="M216.957,-146.313C221.438,-137.941 226.921,-127.697 231.895,-118.403"/>
<polygon fill="black" stroke="black" points="235.012,-119.997 236.645,-109.529 228.84,-116.694 235.012,-119.997"/>
</g>
<!-- Garbage -->
<g id="node21" class="node"><title>Garbage</title>
<polygon fill="none" stroke="black" points="384.759,-0.5 384.759,-36.5 448.759,-36.5 448.759,-0.5 384.759,-0.5"/>
<text text-anchor="middle" x="416.759" y="-14.8" font-family="Times New Roman,serif" font-size="14.00">Garbage</text>
</g>
<!-- Combo&#45;&gt;Garbage -->
<g id="edge18" class="edge"><title>Combo&#45;&gt;Garbage</title>
<path fill="none" stroke="black" d="M275.545,-78.1327C303.088,-66.6964 344.296,-49.587 375.097,-36.7981"/>
<polygon fill="black" stroke="black" points="376.808,-39.8774 384.701,-32.8103 374.124,-33.4125 376.808,-39.8774"/>
</g>
<!-- DangerAnimation -->
<g id="node15" class="node"><title>DangerAnimation</title>
<polygon fill="none" stroke="black" points="331.259,-73.5 331.259,-109.5 448.259,-109.5 448.259,-73.5 331.259,-73.5"/>
<text text-anchor="start" x="339.259" y="-87.8" font-family="Times New Roman,serif" font-size="14.00">Danger Animation</text>
</g>
<!-- Lose&#45;&gt;DangerAnimation -->
<g id="edge19" class="edge"><title>Lose&#45;&gt;DangerAnimation</title>
<path fill="none" stroke="black" d="M415.528,-146.313C411.561,-138.028 406.716,-127.91 402.302,-118.693"/>
<polygon fill="black" stroke="black" points="405.389,-117.036 397.913,-109.529 399.076,-120.06 405.389,-117.036"/>
</g>
<!-- Replay -->
<g id="node23" class="node"><title>Replay</title>
<polygon fill="none" stroke="black" points="466.759,-73.5 466.759,-109.5 522.759,-109.5 522.759,-73.5 466.759,-73.5"/>
<text text-anchor="middle" x="494.759" y="-87.8" font-family="Times New Roman,serif" font-size="14.00">Replay</text>
</g>
<!-- Lose&#45;&gt;Replay -->
<g id="edge20" class="edge"><title>Lose&#45;&gt;Replay</title>
<path fill="none" stroke="black" d="M440.946,-146.313C449.841,-137.417 460.849,-126.409 470.587,-116.672"/>
<polygon fill="black" stroke="black" points="473.134,-119.075 477.73,-109.529 468.184,-114.125 473.134,-119.075"/>
</g>
<!-- Server -->
<g id="node16" class="node"><title>Server</title>
<polygon fill="none" stroke="black" points="561.759,-438.5 561.759,-474.5 615.759,-474.5 615.759,-438.5 561.759,-438.5"/>
<text text-anchor="middle" x="588.759" y="-452.8" font-family="Times New Roman,serif" font-size="14.00">Server</text>
</g>
<!-- Host -->
<g id="node17" class="node"><title>Host</title>
<polygon fill="none" stroke="black" points="515.759,-365.5 515.759,-401.5 569.759,-401.5 569.759,-365.5 515.759,-365.5"/>
<text text-anchor="middle" x="542.759" y="-379.8" font-family="Times New Roman,serif" font-size="14.00">Host</text>
</g>
<!-- Server&#45;&gt;Host -->
<g id="edge21" class="edge"><title>Server&#45;&gt;Host</title>
<path fill="none" stroke="black" d="M577.623,-438.313C572.143,-429.853 565.424,-419.484 559.353,-410.112"/>
<polygon fill="black" stroke="black" points="562.166,-408.018 553.791,-401.529 556.292,-411.824 562.166,-408.018"/>
</g>
<!-- Disconnected -->
<g id="node19" class="node"><title>Disconnected</title>
<polygon fill="none" stroke="black" points="588.259,-365.5 588.259,-401.5 681.259,-401.5 681.259,-365.5 588.259,-365.5"/>
<text text-anchor="middle" x="634.759" y="-379.8" font-family="Times New Roman,serif" font-size="14.00">Disconnected</text>
</g>
<!-- Server&#45;&gt;Disconnected -->
<g id="edge22" class="edge"><title>Server&#45;&gt;Disconnected</title>
<path fill="none" stroke="black" d="M599.894,-438.313C605.375,-429.853 612.093,-419.484 618.165,-410.112"/>
<polygon fill="black" stroke="black" points="621.226,-411.824 623.726,-401.529 615.351,-408.018 621.226,-411.824"/>
</g>
<!-- Join -->
<g id="node18" class="node"><title>Join</title>
<polygon fill="none" stroke="black" points="543.759,-292.5 543.759,-328.5 597.759,-328.5 597.759,-292.5 543.759,-292.5"/>
<text text-anchor="middle" x="570.759" y="-306.8" font-family="Times New Roman,serif" font-size="14.00">Join</text>
</g>
<!-- Host&#45;&gt;Join -->
<g id="edge23" class="edge"><title>Host&#45;&gt;Join</title>
<path fill="none" stroke="black" d="M549.537,-365.313C552.77,-357.115 556.71,-347.123 560.314,-337.985"/>
<polygon fill="black" stroke="black" points="563.63,-339.116 564.043,-328.529 557.118,-336.548 563.63,-339.116"/>
</g>
<!-- ShareState -->
<g id="node20" class="node"><title>ShareState</title>
<polygon fill="none" stroke="black" points="503.759,-219.5 503.759,-255.5 583.759,-255.5 583.759,-219.5 503.759,-219.5"/>
<text text-anchor="start" x="511.759" y="-233.8" font-family="Times New Roman,serif" font-size="14.00">Share State</text>
</g>
<!-- Host&#45;&gt;ShareState -->
<g id="edge24" class="edge"><title>Host&#45;&gt;ShareState</title>
<path fill="none" stroke="black" d="M539.51,-365.225C537.713,-354.781 535.664,-341.175 534.759,-329 533.539,-312.601 533.39,-308.387 534.759,-292 535.475,-283.421 536.828,-274.147 538.27,-265.769"/>
<polygon fill="black" stroke="black" points="541.745,-266.223 540.105,-255.755 534.86,-264.961 541.745,-266.223"/>
</g>
<!-- Join&#45;&gt;ShareState -->
<g id="edge25" class="edge"><title>Join&#45;&gt;ShareState</title>
<path fill="none" stroke="black" d="M564.223,-292.313C561.105,-284.115 557.305,-274.123 553.83,-264.985"/>
<polygon fill="black" stroke="black" points="557.06,-263.632 550.234,-255.529 550.518,-266.12 557.06,-263.632"/>
</g>
<!-- ShareState&#45;&gt;Garbage -->
<g id="edge26" class="edge"><title>ShareState&#45;&gt;Garbage</title>
<path fill="none" stroke="black" d="M547.706,-219.385C554.034,-187.453 562.809,-117.968 531.759,-73 514.97,-48.685 484.184,-35.161 458.689,-27.7961"/>
<polygon fill="black" stroke="black" points="459.424,-24.37 448.86,-25.1779 457.622,-31.1342 459.424,-24.37"/>
</g>
<!-- Win -->
<g id="node22" class="node"><title>Win</title>
<polygon fill="none" stroke="black" points="468.759,-146.5 468.759,-182.5 522.759,-182.5 522.759,-146.5 468.759,-146.5"/>
<text text-anchor="middle" x="495.759" y="-160.8" font-family="Times New Roman,serif" font-size="14.00">Win</text>
</g>
<!-- ShareState&#45;&gt;Win -->
<g id="edge27" class="edge"><title>ShareState&#45;&gt;Win</title>
<path fill="none" stroke="black" d="M532.139,-219.313C526.361,-210.766 519.265,-200.269 512.878,-190.823"/>
<polygon fill="black" stroke="black" points="515.771,-188.853 507.271,-182.529 509.972,-192.774 515.771,-188.853"/>
</g>
<!-- Win&#45;&gt;Replay -->
<g id="edge28" class="edge"><title>Win&#45;&gt;Replay</title>
<path fill="none" stroke="black" d="M495.517,-146.313C495.404,-138.289 495.266,-128.547 495.14,-119.569"/>
<polygon fill="black" stroke="black" points="498.639,-119.479 494.999,-109.529 491.64,-119.577 498.639,-119.479"/>
</g>
</g>
</svg>
