<svg xmlns="http://www.w3.org/2000/svg" xmlns:xlink="http://www.w3.org/1999/xlink" width="762pt" height="483pt" viewBox="0.00 0.00 762.06 483.00">
<g id="graph0" class="graph" transform="scale(1 1) rotate(0) translate(4 479)">
<title>%0</title>
<polygon fill="#ffffff" stroke="transparent" points="-4,4 -4,-479 758.0575,-479 758.0575,4 -4,4"/>
<!-- Server -->
<g id="node1" class="node">
<title>Server</title>
<polygon fill="none" stroke="#000000" points="57,-438.5 57,-474.5 111,-474.5 111,-438.5 57,-438.5"/>
<text text-anchor="middle" x="83.7665" y="-452.3" font-family="Times,serif" font-size="14.00" fill="#000000">Server</text>
</g>
<!-- Host -->
<g id="node2" class="node">
<title>Host</title>
<polygon fill="none" stroke="#000000" points="11,-365.5 11,-401.5 65,-401.5 65,-365.5 11,-365.5"/>
<text text-anchor="middle" x="37.7209" y="-379.3" font-family="Times,serif" font-size="14.00" fill="#000000">Host</text>
</g>
<!-- Server&#45;&gt;Host -->
<g id="edge1" class="edge">
<title>Server-&gt;Host</title>
<path fill="none" stroke="#000000" d="M72.6292,-438.4551C67.2662,-429.9441 60.7583,-419.6165 54.8385,-410.2219"/>
<polygon fill="#000000" stroke="#000000" points="57.6918,-408.1848 49.3994,-401.5904 51.7695,-411.9167 57.6918,-408.1848"/>
</g>
<!-- Disconnected -->
<g id="node3" class="node">
<title>Disconnected</title>
<polygon fill="none" stroke="#000000" points="82.9046,-365.5 82.9046,-401.5 175.0954,-401.5 175.0954,-365.5 82.9046,-365.5"/>
<text text-anchor="middle" x="129" y="-379.3" font-family="Times,serif" font-size="14.00" fill="#000000">Disconnected</text>
</g>
<!-- Server&#45;&gt;Disconnected -->
<g id="edge2" class="edge">
<title>Server-&gt;Disconnected</title>
<path fill="none" stroke="#000000" d="M95.1236,-438.4551C100.3701,-429.9441 106.7364,-419.6165 112.5276,-410.2219"/>
<polygon fill="#000000" stroke="#000000" points="115.5803,-411.9396 117.8484,-401.5904 109.6215,-408.2663 115.5803,-411.9396"/>
</g>
<!-- Join -->
<g id="node4" class="node">
<title>Join</title>
<polygon fill="none" stroke="#000000" points="0,-292.5 0,-328.5 54,-328.5 54,-292.5 0,-292.5"/>
<text text-anchor="middle" x="26.6676" y="-306.3" font-family="Times,serif" font-size="14.00" fill="#000000">Join</text>
</g>
<!-- Host&#45;&gt;Join -->
<g id="edge3" class="edge">
<title>Host-&gt;Join</title>
<path fill="none" stroke="#000000" d="M35.2809,-365.4551C34.0645,-357.3828 32.6019,-347.6764 31.2466,-338.6817"/>
<polygon fill="#000000" stroke="#000000" points="34.677,-337.9572 29.7259,-328.5904 27.7551,-339.0003 34.677,-337.9572"/>
</g>
<!-- ShareState -->
<g id="node5" class="node">
<title>ShareState</title>
<polygon fill="none" stroke="#000000" points="4.3173,-219.5 4.3173,-255.5 83.6827,-255.5 83.6827,-219.5 4.3173,-219.5"/>
<text text-anchor="start" x="12.3173" y="-233.3" font-family="Times,serif" font-size="14.00" fill="#000000">Share State</text>
</g>
<!-- Host&#45;&gt;ShareState -->
<g id="edge4" class="edge">
<title>Host-&gt;ShareState</title>
<path fill="none" stroke="#000000" d="M48.8888,-365.0316C54.294,-354.7917 60.2456,-341.6108 63,-329 66.509,-312.9343 65.7452,-308.2137 63,-292 61.4851,-283.0527 58.6642,-273.6153 55.651,-265.1544"/>
<polygon fill="#000000" stroke="#000000" points="58.9073,-263.8702 52.0921,-255.7583 52.3612,-266.3497 58.9073,-263.8702"/>
</g>
<!-- Join&#45;&gt;ShareState -->
<g id="edge5" class="edge">
<title>Join-&gt;ShareState</title>
<path fill="none" stroke="#000000" d="M31.2022,-292.4551C33.1025,-284.2951 35.3917,-274.4652 37.5054,-265.3887"/>
<polygon fill="#000000" stroke="#000000" points="40.9278,-266.1236 39.7872,-255.5904 34.1102,-264.5359 40.9278,-266.1236"/>
</g>
<!-- Win -->
<g id="node6" class="node">
<title>Win</title>
<polygon fill="none" stroke="#000000" points="71,-146.5 71,-182.5 125,-182.5 125,-146.5 71,-146.5"/>
<text text-anchor="middle" x="97.5526" y="-160.3" font-family="Times,serif" font-size="14.00" fill="#000000">Win</text>
</g>
<!-- ShareState&#45;&gt;Win -->
<g id="edge6" class="edge">
<title>ShareState-&gt;Win</title>
<path fill="none" stroke="#000000" d="M57.3483,-219.4551C63.7739,-210.7686 71.5993,-200.1898 78.6621,-190.642"/>
<polygon fill="#000000" stroke="#000000" points="81.4849,-192.7113 84.6181,-182.5904 75.8572,-188.5484 81.4849,-192.7113"/>
</g>
<!-- Multiplayer -->
<g id="node21" class="node">
<title>Multiplayer</title>
<polygon fill="none" stroke="#000000" points="188.9516,-.5 188.9516,-36.5 271.0484,-36.5 271.0484,-.5 188.9516,-.5"/>
<text text-anchor="middle" x="230" y="-14.3" font-family="Times,serif" font-size="14.00" fill="#000000">Multiplayer</text>
</g>
<!-- ShareState&#45;&gt;Multiplayer -->
<g id="edge7" class="edge">
<title>ShareState-&gt;Multiplayer</title>
<path fill="none" stroke="#000000" d="M40.1937,-219.3021C34.3927,-186.1838 27.3662,-115.5627 62,-73 76.9472,-54.6308 135.0218,-38.5868 178.7365,-28.7499"/>
<polygon fill="#000000" stroke="#000000" points="179.6489,-32.133 188.6633,-26.566 178.1449,-25.2965 179.6489,-32.133"/>
</g>
<!-- Replay -->
<g id="node8" class="node">
<title>Replay</title>
<polygon fill="none" stroke="#000000" points="71.1718,-73.5 71.1718,-109.5 126.8282,-109.5 126.8282,-73.5 71.1718,-73.5"/>
<text text-anchor="middle" x="99" y="-87.3" font-family="Times,serif" font-size="14.00" fill="#000000">Replay</text>
</g>
<!-- Win&#45;&gt;Replay -->
<g id="edge8" class="edge">
<title>Win-&gt;Replay</title>
<path fill="none" stroke="#000000" d="M98.2472,-146.4551C98.3578,-138.3828 98.4907,-128.6764 98.6139,-119.6817"/>
<polygon fill="#000000" stroke="#000000" points="102.1148,-119.6374 98.7522,-109.5904 95.1154,-119.5414 102.1148,-119.6374"/>
</g>
<!-- Lose -->
<g id="node7" class="node">
<title>Lose</title>
<polygon fill="none" stroke="#000000" points="313.5659,-146.5 313.5659,-182.5 396.4341,-182.5 396.4341,-146.5 313.5659,-146.5"/>
<text text-anchor="start" x="339.6441" y="-166.9" font-family="Times,serif" font-size="14.00" fill="#000000">Lose </text>
<text text-anchor="start" x="321.5659" y="-152.9" font-family="Times,serif" font-size="14.00" fill="#000000"> </text>
<text text-anchor="start" x="325.0659" y="-152.9" font-family="Times,serif" font-style="italic" font-size="14.00" fill="#000000">In Progress</text>
</g>
<!-- Lose&#45;&gt;Replay -->
<g id="edge9" class="edge">
<title>Lose-&gt;Replay</title>
<path fill="none" stroke="#000000" d="M313.3588,-153.5173C303.7266,-151.0137 293.513,-148.3884 284,-146 221.0204,-130.188 200.7494,-133.3772 136.7769,-110.296"/>
<polygon fill="#000000" stroke="#000000" points="137.6044,-106.8708 127.011,-106.6946 135.1823,-113.4384 137.6044,-106.8708"/>
</g>
<!-- DangerAnimation -->
<g id="node9" class="node">
<title>DangerAnimation</title>
<polygon fill="none" stroke="#000000" points="333.71,-73.5 333.71,-109.5 454.29,-109.5 454.29,-73.5 333.71,-73.5"/>
<text text-anchor="start" x="341.71" y="-87.3" font-family="Times,serif" font-size="14.00" fill="#000000">Danger Animation</text>
</g>
<!-- Lose&#45;&gt;DangerAnimation -->
<g id="edge10" class="edge">
<title>Lose-&gt;DangerAnimation</title>
<path fill="none" stroke="#000000" d="M364.6405,-146.4551C369.1405,-138.0319 374.5912,-127.8292 379.5685,-118.5128"/>
<polygon fill="#000000" stroke="#000000" points="382.7102,-120.0598 384.3353,-109.5904 376.536,-116.7613 382.7102,-120.0598"/>
</g>
<!-- NewRows -->
<g id="node10" class="node">
<title>NewRows</title>
<polygon fill="none" stroke="#c0c0c0" points="314.3422,-219.5 314.3422,-255.5 395.6578,-255.5 395.6578,-219.5 314.3422,-219.5"/>
<text text-anchor="start" x="322.3422" y="-239.9" font-family="Times,serif" font-size="14.00" fill="#c0c0c0">New Rows </text>
<text text-anchor="start" x="326.0312" y="-225.9" font-family="Times,serif" font-size="14.00" fill="#c0c0c0"> </text>
<text text-anchor="start" x="329.5312" y="-225.9" font-family="Times,serif" font-style="italic" font-size="14.00" fill="#c0c0c0">Complete</text>
</g>
<!-- NewRows&#45;&gt;Lose -->
<g id="edge11" class="edge">
<title>NewRows-&gt;Lose</title>
<path fill="none" stroke="#000000" d="M355,-219.4551C355,-211.3828 355,-201.6764 355,-192.6817"/>
<polygon fill="#000000" stroke="#000000" points="358.5001,-192.5903 355,-182.5904 351.5001,-192.5904 358.5001,-192.5903"/>
</g>
<!-- Advancing -->
<g id="node11" class="node">
<title>Advancing</title>
<polygon fill="none" stroke="#c0c0c0" points="373.5368,-292.5 373.5368,-328.5 454.4632,-328.5 454.4632,-292.5 373.5368,-292.5"/>
<text text-anchor="start" x="381.5368" y="-312.9" font-family="Times,serif" font-size="14.00" fill="#c0c0c0">Advancing </text>
<text text-anchor="start" x="385.0312" y="-298.9" font-family="Times,serif" font-size="14.00" fill="#c0c0c0"> </text>
<text text-anchor="start" x="388.5312" y="-298.9" font-family="Times,serif" font-style="italic" font-size="14.00" fill="#c0c0c0">Complete</text>
</g>
<!-- Advancing&#45;&gt;NewRows -->
<g id="edge12" class="edge">
<title>Advancing-&gt;NewRows</title>
<path fill="none" stroke="#000000" d="M399.4157,-292.4551C392.3952,-283.7686 383.8452,-273.1898 376.1285,-263.642"/>
<polygon fill="#000000" stroke="#000000" points="378.629,-261.1677 369.621,-255.5904 373.1848,-265.5678 378.629,-261.1677"/>
</g>
<!-- IntentionalAdvance -->
<g id="node12" class="node">
<title>IntentionalAdvance</title>
<polygon fill="none" stroke="#c0c0c0" points="413.2987,-219.5 413.2987,-255.5 546.7013,-255.5 546.7013,-219.5 413.2987,-219.5"/>
<text text-anchor="start" x="421.2987" y="-239.9" font-family="Times,serif" font-size="14.00" fill="#c0c0c0">Intentional Advance </text>
<text text-anchor="start" x="451.0312" y="-225.9" font-family="Times,serif" font-size="14.00" fill="#c0c0c0"> </text>
<text text-anchor="start" x="454.5312" y="-225.9" font-family="Times,serif" font-style="italic" font-size="14.00" fill="#c0c0c0">Complete</text>
</g>
<!-- Advancing&#45;&gt;IntentionalAdvance -->
<g id="edge13" class="edge">
<title>Advancing-&gt;IntentionalAdvance</title>
<path fill="none" stroke="#000000" d="M430.3146,-292.4551C438.3267,-283.5932 448.1196,-272.7616 456.8868,-263.0646"/>
<polygon fill="#000000" stroke="#000000" points="459.5341,-265.3554 463.6443,-255.5904 454.3416,-260.6609 459.5341,-265.3554"/>
</g>
<!-- ClearAnimation -->
<g id="node13" class="node">
<title>ClearAnimation</title>
<polygon fill="none" stroke="#c0c0c0" points="540.3997,-146.5 540.3997,-182.5 653.6003,-182.5 653.6003,-146.5 540.3997,-146.5"/>
<text text-anchor="start" x="548.3997" y="-166.9" font-family="Times,serif" font-size="14.00" fill="#c0c0c0">Clear Animation </text>
<text text-anchor="start" x="568.0312" y="-152.9" font-family="Times,serif" font-size="14.00" fill="#c0c0c0"> </text>
<text text-anchor="start" x="571.5312" y="-152.9" font-family="Times,serif" font-style="italic" font-size="14.00" fill="#c0c0c0">Complete</text>
</g>
<!-- Combo -->
<g id="node20" class="node">
<title>Combo</title>
<polygon fill="none" stroke="#c0c0c0" points="482.0312,-73.5 482.0312,-109.5 555.9688,-109.5 555.9688,-73.5 482.0312,-73.5"/>
<text text-anchor="start" x="496.6364" y="-93.9" font-family="Times,serif" font-size="14.00" fill="#c0c0c0">Combo </text>
<text text-anchor="start" x="490.0312" y="-79.9" font-family="Times,serif" font-size="14.00" fill="#c0c0c0"> </text>
<text text-anchor="start" x="493.5312" y="-79.9" font-family="Times,serif" font-style="italic" font-size="14.00" fill="#c0c0c0">Complete</text>
</g>
<!-- ClearAnimation&#45;&gt;Combo -->
<g id="edge14" class="edge">
<title>ClearAnimation-&gt;Combo</title>
<path fill="none" stroke="#000000" d="M577.7191,-146.4551C568.0627,-137.4177 556.2176,-126.3319 545.7016,-116.4899"/>
<polygon fill="#000000" stroke="#000000" points="548.0223,-113.8681 538.3294,-109.5904 543.239,-118.979 548.0223,-113.8681"/>
</g>
<!-- Grid -->
<g id="node14" class="node">
<title>Grid</title>
<polygon fill="none" stroke="#c0c0c0" points="377.0312,-365.5 377.0312,-401.5 450.9688,-401.5 450.9688,-365.5 377.0312,-365.5"/>
<text text-anchor="start" x="399.4211" y="-385.9" font-family="Times,serif" font-size="14.00" fill="#c0c0c0">Grid </text>
<text text-anchor="start" x="385.0312" y="-371.9" font-family="Times,serif" font-size="14.00" fill="#c0c0c0"> </text>
<text text-anchor="start" x="388.5312" y="-371.9" font-family="Times,serif" font-style="italic" font-size="14.00" fill="#c0c0c0">Complete</text>
</g>
<!-- Grid&#45;&gt;Advancing -->
<g id="edge15" class="edge">
<title>Grid-&gt;Advancing</title>
<path fill="none" stroke="#000000" d="M414,-365.4551C414,-357.3828 414,-347.6764 414,-338.6817"/>
<polygon fill="#000000" stroke="#000000" points="417.5001,-338.5903 414,-328.5904 410.5001,-338.5904 417.5001,-338.5903"/>
</g>
<!-- BlockDragging -->
<g id="node17" class="node">
<title>BlockDragging</title>
<polygon fill="none" stroke="#c0c0c0" points="517.3429,-292.5 517.3429,-328.5 626.6571,-328.5 626.6571,-292.5 517.3429,-292.5"/>
<text text-anchor="start" x="525.3429" y="-312.9" font-family="Times,serif" font-size="14.00" fill="#c0c0c0">Block Dragging </text>
<text text-anchor="start" x="543.0312" y="-298.9" font-family="Times,serif" font-size="14.00" fill="#c0c0c0"> </text>
<text text-anchor="start" x="546.5312" y="-298.9" font-family="Times,serif" font-style="italic" font-size="14.00" fill="#c0c0c0">Complete</text>
</g>
<!-- Grid&#45;&gt;BlockDragging -->
<g id="edge16" class="edge">
<title>Grid-&gt;BlockDragging</title>
<path fill="none" stroke="#000000" d="M451.044,-366.3847C472.6888,-356.3843 500.2531,-343.6489 523.6,-332.862"/>
<polygon fill="#000000" stroke="#000000" points="525.3735,-335.8982 532.9834,-328.5266 522.4375,-329.5437 525.3735,-335.8982"/>
</g>
<!-- Renderer -->
<g id="node15" class="node">
<title>Renderer</title>
<polygon fill="none" stroke="#c0c0c0" points="377.0312,-438.5 377.0312,-474.5 450.9688,-474.5 450.9688,-438.5 377.0312,-438.5"/>
<text text-anchor="start" x="386.5992" y="-458.9" font-family="Times,serif" font-size="14.00" fill="#c0c0c0">Renderer </text>
<text text-anchor="start" x="385.0312" y="-444.9" font-family="Times,serif" font-size="14.00" fill="#c0c0c0"> </text>
<text text-anchor="start" x="388.5312" y="-444.9" font-family="Times,serif" font-style="italic" font-size="14.00" fill="#c0c0c0">Complete</text>
</g>
<!-- Renderer&#45;&gt;Grid -->
<g id="edge17" class="edge">
<title>Renderer-&gt;Grid</title>
<path fill="none" stroke="#000000" d="M414,-438.4551C414,-430.3828 414,-420.6764 414,-411.6817"/>
<polygon fill="#000000" stroke="#000000" points="417.5001,-411.5903 414,-401.5904 410.5001,-411.5904 417.5001,-411.5903"/>
</g>
<!-- Touch -->
<g id="node16" class="node">
<title>Touch</title>
<polygon fill="none" stroke="#c0c0c0" points="469.0312,-365.5 469.0312,-401.5 542.9688,-401.5 542.9688,-365.5 469.0312,-365.5"/>
<text text-anchor="start" x="486.3664" y="-385.9" font-family="Times,serif" font-size="14.00" fill="#c0c0c0">Touch </text>
<text text-anchor="start" x="477.0312" y="-371.9" font-family="Times,serif" font-size="14.00" fill="#c0c0c0"> </text>
<text text-anchor="start" x="480.5312" y="-371.9" font-family="Times,serif" font-style="italic" font-size="14.00" fill="#c0c0c0">Complete</text>
</g>
<!-- Renderer&#45;&gt;Touch -->
<g id="edge18" class="edge">
<title>Renderer-&gt;Touch</title>
<path fill="none" stroke="#000000" d="M436.7416,-438.4551C448.3523,-429.2422 462.6458,-417.9006 475.2266,-407.918"/>
<polygon fill="#000000" stroke="#000000" points="477.5431,-410.5479 483.2012,-401.5904 473.1921,-405.0644 477.5431,-410.5479"/>
</g>
<!-- GarbageLineRendering -->
<g id="node25" class="node">
<title>GarbageLineRendering</title>
<polygon fill="none" stroke="#c0c0c0" points="198.0571,-365.5 198.0571,-401.5 355.9429,-401.5 355.9429,-365.5 198.0571,-365.5"/>
<text text-anchor="start" x="206.0571" y="-385.9" font-family="Times,serif" font-size="14.00" fill="#c0c0c0">Garbage Line Rendering </text>
<text text-anchor="start" x="248.0312" y="-371.9" font-family="Times,serif" font-size="14.00" fill="#c0c0c0"> </text>
<text text-anchor="start" x="251.5312" y="-371.9" font-family="Times,serif" font-style="italic" font-size="14.00" fill="#c0c0c0">Complete</text>
</g>
<!-- Renderer&#45;&gt;GarbageLineRendering -->
<g id="edge19" class="edge">
<title>Renderer-&gt;GarbageLineRendering</title>
<path fill="none" stroke="#000000" d="M380.1348,-438.4551C361.9393,-428.7596 339.3193,-416.7066 319.9036,-406.361"/>
<polygon fill="#000000" stroke="#000000" points="321.4216,-403.2041 310.9504,-401.5904 318.1298,-409.3818 321.4216,-403.2041"/>
</g>
<!-- Touch&#45;&gt;IntentionalAdvance -->
<g id="edge20" class="edge">
<title>Touch-&gt;IntentionalAdvance</title>
<path fill="none" stroke="#000000" d="M502.7597,-365.3042C498.3223,-340.3868 490.3099,-295.3938 485.0731,-265.9877"/>
<polygon fill="#000000" stroke="#000000" points="488.4803,-265.1566 483.2812,-255.9251 481.5887,-266.3839 488.4803,-265.1566"/>
</g>
<!-- Touch&#45;&gt;BlockDragging -->
<g id="edge21" class="edge">
<title>Touch-&gt;BlockDragging</title>
<path fill="none" stroke="#000000" d="M522.3146,-365.4551C530.3267,-356.5932 540.1196,-345.7616 548.8868,-336.0646"/>
<polygon fill="#000000" stroke="#000000" points="551.5341,-338.3554 555.6443,-328.5904 546.3416,-333.6609 551.5341,-338.3554"/>
</g>
<!-- Matches -->
<g id="node18" class="node">
<title>Matches</title>
<polygon fill="none" stroke="#c0c0c0" points="603.0312,-219.5 603.0312,-255.5 676.9688,-255.5 676.9688,-219.5 603.0312,-219.5"/>
<text text-anchor="start" x="614.5382" y="-239.9" font-family="Times,serif" font-size="14.00" fill="#c0c0c0">Matches </text>
<text text-anchor="start" x="611.0312" y="-225.9" font-family="Times,serif" font-size="14.00" fill="#c0c0c0"> </text>
<text text-anchor="start" x="614.5312" y="-225.9" font-family="Times,serif" font-style="italic" font-size="14.00" fill="#c0c0c0">Complete</text>
</g>
<!-- BlockDragging&#45;&gt;Matches -->
<g id="edge22" class="edge">
<title>BlockDragging-&gt;Matches</title>
<path fill="none" stroke="#000000" d="M588.809,-292.4551C597.0639,-283.5932 607.1535,-272.7616 616.1864,-263.0646"/>
<polygon fill="#000000" stroke="#000000" points="618.8937,-265.2932 623.1487,-255.5904 613.7716,-260.522 618.8937,-265.2932"/>
</g>
<!-- Falling -->
<g id="node22" class="node">
<title>Falling</title>
<polygon fill="none" stroke="#c0c0c0" points="448.0312,-146.5 448.0312,-182.5 521.9688,-182.5 521.9688,-146.5 448.0312,-146.5"/>
<text text-anchor="start" x="463.4155" y="-166.9" font-family="Times,serif" font-size="14.00" fill="#c0c0c0">Falling </text>
<text text-anchor="start" x="456.0312" y="-152.9" font-family="Times,serif" font-size="14.00" fill="#c0c0c0"> </text>
<text text-anchor="start" x="459.5312" y="-152.9" font-family="Times,serif" font-style="italic" font-size="14.00" fill="#c0c0c0">Complete</text>
</g>
<!-- BlockDragging&#45;&gt;Falling -->
<g id="edge23" class="edge">
<title>BlockDragging-&gt;Falling</title>
<path fill="none" stroke="#000000" d="M572.5949,-292.3065C572.4148,-272.8106 569.7022,-241.6211 556,-219 548.8147,-207.1377 538.0098,-196.9224 526.9825,-188.6475"/>
<polygon fill="#000000" stroke="#000000" points="528.7505,-185.6113 518.5627,-182.7027 524.713,-191.3297 528.7505,-185.6113"/>
</g>
<!-- Matches&#45;&gt;ClearAnimation -->
<g id="edge24" class="edge">
<title>Matches-&gt;ClearAnimation</title>
<path fill="none" stroke="#000000" d="M629.3708,-219.4551C624.3575,-210.9441 618.2741,-200.6165 612.7403,-191.2219"/>
<polygon fill="#000000" stroke="#000000" points="615.7471,-189.4303 607.656,-182.5904 609.7157,-192.9831 615.7471,-189.4303"/>
</g>
<!-- StopClock -->
<g id="node19" class="node">
<title>StopClock</title>
<polygon fill="none" stroke="#c0c0c0" points="671.9425,-146.5 671.9425,-182.5 754.0575,-182.5 754.0575,-146.5 671.9425,-146.5"/>
<text text-anchor="start" x="679.9425" y="-166.9" font-family="Times,serif" font-size="14.00" fill="#c0c0c0">Stop Clock </text>
<text text-anchor="start" x="684.0312" y="-152.9" font-family="Times,serif" font-size="14.00" fill="#c0c0c0"> </text>
<text text-anchor="start" x="687.5312" y="-152.9" font-family="Times,serif" font-style="italic" font-size="14.00" fill="#c0c0c0">Complete</text>
</g>
<!-- Matches&#45;&gt;StopClock -->
<g id="edge25" class="edge">
<title>Matches-&gt;StopClock</title>
<path fill="none" stroke="#000000" d="M658.0449,-219.4551C666.9946,-210.5054 677.953,-199.547 687.7231,-189.7769"/>
<polygon fill="#000000" stroke="#000000" points="690.3134,-192.1363 694.9096,-182.5904 685.3637,-187.1866 690.3134,-192.1363"/>
</g>
<!-- StopClock&#45;&gt;Combo -->
<g id="edge26" class="edge">
<title>StopClock-&gt;Combo</title>
<path fill="none" stroke="#000000" d="M671.8576,-149.0186C640.8121,-137.3365 598.1863,-121.2969 565.8335,-109.1229"/>
<polygon fill="#000000" stroke="#000000" points="566.7389,-105.7241 556.147,-105.478 564.2736,-112.2756 566.7389,-105.7241"/>
</g>
<!-- Combo&#45;&gt;Multiplayer -->
<g id="edge27" class="edge">
<title>Combo-&gt;Multiplayer</title>
<path fill="none" stroke="#000000" d="M481.7907,-78.6935C475.5461,-76.6924 469.1106,-74.7203 463,-73 400.9702,-55.5371 328.5655,-39.227 281.1333,-29.0843"/>
<polygon fill="#000000" stroke="#000000" points="281.6188,-25.6093 271.1095,-26.9532 280.163,-32.4563 281.6188,-25.6093"/>
</g>
<!-- Falling&#45;&gt;Combo -->
<g id="edge28" class="edge">
<title>Falling-&gt;Combo</title>
<path fill="none" stroke="#000000" d="M493.4045,-146.4551C497.2868,-138.1196 501.9806,-128.0416 506.283,-118.8042"/>
<polygon fill="#000000" stroke="#000000" points="509.525,-120.1331 510.5744,-109.5904 503.1795,-117.1776 509.525,-120.1331"/>
</g>
<!-- CameraShake -->
<g id="node23" class="node">
<title>CameraShake</title>
<polygon fill="none" stroke="#c0c0c0" points="195.6283,-219.5 195.6283,-255.5 296.3717,-255.5 296.3717,-219.5 195.6283,-219.5"/>
<text text-anchor="start" x="203.6283" y="-239.9" font-family="Times,serif" font-size="14.00" fill="#c0c0c0">Camera Shake </text>
<text text-anchor="start" x="217.0312" y="-225.9" font-family="Times,serif" font-size="14.00" fill="#c0c0c0"> </text>
<text text-anchor="start" x="220.5312" y="-225.9" font-family="Times,serif" font-style="italic" font-size="14.00" fill="#c0c0c0">Complete</text>
</g>
<!-- GarbagePhysics -->
<g id="node24" class="node">
<title>GarbagePhysics</title>
<polygon fill="none" stroke="#c0c0c0" points="189.406,-292.5 189.406,-328.5 302.594,-328.5 302.594,-292.5 189.406,-292.5"/>
<text text-anchor="start" x="197.406" y="-312.9" font-family="Times,serif" font-size="14.00" fill="#c0c0c0">Garbage Physics </text>
<text text-anchor="start" x="217.0312" y="-298.9" font-family="Times,serif" font-size="14.00" fill="#c0c0c0"> </text>
<text text-anchor="start" x="220.5312" y="-298.9" font-family="Times,serif" font-style="italic" font-size="14.00" fill="#c0c0c0">Complete</text>
</g>
<!-- GarbagePhysics&#45;&gt;CameraShake -->
<g id="edge29" class="edge">
<title>GarbagePhysics-&gt;CameraShake</title>
<path fill="none" stroke="#000000" d="M246,-292.4551C246,-284.3828 246,-274.6764 246,-265.6817"/>
<polygon fill="#000000" stroke="#000000" points="249.5001,-265.5903 246,-255.5904 242.5001,-265.5904 249.5001,-265.5903"/>
</g>
<!-- GarbageClearing -->
<g id="node28" class="node">
<title>GarbageClearing</title>
<polygon fill="none" stroke="#c0c0c0" points="156.6907,-146.5 156.6907,-182.5 275.3093,-182.5 275.3093,-146.5 156.6907,-146.5"/>
<text text-anchor="start" x="164.6907" y="-166.9" font-family="Times,serif" font-size="14.00" fill="#c0c0c0">Garbage Clearing </text>
<text text-anchor="start" x="187.0312" y="-152.9" font-family="Times,serif" font-size="14.00" fill="#c0c0c0"> </text>
<text text-anchor="start" x="190.5312" y="-152.9" font-family="Times,serif" font-style="italic" font-size="14.00" fill="#c0c0c0">Complete</text>
</g>
<!-- GarbagePhysics&#45;&gt;GarbageClearing -->
<g id="edge30" class="edge">
<title>GarbagePhysics-&gt;GarbageClearing</title>
<path fill="none" stroke="#000000" d="M217.8723,-292.4828C205.9881,-283.1809 193.429,-270.6909 187,-256 177.7984,-234.9736 186.8921,-210.0869 197.2584,-191.5799"/>
<polygon fill="#000000" stroke="#000000" points="200.3867,-193.1692 202.5395,-182.7953 194.3874,-189.5625 200.3867,-193.1692"/>
</g>
<!-- GarbageLineRendering&#45;&gt;GarbagePhysics -->
<g id="edge31" class="edge">
<title>GarbageLineRendering-&gt;GarbagePhysics</title>
<path fill="none" stroke="#000000" d="M269.3371,-365.4551C265.7974,-357.1196 261.5177,-347.0416 257.5949,-337.8042"/>
<polygon fill="#000000" stroke="#000000" points="260.8126,-336.4267 253.6822,-328.5904 254.3694,-339.1629 260.8126,-336.4267"/>
</g>
<!-- GarbageImages -->
<g id="node26" class="node">
<title>GarbageImages</title>
<polygon fill="none" stroke="#c0c0c0" points="221.582,-438.5 221.582,-474.5 332.418,-474.5 332.418,-438.5 221.582,-438.5"/>
<text text-anchor="start" x="229.582" y="-458.9" font-family="Times,serif" font-size="14.00" fill="#c0c0c0">Garbage Images </text>
<text text-anchor="start" x="248.0312" y="-444.9" font-family="Times,serif" font-size="14.00" fill="#c0c0c0"> </text>
<text text-anchor="start" x="251.5312" y="-444.9" font-family="Times,serif" font-style="italic" font-size="14.00" fill="#c0c0c0">Complete</text>
</g>
<!-- GarbageImages&#45;&gt;GarbageLineRendering -->
<g id="edge32" class="edge">
<title>GarbageImages-&gt;GarbageLineRendering</title>
<path fill="none" stroke="#000000" d="M277,-438.4551C277,-430.3828 277,-420.6764 277,-411.6817"/>
<polygon fill="#000000" stroke="#000000" points="280.5001,-411.5903 277,-401.5904 273.5001,-411.5904 280.5001,-411.5903"/>
</g>
<!-- GarbageComboExtension -->
<g id="node27" class="node">
<title>GarbageComboExtension</title>
<polygon fill="none" stroke="#000000" points="144.4344,-73.5 144.4344,-109.5 315.5656,-109.5 315.5656,-73.5 144.4344,-73.5"/>
<text text-anchor="start" x="152.4344" y="-93.9" font-family="Times,serif" font-size="14.00" fill="#000000">Garbage Combo Extension </text>
<text text-anchor="start" x="196.5659" y="-79.9" font-family="Times,serif" font-size="14.00" fill="#000000"> </text>
<text text-anchor="start" x="200.0659" y="-79.9" font-family="Times,serif" font-style="italic" font-size="14.00" fill="#000000">In Progress</text>
</g>
<!-- GarbageComboExtension&#45;&gt;Multiplayer -->
<g id="edge33" class="edge">
<title>GarbageComboExtension-&gt;Multiplayer</title>
<path fill="none" stroke="#000000" d="M230,-73.4551C230,-65.3828 230,-55.6764 230,-46.6817"/>
<polygon fill="#000000" stroke="#000000" points="233.5001,-46.5903 230,-36.5904 226.5001,-46.5904 233.5001,-46.5903"/>
</g>
<!-- GarbageClearing&#45;&gt;GarbageComboExtension -->
<g id="edge34" class="edge">
<title>GarbageClearing-&gt;GarbageComboExtension</title>
<path fill="none" stroke="#000000" d="M219.4607,-146.4551C221.0088,-138.3828 222.8703,-128.6764 224.5953,-119.6817"/>
<polygon fill="#000000" stroke="#000000" points="228.0844,-120.0706 226.5306,-109.5904 221.2097,-118.7521 228.0844,-120.0706"/>
</g>
</g>
</svg>