<?xml version="1.0" encoding="UTF-8" standalone="no"?>
<!DOCTYPE svg PUBLIC "-//W3C//DTD SVG 1.1//EN"
 "http://www.w3.org/Graphics/SVG/1.1/DTD/svg11.dtd">
<!-- Generated by graphviz version 2.38.0 (20140413.2041)
 -->
<!-- Title: %3 Pages: 1 -->
<svg width="190pt" height="191pt"
 viewBox="0.00 0.00 189.50 191.00" xmlns="http://www.w3.org/2000/svg" xmlns:xlink="http://www.w3.org/1999/xlink">
<g id="graph0" class="graph" transform="scale(1 1) rotate(0) translate(4 187)">
<title>%3</title>
<polygon fill="white" stroke="none" points="-4,4 -4,-187 185.5,-187 185.5,4 -4,4"/>
<!-- RoutineEditor -->
<g id="node1" class="node"><title>RoutineEditor</title>
<polygon fill="none" stroke="black" points="70,-146.5 70,-182.5 168,-182.5 168,-146.5 70,-146.5"/>
<text text-anchor="start" x="78" y="-160.8" font-family="Times New Roman,serif" font-size="14.00">Routine Editor</text>
</g>
<!-- ResourceProgression -->
<g id="node2" class="node"><title>ResourceProgression</title>
<polygon fill="none" stroke="black" points="0,-73.5 0,-109.5 140,-109.5 140,-73.5 0,-73.5"/>
<text text-anchor="start" x="8" y="-87.8" font-family="Times New Roman,serif" font-size="14.00">Resource Progression</text>
</g>
<!-- RoutineEditor&#45;&gt;ResourceProgression -->
<g id="edge1" class="edge"><title>RoutineEditor&#45;&gt;ResourceProgression</title>
<path fill="none" stroke="black" d="M107.138,-146.313C101.24,-137.766 93.9958,-127.269 87.4764,-117.823"/>
<polygon fill="black" stroke="black" points="90.313,-115.771 81.7523,-109.529 84.5518,-119.747 90.313,-115.771"/>
</g>
<!-- ActionProgression -->
<g id="node3" class="node"><title>ActionProgression</title>
<polygon fill="none" stroke="black" points="56.5,-0.5 56.5,-36.5 181.5,-36.5 181.5,-0.5 56.5,-0.5"/>
<text text-anchor="start" x="64.5" y="-14.8" font-family="Times New Roman,serif" font-size="14.00">Action Progression</text>
</g>
<!-- RoutineEditor&#45;&gt;ActionProgression -->
<g id="edge2" class="edge"><title>RoutineEditor&#45;&gt;ActionProgression</title>
<path fill="none" stroke="black" d="M131.728,-146.166C138.288,-136.145 145.609,-122.982 149,-110 153.156,-94.0895 153.156,-88.9105 149,-73 146.509,-63.4665 141.9,-53.8351 137.029,-45.4223"/>
<polygon fill="black" stroke="black" points="139.959,-43.5053 131.728,-36.8339 134.002,-47.1819 139.959,-43.5053"/>
</g>
<!-- ResourceProgression&#45;&gt;ActionProgression -->
<g id="edge3" class="edge"><title>ResourceProgression&#45;&gt;ActionProgression</title>
<path fill="none" stroke="black" d="M81.8615,-73.3129C87.7599,-64.7662 95.0042,-54.2695 101.524,-44.8229"/>
<polygon fill="black" stroke="black" points="104.448,-46.7471 107.248,-36.5288 98.687,-42.7711 104.448,-46.7471"/>
</g>
</g>
</svg>
