<?xml version="1.0" encoding="UTF-8" standalone="no"?>
<!DOCTYPE svg PUBLIC "-//W3C//DTD SVG 1.1//EN"
 "http://www.w3.org/Graphics/SVG/1.1/DTD/svg11.dtd">
<!-- Generated by graphviz version 2.38.0 (20140413.2041)
 -->
<!-- Title: %3 Pages: 1 -->
<svg width="586pt" height="410pt"
 viewBox="0.00 0.00 586.00 410.00" xmlns="http://www.w3.org/2000/svg" xmlns:xlink="http://www.w3.org/1999/xlink">
<g id="graph0" class="graph" transform="scale(1 1) rotate(0) translate(4 406)">
<title>%3</title>
<polygon fill="white" stroke="none" points="-4,4 -4,-406 582,-406 582,4 -4,4"/>
<!-- GetPixel -->
<g id="node1" class="node"><title>GetPixel</title>
<polygon fill="none" stroke="gray" points="76,-365.5 76,-401.5 151,-401.5 151,-365.5 76,-365.5"/>
<text text-anchor="start" x="86" y="-387.3" font-family="Times New Roman,serif" font-size="14.00" fill="gray">Get Pixel </text>
<text text-anchor="start" x="84" y="-373.3" font-family="Times New Roman,serif" font-size="14.00" fill="gray"> </text>
<text text-anchor="start" x="88" y="-373.3" font-family="Times New Roman,serif" font-style="italic" font-size="14.00" fill="gray">Complete</text>
</g>
<!-- Collisions -->
<g id="node2" class="node"><title>Collisions</title>
<polygon fill="none" stroke="gray" points="75.5,-292.5 75.5,-328.5 151.5,-328.5 151.5,-292.5 75.5,-292.5"/>
<text text-anchor="start" x="83.5" y="-314.3" font-family="Times New Roman,serif" font-size="14.00" fill="gray">Collisions </text>
<text text-anchor="start" x="84" y="-300.3" font-family="Times New Roman,serif" font-size="14.00" fill="gray"> </text>
<text text-anchor="start" x="88" y="-300.3" font-family="Times New Roman,serif" font-style="italic" font-size="14.00" fill="gray">Complete</text>
</g>
<!-- GetPixel&#45;&gt;Collisions -->
<g id="edge1" class="edge"><title>GetPixel&#45;&gt;Collisions</title>
<path fill="none" stroke="black" d="M113.5,-365.313C113.5,-357.289 113.5,-347.547 113.5,-338.569"/>
<polygon fill="black" stroke="black" points="117,-338.529 113.5,-328.529 110,-338.529 117,-338.529"/>
</g>
<!-- Character -->
<g id="node7" class="node"><title>Character</title>
<polygon fill="none" stroke="black" points="68,-219.5 68,-255.5 139,-255.5 139,-219.5 68,-219.5"/>
<text text-anchor="middle" x="103.5" y="-233.8" font-family="Times New Roman,serif" font-size="14.00">Character</text>
</g>
<!-- Collisions&#45;&gt;Character -->
<g id="edge2" class="edge"><title>Collisions&#45;&gt;Character</title>
<path fill="none" stroke="black" d="M111.079,-292.313C109.949,-284.289 108.577,-274.547 107.313,-265.569"/>
<polygon fill="black" stroke="black" points="110.759,-264.943 105.898,-255.529 103.827,-265.919 110.759,-264.943"/>
</g>
<!-- Bombs -->
<g id="node8" class="node"><title>Bombs</title>
<polygon fill="none" stroke="black" points="157,-219.5 157,-255.5 244,-255.5 244,-219.5 157,-219.5"/>
<text text-anchor="start" x="178" y="-241.3" font-family="Times New Roman,serif" font-size="14.00">Bombs </text>
<text text-anchor="start" x="165" y="-227.3" font-family="Times New Roman,serif" font-size="14.00"> </text>
<text text-anchor="start" x="169" y="-227.3" font-family="Times New Roman,serif" font-style="italic" font-size="14.00">In Progress</text>
</g>
<!-- Collisions&#45;&gt;Bombs -->
<g id="edge3" class="edge"><title>Collisions&#45;&gt;Bombs</title>
<path fill="none" stroke="black" d="M134.56,-292.313C145.674,-283.243 159.479,-271.977 171.581,-262.1"/>
<polygon fill="black" stroke="black" points="174.099,-264.563 179.634,-255.529 169.673,-259.14 174.099,-264.563"/>
</g>
<!-- MarchingSquaresGrid -->
<g id="node3" class="node"><title>MarchingSquaresGrid</title>
<polygon fill="none" stroke="gray" points="178,-365.5 178,-401.5 329,-401.5 329,-365.5 178,-365.5"/>
<text text-anchor="start" x="186" y="-387.3" font-family="Times New Roman,serif" font-size="14.00" fill="gray">Marching Squares Grid </text>
<text text-anchor="start" x="224" y="-373.3" font-family="Times New Roman,serif" font-size="14.00" fill="gray"> </text>
<text text-anchor="start" x="228" y="-373.3" font-family="Times New Roman,serif" font-style="italic" font-size="14.00" fill="gray">Complete</text>
</g>
<!-- Panels -->
<g id="node6" class="node"><title>Panels</title>
<polygon fill="none" stroke="black" points="229,-292.5 229,-328.5 316,-328.5 316,-292.5 229,-292.5"/>
<text text-anchor="start" x="252.5" y="-314.3" font-family="Times New Roman,serif" font-size="14.00">Panels </text>
<text text-anchor="start" x="237" y="-300.3" font-family="Times New Roman,serif" font-size="14.00"> </text>
<text text-anchor="start" x="241" y="-300.3" font-family="Times New Roman,serif" font-style="italic" font-size="14.00">In Progress</text>
</g>
<!-- MarchingSquaresGrid&#45;&gt;Panels -->
<g id="edge4" class="edge"><title>MarchingSquaresGrid&#45;&gt;Panels</title>
<path fill="none" stroke="black" d="M258.099,-365.313C260.27,-357.202 262.91,-347.336 265.334,-338.277"/>
<polygon fill="black" stroke="black" points="268.739,-339.094 267.943,-328.529 261.977,-337.284 268.739,-339.094"/>
</g>
<!-- Camera -->
<g id="node4" class="node"><title>Camera</title>
<polygon fill="none" stroke="gray" points="347,-365.5 347,-401.5 422,-401.5 422,-365.5 347,-365.5"/>
<text text-anchor="start" x="361" y="-387.3" font-family="Times New Roman,serif" font-size="14.00" fill="gray">Camera </text>
<text text-anchor="start" x="355" y="-373.3" font-family="Times New Roman,serif" font-size="14.00" fill="gray"> </text>
<text text-anchor="start" x="359" y="-373.3" font-family="Times New Roman,serif" font-style="italic" font-size="14.00" fill="gray">Complete</text>
</g>
<!-- Camera&#45;&gt;Panels -->
<g id="edge5" class="edge"><title>Camera&#45;&gt;Panels</title>
<path fill="none" stroke="black" d="M357.673,-365.494C342.821,-356.079 324.171,-344.255 308.111,-334.075"/>
<polygon fill="black" stroke="black" points="309.816,-331.012 299.496,-328.614 306.068,-336.924 309.816,-331.012"/>
</g>
<!-- GameEmbed -->
<g id="node5" class="node"><title>GameEmbed</title>
<polygon fill="none" stroke="gray" points="180,-73.5 180,-109.5 277,-109.5 277,-73.5 180,-73.5"/>
<text text-anchor="start" x="188" y="-95.3" font-family="Times New Roman,serif" font-size="14.00" fill="gray">Game Embed </text>
<text text-anchor="start" x="199" y="-81.3" font-family="Times New Roman,serif" font-size="14.00" fill="gray"> </text>
<text text-anchor="start" x="203" y="-81.3" font-family="Times New Roman,serif" font-style="italic" font-size="14.00" fill="gray">Complete</text>
</g>
<!-- Publish -->
<g id="node14" class="node"><title>Publish</title>
<polygon fill="none" stroke="black" points="256.5,-0.5 256.5,-36.5 314.5,-36.5 314.5,-0.5 256.5,-0.5"/>
<text text-anchor="middle" x="285.5" y="-14.8" font-family="Times New Roman,serif" font-size="14.00">Publish</text>
</g>
<!-- GameEmbed&#45;&gt;Publish -->
<g id="edge6" class="edge"><title>GameEmbed&#45;&gt;Publish</title>
<path fill="none" stroke="black" d="M242.298,-73.3129C249.23,-64.679 257.759,-54.0551 265.402,-44.5341"/>
<polygon fill="black" stroke="black" points="268.298,-46.518 271.829,-36.5288 262.839,-42.1357 268.298,-46.518"/>
</g>
<!-- Panels&#45;&gt;Bombs -->
<g id="edge7" class="edge"><title>Panels&#45;&gt;Bombs</title>
<path fill="none" stroke="black" d="M255.071,-292.313C246.05,-283.417 234.887,-272.409 225.012,-262.672"/>
<polygon fill="black" stroke="black" points="227.347,-260.058 217.769,-255.529 222.432,-265.042 227.347,-260.058"/>
</g>
<!-- Score -->
<g id="node9" class="node"><title>Score</title>
<polygon fill="none" stroke="black" points="108,-146.5 108,-182.5 195,-182.5 195,-146.5 108,-146.5"/>
<text text-anchor="start" x="133" y="-168.3" font-family="Times New Roman,serif" font-size="14.00">Score </text>
<text text-anchor="start" x="116" y="-154.3" font-family="Times New Roman,serif" font-size="14.00"> </text>
<text text-anchor="start" x="120" y="-154.3" font-family="Times New Roman,serif" font-style="italic" font-size="14.00">In Progress</text>
</g>
<!-- Panels&#45;&gt;Score -->
<g id="edge8" class="edge"><title>Panels&#45;&gt;Score</title>
<path fill="none" stroke="black" d="M272.839,-292.396C272.369,-272.764 268.872,-240.511 252.5,-219 240.322,-203 221.959,-191.283 204.216,-182.967"/>
<polygon fill="black" stroke="black" points="205.593,-179.749 195.03,-178.923 202.772,-186.156 205.593,-179.749"/>
</g>
<!-- TerrainVariation -->
<g id="node11" class="node"><title>TerrainVariation</title>
<polygon fill="none" stroke="black" points="325.5,-146.5 325.5,-182.5 435.5,-182.5 435.5,-146.5 325.5,-146.5"/>
<text text-anchor="start" x="333.5" y="-160.8" font-family="Times New Roman,serif" font-size="14.00">Terrain Variation</text>
</g>
<!-- Panels&#45;&gt;TerrainVariation -->
<g id="edge9" class="edge"><title>Panels&#45;&gt;TerrainVariation</title>
<path fill="none" stroke="black" d="M285.313,-292.416C304.231,-267.192 339.754,-219.828 361.648,-190.637"/>
<polygon fill="black" stroke="black" points="364.504,-192.662 367.704,-182.562 358.904,-188.462 364.504,-192.662"/>
</g>
<!-- Character&#45;&gt;Score -->
<g id="edge10" class="edge"><title>Character&#45;&gt;Score</title>
<path fill="none" stroke="black" d="M115.119,-219.313C120.897,-210.766 127.994,-200.269 134.38,-190.823"/>
<polygon fill="black" stroke="black" points="137.286,-192.774 139.988,-182.529 131.487,-188.853 137.286,-192.774"/>
</g>
<!-- Bombs&#45;&gt;Score -->
<g id="edge11" class="edge"><title>Bombs&#45;&gt;Score</title>
<path fill="none" stroke="black" d="M188.638,-219.313C182.74,-210.766 175.496,-200.269 168.976,-190.823"/>
<polygon fill="black" stroke="black" points="171.813,-188.771 163.252,-182.529 166.052,-192.747 171.813,-188.771"/>
</g>
<!-- GameOverScreen -->
<g id="node13" class="node"><title>GameOverScreen</title>
<polygon fill="none" stroke="black" points="0,-73.5 0,-109.5 123,-109.5 123,-73.5 0,-73.5"/>
<text text-anchor="start" x="8" y="-87.8" font-family="Times New Roman,serif" font-size="14.00">Game Over Screen</text>
</g>
<!-- Score&#45;&gt;GameOverScreen -->
<g id="edge12" class="edge"><title>Score&#45;&gt;GameOverScreen</title>
<path fill="none" stroke="black" d="M129.714,-146.313C118.106,-137.156 103.661,-125.76 91.0553,-115.816"/>
<polygon fill="black" stroke="black" points="93.1047,-112.975 83.0859,-109.529 88.7692,-118.47 93.1047,-112.975"/>
</g>
<!-- Score&#45;&gt;Publish -->
<g id="edge13" class="edge"><title>Score&#45;&gt;Publish</title>
<path fill="none" stroke="black" d="M150.746,-146.258C150.786,-126.496 153.727,-94.1214 170.5,-73 189.359,-49.2517 221.209,-35.5717 246.614,-28.0001"/>
<polygon fill="black" stroke="black" points="247.646,-31.3461 256.345,-25.2985 245.773,-24.6012 247.646,-31.3461"/>
</g>
<!-- SoundEffects -->
<g id="node10" class="node"><title>SoundEffects</title>
<polygon fill="none" stroke="black" points="295,-73.5 295,-109.5 392,-109.5 392,-73.5 295,-73.5"/>
<text text-anchor="start" x="303" y="-87.8" font-family="Times New Roman,serif" font-size="14.00">Sound Effects</text>
</g>
<!-- SoundEffects&#45;&gt;Publish -->
<g id="edge14" class="edge"><title>SoundEffects&#45;&gt;Publish</title>
<path fill="none" stroke="black" d="M329.46,-73.3129C322.407,-64.679 313.728,-54.0551 305.95,-44.5341"/>
<polygon fill="black" stroke="black" points="308.448,-42.059 299.411,-36.5288 303.027,-46.4876 308.448,-42.059"/>
</g>
<!-- TerrainVariation&#45;&gt;Publish -->
<g id="edge15" class="edge"><title>TerrainVariation&#45;&gt;Publish</title>
<path fill="none" stroke="black" d="M391.503,-146.159C402.189,-126.888 414.862,-95.5213 400.5,-73 383.86,-46.9061 350.829,-33.3383 324.42,-26.4077"/>
<polygon fill="black" stroke="black" points="325.212,-22.9984 314.671,-24.0642 323.576,-29.8046 325.212,-22.9984"/>
</g>
<!-- ParalaxBackground -->
<g id="node12" class="node"><title>ParalaxBackground</title>
<polygon fill="none" stroke="black" points="449,-73.5 449,-109.5 578,-109.5 578,-73.5 449,-73.5"/>
<text text-anchor="start" x="457" y="-87.8" font-family="Times New Roman,serif" font-size="14.00">Paralax Background</text>
</g>
<!-- ParalaxBackground&#45;&gt;Publish -->
<g id="edge16" class="edge"><title>ParalaxBackground&#45;&gt;Publish</title>
<path fill="none" stroke="black" d="M458.888,-73.4937C417.464,-60.594 361.524,-43.1742 324.522,-31.6515"/>
<polygon fill="black" stroke="black" points="325.204,-28.1981 314.615,-28.5666 323.122,-34.8816 325.204,-28.1981"/>
</g>
<!-- GameOverScreen&#45;&gt;Publish -->
<g id="edge17" class="edge"><title>GameOverScreen&#45;&gt;Publish</title>
<path fill="none" stroke="black" d="M115.154,-73.4937C155.615,-60.669 210.171,-43.3766 246.527,-31.8531"/>
<polygon fill="black" stroke="black" points="247.797,-35.1223 256.272,-28.7644 245.681,-28.4495 247.797,-35.1223"/>
</g>
</g>
</svg>
