<svg xmlns="http://www.w3.org/2000/svg" xmlns:xlink="http://www.w3.org/1999/xlink" width="764pt" height="556pt" viewBox="0.00 0.00 764.03 556.00">
<g id="graph0" class="graph" transform="scale(1 1) rotate(0) translate(4 552)">
<title>%0</title>
<polygon fill="#ffffff" stroke="transparent" points="-4,4 -4,-552 760.0302,-552 760.0302,4 -4,4"/>
<!-- iOSDevelopment -->
<g id="node1" class="node">
<title>iOSDevelopment</title>
<polygon fill="none" stroke="#c0c0c0" points="211.5277,-511.5 211.5277,-547.5 331.7297,-547.5 331.7297,-511.5 211.5277,-511.5"/>
<text text-anchor="start" x="219.5277" y="-531.9" font-family="Times,serif" font-size="14.00" fill="#c0c0c0">iOS Development </text>
<text text-anchor="start" x="242.6599" y="-517.9" font-family="Times,serif" font-size="14.00" fill="#c0c0c0"> </text>
<text text-anchor="start" x="246.1599" y="-517.9" font-family="Times,serif" font-style="italic" font-size="14.00" fill="#c0c0c0">Complete</text>
</g>
<!-- TextRendering -->
<g id="node2" class="node">
<title>TextRendering</title>
<polygon fill="none" stroke="#c0c0c0" points="108.1413,-365.5 108.1413,-401.5 215.1161,-401.5 215.1161,-365.5 108.1413,-365.5"/>
<text text-anchor="start" x="116.1413" y="-385.9" font-family="Times,serif" font-size="14.00" fill="#c0c0c0">Text Rendering </text>
<text text-anchor="start" x="132.6599" y="-371.9" font-family="Times,serif" font-size="14.00" fill="#c0c0c0"> </text>
<text text-anchor="start" x="136.1599" y="-371.9" font-family="Times,serif" font-style="italic" font-size="14.00" fill="#c0c0c0">Complete</text>
</g>
<!-- iOSDevelopment&#45;&gt;TextRendering -->
<g id="edge1" class="edge">
<title>iOSDevelopment-&gt;TextRendering</title>
<path fill="none" stroke="#000000" d="M257.9195,-511.3042C238.7344,-485.8403 203.7533,-439.4108 181.6517,-410.0759"/>
<polygon fill="#000000" stroke="#000000" points="184.3236,-407.8058 175.5106,-401.9251 178.7328,-412.0181 184.3236,-407.8058"/>
</g>
<!-- TileRenderer -->
<g id="node3" class="node">
<title>TileRenderer</title>
<polygon fill="none" stroke="#c0c0c0" points="297.2037,-438.5 297.2037,-474.5 394.0537,-474.5 394.0537,-438.5 297.2037,-438.5"/>
<text text-anchor="start" x="305.2037" y="-458.9" font-family="Times,serif" font-size="14.00" fill="#c0c0c0">Tile Renderer </text>
<text text-anchor="start" x="316.6599" y="-444.9" font-family="Times,serif" font-size="14.00" fill="#c0c0c0"> </text>
<text text-anchor="start" x="320.1599" y="-444.9" font-family="Times,serif" font-style="italic" font-size="14.00" fill="#c0c0c0">Complete</text>
</g>
<!-- iOSDevelopment&#45;&gt;TileRenderer -->
<g id="edge2" class="edge">
<title>iOSDevelopment-&gt;TileRenderer</title>
<path fill="none" stroke="#000000" d="M289.9208,-511.4551C298.9931,-502.5054 310.1016,-491.547 320.0055,-481.7769"/>
<polygon fill="#000000" stroke="#000000" points="322.6295,-484.1049 327.2905,-474.5904 317.7135,-479.1215 322.6295,-484.1049"/>
</g>
<!-- ScrollView -->
<g id="node21" class="node">
<title>ScrollView</title>
<polygon fill="none" stroke="#000000" points="0,-219.5 0,-255.5 83.2574,-255.5 83.2574,-219.5 0,-219.5"/>
<text text-anchor="start" x="8" y="-233.3" font-family="Times,serif" font-size="14.00" fill="#000000">Scroll View</text>
</g>
<!-- TextRendering&#45;&gt;ScrollView -->
<g id="edge3" class="edge">
<title>TextRendering-&gt;ScrollView</title>
<path fill="none" stroke="#000000" d="M146.6732,-365.3042C125.6542,-339.7311 87.2549,-293.0119 63.1623,-263.6992"/>
<polygon fill="#000000" stroke="#000000" points="65.8262,-261.4282 56.7726,-255.9251 60.4184,-265.8729 65.8262,-261.4282"/>
</g>
<!-- Button -->
<g id="node23" class="node">
<title>Button</title>
<polygon fill="none" stroke="#000000" points="134.5698,-292.5 134.5698,-328.5 188.6876,-328.5 188.6876,-292.5 134.5698,-292.5"/>
<text text-anchor="middle" x="161.6287" y="-306.3" font-family="Times,serif" font-size="14.00" fill="#000000">Button</text>
</g>
<!-- TextRendering&#45;&gt;Button -->
<g id="edge4" class="edge">
<title>TextRendering-&gt;Button</title>
<path fill="none" stroke="#000000" d="M161.6287,-365.4551C161.6287,-357.3828 161.6287,-347.6764 161.6287,-338.6817"/>
<polygon fill="#000000" stroke="#000000" points="165.1288,-338.5903 161.6287,-328.5904 158.1288,-338.5904 165.1288,-338.5903"/>
</g>
<!-- Camera -->
<g id="node4" class="node">
<title>Camera</title>
<polygon fill="none" stroke="#c0c0c0" points="391.6599,-365.5 391.6599,-401.5 465.5975,-401.5 465.5975,-365.5 391.6599,-365.5"/>
<text text-anchor="start" x="405.1129" y="-385.9" font-family="Times,serif" font-size="14.00" fill="#c0c0c0">Camera </text>
<text text-anchor="start" x="399.6599" y="-371.9" font-family="Times,serif" font-size="14.00" fill="#c0c0c0"> </text>
<text text-anchor="start" x="403.1599" y="-371.9" font-family="Times,serif" font-style="italic" font-size="14.00" fill="#c0c0c0">Complete</text>
</g>
<!-- TileRenderer&#45;&gt;Camera -->
<g id="edge5" class="edge">
<title>TileRenderer-&gt;Camera</title>
<path fill="none" stroke="#000000" d="M366.1456,-438.4551C376.5207,-429.3299 389.2703,-418.1165 400.541,-408.2036"/>
<polygon fill="#000000" stroke="#000000" points="402.8628,-410.8228 408.0602,-401.5904 398.2398,-405.5665 402.8628,-410.8228"/>
</g>
<!-- Objects -->
<g id="node5" class="node">
<title>Objects</title>
<polygon fill="none" stroke="#c0c0c0" points="334.6599,-292.5 334.6599,-328.5 408.5975,-328.5 408.5975,-292.5 334.6599,-292.5"/>
<text text-anchor="start" x="348.4979" y="-312.9" font-family="Times,serif" font-size="14.00" fill="#c0c0c0">Objects </text>
<text text-anchor="start" x="342.6599" y="-298.9" font-family="Times,serif" font-size="14.00" fill="#c0c0c0"> </text>
<text text-anchor="start" x="346.1599" y="-298.9" font-family="Times,serif" font-style="italic" font-size="14.00" fill="#c0c0c0">Complete</text>
</g>
<!-- Camera&#45;&gt;Objects -->
<g id="edge6" class="edge">
<title>Camera-&gt;Objects</title>
<path fill="none" stroke="#000000" d="M414.5388,-365.4551C407.7563,-356.7686 399.4961,-346.1898 392.041,-336.642"/>
<polygon fill="#000000" stroke="#000000" points="394.6671,-334.3182 385.754,-328.5904 389.1498,-338.6263 394.6671,-334.3182"/>
</g>
<!-- EntityAnimations -->
<g id="node6" class="node">
<title>EntityAnimations</title>
<polygon fill="none" stroke="#000000" points="426.1024,-292.5 426.1024,-328.5 545.155,-328.5 545.155,-292.5 426.1024,-292.5"/>
<text text-anchor="start" x="434.1024" y="-306.3" font-family="Times,serif" font-size="14.00" fill="#000000">Entity Animations</text>
</g>
<!-- Camera&#45;&gt;EntityAnimations -->
<g id="edge7" class="edge">
<title>Camera-&gt;EntityAnimations</title>
<path fill="none" stroke="#000000" d="M442.7186,-365.4551C449.5011,-356.7686 457.7613,-346.1898 465.2164,-336.642"/>
<polygon fill="#000000" stroke="#000000" points="468.1076,-338.6263 471.5034,-328.5904 462.5903,-334.3182 468.1076,-338.6263"/>
</g>
<!-- InputPicking -->
<g id="node19" class="node">
<title>InputPicking</title>
<polygon fill="none" stroke="#c0c0c0" points="538.9639,-219.5 538.9639,-255.5 634.2935,-255.5 634.2935,-219.5 538.9639,-219.5"/>
<text text-anchor="start" x="546.9639" y="-239.9" font-family="Times,serif" font-size="14.00" fill="#c0c0c0">Input Picking </text>
<text text-anchor="start" x="557.6599" y="-225.9" font-family="Times,serif" font-size="14.00" fill="#c0c0c0"> </text>
<text text-anchor="start" x="561.1599" y="-225.9" font-family="Times,serif" font-style="italic" font-size="14.00" fill="#c0c0c0">Complete</text>
</g>
<!-- Camera&#45;&gt;InputPicking -->
<g id="edge8" class="edge">
<title>Camera-&gt;InputPicking</title>
<path fill="none" stroke="#000000" d="M465.8728,-375.9152C493.789,-368.4227 531.0849,-354.2982 554.6287,-329 570.8584,-311.561 578.9238,-285.4304 582.8915,-265.5528"/>
<polygon fill="#000000" stroke="#000000" points="586.3694,-265.9837 584.6573,-255.5281 579.4756,-264.7693 586.3694,-265.9837"/>
</g>
<!-- TileProperties -->
<g id="node7" class="node">
<title>TileProperties</title>
<polygon fill="none" stroke="#000000" points="333.2251,-219.5 333.2251,-255.5 432.0323,-255.5 432.0323,-219.5 333.2251,-219.5"/>
<text text-anchor="start" x="341.2251" y="-233.3" font-family="Times,serif" font-size="14.00" fill="#000000">Tile Properties</text>
</g>
<!-- Objects&#45;&gt;TileProperties -->
<g id="edge9" class="edge">
<title>Objects-&gt;TileProperties</title>
<path fill="none" stroke="#000000" d="M374.3478,-292.4551C375.5642,-284.3828 377.0268,-274.6764 378.3821,-265.6817"/>
<polygon fill="#000000" stroke="#000000" points="381.8736,-266.0003 379.9028,-255.5904 374.9517,-264.9572 381.8736,-266.0003"/>
</g>
<!-- Character -->
<g id="node8" class="node">
<title>Character</title>
<polygon fill="none" stroke="#000000" points="450.4253,-219.5 450.4253,-255.5 520.8321,-255.5 520.8321,-219.5 450.4253,-219.5"/>
<text text-anchor="middle" x="485.6287" y="-233.3" font-family="Times,serif" font-size="14.00" fill="#000000">Character</text>
</g>
<!-- EntityAnimations&#45;&gt;Character -->
<g id="edge10" class="edge">
<title>EntityAnimations-&gt;Character</title>
<path fill="none" stroke="#000000" d="M485.6287,-292.4551C485.6287,-284.3828 485.6287,-274.6764 485.6287,-265.6817"/>
<polygon fill="#000000" stroke="#000000" points="489.1288,-265.5903 485.6287,-255.5904 482.1288,-265.5904 489.1288,-265.5903"/>
</g>
<!-- PathFinding -->
<g id="node9" class="node">
<title>PathFinding</title>
<polygon fill="none" stroke="#000000" points="441.6529,-146.5 441.6529,-182.5 529.6045,-182.5 529.6045,-146.5 441.6529,-146.5"/>
<text text-anchor="start" x="449.6529" y="-160.3" font-family="Times,serif" font-size="14.00" fill="#000000">Path Finding</text>
</g>
<!-- TileProperties&#45;&gt;PathFinding -->
<g id="edge11" class="edge">
<title>TileProperties-&gt;PathFinding</title>
<path fill="none" stroke="#000000" d="M408.0894,-219.4551C421.2121,-210.1545 437.3959,-198.6844 451.5777,-188.6332"/>
<polygon fill="#000000" stroke="#000000" points="453.9691,-191.2283 460.1039,-182.5904 449.9214,-185.5172 453.9691,-191.2283"/>
</g>
<!-- Character&#45;&gt;PathFinding -->
<g id="edge12" class="edge">
<title>Character-&gt;PathFinding</title>
<path fill="none" stroke="#000000" d="M485.6287,-219.4551C485.6287,-211.3828 485.6287,-201.6764 485.6287,-192.6817"/>
<polygon fill="#000000" stroke="#000000" points="489.1288,-192.5903 485.6287,-182.5904 482.1288,-192.5904 489.1288,-192.5903"/>
</g>
<!-- Interaction -->
<g id="node10" class="node">
<title>Interaction</title>
<polygon fill="none" stroke="#000000" points="482.3103,-73.5 482.3103,-109.5 558.9471,-109.5 558.9471,-73.5 482.3103,-73.5"/>
<text text-anchor="middle" x="520.6287" y="-87.3" font-family="Times,serif" font-size="14.00" fill="#000000">Interaction</text>
</g>
<!-- PathFinding&#45;&gt;Interaction -->
<g id="edge13" class="edge">
<title>PathFinding-&gt;Interaction</title>
<path fill="none" stroke="#000000" d="M494.2804,-146.4551C498.2768,-138.1196 503.1088,-128.0416 507.5377,-118.8042"/>
<polygon fill="#000000" stroke="#000000" points="510.7879,-120.1207 511.9552,-109.5904 504.4759,-117.0944 510.7879,-120.1207"/>
</g>
<!-- TaptoMove -->
<g id="node11" class="node">
<title>TaptoMove</title>
<polygon fill="none" stroke="#000000" points="376.4702,-73.5 376.4702,-109.5 464.7872,-109.5 464.7872,-73.5 376.4702,-73.5"/>
<text text-anchor="start" x="384.4702" y="-87.3" font-family="Times,serif" font-size="14.00" fill="#000000">Tap to Move</text>
</g>
<!-- PathFinding&#45;&gt;TaptoMove -->
<g id="edge14" class="edge">
<title>PathFinding-&gt;TaptoMove</title>
<path fill="none" stroke="#000000" d="M469.5613,-146.4551C461.6706,-137.5932 452.0261,-126.7616 443.3917,-117.0646"/>
<polygon fill="#000000" stroke="#000000" points="446.0005,-114.7313 436.7366,-109.5904 440.7726,-119.3863 446.0005,-114.7313"/>
</g>
<!-- TaptoUse -->
<g id="node12" class="node">
<title>TaptoUse</title>
<polygon fill="none" stroke="#000000" points="431.9169,-.5 431.9169,-36.5 509.3405,-36.5 509.3405,-.5 431.9169,-.5"/>
<text text-anchor="start" x="439.9169" y="-14.3" font-family="Times,serif" font-size="14.00" fill="#000000">Tap to Use</text>
</g>
<!-- Interaction&#45;&gt;TaptoUse -->
<g id="edge15" class="edge">
<title>Interaction-&gt;TaptoUse</title>
<path fill="none" stroke="#000000" d="M508.2691,-73.4551C502.3796,-64.8564 495.22,-54.4034 488.7326,-44.9316"/>
<polygon fill="#000000" stroke="#000000" points="491.5579,-42.8628 483.0194,-36.5904 485.7827,-46.8185 491.5579,-42.8628"/>
</g>
<!-- TaptoMove&#45;&gt;TaptoUse -->
<g id="edge16" class="edge">
<title>TaptoMove-&gt;TaptoUse</title>
<path fill="none" stroke="#000000" d="M432.9883,-73.4551C438.8778,-64.8564 446.0374,-54.4034 452.5248,-44.9316"/>
<polygon fill="#000000" stroke="#000000" points="455.4747,-46.8185 458.238,-36.5904 449.6995,-42.8628 455.4747,-46.8185"/>
</g>
<!-- PopupWindow -->
<g id="node13" class="node">
<title>PopupWindow</title>
<polygon fill="none" stroke="#000000" points="576.8815,-73.5 576.8815,-109.5 680.3759,-109.5 680.3759,-73.5 576.8815,-73.5"/>
<text text-anchor="start" x="584.8815" y="-87.3" font-family="Times,serif" font-size="14.00" fill="#000000">Popup Window</text>
</g>
<!-- PopupWindow&#45;&gt;TaptoUse -->
<g id="edge17" class="edge">
<title>PopupWindow-&gt;TaptoUse</title>
<path fill="none" stroke="#000000" d="M589.5725,-73.4551C568.1277,-63.547 541.3541,-51.1769 518.6412,-40.683"/>
<polygon fill="#000000" stroke="#000000" points="520.055,-37.4807 509.5091,-36.4637 517.119,-43.8353 520.055,-37.4807"/>
</g>
<!-- ActionSearch -->
<g id="node14" class="node">
<title>ActionSearch</title>
<polygon fill="none" stroke="#000000" points="219.784,-219.5 219.784,-255.5 315.4734,-255.5 315.4734,-219.5 219.784,-219.5"/>
<text text-anchor="start" x="227.784" y="-233.3" font-family="Times,serif" font-size="14.00" fill="#000000">Action Search</text>
</g>
<!-- ActionInsertion -->
<g id="node17" class="node">
<title>ActionInsertion</title>
<polygon fill="none" stroke="#000000" points="213.9467,-146.5 213.9467,-182.5 321.3107,-182.5 321.3107,-146.5 213.9467,-146.5"/>
<text text-anchor="start" x="221.9467" y="-160.3" font-family="Times,serif" font-size="14.00" fill="#000000">Action Insertion</text>
</g>
<!-- ActionSearch&#45;&gt;ActionInsertion -->
<g id="edge18" class="edge">
<title>ActionSearch-&gt;ActionInsertion</title>
<path fill="none" stroke="#000000" d="M267.6287,-219.4551C267.6287,-211.3828 267.6287,-201.6764 267.6287,-192.6817"/>
<polygon fill="#000000" stroke="#000000" points="271.1288,-192.5903 267.6287,-182.5904 264.1288,-192.5904 271.1288,-192.5903"/>
</g>
<!-- RoutineTicker -->
<g id="node15" class="node">
<title>RoutineTicker</title>
<polygon fill="none" stroke="#000000" points="101.446,-219.5 101.446,-255.5 201.8114,-255.5 201.8114,-219.5 101.446,-219.5"/>
<text text-anchor="start" x="109.446" y="-233.3" font-family="Times,serif" font-size="14.00" fill="#000000">Routine Ticker</text>
</g>
<!-- RoutineEditor -->
<g id="node16" class="node">
<title>RoutineEditor</title>
<polygon fill="none" stroke="#000000" points="45.2153,-146.5 45.2153,-182.5 144.0421,-182.5 144.0421,-146.5 45.2153,-146.5"/>
<text text-anchor="start" x="53.2153" y="-160.3" font-family="Times,serif" font-size="14.00" fill="#000000">Routine Editor</text>
</g>
<!-- RoutineTicker&#45;&gt;RoutineEditor -->
<g id="edge19" class="edge">
<title>RoutineTicker-&gt;RoutineEditor</title>
<path fill="none" stroke="#000000" d="M137.5388,-219.4551C130.7563,-210.7686 122.4961,-200.1898 115.041,-190.642"/>
<polygon fill="#000000" stroke="#000000" points="117.6671,-188.3182 108.754,-182.5904 112.1498,-192.6263 117.6671,-188.3182"/>
</g>
<!-- RoutineTicker&#45;&gt;ActionInsertion -->
<g id="edge20" class="edge">
<title>RoutineTicker-&gt;ActionInsertion</title>
<path fill="none" stroke="#000000" d="M180.3029,-219.4551C195.3607,-209.979 213.9973,-198.2508 230.1817,-188.0658"/>
<polygon fill="#000000" stroke="#000000" points="232.283,-190.8788 238.8824,-182.5904 228.5546,-184.9544 232.283,-190.8788"/>
</g>
<!-- ActionInsertion&#45;&gt;TaptoMove -->
<g id="edge21" class="edge">
<title>ActionInsertion-&gt;TaptoMove</title>
<path fill="none" stroke="#000000" d="M305.4489,-146.4551C326.0453,-136.628 351.718,-124.3789 373.5955,-113.9407"/>
<polygon fill="#000000" stroke="#000000" points="375.1951,-117.0555 382.7133,-109.5904 372.1808,-110.7378 375.1951,-117.0555"/>
</g>
<!-- ActionInsertion&#45;&gt;TaptoUse -->
<g id="edge22" class="edge">
<title>ActionInsertion-&gt;TaptoUse</title>
<path fill="none" stroke="#000000" d="M256.9738,-146.3449C246.7646,-126.303 235.1428,-94.0913 251.6287,-73 272.3422,-46.5 363.7775,-31.0315 421.7559,-23.7172"/>
<polygon fill="#000000" stroke="#000000" points="422.3136,-27.1752 431.8148,-22.4873 421.4639,-20.2269 422.3136,-27.1752"/>
</g>
<!-- PickandPlace -->
<g id="node18" class="node">
<title>PickandPlace</title>
<polygon fill="none" stroke="#000000" points="260.419,-73.5 260.419,-109.5 358.8384,-109.5 358.8384,-73.5 260.419,-73.5"/>
<text text-anchor="start" x="268.419" y="-87.3" font-family="Times,serif" font-size="14.00" fill="#000000">Pick and Place</text>
</g>
<!-- ActionInsertion&#45;&gt;PickandPlace -->
<g id="edge23" class="edge">
<title>ActionInsertion-&gt;PickandPlace</title>
<path fill="none" stroke="#000000" d="M278.0107,-146.4551C282.8569,-138.0319 288.7269,-127.8292 294.0871,-118.5128"/>
<polygon fill="#000000" stroke="#000000" points="297.2673,-120.0036 299.2205,-109.5904 291.1998,-116.5127 297.2673,-120.0036"/>
</g>
<!-- InputPicking&#45;&gt;PathFinding -->
<g id="edge24" class="edge">
<title>InputPicking-&gt;PathFinding</title>
<path fill="none" stroke="#000000" d="M561.6624,-219.4551C548.7945,-210.1545 532.9249,-198.6844 519.0185,-188.6332"/>
<polygon fill="#000000" stroke="#000000" points="520.8128,-185.6116 510.6578,-182.5904 516.7123,-191.2849 520.8128,-185.6116"/>
</g>
<!-- InputPicking&#45;&gt;Interaction -->
<g id="edge25" class="edge">
<title>InputPicking-&gt;Interaction</title>
<path fill="none" stroke="#000000" d="M578.4032,-219.3042C567.0404,-194.1682 546.4424,-148.6029 533.1585,-119.2175"/>
<polygon fill="#000000" stroke="#000000" points="536.2664,-117.5956 528.9579,-109.9251 529.8879,-120.4791 536.2664,-117.5956"/>
</g>
<!-- CustomSpriteRenderer -->
<g id="node20" class="node">
<title>CustomSpriteRenderer</title>
<polygon fill="none" stroke="#c0c0c0" points="601.2272,-292.5 601.2272,-328.5 756.0302,-328.5 756.0302,-292.5 601.2272,-292.5"/>
<text text-anchor="start" x="609.2272" y="-312.9" font-family="Times,serif" font-size="14.00" fill="#c0c0c0">Custom Sprite Renderer </text>
<text text-anchor="start" x="649.6599" y="-298.9" font-family="Times,serif" font-size="14.00" fill="#c0c0c0"> </text>
<text text-anchor="start" x="653.1599" y="-298.9" font-family="Times,serif" font-style="italic" font-size="14.00" fill="#c0c0c0">Complete</text>
</g>
<!-- CustomSpriteRenderer&#45;&gt;InputPicking -->
<g id="edge26" class="edge">
<title>CustomSpriteRenderer-&gt;InputPicking</title>
<path fill="none" stroke="#000000" d="M655.8871,-292.4551C644.2764,-283.2422 629.9829,-271.9006 617.4021,-261.918"/>
<polygon fill="#000000" stroke="#000000" points="619.4366,-259.0644 609.4275,-255.5904 615.0856,-264.5479 619.4366,-259.0644"/>
</g>
<!-- ScrollView&#45;&gt;RoutineEditor -->
<g id="edge27" class="edge">
<title>ScrollView-&gt;RoutineEditor</title>
<path fill="none" stroke="#000000" d="M54.7298,-219.4551C60.9727,-210.8564 68.5619,-200.4034 75.4386,-190.9316"/>
<polygon fill="#000000" stroke="#000000" points="78.4517,-192.7388 81.4946,-182.5904 72.7872,-188.6262 78.4517,-192.7388"/>
</g>
<!-- DragandDrop -->
<g id="node22" class="node">
<title>DragandDrop</title>
<polygon fill="none" stroke="#000000" points="216.6469,-292.5 216.6469,-328.5 316.6105,-328.5 316.6105,-292.5 216.6469,-292.5"/>
<text text-anchor="start" x="224.6469" y="-306.3" font-family="Times,serif" font-size="14.00" fill="#000000">Drag and Drop</text>
</g>
<!-- DragandDrop&#45;&gt;ActionSearch -->
<g id="edge28" class="edge">
<title>DragandDrop-&gt;ActionSearch</title>
<path fill="none" stroke="#000000" d="M266.8759,-292.4551C266.9865,-284.3828 267.1194,-274.6764 267.2426,-265.6817"/>
<polygon fill="#000000" stroke="#000000" points="270.7435,-265.6374 267.3809,-255.5904 263.7441,-265.5414 270.7435,-265.6374"/>
</g>
<!-- Button&#45;&gt;ActionSearch -->
<g id="edge29" class="edge">
<title>Button-&gt;ActionSearch</title>
<path fill="none" stroke="#000000" d="M187.831,-292.4551C201.4633,-283.0667 218.3056,-271.4678 232.9985,-261.3491"/>
<polygon fill="#000000" stroke="#000000" points="235.1098,-264.1448 241.3605,-255.5904 231.1394,-258.3797 235.1098,-264.1448"/>
</g>
<!-- Button&#45;&gt;RoutineTicker -->
<g id="edge30" class="edge">
<title>Button-&gt;RoutineTicker</title>
<path fill="none" stroke="#000000" d="M159.1568,-292.4551C158.051,-284.3828 156.7214,-274.6764 155.4892,-265.6817"/>
<polygon fill="#000000" stroke="#000000" points="158.9317,-265.0228 154.1068,-255.5904 151.9965,-265.9729 158.9317,-265.0228"/>
</g>
</g>
</svg>