<?xml version="1.0" encoding="UTF-8" standalone="no"?>
<!DOCTYPE svg PUBLIC "-//W3C//DTD SVG 1.1//EN"
 "http://www.w3.org/Graphics/SVG/1.1/DTD/svg11.dtd">
<!-- Generated by graphviz version 2.38.0 (20140413.2041)
 -->
<!-- Title: %3 Pages: 1 -->
<svg width="384pt" height="337pt"
 viewBox="0.00 0.00 383.50 337.00" xmlns="http://www.w3.org/2000/svg" xmlns:xlink="http://www.w3.org/1999/xlink">
<g id="graph0" class="graph" transform="scale(1 1) rotate(0) translate(4 333)">
<title>%3</title>
<polygon fill="white" stroke="none" points="-4,4 -4,-333 379.5,-333 379.5,4 -4,4"/>
<!-- GetPixel -->
<g id="node1" class="node"><title>GetPixel</title>
<polygon fill="none" stroke="gray" points="0.5,-292.5 0.5,-328.5 75.5,-328.5 75.5,-292.5 0.5,-292.5"/>
<text text-anchor="start" x="10.5" y="-314.3" font-family="Times New Roman,serif" font-size="14.00" fill="gray">Get Pixel </text>
<text text-anchor="start" x="8.5" y="-300.3" font-family="Times New Roman,serif" font-size="14.00" fill="gray"> </text>
<text text-anchor="start" x="12.5" y="-300.3" font-family="Times New Roman,serif" font-style="italic" font-size="14.00" fill="gray">Complete</text>
</g>
<!-- Collisions -->
<g id="node2" class="node"><title>Collisions</title>
<polygon fill="none" stroke="gray" points="0,-219.5 0,-255.5 76,-255.5 76,-219.5 0,-219.5"/>
<text text-anchor="start" x="8" y="-241.3" font-family="Times New Roman,serif" font-size="14.00" fill="gray">Collisions </text>
<text text-anchor="start" x="8.5" y="-227.3" font-family="Times New Roman,serif" font-size="14.00" fill="gray"> </text>
<text text-anchor="start" x="12.5" y="-227.3" font-family="Times New Roman,serif" font-style="italic" font-size="14.00" fill="gray">Complete</text>
</g>
<!-- GetPixel&#45;&gt;Collisions -->
<g id="edge1" class="edge"><title>GetPixel&#45;&gt;Collisions</title>
<path fill="none" stroke="black" d="M38,-292.313C38,-284.289 38,-274.547 38,-265.569"/>
<polygon fill="black" stroke="black" points="41.5001,-265.529 38,-255.529 34.5001,-265.529 41.5001,-265.529"/>
</g>
<!-- Character -->
<g id="node7" class="node"><title>Character</title>
<polygon fill="none" stroke="black" points="0.5,-146.5 0.5,-182.5 71.5,-182.5 71.5,-146.5 0.5,-146.5"/>
<text text-anchor="middle" x="36" y="-160.8" font-family="Times New Roman,serif" font-size="14.00">Character</text>
</g>
<!-- Collisions&#45;&gt;Character -->
<g id="edge2" class="edge"><title>Collisions&#45;&gt;Character</title>
<path fill="none" stroke="black" d="M37.5159,-219.313C37.2898,-211.289 37.0154,-201.547 36.7625,-192.569"/>
<polygon fill="black" stroke="black" points="40.26,-192.426 36.4797,-182.529 33.2627,-192.623 40.26,-192.426"/>
</g>
<!-- Bombs -->
<g id="node8" class="node"><title>Bombs</title>
<polygon fill="none" stroke="black" points="89.5,-146.5 89.5,-182.5 146.5,-182.5 146.5,-146.5 89.5,-146.5"/>
<text text-anchor="middle" x="118" y="-160.8" font-family="Times New Roman,serif" font-size="14.00">Bombs</text>
</g>
<!-- Collisions&#45;&gt;Bombs -->
<g id="edge3" class="edge"><title>Collisions&#45;&gt;Bombs</title>
<path fill="none" stroke="black" d="M57.3658,-219.313C67.4871,-210.33 80.0357,-199.193 91.0866,-189.386"/>
<polygon fill="black" stroke="black" points="93.6566,-191.784 98.8126,-182.529 89.01,-186.549 93.6566,-191.784"/>
</g>
<!-- MarchingSquaresGrid -->
<g id="node3" class="node"><title>MarchingSquaresGrid</title>
<polygon fill="none" stroke="gray" points="97.5,-292.5 97.5,-328.5 248.5,-328.5 248.5,-292.5 97.5,-292.5"/>
<text text-anchor="start" x="105.5" y="-314.3" font-family="Times New Roman,serif" font-size="14.00" fill="gray">Marching Squares Grid </text>
<text text-anchor="start" x="143.5" y="-300.3" font-family="Times New Roman,serif" font-size="14.00" fill="gray"> </text>
<text text-anchor="start" x="147.5" y="-300.3" font-family="Times New Roman,serif" font-style="italic" font-size="14.00" fill="gray">Complete</text>
</g>
<!-- Panels -->
<g id="node6" class="node"><title>Panels</title>
<polygon fill="none" stroke="black" points="147,-219.5 147,-255.5 201,-255.5 201,-219.5 147,-219.5"/>
<text text-anchor="middle" x="174" y="-233.8" font-family="Times New Roman,serif" font-size="14.00">Panels</text>
</g>
<!-- MarchingSquaresGrid&#45;&gt;Panels -->
<g id="edge4" class="edge"><title>MarchingSquaresGrid&#45;&gt;Panels</title>
<path fill="none" stroke="black" d="M173.242,-292.313C173.355,-284.289 173.492,-274.547 173.619,-265.569"/>
<polygon fill="black" stroke="black" points="177.119,-265.577 173.76,-255.529 170.12,-265.479 177.119,-265.577"/>
</g>
<!-- Camera -->
<g id="node4" class="node"><title>Camera</title>
<polygon fill="none" stroke="gray" points="266.5,-292.5 266.5,-328.5 341.5,-328.5 341.5,-292.5 266.5,-292.5"/>
<text text-anchor="start" x="280.5" y="-314.3" font-family="Times New Roman,serif" font-size="14.00" fill="gray">Camera </text>
<text text-anchor="start" x="274.5" y="-300.3" font-family="Times New Roman,serif" font-size="14.00" fill="gray"> </text>
<text text-anchor="start" x="278.5" y="-300.3" font-family="Times New Roman,serif" font-style="italic" font-size="14.00" fill="gray">Complete</text>
</g>
<!-- Camera&#45;&gt;Panels -->
<g id="edge5" class="edge"><title>Camera&#45;&gt;Panels</title>
<path fill="none" stroke="black" d="M272.862,-292.494C254.056,-282.223 230.005,-269.087 210.333,-258.344"/>
<polygon fill="black" stroke="black" points="211.809,-255.162 201.355,-253.44 208.454,-261.305 211.809,-255.162"/>
</g>
<!-- GameEmbed -->
<g id="node5" class="node"><title>GameEmbed</title>
<polygon fill="none" stroke="black" points="163.5,-73.5 163.5,-109.5 260.5,-109.5 260.5,-73.5 163.5,-73.5"/>
<text text-anchor="start" x="171.5" y="-95.3" font-family="Times New Roman,serif" font-size="14.00">Game Embed </text>
<text text-anchor="start" x="176.5" y="-81.3" font-family="Times New Roman,serif" font-size="14.00"> </text>
<text text-anchor="start" x="180.5" y="-81.3" font-family="Times New Roman,serif" font-style="italic" font-size="14.00">In Progress</text>
</g>
<!-- Publish -->
<g id="node11" class="node"><title>Publish</title>
<polygon fill="none" stroke="black" points="183,-0.5 183,-36.5 241,-36.5 241,-0.5 183,-0.5"/>
<text text-anchor="middle" x="212" y="-14.8" font-family="Times New Roman,serif" font-size="14.00">Publish</text>
</g>
<!-- GameEmbed&#45;&gt;Publish -->
<g id="edge6" class="edge"><title>GameEmbed&#45;&gt;Publish</title>
<path fill="none" stroke="black" d="M212,-73.3129C212,-65.2895 212,-55.5475 212,-46.5691"/>
<polygon fill="black" stroke="black" points="215.5,-46.5288 212,-36.5288 208.5,-46.5289 215.5,-46.5288"/>
</g>
<!-- Panels&#45;&gt;Bombs -->
<g id="edge7" class="edge"><title>Panels&#45;&gt;Bombs</title>
<path fill="none" stroke="black" d="M160.444,-219.313C153.634,-210.679 145.255,-200.055 137.745,-190.534"/>
<polygon fill="black" stroke="black" points="140.372,-188.213 131.431,-182.529 134.876,-192.548 140.372,-188.213"/>
</g>
<!-- Score -->
<g id="node9" class="node"><title>Score</title>
<polygon fill="none" stroke="black" points="91,-73.5 91,-109.5 145,-109.5 145,-73.5 91,-73.5"/>
<text text-anchor="middle" x="118" y="-87.8" font-family="Times New Roman,serif" font-size="14.00">Score</text>
</g>
<!-- Panels&#45;&gt;Score -->
<g id="edge8" class="edge"><title>Panels&#45;&gt;Score</title>
<path fill="none" stroke="black" d="M172.431,-219.208C170.271,-200.527 165.398,-170.189 155,-146 150.785,-136.196 144.64,-126.339 138.565,-117.806"/>
<polygon fill="black" stroke="black" points="141.361,-115.701 132.586,-109.764 135.743,-119.877 141.361,-115.701"/>
</g>
<!-- Character&#45;&gt;Score -->
<g id="edge9" class="edge"><title>Character&#45;&gt;Score</title>
<path fill="none" stroke="black" d="M55.8499,-146.313C66.325,-137.243 79.3366,-125.977 90.7433,-116.1"/>
<polygon fill="black" stroke="black" points="93.064,-118.721 98.3329,-109.529 88.4819,-113.429 93.064,-118.721"/>
</g>
<!-- Bombs&#45;&gt;Score -->
<g id="edge10" class="edge"><title>Bombs&#45;&gt;Score</title>
<path fill="none" stroke="black" d="M118,-146.313C118,-138.289 118,-128.547 118,-119.569"/>
<polygon fill="black" stroke="black" points="121.5,-119.529 118,-109.529 114.5,-119.529 121.5,-119.529"/>
</g>
<!-- Score&#45;&gt;Publish -->
<g id="edge11" class="edge"><title>Score&#45;&gt;Publish</title>
<path fill="none" stroke="black" d="M140.755,-73.3129C152.878,-64.1558 167.966,-52.76 181.131,-42.8158"/>
<polygon fill="black" stroke="black" points="183.585,-45.3489 189.455,-36.5288 179.366,-39.7632 183.585,-45.3489"/>
</g>
<!-- SoundEffects -->
<g id="node10" class="node"><title>SoundEffects</title>
<polygon fill="none" stroke="black" points="278.5,-73.5 278.5,-109.5 375.5,-109.5 375.5,-73.5 278.5,-73.5"/>
<text text-anchor="start" x="286.5" y="-87.8" font-family="Times New Roman,serif" font-size="14.00">Sound Effects</text>
</g>
<!-- SoundEffects&#45;&gt;Publish -->
<g id="edge12" class="edge"><title>SoundEffects&#45;&gt;Publish</title>
<path fill="none" stroke="black" d="M299.455,-73.4937C284.205,-64.0785 265.055,-52.2554 248.565,-42.0748"/>
<polygon fill="black" stroke="black" points="250.067,-38.8888 239.719,-36.6136 246.389,-44.8451 250.067,-38.8888"/>
</g>
</g>
</svg>
