<?xml version="1.0" encoding="UTF-8" standalone="no"?>
<!DOCTYPE svg PUBLIC "-//W3C//DTD SVG 1.1//EN"
 "http://www.w3.org/Graphics/SVG/1.1/DTD/svg11.dtd">
<!-- Generated by graphviz version 2.38.0 (20140413.2041)
 -->
<!-- Title: %3 Pages: 1 -->
<svg width="678pt" height="191pt"
 viewBox="0.00 0.00 678.00 191.00" xmlns="http://www.w3.org/2000/svg" xmlns:xlink="http://www.w3.org/1999/xlink">
<g id="graph0" class="graph" transform="scale(1 1) rotate(0) translate(4 187)">
<title>%3</title>
<polygon fill="white" stroke="none" points="-4,4 -4,-187 674,-187 674,4 -4,4"/>
<!-- PandointheBrowser -->
<g id="node1" class="node"><title>PandointheBrowser</title>
<polygon fill="none" stroke="black" points="224.5,-146.5 224.5,-182.5 365.5,-182.5 365.5,-146.5 224.5,-146.5"/>
<text text-anchor="start" x="232.5" y="-168.3" font-family="Times New Roman,serif" font-size="14.00">Pando in the Browser </text>
<text text-anchor="start" x="259.5" y="-154.3" font-family="Times New Roman,serif" font-size="14.00"> </text>
<text text-anchor="start" x="263.5" y="-154.3" font-family="Times New Roman,serif" font-style="italic" font-size="14.00">In Progress</text>
</g>
<!-- SVGEventHandlers -->
<g id="node4" class="node"><title>SVGEventHandlers</title>
<polygon fill="none" stroke="black" points="104,-73.5 104,-109.5 238,-109.5 238,-73.5 104,-73.5"/>
<text text-anchor="start" x="112" y="-87.8" font-family="Times New Roman,serif" font-size="14.00">SVG Event Handlers</text>
</g>
<!-- PandointheBrowser&#45;&gt;SVGEventHandlers -->
<g id="edge1" class="edge"><title>PandointheBrowser&#45;&gt;SVGEventHandlers</title>
<path fill="none" stroke="black" d="M265.299,-146.494C248.703,-136.991 227.824,-125.036 209.933,-114.792"/>
<polygon fill="black" stroke="black" points="211.306,-111.545 200.889,-109.614 207.827,-117.62 211.306,-111.545"/>
</g>
<!-- NewNode -->
<g id="node5" class="node"><title>NewNode</title>
<polygon fill="none" stroke="black" points="256.5,-73.5 256.5,-109.5 333.5,-109.5 333.5,-73.5 256.5,-73.5"/>
<text text-anchor="start" x="264.5" y="-87.8" font-family="Times New Roman,serif" font-size="14.00">New Node</text>
</g>
<!-- PandointheBrowser&#45;&gt;NewNode -->
<g id="edge2" class="edge"><title>PandointheBrowser&#45;&gt;NewNode</title>
<path fill="none" stroke="black" d="M295,-146.313C295,-138.289 295,-128.547 295,-119.569"/>
<polygon fill="black" stroke="black" points="298.5,-119.529 295,-109.529 291.5,-119.529 298.5,-119.529"/>
</g>
<!-- ExportSVG -->
<g id="node10" class="node"><title>ExportSVG</title>
<polygon fill="none" stroke="black" points="351.5,-73.5 351.5,-109.5 438.5,-109.5 438.5,-73.5 351.5,-73.5"/>
<text text-anchor="start" x="359.5" y="-87.8" font-family="Times New Roman,serif" font-size="14.00">Export SVG</text>
</g>
<!-- PandointheBrowser&#45;&gt;ExportSVG -->
<g id="edge3" class="edge"><title>PandointheBrowser&#45;&gt;ExportSVG</title>
<path fill="none" stroke="black" d="M318.952,-146.494C331.968,-137.253 348.25,-125.692 362.406,-115.642"/>
<polygon fill="black" stroke="black" points="364.769,-118.257 370.896,-109.614 360.716,-112.549 364.769,-118.257"/>
</g>
<!-- NonCollidingAbbreviationGenerator -->
<g id="node2" class="node"><title>NonCollidingAbbreviationGenerator</title>
<polygon fill="none" stroke="black" points="440,-146.5 440,-182.5 670,-182.5 670,-146.5 440,-146.5"/>
<text text-anchor="start" x="448" y="-160.8" font-family="Times New Roman,serif" font-size="14.00">Non Colliding Abbreviation Generator</text>
</g>
<!-- TreeStructuretoPandoFormat -->
<g id="node3" class="node"><title>TreeStructuretoPandoFormat</title>
<polygon fill="none" stroke="black" points="457,-73.5 457,-109.5 653,-109.5 653,-73.5 457,-73.5"/>
<text text-anchor="start" x="465" y="-87.8" font-family="Times New Roman,serif" font-size="14.00">Tree Structure to Pando Format</text>
</g>
<!-- NonCollidingAbbreviationGenerator&#45;&gt;TreeStructuretoPandoFormat -->
<g id="edge4" class="edge"><title>NonCollidingAbbreviationGenerator&#45;&gt;TreeStructuretoPandoFormat</title>
<path fill="none" stroke="black" d="M555,-146.313C555,-138.289 555,-128.547 555,-119.569"/>
<polygon fill="black" stroke="black" points="558.5,-119.529 555,-109.529 551.5,-119.529 558.5,-119.529"/>
</g>
<!-- SavePandoFormat -->
<g id="node9" class="node"><title>SavePandoFormat</title>
<polygon fill="none" stroke="black" points="491,-0.5 491,-36.5 619,-36.5 619,-0.5 491,-0.5"/>
<text text-anchor="start" x="499" y="-14.8" font-family="Times New Roman,serif" font-size="14.00">Save Pando Format</text>
</g>
<!-- TreeStructuretoPandoFormat&#45;&gt;SavePandoFormat -->
<g id="edge5" class="edge"><title>TreeStructuretoPandoFormat&#45;&gt;SavePandoFormat</title>
<path fill="none" stroke="black" d="M555,-73.3129C555,-65.2895 555,-55.5475 555,-46.5691"/>
<polygon fill="black" stroke="black" points="558.5,-46.5288 555,-36.5288 551.5,-46.5289 558.5,-46.5288"/>
</g>
<!-- NewConnection -->
<g id="node6" class="node"><title>NewConnection</title>
<polygon fill="none" stroke="black" points="0,-0.5 0,-36.5 110,-36.5 110,-0.5 0,-0.5"/>
<text text-anchor="start" x="8" y="-14.8" font-family="Times New Roman,serif" font-size="14.00">New Connection</text>
</g>
<!-- SVGEventHandlers&#45;&gt;NewConnection -->
<g id="edge6" class="edge"><title>SVGEventHandlers&#45;&gt;NewConnection</title>
<path fill="none" stroke="black" d="M143.215,-73.4937C127.833,-64.0785 108.516,-52.2554 91.8828,-42.0748"/>
<polygon fill="black" stroke="black" points="93.3166,-38.8489 82.9602,-36.6136 89.6622,-44.8193 93.3166,-38.8489"/>
</g>
<!-- DeleteNode -->
<g id="node7" class="node"><title>DeleteNode</title>
<polygon fill="none" stroke="black" points="128,-0.5 128,-36.5 214,-36.5 214,-0.5 128,-0.5"/>
<text text-anchor="start" x="136" y="-14.8" font-family="Times New Roman,serif" font-size="14.00">Delete Node</text>
</g>
<!-- SVGEventHandlers&#45;&gt;DeleteNode -->
<g id="edge7" class="edge"><title>SVGEventHandlers&#45;&gt;DeleteNode</title>
<path fill="none" stroke="black" d="M171,-73.3129C171,-65.2895 171,-55.5475 171,-46.5691"/>
<polygon fill="black" stroke="black" points="174.5,-46.5288 171,-36.5288 167.5,-46.5289 174.5,-46.5288"/>
</g>
<!-- DeleteConnection -->
<g id="node8" class="node"><title>DeleteConnection</title>
<polygon fill="none" stroke="black" points="232.5,-0.5 232.5,-36.5 351.5,-36.5 351.5,-0.5 232.5,-0.5"/>
<text text-anchor="start" x="240.5" y="-14.8" font-family="Times New Roman,serif" font-size="14.00">Delete Connection</text>
</g>
<!-- SVGEventHandlers&#45;&gt;DeleteConnection -->
<g id="edge8" class="edge"><title>SVGEventHandlers&#45;&gt;DeleteConnection</title>
<path fill="none" stroke="black" d="M199.983,-73.4937C216.177,-63.9914 236.551,-52.0363 254.009,-41.7924"/>
<polygon fill="black" stroke="black" points="255.981,-44.6932 262.835,-36.6136 252.438,-38.6558 255.981,-44.6932"/>
</g>
</g>
</svg>
