<?xml version="1.0" encoding="UTF-8" standalone="no"?>
<!DOCTYPE svg PUBLIC "-//W3C//DTD SVG 1.1//EN"
 "http://www.w3.org/Graphics/SVG/1.1/DTD/svg11.dtd">
<!-- Generated by graphviz version 2.38.0 (20140413.2041)
 -->
<!-- Title: %3 Pages: 1 -->
<svg width="586pt" height="410pt"
 viewBox="0.00 0.00 586.00 410.00" xmlns="http://www.w3.org/2000/svg" xmlns:xlink="http://www.w3.org/1999/xlink">
<g id="graph0" class="graph" transform="scale(1 1) rotate(0) translate(4 406)">
<title>%3</title>
<polygon fill="white" stroke="none" points="-4,4 -4,-406 582,-406 582,4 -4,4"/>
<!-- GetPixel -->
<g id="node1" class="node"><title>GetPixel</title>
<polygon fill="none" stroke="gray" points="320,-365.5 320,-401.5 395,-401.5 395,-365.5 320,-365.5"/>
<text text-anchor="start" x="330" y="-387.3" font-family="Times New Roman,serif" font-size="14.00" fill="gray">Get Pixel </text>
<text text-anchor="start" x="328" y="-373.3" font-family="Times New Roman,serif" font-size="14.00" fill="gray"> </text>
<text text-anchor="start" x="332" y="-373.3" font-family="Times New Roman,serif" font-style="italic" font-size="14.00" fill="gray">Complete</text>
</g>
<!-- Collisions -->
<g id="node2" class="node"><title>Collisions</title>
<polygon fill="none" stroke="gray" points="319.5,-292.5 319.5,-328.5 395.5,-328.5 395.5,-292.5 319.5,-292.5"/>
<text text-anchor="start" x="327.5" y="-314.3" font-family="Times New Roman,serif" font-size="14.00" fill="gray">Collisions </text>
<text text-anchor="start" x="328" y="-300.3" font-family="Times New Roman,serif" font-size="14.00" fill="gray"> </text>
<text text-anchor="start" x="332" y="-300.3" font-family="Times New Roman,serif" font-style="italic" font-size="14.00" fill="gray">Complete</text>
</g>
<!-- GetPixel&#45;&gt;Collisions -->
<g id="edge1" class="edge"><title>GetPixel&#45;&gt;Collisions</title>
<path fill="none" stroke="black" d="M357.5,-365.313C357.5,-357.289 357.5,-347.547 357.5,-338.569"/>
<polygon fill="black" stroke="black" points="361,-338.529 357.5,-328.529 354,-338.529 361,-338.529"/>
</g>
<!-- Character -->
<g id="node7" class="node"><title>Character</title>
<polygon fill="none" stroke="black" points="335,-219.5 335,-255.5 406,-255.5 406,-219.5 335,-219.5"/>
<text text-anchor="middle" x="370.5" y="-233.8" font-family="Times New Roman,serif" font-size="14.00">Character</text>
</g>
<!-- Collisions&#45;&gt;Character -->
<g id="edge2" class="edge"><title>Collisions&#45;&gt;Character</title>
<path fill="none" stroke="black" d="M360.647,-292.313C362.116,-284.289 363.9,-274.547 365.544,-265.569"/>
<polygon fill="black" stroke="black" points="369.024,-265.996 367.382,-255.529 362.138,-264.735 369.024,-265.996"/>
</g>
<!-- Bombs -->
<g id="node8" class="node"><title>Bombs</title>
<polygon fill="none" stroke="gray" points="242,-219.5 242,-255.5 317,-255.5 317,-219.5 242,-219.5"/>
<text text-anchor="start" x="257" y="-241.3" font-family="Times New Roman,serif" font-size="14.00" fill="gray">Bombs </text>
<text text-anchor="start" x="250" y="-227.3" font-family="Times New Roman,serif" font-size="14.00" fill="gray"> </text>
<text text-anchor="start" x="254" y="-227.3" font-family="Times New Roman,serif" font-style="italic" font-size="14.00" fill="gray">Complete</text>
</g>
<!-- Collisions&#45;&gt;Bombs -->
<g id="edge3" class="edge"><title>Collisions&#45;&gt;Bombs</title>
<path fill="none" stroke="black" d="M338.618,-292.313C328.75,-283.33 316.515,-272.193 305.741,-262.386"/>
<polygon fill="black" stroke="black" points="307.959,-259.672 298.208,-255.529 303.247,-264.849 307.959,-259.672"/>
</g>
<!-- MarchingSquaresGrid -->
<g id="node3" class="node"><title>MarchingSquaresGrid</title>
<polygon fill="none" stroke="gray" points="145,-365.5 145,-401.5 296,-401.5 296,-365.5 145,-365.5"/>
<text text-anchor="start" x="153" y="-387.3" font-family="Times New Roman,serif" font-size="14.00" fill="gray">Marching Squares Grid </text>
<text text-anchor="start" x="191" y="-373.3" font-family="Times New Roman,serif" font-size="14.00" fill="gray"> </text>
<text text-anchor="start" x="195" y="-373.3" font-family="Times New Roman,serif" font-style="italic" font-size="14.00" fill="gray">Complete</text>
</g>
<!-- Panels -->
<g id="node6" class="node"><title>Panels</title>
<polygon fill="none" stroke="gray" points="176,-292.5 176,-328.5 251,-328.5 251,-292.5 176,-292.5"/>
<text text-anchor="start" x="193.5" y="-314.3" font-family="Times New Roman,serif" font-size="14.00" fill="gray">Panels </text>
<text text-anchor="start" x="184" y="-300.3" font-family="Times New Roman,serif" font-size="14.00" fill="gray"> </text>
<text text-anchor="start" x="188" y="-300.3" font-family="Times New Roman,serif" font-style="italic" font-size="14.00" fill="gray">Complete</text>
</g>
<!-- MarchingSquaresGrid&#45;&gt;Panels -->
<g id="edge4" class="edge"><title>MarchingSquaresGrid&#45;&gt;Panels</title>
<path fill="none" stroke="black" d="M218.805,-365.313C218.014,-357.289 217.054,-347.547 216.169,-338.569"/>
<polygon fill="black" stroke="black" points="219.643,-338.137 215.179,-328.529 212.677,-338.824 219.643,-338.137"/>
</g>
<!-- Camera -->
<g id="node4" class="node"><title>Camera</title>
<polygon fill="none" stroke="gray" points="52,-365.5 52,-401.5 127,-401.5 127,-365.5 52,-365.5"/>
<text text-anchor="start" x="66" y="-387.3" font-family="Times New Roman,serif" font-size="14.00" fill="gray">Camera </text>
<text text-anchor="start" x="60" y="-373.3" font-family="Times New Roman,serif" font-size="14.00" fill="gray"> </text>
<text text-anchor="start" x="64" y="-373.3" font-family="Times New Roman,serif" font-style="italic" font-size="14.00" fill="gray">Complete</text>
</g>
<!-- Camera&#45;&gt;Panels -->
<g id="edge5" class="edge"><title>Camera&#45;&gt;Panels</title>
<path fill="none" stroke="black" d="M119.201,-365.494C135.797,-355.991 156.676,-344.036 174.567,-333.792"/>
<polygon fill="black" stroke="black" points="176.673,-336.62 183.611,-328.614 173.194,-330.545 176.673,-336.62"/>
</g>
<!-- GameEmbed -->
<g id="node5" class="node"><title>GameEmbed</title>
<polygon fill="none" stroke="gray" points="0,-73.5 0,-109.5 97,-109.5 97,-73.5 0,-73.5"/>
<text text-anchor="start" x="8" y="-95.3" font-family="Times New Roman,serif" font-size="14.00" fill="gray">Game Embed </text>
<text text-anchor="start" x="19" y="-81.3" font-family="Times New Roman,serif" font-size="14.00" fill="gray"> </text>
<text text-anchor="start" x="23" y="-81.3" font-family="Times New Roman,serif" font-style="italic" font-size="14.00" fill="gray">Complete</text>
</g>
<!-- Publish -->
<g id="node15" class="node"><title>Publish</title>
<polygon fill="none" stroke="black" points="211.5,-0.5 211.5,-36.5 269.5,-36.5 269.5,-0.5 211.5,-0.5"/>
<text text-anchor="middle" x="240.5" y="-14.8" font-family="Times New Roman,serif" font-size="14.00">Publish</text>
</g>
<!-- GameEmbed&#45;&gt;Publish -->
<g id="edge6" class="edge"><title>GameEmbed&#45;&gt;Publish</title>
<path fill="none" stroke="black" d="M94.4888,-73.4937C127.224,-61.3887 170.722,-45.3034 201.706,-33.8458"/>
<polygon fill="black" stroke="black" points="203.131,-37.0505 211.296,-30.2994 200.703,-30.485 203.131,-37.0505"/>
</g>
<!-- Panels&#45;&gt;Bombs -->
<g id="edge7" class="edge"><title>Panels&#45;&gt;Bombs</title>
<path fill="none" stroke="black" d="M229.477,-292.313C237.665,-283.505 247.778,-272.625 256.764,-262.958"/>
<polygon fill="black" stroke="black" points="259.425,-265.236 263.67,-255.529 254.298,-260.47 259.425,-265.236"/>
</g>
<!-- Score -->
<g id="node9" class="node"><title>Score</title>
<polygon fill="none" stroke="gray" points="242,-146.5 242,-182.5 317,-182.5 317,-146.5 242,-146.5"/>
<text text-anchor="start" x="261" y="-168.3" font-family="Times New Roman,serif" font-size="14.00" fill="gray">Score </text>
<text text-anchor="start" x="250" y="-154.3" font-family="Times New Roman,serif" font-size="14.00" fill="gray"> </text>
<text text-anchor="start" x="254" y="-154.3" font-family="Times New Roman,serif" font-style="italic" font-size="14.00" fill="gray">Complete</text>
</g>
<!-- Panels&#45;&gt;Score -->
<g id="edge8" class="edge"><title>Panels&#45;&gt;Score</title>
<path fill="none" stroke="black" d="M214.503,-292.304C216.181,-273.438 220.648,-242.69 232.5,-219 237.752,-208.503 245.572,-198.434 253.334,-189.919"/>
<polygon fill="black" stroke="black" points="255.983,-192.212 260.37,-182.568 250.926,-187.372 255.983,-192.212"/>
</g>
<!-- TerrainVariation -->
<g id="node11" class="node"><title>TerrainVariation</title>
<polygon fill="none" stroke="black" points="89.5,-146.5 89.5,-182.5 203.5,-182.5 203.5,-146.5 89.5,-146.5"/>
<text text-anchor="start" x="97.5" y="-168.3" font-family="Times New Roman,serif" font-size="14.00">Terrain Variation </text>
<text text-anchor="start" x="111" y="-154.3" font-family="Times New Roman,serif" font-size="14.00"> </text>
<text text-anchor="start" x="115" y="-154.3" font-family="Times New Roman,serif" font-style="italic" font-size="14.00">In Progress</text>
</g>
<!-- Panels&#45;&gt;TerrainVariation -->
<g id="edge9" class="edge"><title>Panels&#45;&gt;TerrainVariation</title>
<path fill="none" stroke="black" d="M205.551,-292.416C193.966,-267.516 172.343,-221.044 158.724,-191.773"/>
<polygon fill="black" stroke="black" points="161.83,-190.152 154.439,-182.562 155.484,-193.105 161.83,-190.152"/>
</g>
<!-- Character&#45;&gt;Score -->
<g id="edge10" class="edge"><title>Character&#45;&gt;Score</title>
<path fill="none" stroke="black" d="M348.471,-219.313C336.735,-210.156 322.129,-198.76 309.384,-188.816"/>
<polygon fill="black" stroke="black" points="311.363,-185.921 301.326,-182.529 307.057,-191.44 311.363,-185.921"/>
</g>
<!-- Bombs&#45;&gt;Score -->
<g id="edge11" class="edge"><title>Bombs&#45;&gt;Score</title>
<path fill="none" stroke="black" d="M279.5,-219.313C279.5,-211.289 279.5,-201.547 279.5,-192.569"/>
<polygon fill="black" stroke="black" points="283,-192.529 279.5,-182.529 276,-192.529 283,-192.529"/>
</g>
<!-- Explosions -->
<g id="node12" class="node"><title>Explosions</title>
<polygon fill="none" stroke="black" points="335,-146.5 335,-182.5 422,-182.5 422,-146.5 335,-146.5"/>
<text text-anchor="start" x="345" y="-168.3" font-family="Times New Roman,serif" font-size="14.00">Explosions </text>
<text text-anchor="start" x="343" y="-154.3" font-family="Times New Roman,serif" font-size="14.00"> </text>
<text text-anchor="start" x="347" y="-154.3" font-family="Times New Roman,serif" font-style="italic" font-size="14.00">In Progress</text>
</g>
<!-- Bombs&#45;&gt;Explosions -->
<g id="edge12" class="edge"><title>Bombs&#45;&gt;Explosions</title>
<path fill="none" stroke="black" d="M303.213,-219.494C316.098,-210.253 332.218,-198.692 346.232,-188.642"/>
<polygon fill="black" stroke="black" points="348.551,-191.286 354.637,-182.614 344.471,-185.597 348.551,-191.286"/>
</g>
<!-- GameOverScreen -->
<g id="node14" class="node"><title>GameOverScreen</title>
<polygon fill="none" stroke="black" points="455,-73.5 455,-109.5 578,-109.5 578,-73.5 455,-73.5"/>
<text text-anchor="start" x="463" y="-87.8" font-family="Times New Roman,serif" font-size="14.00">Game Over Screen</text>
</g>
<!-- Score&#45;&gt;GameOverScreen -->
<g id="edge13" class="edge"><title>Score&#45;&gt;GameOverScreen</title>
<path fill="none" stroke="black" d="M317.056,-148.895C319.903,-147.886 322.741,-146.909 325.5,-146 364.513,-133.144 408.639,-120.653 444.642,-110.978"/>
<polygon fill="black" stroke="black" points="445.812,-114.288 454.57,-108.326 444.006,-107.526 445.812,-114.288"/>
</g>
<!-- Score&#45;&gt;Publish -->
<g id="edge14" class="edge"><title>Score&#45;&gt;Publish</title>
<path fill="none" stroke="black" d="M276.363,-146.329C272.863,-128.007 266.732,-98.2113 259.5,-73 256.96,-64.1474 253.744,-54.6298 250.682,-46.1121"/>
<polygon fill="black" stroke="black" points="253.947,-44.8488 247.21,-36.672 247.377,-47.2655 253.947,-44.8488"/>
</g>
<!-- SoundEffects -->
<g id="node10" class="node"><title>SoundEffects</title>
<polygon fill="none" stroke="black" points="154,-73.5 154,-109.5 251,-109.5 251,-73.5 154,-73.5"/>
<text text-anchor="start" x="162" y="-87.8" font-family="Times New Roman,serif" font-size="14.00">Sound Effects</text>
</g>
<!-- SoundEffects&#45;&gt;Publish -->
<g id="edge15" class="edge"><title>SoundEffects&#45;&gt;Publish</title>
<path fill="none" stroke="black" d="M211.699,-73.3129C216.18,-64.9407 221.662,-54.6971 226.637,-45.4026"/>
<polygon fill="black" stroke="black" points="229.753,-46.9971 231.386,-36.5288 223.581,-43.6939 229.753,-46.9971"/>
</g>
<!-- TerrainVariation&#45;&gt;Publish -->
<g id="edge16" class="edge"><title>TerrainVariation&#45;&gt;Publish</title>
<path fill="none" stroke="black" d="M141.122,-146.496C136.107,-127.247 131.205,-95.6287 144.5,-73 156.849,-51.9813 180.784,-38.6168 201.664,-30.5017"/>
<polygon fill="black" stroke="black" points="203.074,-33.7138 211.296,-27.0315 200.702,-27.1281 203.074,-33.7138"/>
</g>
<!-- ParalaxBackground -->
<g id="node13" class="node"><title>ParalaxBackground</title>
<polygon fill="none" stroke="black" points="308,-73.5 308,-109.5 437,-109.5 437,-73.5 308,-73.5"/>
<text text-anchor="start" x="316" y="-87.8" font-family="Times New Roman,serif" font-size="14.00">Paralax Background</text>
</g>
<!-- ParalaxBackground&#45;&gt;Publish -->
<g id="edge17" class="edge"><title>ParalaxBackground&#45;&gt;Publish</title>
<path fill="none" stroke="black" d="M340.883,-73.4937C322.183,-63.4356 298.375,-50.6295 278.638,-40.0134"/>
<polygon fill="black" stroke="black" points="280.068,-36.8087 269.603,-35.154 276.752,-42.9735 280.068,-36.8087"/>
</g>
<!-- GameOverScreen&#45;&gt;Publish -->
<g id="edge18" class="edge"><title>GameOverScreen&#45;&gt;Publish</title>
<path fill="none" stroke="black" d="M454.904,-74.6546C401.287,-60.862 325.203,-41.2894 279.563,-29.5487"/>
<polygon fill="black" stroke="black" points="280.309,-26.1269 269.753,-27.0251 278.565,-32.9062 280.309,-26.1269"/>
</g>
</g>
</svg>
