<?xml version="1.0" encoding="UTF-8" standalone="no"?>
<!DOCTYPE svg PUBLIC "-//W3C//DTD SVG 1.1//EN"
 "http://www.w3.org/Graphics/SVG/1.1/DTD/svg11.dtd">
<!-- Generated by graphviz version 2.38.0 (20140413.2041)
 -->
<!-- Title: %3 Pages: 1 -->
<svg width="618pt" height="483pt"
 viewBox="0.00 0.00 618.00 483.00" xmlns="http://www.w3.org/2000/svg" xmlns:xlink="http://www.w3.org/1999/xlink">
<g id="graph0" class="graph" transform="scale(1 1) rotate(0) translate(4 479)">
<title>%3</title>
<polygon fill="white" stroke="none" points="-4,4 -4,-479 614,-479 614,4 -4,4"/>
<!-- Renderer -->
<g id="node1" class="node"><title>Renderer</title>
<polygon fill="none" stroke="gray" points="154,-438.5 154,-474.5 229,-474.5 229,-438.5 154,-438.5"/>
<text text-anchor="start" x="164" y="-460.3" font-family="Times New Roman,serif" font-size="14.00" fill="gray">Renderer </text>
<text text-anchor="start" x="162" y="-446.3" font-family="Times New Roman,serif" font-size="14.00" fill="gray"> </text>
<text text-anchor="start" x="166" y="-446.3" font-family="Times New Roman,serif" font-style="italic" font-size="14.00" fill="gray">Complete</text>
</g>
<!-- Grid -->
<g id="node2" class="node"><title>Grid</title>
<polygon fill="none" stroke="gray" points="201,-365.5 201,-401.5 276,-401.5 276,-365.5 201,-365.5"/>
<text text-anchor="start" x="223.5" y="-387.3" font-family="Times New Roman,serif" font-size="14.00" fill="gray">Grid </text>
<text text-anchor="start" x="209" y="-373.3" font-family="Times New Roman,serif" font-size="14.00" fill="gray"> </text>
<text text-anchor="start" x="213" y="-373.3" font-family="Times New Roman,serif" font-style="italic" font-size="14.00" fill="gray">Complete</text>
</g>
<!-- Renderer&#45;&gt;Grid -->
<g id="edge1" class="edge"><title>Renderer&#45;&gt;Grid</title>
<path fill="none" stroke="black" d="M202.877,-438.313C208.477,-429.853 215.342,-419.484 221.545,-410.112"/>
<polygon fill="black" stroke="black" points="224.626,-411.799 227.227,-401.529 218.789,-407.935 224.626,-411.799"/>
</g>
<!-- Touch -->
<g id="node3" class="node"><title>Touch</title>
<polygon fill="none" stroke="gray" points="108,-365.5 108,-401.5 183,-401.5 183,-365.5 108,-365.5"/>
<text text-anchor="start" x="125" y="-387.3" font-family="Times New Roman,serif" font-size="14.00" fill="gray">Touch </text>
<text text-anchor="start" x="116" y="-373.3" font-family="Times New Roman,serif" font-size="14.00" fill="gray"> </text>
<text text-anchor="start" x="120" y="-373.3" font-family="Times New Roman,serif" font-style="italic" font-size="14.00" fill="gray">Complete</text>
</g>
<!-- Renderer&#45;&gt;Touch -->
<g id="edge2" class="edge"><title>Renderer&#45;&gt;Touch</title>
<path fill="none" stroke="black" d="M180.365,-438.313C174.884,-429.853 168.165,-419.484 162.094,-410.112"/>
<polygon fill="black" stroke="black" points="164.908,-408.018 156.533,-401.529 159.033,-411.824 164.908,-408.018"/>
</g>
<!-- Advancing -->
<g id="node4" class="node"><title>Advancing</title>
<polygon fill="none" stroke="gray" points="227.5,-292.5 227.5,-328.5 307.5,-328.5 307.5,-292.5 227.5,-292.5"/>
<text text-anchor="start" x="235.5" y="-314.3" font-family="Times New Roman,serif" font-size="14.00" fill="gray">Advancing </text>
<text text-anchor="start" x="238" y="-300.3" font-family="Times New Roman,serif" font-size="14.00" fill="gray"> </text>
<text text-anchor="start" x="242" y="-300.3" font-family="Times New Roman,serif" font-style="italic" font-size="14.00" fill="gray">Complete</text>
</g>
<!-- Grid&#45;&gt;Advancing -->
<g id="edge3" class="edge"><title>Grid&#45;&gt;Advancing</title>
<path fill="none" stroke="black" d="M245.52,-365.313C248.868,-357.115 252.95,-347.123 256.682,-337.985"/>
<polygon fill="black" stroke="black" points="260.003,-339.11 260.545,-328.529 253.523,-336.463 260.003,-339.11"/>
</g>
<!-- BlockDragging -->
<g id="node6" class="node"><title>BlockDragging</title>
<polygon fill="none" stroke="gray" points="64,-292.5 64,-328.5 171,-328.5 171,-292.5 64,-292.5"/>
<text text-anchor="start" x="72" y="-314.3" font-family="Times New Roman,serif" font-size="14.00" fill="gray">Block Dragging </text>
<text text-anchor="start" x="88" y="-300.3" font-family="Times New Roman,serif" font-size="14.00" fill="gray"> </text>
<text text-anchor="start" x="92" y="-300.3" font-family="Times New Roman,serif" font-style="italic" font-size="14.00" fill="gray">Complete</text>
</g>
<!-- Grid&#45;&gt;BlockDragging -->
<g id="edge4" class="edge"><title>Grid&#45;&gt;BlockDragging</title>
<path fill="none" stroke="black" d="M209.517,-365.494C193.323,-355.991 172.949,-344.036 155.491,-333.792"/>
<polygon fill="black" stroke="black" points="157.062,-330.656 146.665,-328.614 153.519,-336.693 157.062,-330.656"/>
</g>
<!-- Touch&#45;&gt;BlockDragging -->
<g id="edge5" class="edge"><title>Touch&#45;&gt;BlockDragging</title>
<path fill="none" stroke="black" d="M138.722,-365.313C135.489,-357.115 131.549,-347.123 127.945,-337.985"/>
<polygon fill="black" stroke="black" points="131.14,-336.548 124.216,-328.529 124.628,-339.116 131.14,-336.548"/>
</g>
<!-- IntentionalAdvance -->
<g id="node9" class="node"><title>IntentionalAdvance</title>
<polygon fill="none" stroke="gray" points="179,-219.5 179,-255.5 310,-255.5 310,-219.5 179,-219.5"/>
<text text-anchor="start" x="187" y="-241.3" font-family="Times New Roman,serif" font-size="14.00" fill="gray">Intentional Advance </text>
<text text-anchor="start" x="215" y="-227.3" font-family="Times New Roman,serif" font-size="14.00" fill="gray"> </text>
<text text-anchor="start" x="219" y="-227.3" font-family="Times New Roman,serif" font-style="italic" font-size="14.00" fill="gray">Complete</text>
</g>
<!-- Touch&#45;&gt;IntentionalAdvance -->
<g id="edge6" class="edge"><title>Touch&#45;&gt;IntentionalAdvance</title>
<path fill="none" stroke="black" d="M157.245,-365.416C174.513,-340.3 206.87,-293.234 226.959,-264.014"/>
<polygon fill="black" stroke="black" points="229.989,-265.785 232.77,-255.562 224.22,-261.82 229.989,-265.785"/>
</g>
<!-- NewRows -->
<g id="node5" class="node"><title>NewRows</title>
<polygon fill="none" stroke="gray" points="328,-219.5 328,-255.5 411,-255.5 411,-219.5 328,-219.5"/>
<text text-anchor="start" x="336" y="-241.3" font-family="Times New Roman,serif" font-size="14.00" fill="gray">New Rows </text>
<text text-anchor="start" x="340" y="-227.3" font-family="Times New Roman,serif" font-size="14.00" fill="gray"> </text>
<text text-anchor="start" x="344" y="-227.3" font-family="Times New Roman,serif" font-style="italic" font-size="14.00" fill="gray">Complete</text>
</g>
<!-- Advancing&#45;&gt;NewRows -->
<g id="edge7" class="edge"><title>Advancing&#45;&gt;NewRows</title>
<path fill="none" stroke="black" d="M291.932,-292.494C305.332,-283.166 322.129,-271.474 336.662,-261.358"/>
<polygon fill="black" stroke="black" points="338.706,-264.199 344.914,-255.614 334.707,-258.454 338.706,-264.199"/>
</g>
<!-- Advancing&#45;&gt;IntentionalAdvance -->
<g id="edge8" class="edge"><title>Advancing&#45;&gt;IntentionalAdvance</title>
<path fill="none" stroke="black" d="M261.932,-292.313C259.305,-284.202 256.109,-274.336 253.174,-265.277"/>
<polygon fill="black" stroke="black" points="256.428,-263.963 250.016,-255.529 249.769,-266.121 256.428,-263.963"/>
</g>
<!-- Lose -->
<g id="node13" class="node"><title>Lose</title>
<polygon fill="none" stroke="black" points="331.5,-146.5 331.5,-182.5 385.5,-182.5 385.5,-146.5 331.5,-146.5"/>
<text text-anchor="middle" x="358.5" y="-160.8" font-family="Times New Roman,serif" font-size="14.00">Lose</text>
</g>
<!-- NewRows&#45;&gt;Lose -->
<g id="edge9" class="edge"><title>NewRows&#45;&gt;Lose</title>
<path fill="none" stroke="black" d="M366.837,-219.313C365.594,-211.289 364.085,-201.547 362.694,-192.569"/>
<polygon fill="black" stroke="black" points="366.128,-191.875 361.138,-182.529 359.211,-192.947 366.128,-191.875"/>
</g>
<!-- Matches -->
<g id="node7" class="node"><title>Matches</title>
<polygon fill="none" stroke="black" points="74,-219.5 74,-255.5 161,-255.5 161,-219.5 74,-219.5"/>
<text text-anchor="start" x="91.5" y="-241.3" font-family="Times New Roman,serif" font-size="14.00">Matches </text>
<text text-anchor="start" x="82" y="-227.3" font-family="Times New Roman,serif" font-size="14.00"> </text>
<text text-anchor="start" x="86" y="-227.3" font-family="Times New Roman,serif" font-style="italic" font-size="14.00">In Progress</text>
</g>
<!-- BlockDragging&#45;&gt;Matches -->
<g id="edge10" class="edge"><title>BlockDragging&#45;&gt;Matches</title>
<path fill="none" stroke="black" d="M117.5,-292.313C117.5,-284.289 117.5,-274.547 117.5,-265.569"/>
<polygon fill="black" stroke="black" points="121,-265.529 117.5,-255.529 114,-265.529 121,-265.529"/>
</g>
<!-- Falling -->
<g id="node8" class="node"><title>Falling</title>
<polygon fill="none" stroke="gray" points="0,-146.5 0,-182.5 75,-182.5 75,-146.5 0,-146.5"/>
<text text-anchor="start" x="17" y="-168.3" font-family="Times New Roman,serif" font-size="14.00" fill="gray">Falling </text>
<text text-anchor="start" x="8" y="-154.3" font-family="Times New Roman,serif" font-size="14.00" fill="gray"> </text>
<text text-anchor="start" x="12" y="-154.3" font-family="Times New Roman,serif" font-style="italic" font-size="14.00" fill="gray">Complete</text>
</g>
<!-- BlockDragging&#45;&gt;Falling -->
<g id="edge11" class="edge"><title>BlockDragging&#45;&gt;Falling</title>
<path fill="none" stroke="black" d="M96.0906,-292.383C85.2588,-282.722 72.7033,-269.832 64.5,-256 52.8395,-236.339 45.8718,-211.252 41.9438,-192.48"/>
<polygon fill="black" stroke="black" points="45.3512,-191.665 40.0168,-182.511 38.4784,-192.994 45.3512,-191.665"/>
</g>
<!-- StopClock -->
<g id="node10" class="node"><title>StopClock</title>
<polygon fill="none" stroke="black" points="93,-146.5 93,-182.5 174,-182.5 174,-146.5 93,-146.5"/>
<text text-anchor="start" x="101" y="-160.8" font-family="Times New Roman,serif" font-size="14.00">Stop Clock</text>
</g>
<!-- Matches&#45;&gt;StopClock -->
<g id="edge12" class="edge"><title>Matches&#45;&gt;StopClock</title>
<path fill="none" stroke="black" d="M121.373,-219.313C123.181,-211.289 125.377,-201.547 127.4,-192.569"/>
<polygon fill="black" stroke="black" points="130.878,-193.054 129.663,-182.529 124.05,-191.515 130.878,-193.054"/>
</g>
<!-- ClearAnimation -->
<g id="node11" class="node"><title>ClearAnimation</title>
<polygon fill="none" stroke="black" points="192.5,-146.5 192.5,-182.5 302.5,-182.5 302.5,-146.5 192.5,-146.5"/>
<text text-anchor="start" x="200.5" y="-168.3" font-family="Times New Roman,serif" font-size="14.00">Clear Animation </text>
<text text-anchor="start" x="212" y="-154.3" font-family="Times New Roman,serif" font-size="14.00"> </text>
<text text-anchor="start" x="216" y="-154.3" font-family="Times New Roman,serif" font-style="italic" font-size="14.00">In Progress</text>
</g>
<!-- Matches&#45;&gt;ClearAnimation -->
<g id="edge13" class="edge"><title>Matches&#45;&gt;ClearAnimation</title>
<path fill="none" stroke="black" d="M148.638,-219.494C166.197,-209.904 188.329,-197.817 207.198,-187.511"/>
<polygon fill="black" stroke="black" points="209.067,-190.479 216.165,-182.614 205.711,-184.335 209.067,-190.479"/>
</g>
<!-- Combo -->
<g id="node12" class="node"><title>Combo</title>
<polygon fill="none" stroke="black" points="146,-73.5 146,-109.5 205,-109.5 205,-73.5 146,-73.5"/>
<text text-anchor="middle" x="175.5" y="-87.8" font-family="Times New Roman,serif" font-size="14.00">Combo</text>
</g>
<!-- Falling&#45;&gt;Combo -->
<g id="edge14" class="edge"><title>Falling&#45;&gt;Combo</title>
<path fill="none" stroke="black" d="M70.5544,-146.494C90.4199,-136.273 115.8,-123.215 136.626,-112.501"/>
<polygon fill="black" stroke="black" points="138.248,-115.602 145.539,-107.915 135.045,-109.378 138.248,-115.602"/>
</g>
<!-- StopClock&#45;&gt;Combo -->
<g id="edge15" class="edge"><title>StopClock&#45;&gt;Combo</title>
<path fill="none" stroke="black" d="M143.667,-146.313C148.62,-137.941 154.679,-127.697 160.177,-118.403"/>
<polygon fill="black" stroke="black" points="163.348,-119.918 165.427,-109.529 157.323,-116.354 163.348,-119.918"/>
</g>
<!-- ClearAnimation&#45;&gt;Combo -->
<g id="edge16" class="edge"><title>ClearAnimation&#45;&gt;Combo</title>
<path fill="none" stroke="black" d="M230.071,-146.313C221.05,-137.417 209.887,-126.409 200.012,-116.672"/>
<polygon fill="black" stroke="black" points="202.347,-114.058 192.769,-109.529 197.432,-119.042 202.347,-114.058"/>
</g>
<!-- Garbage -->
<g id="node20" class="node"><title>Garbage</title>
<polygon fill="none" stroke="black" points="319.5,-0.5 319.5,-36.5 383.5,-36.5 383.5,-0.5 319.5,-0.5"/>
<text text-anchor="middle" x="351.5" y="-14.8" font-family="Times New Roman,serif" font-size="14.00">Garbage</text>
</g>
<!-- Combo&#45;&gt;Garbage -->
<g id="edge17" class="edge"><title>Combo&#45;&gt;Garbage</title>
<path fill="none" stroke="black" d="M205.356,-78.4558C234.064,-66.8748 277.715,-49.2656 309.839,-36.3064"/>
<polygon fill="black" stroke="black" points="311.445,-39.4328 319.409,-32.4457 308.826,-32.9411 311.445,-39.4328"/>
</g>
<!-- DangerAnimation -->
<g id="node14" class="node"><title>DangerAnimation</title>
<polygon fill="none" stroke="black" points="266,-73.5 266,-109.5 383,-109.5 383,-73.5 266,-73.5"/>
<text text-anchor="start" x="274" y="-87.8" font-family="Times New Roman,serif" font-size="14.00">Danger Animation</text>
</g>
<!-- Lose&#45;&gt;DangerAnimation -->
<g id="edge18" class="edge"><title>Lose&#45;&gt;DangerAnimation</title>
<path fill="none" stroke="black" d="M350.27,-146.313C346.302,-138.028 341.457,-127.91 337.043,-118.693"/>
<polygon fill="black" stroke="black" points="340.13,-117.036 332.655,-109.529 333.817,-120.06 340.13,-117.036"/>
</g>
<!-- Replay -->
<g id="node22" class="node"><title>Replay</title>
<polygon fill="none" stroke="black" points="401.5,-73.5 401.5,-109.5 457.5,-109.5 457.5,-73.5 401.5,-73.5"/>
<text text-anchor="middle" x="429.5" y="-87.8" font-family="Times New Roman,serif" font-size="14.00">Replay</text>
</g>
<!-- Lose&#45;&gt;Replay -->
<g id="edge19" class="edge"><title>Lose&#45;&gt;Replay</title>
<path fill="none" stroke="black" d="M375.687,-146.313C384.583,-137.417 395.591,-126.409 405.328,-116.672"/>
<polygon fill="black" stroke="black" points="407.875,-119.075 412.471,-109.529 402.925,-114.125 407.875,-119.075"/>
</g>
<!-- Server -->
<g id="node15" class="node"><title>Server</title>
<polygon fill="none" stroke="black" points="490.5,-438.5 490.5,-474.5 544.5,-474.5 544.5,-438.5 490.5,-438.5"/>
<text text-anchor="middle" x="517.5" y="-452.8" font-family="Times New Roman,serif" font-size="14.00">Server</text>
</g>
<!-- Host -->
<g id="node16" class="node"><title>Host</title>
<polygon fill="none" stroke="black" points="444.5,-365.5 444.5,-401.5 498.5,-401.5 498.5,-365.5 444.5,-365.5"/>
<text text-anchor="middle" x="471.5" y="-379.8" font-family="Times New Roman,serif" font-size="14.00">Host</text>
</g>
<!-- Server&#45;&gt;Host -->
<g id="edge20" class="edge"><title>Server&#45;&gt;Host</title>
<path fill="none" stroke="black" d="M506.365,-438.313C500.884,-429.853 494.165,-419.484 488.094,-410.112"/>
<polygon fill="black" stroke="black" points="490.908,-408.018 482.533,-401.529 485.033,-411.824 490.908,-408.018"/>
</g>
<!-- Disconnected -->
<g id="node18" class="node"><title>Disconnected</title>
<polygon fill="none" stroke="black" points="517,-365.5 517,-401.5 610,-401.5 610,-365.5 517,-365.5"/>
<text text-anchor="middle" x="563.5" y="-379.8" font-family="Times New Roman,serif" font-size="14.00">Disconnected</text>
</g>
<!-- Server&#45;&gt;Disconnected -->
<g id="edge21" class="edge"><title>Server&#45;&gt;Disconnected</title>
<path fill="none" stroke="black" d="M528.635,-438.313C534.116,-429.853 540.835,-419.484 546.906,-410.112"/>
<polygon fill="black" stroke="black" points="549.967,-411.824 552.467,-401.529 544.092,-408.018 549.967,-411.824"/>
</g>
<!-- Join -->
<g id="node17" class="node"><title>Join</title>
<polygon fill="none" stroke="black" points="472.5,-292.5 472.5,-328.5 526.5,-328.5 526.5,-292.5 472.5,-292.5"/>
<text text-anchor="middle" x="499.5" y="-306.8" font-family="Times New Roman,serif" font-size="14.00">Join</text>
</g>
<!-- Host&#45;&gt;Join -->
<g id="edge22" class="edge"><title>Host&#45;&gt;Join</title>
<path fill="none" stroke="black" d="M478.278,-365.313C481.511,-357.115 485.451,-347.123 489.055,-337.985"/>
<polygon fill="black" stroke="black" points="492.372,-339.116 492.784,-328.529 485.86,-336.548 492.372,-339.116"/>
</g>
<!-- ShareState -->
<g id="node19" class="node"><title>ShareState</title>
<polygon fill="none" stroke="black" points="432.5,-219.5 432.5,-255.5 512.5,-255.5 512.5,-219.5 432.5,-219.5"/>
<text text-anchor="start" x="440.5" y="-233.8" font-family="Times New Roman,serif" font-size="14.00">Share State</text>
</g>
<!-- Host&#45;&gt;ShareState -->
<g id="edge23" class="edge"><title>Host&#45;&gt;ShareState</title>
<path fill="none" stroke="black" d="M468.252,-365.225C466.454,-354.781 464.405,-341.175 463.5,-329 462.281,-312.601 462.131,-308.387 463.5,-292 464.217,-283.421 465.569,-274.147 467.012,-265.769"/>
<polygon fill="black" stroke="black" points="470.487,-266.223 468.846,-255.755 463.601,-264.961 470.487,-266.223"/>
</g>
<!-- Join&#45;&gt;ShareState -->
<g id="edge24" class="edge"><title>Join&#45;&gt;ShareState</title>
<path fill="none" stroke="black" d="M492.964,-292.313C489.847,-284.115 486.047,-274.123 482.572,-264.985"/>
<polygon fill="black" stroke="black" points="485.802,-263.632 478.976,-255.529 479.259,-266.12 485.802,-263.632"/>
</g>
<!-- ShareState&#45;&gt;Garbage -->
<g id="edge25" class="edge"><title>ShareState&#45;&gt;Garbage</title>
<path fill="none" stroke="black" d="M477.218,-219.473C484.956,-187.687 496.662,-118.437 466.5,-73 450.105,-48.301 419.149,-34.7839 393.481,-27.5186"/>
<polygon fill="black" stroke="black" points="394.145,-24.0748 383.586,-24.9443 392.382,-30.8493 394.145,-24.0748"/>
</g>
<!-- Win -->
<g id="node21" class="node"><title>Win</title>
<polygon fill="none" stroke="black" points="403.5,-146.5 403.5,-182.5 457.5,-182.5 457.5,-146.5 403.5,-146.5"/>
<text text-anchor="middle" x="430.5" y="-160.8" font-family="Times New Roman,serif" font-size="14.00">Win</text>
</g>
<!-- ShareState&#45;&gt;Win -->
<g id="edge26" class="edge"><title>ShareState&#45;&gt;Win</title>
<path fill="none" stroke="black" d="M462.333,-219.313C457.38,-210.941 451.321,-200.697 445.823,-191.403"/>
<polygon fill="black" stroke="black" points="448.677,-189.354 440.573,-182.529 442.652,-192.918 448.677,-189.354"/>
</g>
<!-- Win&#45;&gt;Replay -->
<g id="edge27" class="edge"><title>Win&#45;&gt;Replay</title>
<path fill="none" stroke="black" d="M430.258,-146.313C430.145,-138.289 430.008,-128.547 429.881,-119.569"/>
<polygon fill="black" stroke="black" points="433.38,-119.479 429.74,-109.529 426.381,-119.577 433.38,-119.479"/>
</g>
</g>
</svg>
