<?xml version="1.0" encoding="UTF-8" standalone="no"?>
<!DOCTYPE svg PUBLIC "-//W3C//DTD SVG 1.1//EN"
 "http://www.w3.org/Graphics/SVG/1.1/DTD/svg11.dtd">
<!-- Generated by graphviz version 2.38.0 (20140413.2041)
 -->
<!-- Title: %3 Pages: 1 -->
<svg width="694pt" height="191pt"
 viewBox="0.00 0.00 694.00 191.00" xmlns="http://www.w3.org/2000/svg" xmlns:xlink="http://www.w3.org/1999/xlink">
<g id="graph0" class="graph" transform="scale(1 1) rotate(0) translate(4 187)">
<title>%3</title>
<polygon fill="white" stroke="none" points="-4,4 -4,-187 690,-187 690,4 -4,4"/>
<!-- ImprovedSyntaxHighlighting -->
<g id="node1" class="node"><title>ImprovedSyntaxHighlighting</title>
<polygon fill="none" stroke="black" points="0,-146.5 0,-182.5 187,-182.5 187,-146.5 0,-146.5"/>
<text text-anchor="start" x="8" y="-168.3" font-family="Times New Roman,serif" font-size="14.00">Improved Syntax Highlighting </text>
<text text-anchor="start" x="58" y="-154.3" font-family="Times New Roman,serif" font-size="14.00"> </text>
<text text-anchor="start" x="62" y="-154.3" font-family="Times New Roman,serif" font-style="italic" font-size="14.00">In Progress</text>
</g>
<!-- BetterMobile -->
<g id="node2" class="node"><title>BetterMobile</title>
<polygon fill="none" stroke="black" points="45.5,-73.5 45.5,-109.5 141.5,-109.5 141.5,-73.5 45.5,-73.5"/>
<text text-anchor="start" x="53.5" y="-95.3" font-family="Times New Roman,serif" font-size="14.00">Better Mobile </text>
<text text-anchor="start" x="58" y="-81.3" font-family="Times New Roman,serif" font-size="14.00"> </text>
<text text-anchor="start" x="62" y="-81.3" font-family="Times New Roman,serif" font-style="italic" font-size="14.00">In Progress</text>
</g>
<!-- ImprovedSyntaxHighlighting&#45;&gt;BetterMobile -->
<g id="edge1" class="edge"><title>ImprovedSyntaxHighlighting&#45;&gt;BetterMobile</title>
<path fill="none" stroke="black" d="M93.5,-146.313C93.5,-138.289 93.5,-128.547 93.5,-119.569"/>
<polygon fill="black" stroke="black" points="97.0001,-119.529 93.5,-109.529 90.0001,-119.529 97.0001,-119.529"/>
</g>
<!-- ProjectPages -->
<g id="node3" class="node"><title>ProjectPages</title>
<polygon fill="none" stroke="gray" points="205,-146.5 205,-182.5 302,-182.5 302,-146.5 205,-146.5"/>
<text text-anchor="start" x="213" y="-168.3" font-family="Times New Roman,serif" font-size="14.00" fill="gray">Project Pages </text>
<text text-anchor="start" x="224" y="-154.3" font-family="Times New Roman,serif" font-size="14.00" fill="gray"> </text>
<text text-anchor="start" x="228" y="-154.3" font-family="Times New Roman,serif" font-style="italic" font-size="14.00" fill="gray">Complete</text>
</g>
<!-- PostTags -->
<g id="node4" class="node"><title>PostTags</title>
<polygon fill="none" stroke="black" points="216.5,-73.5 216.5,-109.5 290.5,-109.5 290.5,-73.5 216.5,-73.5"/>
<text text-anchor="start" x="224.5" y="-87.8" font-family="Times New Roman,serif" font-size="14.00">Post Tags</text>
</g>
<!-- ProjectPages&#45;&gt;PostTags -->
<g id="edge2" class="edge"><title>ProjectPages&#45;&gt;PostTags</title>
<path fill="none" stroke="black" d="M253.5,-146.313C253.5,-138.289 253.5,-128.547 253.5,-119.569"/>
<polygon fill="black" stroke="black" points="257,-119.529 253.5,-109.529 250,-119.529 257,-119.529"/>
</g>
<!-- BetterRelatedPostLists -->
<g id="node5" class="node"><title>BetterRelatedPostLists</title>
<polygon fill="none" stroke="black" points="176,-0.5 176,-36.5 331,-36.5 331,-0.5 176,-0.5"/>
<text text-anchor="start" x="184" y="-14.8" font-family="Times New Roman,serif" font-size="14.00">Better Related Post Lists</text>
</g>
<!-- PostTags&#45;&gt;BetterRelatedPostLists -->
<g id="edge3" class="edge"><title>PostTags&#45;&gt;BetterRelatedPostLists</title>
<path fill="none" stroke="black" d="M253.5,-73.3129C253.5,-65.2895 253.5,-55.5475 253.5,-46.5691"/>
<polygon fill="black" stroke="black" points="257,-46.5288 253.5,-36.5288 250,-46.5289 257,-46.5288"/>
</g>
<!-- StyleImprovements -->
<g id="node6" class="node"><title>StyleImprovements</title>
<polygon fill="none" stroke="black" points="447.5,-146.5 447.5,-182.5 579.5,-182.5 579.5,-146.5 447.5,-146.5"/>
<text text-anchor="start" x="455.5" y="-168.3" font-family="Times New Roman,serif" font-size="14.00">Style Improvements </text>
<text text-anchor="start" x="478" y="-154.3" font-family="Times New Roman,serif" font-size="14.00"> </text>
<text text-anchor="start" x="482" y="-154.3" font-family="Times New Roman,serif" font-style="italic" font-size="14.00">In Progress</text>
</g>
<!-- Comments -->
<g id="node7" class="node"><title>Comments</title>
<polygon fill="none" stroke="black" points="309,-73.5 309,-109.5 396,-109.5 396,-73.5 309,-73.5"/>
<text text-anchor="start" x="320" y="-95.3" font-family="Times New Roman,serif" font-size="14.00">Comments </text>
<text text-anchor="start" x="317" y="-81.3" font-family="Times New Roman,serif" font-size="14.00"> </text>
<text text-anchor="start" x="321" y="-81.3" font-family="Times New Roman,serif" font-style="italic" font-size="14.00">In Progress</text>
</g>
<!-- StyleImprovements&#45;&gt;Comments -->
<g id="edge4" class="edge"><title>StyleImprovements&#45;&gt;Comments</title>
<path fill="none" stroke="black" d="M474.936,-146.494C452.598,-136.643 424.282,-124.156 400.509,-113.672"/>
<polygon fill="black" stroke="black" points="401.869,-110.446 391.307,-109.614 399.044,-116.851 401.869,-110.446"/>
</g>
<!-- IntegrateSunsetColorSimulator -->
<g id="node8" class="node"><title>IntegrateSunsetColorSimulator</title>
<polygon fill="none" stroke="black" points="414,-73.5 414,-109.5 613,-109.5 613,-73.5 414,-73.5"/>
<text text-anchor="start" x="422" y="-87.8" font-family="Times New Roman,serif" font-size="14.00">Integrate Sunset Color Simulator</text>
</g>
<!-- StyleImprovements&#45;&gt;IntegrateSunsetColorSimulator -->
<g id="edge5" class="edge"><title>StyleImprovements&#45;&gt;IntegrateSunsetColorSimulator</title>
<path fill="none" stroke="black" d="M513.5,-146.313C513.5,-138.289 513.5,-128.547 513.5,-119.569"/>
<polygon fill="black" stroke="black" points="517,-119.529 513.5,-109.529 510,-119.529 517,-119.529"/>
</g>
<!-- Search -->
<g id="node9" class="node"><title>Search</title>
<polygon fill="none" stroke="black" points="631,-73.5 631,-109.5 686,-109.5 686,-73.5 631,-73.5"/>
<text text-anchor="middle" x="658.5" y="-87.8" font-family="Times New Roman,serif" font-size="14.00">Search</text>
</g>
<!-- StyleImprovements&#45;&gt;Search -->
<g id="edge6" class="edge"><title>StyleImprovements&#45;&gt;Search</title>
<path fill="none" stroke="black" d="M548.231,-146.494C570.371,-135.653 599.03,-121.62 621.582,-110.577"/>
<polygon fill="black" stroke="black" points="623.394,-113.587 630.836,-106.046 620.316,-107.3 623.394,-113.587"/>
</g>
</g>
</svg>
