<?xml version="1.0" encoding="UTF-8" standalone="no"?>
<!DOCTYPE svg PUBLIC "-//W3C//DTD SVG 1.1//EN"
 "http://www.w3.org/Graphics/SVG/1.1/DTD/svg11.dtd">
<!-- Generated by graphviz version 2.38.0 (20140413.2041)
 -->
<!-- Title: %3 Pages: 1 -->
<svg width="417pt" height="118pt"
 viewBox="0.00 0.00 416.50 118.00" xmlns="http://www.w3.org/2000/svg" xmlns:xlink="http://www.w3.org/1999/xlink">
<g id="graph0" class="graph" transform="scale(1 1) rotate(0) translate(4 114)">
<title>%3</title>
<polygon fill="white" stroke="none" points="-4,4 -4,-114 412.5,-114 412.5,4 -4,4"/>
<!-- CommandArguments -->
<g id="node1" class="node"><title>CommandArguments</title>
<polygon fill="none" stroke="gray" points="0,-73.5 0,-109.5 143,-109.5 143,-73.5 0,-73.5"/>
<text text-anchor="start" x="8" y="-95.3" font-family="Times New Roman,serif" font-size="14.00" fill="gray">Command Arguments </text>
<text text-anchor="start" x="42" y="-81.3" font-family="Times New Roman,serif" font-size="14.00" fill="gray"> </text>
<text text-anchor="start" x="46" y="-81.3" font-family="Times New Roman,serif" font-style="italic" font-size="14.00" fill="gray">Complete</text>
</g>
<!-- ProfileReferences -->
<g id="node2" class="node"><title>ProfileReferences</title>
<polygon fill="none" stroke="black" points="161,-73.5 161,-109.5 280,-109.5 280,-73.5 161,-73.5"/>
<text text-anchor="start" x="169" y="-87.8" font-family="Times New Roman,serif" font-size="14.00">Profile References</text>
</g>
<!-- ProjectJsonSupport -->
<g id="node3" class="node"><title>ProjectJsonSupport</title>
<polygon fill="none" stroke="black" points="155,-0.5 155,-36.5 286,-36.5 286,-0.5 155,-0.5"/>
<text text-anchor="start" x="163" y="-14.8" font-family="Times New Roman,serif" font-size="14.00">ProjectJson Support</text>
</g>
<!-- ProfileReferences&#45;&gt;ProjectJsonSupport -->
<g id="edge1" class="edge"><title>ProfileReferences&#45;&gt;ProjectJsonSupport</title>
<path fill="none" stroke="black" d="M220.5,-73.3129C220.5,-65.2895 220.5,-55.5475 220.5,-46.5691"/>
<polygon fill="black" stroke="black" points="224,-46.5288 220.5,-36.5288 217,-46.5289 224,-46.5288"/>
</g>
<!-- ScriptExecution -->
<g id="node4" class="node"><title>ScriptExecution</title>
<polygon fill="none" stroke="black" points="298.5,-73.5 298.5,-109.5 408.5,-109.5 408.5,-73.5 298.5,-73.5"/>
<text text-anchor="start" x="306.5" y="-87.8" font-family="Times New Roman,serif" font-size="14.00">Script Execution</text>
</g>
</g>
</svg>
