<?xml version="1.0" encoding="UTF-8" standalone="no"?>
<!DOCTYPE svg PUBLIC "-//W3C//DTD SVG 1.1//EN"
 "http://www.w3.org/Graphics/SVG/1.1/DTD/svg11.dtd">
<!-- Generated by graphviz version 2.38.0 (20140413.2041)
 -->
<!-- Title: %3 Pages: 1 -->
<svg width="586pt" height="410pt"
 viewBox="0.00 0.00 586.00 410.00" xmlns="http://www.w3.org/2000/svg" xmlns:xlink="http://www.w3.org/1999/xlink">
<g id="graph0" class="graph" transform="scale(1 1) rotate(0) translate(4 406)">
<title>%3</title>
<polygon fill="white" stroke="none" points="-4,4 -4,-406 582,-406 582,4 -4,4"/>
<!-- GetPixel -->
<g id="node1" class="node"><title>GetPixel</title>
<polygon fill="none" stroke="gray" points="76,-365.5 76,-401.5 151,-401.5 151,-365.5 76,-365.5"/>
<text text-anchor="start" x="86" y="-387.3" font-family="Times New Roman,serif" font-size="14.00" fill="gray">Get Pixel </text>
<text text-anchor="start" x="84" y="-373.3" font-family="Times New Roman,serif" font-size="14.00" fill="gray"> </text>
<text text-anchor="start" x="88" y="-373.3" font-family="Times New Roman,serif" font-style="italic" font-size="14.00" fill="gray">Complete</text>
</g>
<!-- Collisions -->
<g id="node2" class="node"><title>Collisions</title>
<polygon fill="none" stroke="gray" points="75.5,-292.5 75.5,-328.5 151.5,-328.5 151.5,-292.5 75.5,-292.5"/>
<text text-anchor="start" x="83.5" y="-314.3" font-family="Times New Roman,serif" font-size="14.00" fill="gray">Collisions </text>
<text text-anchor="start" x="84" y="-300.3" font-family="Times New Roman,serif" font-size="14.00" fill="gray"> </text>
<text text-anchor="start" x="88" y="-300.3" font-family="Times New Roman,serif" font-style="italic" font-size="14.00" fill="gray">Complete</text>
</g>
<!-- GetPixel&#45;&gt;Collisions -->
<g id="edge1" class="edge"><title>GetPixel&#45;&gt;Collisions</title>
<path fill="none" stroke="black" d="M113.5,-365.313C113.5,-357.289 113.5,-347.547 113.5,-338.569"/>
<polygon fill="black" stroke="black" points="117,-338.529 113.5,-328.529 110,-338.529 117,-338.529"/>
</g>
<!-- Character -->
<g id="node7" class="node"><title>Character</title>
<polygon fill="none" stroke="black" points="71,-219.5 71,-255.5 142,-255.5 142,-219.5 71,-219.5"/>
<text text-anchor="middle" x="106.5" y="-233.8" font-family="Times New Roman,serif" font-size="14.00">Character</text>
</g>
<!-- Collisions&#45;&gt;Character -->
<g id="edge2" class="edge"><title>Collisions&#45;&gt;Character</title>
<path fill="none" stroke="black" d="M111.805,-292.313C111.014,-284.289 110.054,-274.547 109.169,-265.569"/>
<polygon fill="black" stroke="black" points="112.643,-265.137 108.179,-255.529 105.677,-265.824 112.643,-265.137"/>
</g>
<!-- Bombs -->
<g id="node8" class="node"><title>Bombs</title>
<polygon fill="none" stroke="gray" points="160,-219.5 160,-255.5 235,-255.5 235,-219.5 160,-219.5"/>
<text text-anchor="start" x="175" y="-241.3" font-family="Times New Roman,serif" font-size="14.00" fill="gray">Bombs </text>
<text text-anchor="start" x="168" y="-227.3" font-family="Times New Roman,serif" font-size="14.00" fill="gray"> </text>
<text text-anchor="start" x="172" y="-227.3" font-family="Times New Roman,serif" font-style="italic" font-size="14.00" fill="gray">Complete</text>
</g>
<!-- Collisions&#45;&gt;Bombs -->
<g id="edge3" class="edge"><title>Collisions&#45;&gt;Bombs</title>
<path fill="none" stroke="black" d="M133.834,-292.313C144.565,-283.243 157.894,-271.977 169.578,-262.1"/>
<polygon fill="black" stroke="black" points="171.975,-264.657 177.353,-255.529 167.456,-259.311 171.975,-264.657"/>
</g>
<!-- MarchingSquaresGrid -->
<g id="node3" class="node"><title>MarchingSquaresGrid</title>
<polygon fill="none" stroke="gray" points="175,-365.5 175,-401.5 326,-401.5 326,-365.5 175,-365.5"/>
<text text-anchor="start" x="183" y="-387.3" font-family="Times New Roman,serif" font-size="14.00" fill="gray">Marching Squares Grid </text>
<text text-anchor="start" x="221" y="-373.3" font-family="Times New Roman,serif" font-size="14.00" fill="gray"> </text>
<text text-anchor="start" x="225" y="-373.3" font-family="Times New Roman,serif" font-style="italic" font-size="14.00" fill="gray">Complete</text>
</g>
<!-- Panels -->
<g id="node6" class="node"><title>Panels</title>
<polygon fill="none" stroke="gray" points="226,-292.5 226,-328.5 301,-328.5 301,-292.5 226,-292.5"/>
<text text-anchor="start" x="243.5" y="-314.3" font-family="Times New Roman,serif" font-size="14.00" fill="gray">Panels </text>
<text text-anchor="start" x="234" y="-300.3" font-family="Times New Roman,serif" font-size="14.00" fill="gray"> </text>
<text text-anchor="start" x="238" y="-300.3" font-family="Times New Roman,serif" font-style="italic" font-size="14.00" fill="gray">Complete</text>
</g>
<!-- MarchingSquaresGrid&#45;&gt;Panels -->
<g id="edge4" class="edge"><title>MarchingSquaresGrid&#45;&gt;Panels</title>
<path fill="none" stroke="black" d="M253.647,-365.313C255.116,-357.289 256.9,-347.547 258.544,-338.569"/>
<polygon fill="black" stroke="black" points="262.024,-338.996 260.382,-328.529 255.138,-337.735 262.024,-338.996"/>
</g>
<!-- Camera -->
<g id="node4" class="node"><title>Camera</title>
<polygon fill="none" stroke="gray" points="344,-365.5 344,-401.5 419,-401.5 419,-365.5 344,-365.5"/>
<text text-anchor="start" x="358" y="-387.3" font-family="Times New Roman,serif" font-size="14.00" fill="gray">Camera </text>
<text text-anchor="start" x="352" y="-373.3" font-family="Times New Roman,serif" font-size="14.00" fill="gray"> </text>
<text text-anchor="start" x="356" y="-373.3" font-family="Times New Roman,serif" font-style="italic" font-size="14.00" fill="gray">Complete</text>
</g>
<!-- Camera&#45;&gt;Panels -->
<g id="edge5" class="edge"><title>Camera&#45;&gt;Panels</title>
<path fill="none" stroke="black" d="M353.236,-365.494C337.443,-355.991 317.574,-344.036 300.549,-333.792"/>
<polygon fill="black" stroke="black" points="302.315,-330.77 291.942,-328.614 298.706,-336.768 302.315,-330.77"/>
</g>
<!-- GameEmbed -->
<g id="node5" class="node"><title>GameEmbed</title>
<polygon fill="none" stroke="gray" points="180,-73.5 180,-109.5 277,-109.5 277,-73.5 180,-73.5"/>
<text text-anchor="start" x="188" y="-95.3" font-family="Times New Roman,serif" font-size="14.00" fill="gray">Game Embed </text>
<text text-anchor="start" x="199" y="-81.3" font-family="Times New Roman,serif" font-size="14.00" fill="gray"> </text>
<text text-anchor="start" x="203" y="-81.3" font-family="Times New Roman,serif" font-style="italic" font-size="14.00" fill="gray">Complete</text>
</g>
<!-- Publish -->
<g id="node14" class="node"><title>Publish</title>
<polygon fill="none" stroke="black" points="256.5,-0.5 256.5,-36.5 314.5,-36.5 314.5,-0.5 256.5,-0.5"/>
<text text-anchor="middle" x="285.5" y="-14.8" font-family="Times New Roman,serif" font-size="14.00">Publish</text>
</g>
<!-- GameEmbed&#45;&gt;Publish -->
<g id="edge6" class="edge"><title>GameEmbed&#45;&gt;Publish</title>
<path fill="none" stroke="black" d="M242.298,-73.3129C249.23,-64.679 257.759,-54.0551 265.402,-44.5341"/>
<polygon fill="black" stroke="black" points="268.298,-46.518 271.829,-36.5288 262.839,-42.1357 268.298,-46.518"/>
</g>
<!-- Panels&#45;&gt;Bombs -->
<g id="edge7" class="edge"><title>Panels&#45;&gt;Bombs</title>
<path fill="none" stroke="black" d="M247.523,-292.313C239.335,-283.505 229.222,-272.625 220.236,-262.958"/>
<polygon fill="black" stroke="black" points="222.702,-260.47 213.33,-255.529 217.575,-265.236 222.702,-260.47"/>
</g>
<!-- Score -->
<g id="node9" class="node"><title>Score</title>
<polygon fill="none" stroke="gray" points="114,-146.5 114,-182.5 189,-182.5 189,-146.5 114,-146.5"/>
<text text-anchor="start" x="133" y="-168.3" font-family="Times New Roman,serif" font-size="14.00" fill="gray">Score </text>
<text text-anchor="start" x="122" y="-154.3" font-family="Times New Roman,serif" font-size="14.00" fill="gray"> </text>
<text text-anchor="start" x="126" y="-154.3" font-family="Times New Roman,serif" font-style="italic" font-size="14.00" fill="gray">Complete</text>
</g>
<!-- Panels&#45;&gt;Score -->
<g id="edge8" class="edge"><title>Panels&#45;&gt;Score</title>
<path fill="none" stroke="black" d="M263.675,-292.159C263.031,-272.601 259.348,-240.701 243.5,-219 232.191,-203.515 214.931,-191.792 198.404,-183.327"/>
<polygon fill="black" stroke="black" points="199.868,-180.147 189.341,-178.956 196.827,-186.452 199.868,-180.147"/>
</g>
<!-- TerrainVariation -->
<g id="node11" class="node"><title>TerrainVariation</title>
<polygon fill="none" stroke="gray" points="322.5,-146.5 322.5,-182.5 436.5,-182.5 436.5,-146.5 322.5,-146.5"/>
<text text-anchor="start" x="330.5" y="-168.3" font-family="Times New Roman,serif" font-size="14.00" fill="gray">Terrain Variation </text>
<text text-anchor="start" x="350" y="-154.3" font-family="Times New Roman,serif" font-size="14.00" fill="gray"> </text>
<text text-anchor="start" x="354" y="-154.3" font-family="Times New Roman,serif" font-style="italic" font-size="14.00" fill="gray">Complete</text>
</g>
<!-- Panels&#45;&gt;TerrainVariation -->
<g id="edge9" class="edge"><title>Panels&#45;&gt;TerrainVariation</title>
<path fill="none" stroke="black" d="M277.262,-292.416C297.582,-267.192 335.736,-219.828 359.251,-190.637"/>
<polygon fill="black" stroke="black" points="362.208,-192.545 365.756,-182.562 356.757,-188.154 362.208,-192.545"/>
</g>
<!-- Character&#45;&gt;Score -->
<g id="edge10" class="edge"><title>Character&#45;&gt;Score</title>
<path fill="none" stroke="black" d="M117.393,-219.313C122.755,-210.853 129.327,-200.484 135.267,-191.112"/>
<polygon fill="black" stroke="black" points="138.31,-192.849 140.707,-182.529 132.397,-189.102 138.31,-192.849"/>
</g>
<!-- Bombs&#45;&gt;Score -->
<g id="edge11" class="edge"><title>Bombs&#45;&gt;Score</title>
<path fill="none" stroke="black" d="M186.365,-219.313C180.884,-210.853 174.165,-200.484 168.094,-191.112"/>
<polygon fill="black" stroke="black" points="170.908,-189.018 162.533,-182.529 165.033,-192.824 170.908,-189.018"/>
</g>
<!-- GameOverScreen -->
<g id="node13" class="node"><title>GameOverScreen</title>
<polygon fill="none" stroke="black" points="0,-73.5 0,-109.5 123,-109.5 123,-73.5 0,-73.5"/>
<text text-anchor="start" x="8" y="-87.8" font-family="Times New Roman,serif" font-size="14.00">Game Over Screen</text>
</g>
<!-- Score&#45;&gt;GameOverScreen -->
<g id="edge12" class="edge"><title>Score&#45;&gt;GameOverScreen</title>
<path fill="none" stroke="black" d="M129.714,-146.313C118.106,-137.156 103.661,-125.76 91.0553,-115.816"/>
<polygon fill="black" stroke="black" points="93.1047,-112.975 83.0859,-109.529 88.7692,-118.47 93.1047,-112.975"/>
</g>
<!-- Score&#45;&gt;Publish -->
<g id="edge13" class="edge"><title>Score&#45;&gt;Publish</title>
<path fill="none" stroke="black" d="M150.746,-146.258C150.786,-126.496 153.727,-94.1214 170.5,-73 189.359,-49.2517 221.209,-35.5717 246.614,-28.0001"/>
<polygon fill="black" stroke="black" points="247.646,-31.3461 256.345,-25.2985 245.773,-24.6012 247.646,-31.3461"/>
</g>
<!-- SoundEffects -->
<g id="node10" class="node"><title>SoundEffects</title>
<polygon fill="none" stroke="black" points="295,-73.5 295,-109.5 392,-109.5 392,-73.5 295,-73.5"/>
<text text-anchor="start" x="303" y="-87.8" font-family="Times New Roman,serif" font-size="14.00">Sound Effects</text>
</g>
<!-- SoundEffects&#45;&gt;Publish -->
<g id="edge14" class="edge"><title>SoundEffects&#45;&gt;Publish</title>
<path fill="none" stroke="black" d="M329.46,-73.3129C322.407,-64.679 313.728,-54.0551 305.95,-44.5341"/>
<polygon fill="black" stroke="black" points="308.448,-42.059 299.411,-36.5288 303.027,-46.4876 308.448,-42.059"/>
</g>
<!-- TerrainVariation&#45;&gt;Publish -->
<g id="edge15" class="edge"><title>TerrainVariation&#45;&gt;Publish</title>
<path fill="none" stroke="black" d="M391.11,-146.191C402.423,-126.948 415.969,-95.6073 401.5,-73 384.645,-46.6643 351.171,-33.1096 324.496,-26.2458"/>
<polygon fill="black" stroke="black" points="325.19,-22.8136 314.654,-23.9301 323.587,-29.6275 325.19,-22.8136"/>
</g>
<!-- ParalaxBackground -->
<g id="node12" class="node"><title>ParalaxBackground</title>
<polygon fill="none" stroke="black" points="449,-73.5 449,-109.5 578,-109.5 578,-73.5 449,-73.5"/>
<text text-anchor="start" x="457" y="-87.8" font-family="Times New Roman,serif" font-size="14.00">Paralax Background</text>
</g>
<!-- ParalaxBackground&#45;&gt;Publish -->
<g id="edge16" class="edge"><title>ParalaxBackground&#45;&gt;Publish</title>
<path fill="none" stroke="black" d="M458.888,-73.4937C417.464,-60.594 361.524,-43.1742 324.522,-31.6515"/>
<polygon fill="black" stroke="black" points="325.204,-28.1981 314.615,-28.5666 323.122,-34.8816 325.204,-28.1981"/>
</g>
<!-- GameOverScreen&#45;&gt;Publish -->
<g id="edge17" class="edge"><title>GameOverScreen&#45;&gt;Publish</title>
<path fill="none" stroke="black" d="M115.154,-73.4937C155.615,-60.669 210.171,-43.3766 246.527,-31.8531"/>
<polygon fill="black" stroke="black" points="247.797,-35.1223 256.272,-28.7644 245.681,-28.4495 247.797,-35.1223"/>
</g>
</g>
</svg>
