<?xml version="1.0" encoding="UTF-8" standalone="no"?>
<!DOCTYPE svg PUBLIC "-//W3C//DTD SVG 1.1//EN"
 "http://www.w3.org/Graphics/SVG/1.1/DTD/svg11.dtd">
<!-- Generated by graphviz version 2.38.0 (20140413.2041)
 -->
<!-- Title: %3 Pages: 1 -->
<svg width="368pt" height="264pt"
 viewBox="0.00 0.00 368.00 264.00" xmlns="http://www.w3.org/2000/svg" xmlns:xlink="http://www.w3.org/1999/xlink">
<g id="graph0" class="graph" transform="scale(1 1) rotate(0) translate(4 260)">
<title>%3</title>
<polygon fill="white" stroke="none" points="-4,4 -4,-260 364,-260 364,4 -4,4"/>
<!-- Character -->
<g id="node1" class="node"><title>Character</title>
<polygon fill="none" stroke="black" points="20.5,-219.5 20.5,-255.5 91.5,-255.5 91.5,-219.5 20.5,-219.5"/>
<text text-anchor="middle" x="56" y="-233.8" font-family="Times New Roman,serif" font-size="14.00">Character</text>
</g>
<!-- PathFinding -->
<g id="node2" class="node"><title>PathFinding</title>
<polygon fill="none" stroke="black" points="12.5,-146.5 12.5,-182.5 99.5,-182.5 99.5,-146.5 12.5,-146.5"/>
<text text-anchor="start" x="20.5" y="-160.8" font-family="Times New Roman,serif" font-size="14.00">Path Finding</text>
</g>
<!-- Character&#45;&gt;PathFinding -->
<g id="edge1" class="edge"><title>Character&#45;&gt;PathFinding</title>
<path fill="none" stroke="black" d="M56,-219.313C56,-211.289 56,-201.547 56,-192.569"/>
<polygon fill="black" stroke="black" points="59.5001,-192.529 56,-182.529 52.5001,-192.529 59.5001,-192.529"/>
</g>
<!-- Interaction -->
<g id="node5" class="node"><title>Interaction</title>
<polygon fill="none" stroke="black" points="0,-73.5 0,-109.5 76,-109.5 76,-73.5 0,-73.5"/>
<text text-anchor="middle" x="38" y="-87.8" font-family="Times New Roman,serif" font-size="14.00">Interaction</text>
</g>
<!-- PathFinding&#45;&gt;Interaction -->
<g id="edge2" class="edge"><title>PathFinding&#45;&gt;Interaction</title>
<path fill="none" stroke="black" d="M51.6427,-146.313C49.5865,-138.202 47.0851,-128.336 44.7884,-119.277"/>
<polygon fill="black" stroke="black" points="48.1674,-118.362 42.3172,-109.529 41.382,-120.082 48.1674,-118.362"/>
</g>
<!-- TaptoMove -->
<g id="node7" class="node"><title>TaptoMove</title>
<polygon fill="none" stroke="black" points="94,-73.5 94,-109.5 184,-109.5 184,-73.5 94,-73.5"/>
<text text-anchor="start" x="102" y="-87.8" font-family="Times New Roman,serif" font-size="14.00">Tap to Move</text>
</g>
<!-- PathFinding&#45;&gt;TaptoMove -->
<g id="edge3" class="edge"><title>PathFinding&#45;&gt;TaptoMove</title>
<path fill="none" stroke="black" d="M76.092,-146.313C86.6948,-137.243 99.8651,-125.977 111.411,-116.1"/>
<polygon fill="black" stroke="black" points="113.769,-118.689 119.093,-109.529 109.219,-113.37 113.769,-118.689"/>
</g>
<!-- ActionSearch -->
<g id="node3" class="node"><title>ActionSearch</title>
<polygon fill="none" stroke="black" points="146,-219.5 146,-255.5 242,-255.5 242,-219.5 146,-219.5"/>
<text text-anchor="start" x="154" y="-233.8" font-family="Times New Roman,serif" font-size="14.00">Action Search</text>
</g>
<!-- ActionInsertion -->
<g id="node6" class="node"><title>ActionInsertion</title>
<polygon fill="none" stroke="black" points="158.5,-146.5 158.5,-182.5 265.5,-182.5 265.5,-146.5 158.5,-146.5"/>
<text text-anchor="start" x="166.5" y="-160.8" font-family="Times New Roman,serif" font-size="14.00">Action Insertion</text>
</g>
<!-- ActionSearch&#45;&gt;ActionInsertion -->
<g id="edge4" class="edge"><title>ActionSearch&#45;&gt;ActionInsertion</title>
<path fill="none" stroke="black" d="M198.357,-219.313C200.414,-211.202 202.915,-201.336 205.212,-192.277"/>
<polygon fill="black" stroke="black" points="208.618,-193.082 207.683,-182.529 201.833,-191.362 208.618,-193.082"/>
</g>
<!-- RoutineTicker -->
<g id="node4" class="node"><title>RoutineTicker</title>
<polygon fill="none" stroke="black" points="260,-219.5 260,-255.5 360,-255.5 360,-219.5 260,-219.5"/>
<text text-anchor="start" x="268" y="-233.8" font-family="Times New Roman,serif" font-size="14.00">Routine Ticker</text>
</g>
<!-- RoutineTicker&#45;&gt;ActionInsertion -->
<g id="edge5" class="edge"><title>RoutineTicker&#45;&gt;ActionInsertion</title>
<path fill="none" stroke="black" d="M286.277,-219.313C273.517,-210.069 257.608,-198.543 243.791,-188.532"/>
<polygon fill="black" stroke="black" points="245.656,-185.562 235.505,-182.529 241.549,-191.23 245.656,-185.562"/>
</g>
<!-- TaptoUse -->
<g id="node8" class="node"><title>TaptoUse</title>
<polygon fill="none" stroke="black" points="85,-0.5 85,-36.5 165,-36.5 165,-0.5 85,-0.5"/>
<text text-anchor="start" x="93" y="-14.8" font-family="Times New Roman,serif" font-size="14.00">Tap to Use</text>
</g>
<!-- Interaction&#45;&gt;TaptoUse -->
<g id="edge6" class="edge"><title>Interaction&#45;&gt;TaptoUse</title>
<path fill="none" stroke="black" d="M59.0603,-73.3129C70.1741,-64.243 83.979,-52.9769 96.0813,-43.1004"/>
<polygon fill="black" stroke="black" points="98.5991,-45.5632 104.134,-36.5288 94.1732,-40.1399 98.5991,-45.5632"/>
</g>
<!-- ActionInsertion&#45;&gt;TaptoMove -->
<g id="edge7" class="edge"><title>ActionInsertion&#45;&gt;TaptoMove</title>
<path fill="none" stroke="black" d="M194.329,-146.313C185.183,-137.417 173.865,-126.409 163.853,-116.672"/>
<polygon fill="black" stroke="black" points="166.117,-113.992 156.509,-109.529 161.237,-119.01 166.117,-113.992"/>
</g>
<!-- ActionInsertion&#45;&gt;TaptoUse -->
<g id="edge8" class="edge"><title>ActionInsertion&#45;&gt;TaptoUse</title>
<path fill="none" stroke="black" d="M211.818,-146.204C210.872,-126.973 207.056,-95.6422 193,-73 185.677,-61.2029 174.776,-50.9499 163.836,-42.664"/>
<polygon fill="black" stroke="black" points="165.692,-39.688 155.522,-36.7181 161.62,-45.3819 165.692,-39.688"/>
</g>
<!-- PickandPlace -->
<g id="node9" class="node"><title>PickandPlace</title>
<polygon fill="none" stroke="black" points="240.5,-73.5 240.5,-109.5 339.5,-109.5 339.5,-73.5 240.5,-73.5"/>
<text text-anchor="start" x="248.5" y="-87.8" font-family="Times New Roman,serif" font-size="14.00">Pick and Place</text>
</g>
<!-- ActionInsertion&#45;&gt;PickandPlace -->
<g id="edge9" class="edge"><title>ActionInsertion&#45;&gt;PickandPlace</title>
<path fill="none" stroke="black" d="M230.882,-146.313C240.75,-137.33 252.985,-126.193 263.759,-116.386"/>
<polygon fill="black" stroke="black" points="266.253,-118.849 271.292,-109.529 261.541,-113.672 266.253,-118.849"/>
</g>
</g>
</svg>
