<?xml version="1.0" encoding="UTF-8" standalone="no"?>
<!DOCTYPE svg PUBLIC "-//W3C//DTD SVG 1.1//EN"
 "http://www.w3.org/Graphics/SVG/1.1/DTD/svg11.dtd">
<!-- Generated by graphviz version 2.38.0 (20140413.2041)
 -->
<!-- Title: %3 Pages: 1 -->
<svg width="630pt" height="483pt"
 viewBox="0.00 0.00 630.00 483.00" xmlns="http://www.w3.org/2000/svg" xmlns:xlink="http://www.w3.org/1999/xlink">
<g id="graph0" class="graph" transform="scale(1 1) rotate(0) translate(4 479)">
<title>%3</title>
<polygon fill="white" stroke="none" points="-4,4 -4,-479 626,-479 626,4 -4,4"/>
<!-- Renderer -->
<g id="node1" class="node"><title>Renderer</title>
<polygon fill="none" stroke="gray" points="162,-438.5 162,-474.5 237,-474.5 237,-438.5 162,-438.5"/>
<text text-anchor="start" x="172" y="-460.3" font-family="Times New Roman,serif" font-size="14.00" fill="gray">Renderer </text>
<text text-anchor="start" x="170" y="-446.3" font-family="Times New Roman,serif" font-size="14.00" fill="gray"> </text>
<text text-anchor="start" x="174" y="-446.3" font-family="Times New Roman,serif" font-style="italic" font-size="14.00" fill="gray">Complete</text>
</g>
<!-- Grid -->
<g id="node2" class="node"><title>Grid</title>
<polygon fill="none" stroke="gray" points="209,-365.5 209,-401.5 284,-401.5 284,-365.5 209,-365.5"/>
<text text-anchor="start" x="231.5" y="-387.3" font-family="Times New Roman,serif" font-size="14.00" fill="gray">Grid </text>
<text text-anchor="start" x="217" y="-373.3" font-family="Times New Roman,serif" font-size="14.00" fill="gray"> </text>
<text text-anchor="start" x="221" y="-373.3" font-family="Times New Roman,serif" font-style="italic" font-size="14.00" fill="gray">Complete</text>
</g>
<!-- Renderer&#45;&gt;Grid -->
<g id="edge1" class="edge"><title>Renderer&#45;&gt;Grid</title>
<path fill="none" stroke="black" d="M210.877,-438.313C216.477,-429.853 223.342,-419.484 229.545,-410.112"/>
<polygon fill="black" stroke="black" points="232.626,-411.799 235.227,-401.529 226.789,-407.935 232.626,-411.799"/>
</g>
<!-- Touch -->
<g id="node3" class="node"><title>Touch</title>
<polygon fill="none" stroke="gray" points="116,-365.5 116,-401.5 191,-401.5 191,-365.5 116,-365.5"/>
<text text-anchor="start" x="133" y="-387.3" font-family="Times New Roman,serif" font-size="14.00" fill="gray">Touch </text>
<text text-anchor="start" x="124" y="-373.3" font-family="Times New Roman,serif" font-size="14.00" fill="gray"> </text>
<text text-anchor="start" x="128" y="-373.3" font-family="Times New Roman,serif" font-style="italic" font-size="14.00" fill="gray">Complete</text>
</g>
<!-- Renderer&#45;&gt;Touch -->
<g id="edge2" class="edge"><title>Renderer&#45;&gt;Touch</title>
<path fill="none" stroke="black" d="M188.365,-438.313C182.884,-429.853 176.165,-419.484 170.094,-410.112"/>
<polygon fill="black" stroke="black" points="172.908,-408.018 164.533,-401.529 167.033,-411.824 172.908,-408.018"/>
</g>
<!-- Advancing -->
<g id="node4" class="node"><title>Advancing</title>
<polygon fill="none" stroke="gray" points="235.5,-292.5 235.5,-328.5 315.5,-328.5 315.5,-292.5 235.5,-292.5"/>
<text text-anchor="start" x="243.5" y="-314.3" font-family="Times New Roman,serif" font-size="14.00" fill="gray">Advancing </text>
<text text-anchor="start" x="246" y="-300.3" font-family="Times New Roman,serif" font-size="14.00" fill="gray"> </text>
<text text-anchor="start" x="250" y="-300.3" font-family="Times New Roman,serif" font-style="italic" font-size="14.00" fill="gray">Complete</text>
</g>
<!-- Grid&#45;&gt;Advancing -->
<g id="edge3" class="edge"><title>Grid&#45;&gt;Advancing</title>
<path fill="none" stroke="black" d="M253.52,-365.313C256.868,-357.115 260.95,-347.123 264.682,-337.985"/>
<polygon fill="black" stroke="black" points="268.003,-339.11 268.545,-328.529 261.523,-336.463 268.003,-339.11"/>
</g>
<!-- BlockDragging -->
<g id="node6" class="node"><title>BlockDragging</title>
<polygon fill="none" stroke="gray" points="72,-292.5 72,-328.5 179,-328.5 179,-292.5 72,-292.5"/>
<text text-anchor="start" x="80" y="-314.3" font-family="Times New Roman,serif" font-size="14.00" fill="gray">Block Dragging </text>
<text text-anchor="start" x="96" y="-300.3" font-family="Times New Roman,serif" font-size="14.00" fill="gray"> </text>
<text text-anchor="start" x="100" y="-300.3" font-family="Times New Roman,serif" font-style="italic" font-size="14.00" fill="gray">Complete</text>
</g>
<!-- Grid&#45;&gt;BlockDragging -->
<g id="edge4" class="edge"><title>Grid&#45;&gt;BlockDragging</title>
<path fill="none" stroke="black" d="M217.517,-365.494C201.323,-355.991 180.949,-344.036 163.491,-333.792"/>
<polygon fill="black" stroke="black" points="165.062,-330.656 154.665,-328.614 161.519,-336.693 165.062,-330.656"/>
</g>
<!-- Touch&#45;&gt;BlockDragging -->
<g id="edge5" class="edge"><title>Touch&#45;&gt;BlockDragging</title>
<path fill="none" stroke="black" d="M146.722,-365.313C143.489,-357.115 139.549,-347.123 135.945,-337.985"/>
<polygon fill="black" stroke="black" points="139.14,-336.548 132.216,-328.529 132.628,-339.116 139.14,-336.548"/>
</g>
<!-- IntentionalAdvance -->
<g id="node9" class="node"><title>IntentionalAdvance</title>
<polygon fill="none" stroke="gray" points="181,-219.5 181,-255.5 312,-255.5 312,-219.5 181,-219.5"/>
<text text-anchor="start" x="189" y="-241.3" font-family="Times New Roman,serif" font-size="14.00" fill="gray">Intentional Advance </text>
<text text-anchor="start" x="217" y="-227.3" font-family="Times New Roman,serif" font-size="14.00" fill="gray"> </text>
<text text-anchor="start" x="221" y="-227.3" font-family="Times New Roman,serif" font-style="italic" font-size="14.00" fill="gray">Complete</text>
</g>
<!-- Touch&#45;&gt;IntentionalAdvance -->
<g id="edge6" class="edge"><title>Touch&#45;&gt;IntentionalAdvance</title>
<path fill="none" stroke="black" d="M164.534,-365.416C180.754,-340.3 211.151,-293.234 230.023,-264.014"/>
<polygon fill="black" stroke="black" points="232.996,-265.861 235.481,-255.562 227.115,-262.063 232.996,-265.861"/>
</g>
<!-- NewRows -->
<g id="node5" class="node"><title>NewRows</title>
<polygon fill="none" stroke="gray" points="330,-219.5 330,-255.5 413,-255.5 413,-219.5 330,-219.5"/>
<text text-anchor="start" x="338" y="-241.3" font-family="Times New Roman,serif" font-size="14.00" fill="gray">New Rows </text>
<text text-anchor="start" x="342" y="-227.3" font-family="Times New Roman,serif" font-size="14.00" fill="gray"> </text>
<text text-anchor="start" x="346" y="-227.3" font-family="Times New Roman,serif" font-style="italic" font-size="14.00" fill="gray">Complete</text>
</g>
<!-- Advancing&#45;&gt;NewRows -->
<g id="edge7" class="edge"><title>Advancing&#45;&gt;NewRows</title>
<path fill="none" stroke="black" d="M298.739,-292.313C311.238,-283.069 326.822,-271.543 340.358,-261.532"/>
<polygon fill="black" stroke="black" points="342.516,-264.289 348.475,-255.529 338.354,-258.661 342.516,-264.289"/>
</g>
<!-- Advancing&#45;&gt;IntentionalAdvance -->
<g id="edge8" class="edge"><title>Advancing&#45;&gt;IntentionalAdvance</title>
<path fill="none" stroke="black" d="M268.48,-292.313C265.132,-284.115 261.05,-274.123 257.318,-264.985"/>
<polygon fill="black" stroke="black" points="260.477,-263.463 253.455,-255.529 253.997,-266.11 260.477,-263.463"/>
</g>
<!-- Lose -->
<g id="node13" class="node"><title>Lose</title>
<polygon fill="none" stroke="black" points="337.5,-146.5 337.5,-182.5 391.5,-182.5 391.5,-146.5 337.5,-146.5"/>
<text text-anchor="middle" x="364.5" y="-160.8" font-family="Times New Roman,serif" font-size="14.00">Lose</text>
</g>
<!-- NewRows&#45;&gt;Lose -->
<g id="edge9" class="edge"><title>NewRows&#45;&gt;Lose</title>
<path fill="none" stroke="black" d="M369.805,-219.313C369.014,-211.289 368.054,-201.547 367.169,-192.569"/>
<polygon fill="black" stroke="black" points="370.643,-192.137 366.179,-182.529 363.677,-192.824 370.643,-192.137"/>
</g>
<!-- Matches -->
<g id="node7" class="node"><title>Matches</title>
<polygon fill="none" stroke="gray" points="88,-219.5 88,-255.5 163,-255.5 163,-219.5 88,-219.5"/>
<text text-anchor="start" x="99.5" y="-241.3" font-family="Times New Roman,serif" font-size="14.00" fill="gray">Matches </text>
<text text-anchor="start" x="96" y="-227.3" font-family="Times New Roman,serif" font-size="14.00" fill="gray"> </text>
<text text-anchor="start" x="100" y="-227.3" font-family="Times New Roman,serif" font-style="italic" font-size="14.00" fill="gray">Complete</text>
</g>
<!-- BlockDragging&#45;&gt;Matches -->
<g id="edge10" class="edge"><title>BlockDragging&#45;&gt;Matches</title>
<path fill="none" stroke="black" d="M125.5,-292.313C125.5,-284.289 125.5,-274.547 125.5,-265.569"/>
<polygon fill="black" stroke="black" points="129,-265.529 125.5,-255.529 122,-265.529 129,-265.529"/>
</g>
<!-- Falling -->
<g id="node8" class="node"><title>Falling</title>
<polygon fill="none" stroke="gray" points="0,-146.5 0,-182.5 75,-182.5 75,-146.5 0,-146.5"/>
<text text-anchor="start" x="17" y="-168.3" font-family="Times New Roman,serif" font-size="14.00" fill="gray">Falling </text>
<text text-anchor="start" x="8" y="-154.3" font-family="Times New Roman,serif" font-size="14.00" fill="gray"> </text>
<text text-anchor="start" x="12" y="-154.3" font-family="Times New Roman,serif" font-style="italic" font-size="14.00" fill="gray">Complete</text>
</g>
<!-- BlockDragging&#45;&gt;Falling -->
<g id="edge11" class="edge"><title>BlockDragging&#45;&gt;Falling</title>
<path fill="none" stroke="black" d="M107.984,-292.249C98.4645,-282.254 86.9468,-269.089 78.5,-256 65.4186,-235.73 54.393,-210.595 47.0815,-191.962"/>
<polygon fill="black" stroke="black" points="50.3475,-190.704 43.5089,-182.611 43.8086,-193.202 50.3475,-190.704"/>
</g>
<!-- StopClock -->
<g id="node10" class="node"><title>StopClock</title>
<polygon fill="none" stroke="black" points="93,-146.5 93,-182.5 180,-182.5 180,-146.5 93,-146.5"/>
<text text-anchor="start" x="102" y="-168.3" font-family="Times New Roman,serif" font-size="14.00">Stop Clock </text>
<text text-anchor="start" x="101" y="-154.3" font-family="Times New Roman,serif" font-size="14.00"> </text>
<text text-anchor="start" x="105" y="-154.3" font-family="Times New Roman,serif" font-style="italic" font-size="14.00">In Progress</text>
</g>
<!-- Matches&#45;&gt;StopClock -->
<g id="edge12" class="edge"><title>Matches&#45;&gt;StopClock</title>
<path fill="none" stroke="black" d="M128.163,-219.313C129.406,-211.289 130.915,-201.547 132.306,-192.569"/>
<polygon fill="black" stroke="black" points="135.789,-192.947 133.862,-182.529 128.872,-191.875 135.789,-192.947"/>
</g>
<!-- ClearAnimation -->
<g id="node11" class="node"><title>ClearAnimation</title>
<polygon fill="none" stroke="gray" points="198.5,-146.5 198.5,-182.5 308.5,-182.5 308.5,-146.5 198.5,-146.5"/>
<text text-anchor="start" x="206.5" y="-168.3" font-family="Times New Roman,serif" font-size="14.00" fill="gray">Clear Animation </text>
<text text-anchor="start" x="224" y="-154.3" font-family="Times New Roman,serif" font-size="14.00" fill="gray"> </text>
<text text-anchor="start" x="228" y="-154.3" font-family="Times New Roman,serif" font-style="italic" font-size="14.00" fill="gray">Complete</text>
</g>
<!-- Matches&#45;&gt;ClearAnimation -->
<g id="edge13" class="edge"><title>Matches&#45;&gt;ClearAnimation</title>
<path fill="none" stroke="black" d="M156.159,-219.494C173.447,-209.904 195.239,-197.817 213.818,-187.511"/>
<polygon fill="black" stroke="black" points="215.6,-190.525 222.647,-182.614 212.205,-184.404 215.6,-190.525"/>
</g>
<!-- Combo -->
<g id="node12" class="node"><title>Combo</title>
<polygon fill="none" stroke="black" points="151,-73.5 151,-109.5 210,-109.5 210,-73.5 151,-73.5"/>
<text text-anchor="middle" x="180.5" y="-87.8" font-family="Times New Roman,serif" font-size="14.00">Combo</text>
</g>
<!-- Falling&#45;&gt;Combo -->
<g id="edge14" class="edge"><title>Falling&#45;&gt;Combo</title>
<path fill="none" stroke="black" d="M71.7521,-146.494C92.8634,-136.012 119.986,-122.546 141.862,-111.684"/>
<polygon fill="black" stroke="black" points="143.484,-114.787 150.884,-107.205 140.371,-108.517 143.484,-114.787"/>
</g>
<!-- StopClock&#45;&gt;Combo -->
<g id="edge15" class="edge"><title>StopClock&#45;&gt;Combo</title>
<path fill="none" stroke="black" d="M147.151,-146.313C152.394,-137.853 158.82,-127.484 164.627,-118.112"/>
<polygon fill="black" stroke="black" points="167.654,-119.873 169.947,-109.529 161.704,-116.185 167.654,-119.873"/>
</g>
<!-- ClearAnimation&#45;&gt;Combo -->
<g id="edge16" class="edge"><title>ClearAnimation&#45;&gt;Combo</title>
<path fill="none" stroke="black" d="M235.829,-146.313C226.683,-137.417 215.365,-126.409 205.353,-116.672"/>
<polygon fill="black" stroke="black" points="207.617,-113.992 198.009,-109.529 202.737,-119.01 207.617,-113.992"/>
</g>
<!-- Garbage -->
<g id="node20" class="node"><title>Garbage</title>
<polygon fill="none" stroke="black" points="325.5,-0.5 325.5,-36.5 389.5,-36.5 389.5,-0.5 325.5,-0.5"/>
<text text-anchor="middle" x="357.5" y="-14.8" font-family="Times New Roman,serif" font-size="14.00">Garbage</text>
</g>
<!-- Combo&#45;&gt;Garbage -->
<g id="edge17" class="edge"><title>Combo&#45;&gt;Garbage</title>
<path fill="none" stroke="black" d="M210.126,-78.6162C239.022,-67.0249 283.245,-49.286 315.711,-36.2628"/>
<polygon fill="black" stroke="black" points="317.401,-39.356 325.379,-32.3846 314.795,-32.8592 317.401,-39.356"/>
</g>
<!-- DangerAnimation -->
<g id="node14" class="node"><title>DangerAnimation</title>
<polygon fill="none" stroke="black" points="272,-73.5 272,-109.5 389,-109.5 389,-73.5 272,-73.5"/>
<text text-anchor="start" x="280" y="-87.8" font-family="Times New Roman,serif" font-size="14.00">Danger Animation</text>
</g>
<!-- Lose&#45;&gt;DangerAnimation -->
<g id="edge18" class="edge"><title>Lose&#45;&gt;DangerAnimation</title>
<path fill="none" stroke="black" d="M356.27,-146.313C352.302,-138.028 347.457,-127.91 343.043,-118.693"/>
<polygon fill="black" stroke="black" points="346.13,-117.036 338.655,-109.529 339.817,-120.06 346.13,-117.036"/>
</g>
<!-- Replay -->
<g id="node22" class="node"><title>Replay</title>
<polygon fill="none" stroke="black" points="407.5,-73.5 407.5,-109.5 463.5,-109.5 463.5,-73.5 407.5,-73.5"/>
<text text-anchor="middle" x="435.5" y="-87.8" font-family="Times New Roman,serif" font-size="14.00">Replay</text>
</g>
<!-- Lose&#45;&gt;Replay -->
<g id="edge19" class="edge"><title>Lose&#45;&gt;Replay</title>
<path fill="none" stroke="black" d="M381.687,-146.313C390.583,-137.417 401.591,-126.409 411.328,-116.672"/>
<polygon fill="black" stroke="black" points="413.875,-119.075 418.471,-109.529 408.925,-114.125 413.875,-119.075"/>
</g>
<!-- Server -->
<g id="node15" class="node"><title>Server</title>
<polygon fill="none" stroke="black" points="502.5,-438.5 502.5,-474.5 556.5,-474.5 556.5,-438.5 502.5,-438.5"/>
<text text-anchor="middle" x="529.5" y="-452.8" font-family="Times New Roman,serif" font-size="14.00">Server</text>
</g>
<!-- Host -->
<g id="node16" class="node"><title>Host</title>
<polygon fill="none" stroke="black" points="456.5,-365.5 456.5,-401.5 510.5,-401.5 510.5,-365.5 456.5,-365.5"/>
<text text-anchor="middle" x="483.5" y="-379.8" font-family="Times New Roman,serif" font-size="14.00">Host</text>
</g>
<!-- Server&#45;&gt;Host -->
<g id="edge20" class="edge"><title>Server&#45;&gt;Host</title>
<path fill="none" stroke="black" d="M518.365,-438.313C512.884,-429.853 506.165,-419.484 500.094,-410.112"/>
<polygon fill="black" stroke="black" points="502.908,-408.018 494.533,-401.529 497.033,-411.824 502.908,-408.018"/>
</g>
<!-- Disconnected -->
<g id="node18" class="node"><title>Disconnected</title>
<polygon fill="none" stroke="black" points="529,-365.5 529,-401.5 622,-401.5 622,-365.5 529,-365.5"/>
<text text-anchor="middle" x="575.5" y="-379.8" font-family="Times New Roman,serif" font-size="14.00">Disconnected</text>
</g>
<!-- Server&#45;&gt;Disconnected -->
<g id="edge21" class="edge"><title>Server&#45;&gt;Disconnected</title>
<path fill="none" stroke="black" d="M540.635,-438.313C546.116,-429.853 552.835,-419.484 558.906,-410.112"/>
<polygon fill="black" stroke="black" points="561.967,-411.824 564.467,-401.529 556.092,-408.018 561.967,-411.824"/>
</g>
<!-- Join -->
<g id="node17" class="node"><title>Join</title>
<polygon fill="none" stroke="black" points="484.5,-292.5 484.5,-328.5 538.5,-328.5 538.5,-292.5 484.5,-292.5"/>
<text text-anchor="middle" x="511.5" y="-306.8" font-family="Times New Roman,serif" font-size="14.00">Join</text>
</g>
<!-- Host&#45;&gt;Join -->
<g id="edge22" class="edge"><title>Host&#45;&gt;Join</title>
<path fill="none" stroke="black" d="M490.278,-365.313C493.511,-357.115 497.451,-347.123 501.055,-337.985"/>
<polygon fill="black" stroke="black" points="504.372,-339.116 504.784,-328.529 497.86,-336.548 504.372,-339.116"/>
</g>
<!-- ShareState -->
<g id="node19" class="node"><title>ShareState</title>
<polygon fill="none" stroke="black" points="444.5,-219.5 444.5,-255.5 524.5,-255.5 524.5,-219.5 444.5,-219.5"/>
<text text-anchor="start" x="452.5" y="-233.8" font-family="Times New Roman,serif" font-size="14.00">Share State</text>
</g>
<!-- Host&#45;&gt;ShareState -->
<g id="edge23" class="edge"><title>Host&#45;&gt;ShareState</title>
<path fill="none" stroke="black" d="M480.252,-365.225C478.454,-354.781 476.405,-341.175 475.5,-329 474.281,-312.601 474.131,-308.387 475.5,-292 476.217,-283.421 477.569,-274.147 479.012,-265.769"/>
<polygon fill="black" stroke="black" points="482.487,-266.223 480.846,-255.755 475.601,-264.961 482.487,-266.223"/>
</g>
<!-- Join&#45;&gt;ShareState -->
<g id="edge24" class="edge"><title>Join&#45;&gt;ShareState</title>
<path fill="none" stroke="black" d="M504.964,-292.313C501.847,-284.115 498.047,-274.123 494.572,-264.985"/>
<polygon fill="black" stroke="black" points="497.802,-263.632 490.976,-255.529 491.259,-266.12 497.802,-263.632"/>
</g>
<!-- ShareState&#45;&gt;Garbage -->
<g id="edge25" class="edge"><title>ShareState&#45;&gt;Garbage</title>
<path fill="none" stroke="black" d="M488.447,-219.385C494.775,-187.453 503.55,-117.968 472.5,-73 455.711,-48.685 424.926,-35.161 399.43,-27.7961"/>
<polygon fill="black" stroke="black" points="400.166,-24.37 389.602,-25.1779 398.364,-31.1342 400.166,-24.37"/>
</g>
<!-- Win -->
<g id="node21" class="node"><title>Win</title>
<polygon fill="none" stroke="black" points="409.5,-146.5 409.5,-182.5 463.5,-182.5 463.5,-146.5 409.5,-146.5"/>
<text text-anchor="middle" x="436.5" y="-160.8" font-family="Times New Roman,serif" font-size="14.00">Win</text>
</g>
<!-- ShareState&#45;&gt;Win -->
<g id="edge26" class="edge"><title>ShareState&#45;&gt;Win</title>
<path fill="none" stroke="black" d="M472.881,-219.313C467.103,-210.766 460.006,-200.269 453.62,-190.823"/>
<polygon fill="black" stroke="black" points="456.513,-188.853 448.012,-182.529 450.714,-192.774 456.513,-188.853"/>
</g>
<!-- Win&#45;&gt;Replay -->
<g id="edge27" class="edge"><title>Win&#45;&gt;Replay</title>
<path fill="none" stroke="black" d="M436.258,-146.313C436.145,-138.289 436.008,-128.547 435.881,-119.569"/>
<polygon fill="black" stroke="black" points="439.38,-119.479 435.74,-109.529 432.381,-119.577 439.38,-119.479"/>
</g>
</g>
</svg>
