<?xml version="1.0" encoding="UTF-8" standalone="no"?>
<!DOCTYPE svg PUBLIC "-//W3C//DTD SVG 1.1//EN"
 "http://www.w3.org/Graphics/SVG/1.1/DTD/svg11.dtd">
<!-- Generated by graphviz version 2.38.0 (20140413.2041)
 -->
<!-- Title: %3 Pages: 1 -->
<svg width="208pt" height="264pt"
 viewBox="0.00 0.00 208.00 264.00" xmlns="http://www.w3.org/2000/svg" xmlns:xlink="http://www.w3.org/1999/xlink">
<g id="graph0" class="graph" transform="scale(1 1) rotate(0) translate(4 260)">
<title>%3</title>
<polygon fill="white" stroke="none" points="-4,4 -4,-260 204,-260 204,4 -4,4"/>
<!-- a -->
<g id="node1" class="node"><title>a</title>
<polygon fill="none" stroke="gray" points="57.5,-219.5 57.5,-255.5 139.5,-255.5 139.5,-219.5 57.5,-219.5"/>
<text text-anchor="start" x="65.5" y="-241.3" font-family="Times New Roman,serif" font-size="14.00" fill="gray">Brainstorm </text>
<text text-anchor="start" x="69" y="-227.3" font-family="Times New Roman,serif" font-size="14.00" fill="gray"> </text>
<text text-anchor="start" x="73" y="-227.3" font-family="Times New Roman,serif" font-style="italic" font-size="14.00" fill="gray">Complete</text>
</g>
<!-- b -->
<g id="node2" class="node"><title>b</title>
<polygon fill="none" stroke="black" points="0,-146.5 0,-182.5 107,-182.5 107,-146.5 0,-146.5"/>
<text text-anchor="start" x="8" y="-168.3" font-family="Times New Roman,serif" font-size="14.00">Specify Format </text>
<text text-anchor="start" x="18" y="-154.3" font-family="Times New Roman,serif" font-size="14.00"> </text>
<text text-anchor="start" x="22" y="-154.3" font-family="Times New Roman,serif" font-style="italic" font-size="14.00">In Progress</text>
</g>
<!-- a&#45;&gt;b -->
<g id="edge1" class="edge"><title>a&#45;&gt;b</title>
<path fill="none" stroke="black" d="M87.6068,-219.313C82.2451,-210.853 75.6726,-200.484 69.7332,-191.112"/>
<polygon fill="black" stroke="black" points="72.6026,-189.102 64.2929,-182.529 66.6901,-192.849 72.6026,-189.102"/>
</g>
<!-- c -->
<g id="node3" class="node"><title>c</title>
<polygon fill="none" stroke="black" points="95,-73.5 95,-109.5 200,-109.5 200,-73.5 95,-73.5"/>
<text text-anchor="start" x="103" y="-87.8" font-family="Times New Roman,serif" font-size="14.00">DOT Generator</text>
</g>
<!-- a&#45;&gt;c -->
<g id="edge2" class="edge"><title>a&#45;&gt;c</title>
<path fill="none" stroke="black" d="M104.313,-219.416C112.749,-194.625 128.462,-148.448 138.43,-119.156"/>
<polygon fill="black" stroke="black" points="141.786,-120.156 141.694,-109.562 135.159,-117.901 141.786,-120.156"/>
</g>
<!-- d -->
<g id="node4" class="node"><title>d</title>
<polygon fill="none" stroke="black" points="22.5,-73.5 22.5,-109.5 76.5,-109.5 76.5,-73.5 22.5,-73.5"/>
<text text-anchor="start" x="31.5" y="-87.8" font-family="Times New Roman,serif" font-size="14.00">Parser</text>
</g>
<!-- b&#45;&gt;d -->
<g id="edge3" class="edge"><title>b&#45;&gt;d</title>
<path fill="none" stroke="black" d="M52.5317,-146.313C52.0797,-138.289 51.5308,-128.547 51.025,-119.569"/>
<polygon fill="black" stroke="black" points="54.5164,-119.316 50.4594,-109.529 47.5275,-119.71 54.5164,-119.316"/>
</g>
<!-- e -->
<g id="node5" class="node"><title>e</title>
<polygon fill="none" stroke="black" points="47,-0.5 47,-36.5 150,-36.5 150,-0.5 47,-0.5"/>
<text text-anchor="start" x="55" y="-14.8" font-family="Times New Roman,serif" font-size="14.00">Command Line</text>
</g>
<!-- c&#45;&gt;e -->
<g id="edge5" class="edge"><title>c&#45;&gt;e</title>
<path fill="none" stroke="black" d="M135.638,-73.3129C129.74,-64.7662 122.496,-54.2695 115.976,-44.8229"/>
<polygon fill="black" stroke="black" points="118.813,-42.7711 110.252,-36.5288 113.052,-46.7471 118.813,-42.7711"/>
</g>
<!-- d&#45;&gt;e -->
<g id="edge4" class="edge"><title>d&#45;&gt;e</title>
<path fill="none" stroke="black" d="M61.3615,-73.3129C67.2599,-64.7662 74.5042,-54.2695 81.0236,-44.8229"/>
<polygon fill="black" stroke="black" points="83.9482,-46.7471 86.7477,-36.5288 78.187,-42.7711 83.9482,-46.7471"/>
</g>
</g>
</svg>
