<?xml version="1.0" encoding="UTF-8" standalone="no"?>
<!DOCTYPE svg PUBLIC "-//W3C//DTD SVG 1.1//EN"
 "http://www.w3.org/Graphics/SVG/1.1/DTD/svg11.dtd">
<!-- Generated by graphviz version 2.38.0 (20140413.2041)
 -->
<!-- Title: %3 Pages: 1 -->
<svg width="628pt" height="483pt"
 viewBox="0.00 0.00 628.00 483.00" xmlns="http://www.w3.org/2000/svg" xmlns:xlink="http://www.w3.org/1999/xlink">
<g id="graph0" class="graph" transform="scale(1 1) rotate(0) translate(4 479)">
<title>%3</title>
<polygon fill="white" stroke="none" points="-4,4 -4,-479 624,-479 624,4 -4,4"/>
<!-- Renderer -->
<g id="node1" class="node"><title>Renderer</title>
<polygon fill="none" stroke="gray" points="160,-438.5 160,-474.5 235,-474.5 235,-438.5 160,-438.5"/>
<text text-anchor="start" x="170" y="-460.3" font-family="Times New Roman,serif" font-size="14.00" fill="gray">Renderer </text>
<text text-anchor="start" x="168" y="-446.3" font-family="Times New Roman,serif" font-size="14.00" fill="gray"> </text>
<text text-anchor="start" x="172" y="-446.3" font-family="Times New Roman,serif" font-style="italic" font-size="14.00" fill="gray">Complete</text>
</g>
<!-- Grid -->
<g id="node2" class="node"><title>Grid</title>
<polygon fill="none" stroke="gray" points="207,-365.5 207,-401.5 282,-401.5 282,-365.5 207,-365.5"/>
<text text-anchor="start" x="229.5" y="-387.3" font-family="Times New Roman,serif" font-size="14.00" fill="gray">Grid </text>
<text text-anchor="start" x="215" y="-373.3" font-family="Times New Roman,serif" font-size="14.00" fill="gray"> </text>
<text text-anchor="start" x="219" y="-373.3" font-family="Times New Roman,serif" font-style="italic" font-size="14.00" fill="gray">Complete</text>
</g>
<!-- Renderer&#45;&gt;Grid -->
<g id="edge1" class="edge"><title>Renderer&#45;&gt;Grid</title>
<path fill="none" stroke="black" d="M208.877,-438.313C214.477,-429.853 221.342,-419.484 227.545,-410.112"/>
<polygon fill="black" stroke="black" points="230.626,-411.799 233.227,-401.529 224.789,-407.935 230.626,-411.799"/>
</g>
<!-- Touch -->
<g id="node3" class="node"><title>Touch</title>
<polygon fill="none" stroke="gray" points="114,-365.5 114,-401.5 189,-401.5 189,-365.5 114,-365.5"/>
<text text-anchor="start" x="131" y="-387.3" font-family="Times New Roman,serif" font-size="14.00" fill="gray">Touch </text>
<text text-anchor="start" x="122" y="-373.3" font-family="Times New Roman,serif" font-size="14.00" fill="gray"> </text>
<text text-anchor="start" x="126" y="-373.3" font-family="Times New Roman,serif" font-style="italic" font-size="14.00" fill="gray">Complete</text>
</g>
<!-- Renderer&#45;&gt;Touch -->
<g id="edge2" class="edge"><title>Renderer&#45;&gt;Touch</title>
<path fill="none" stroke="black" d="M186.365,-438.313C180.884,-429.853 174.165,-419.484 168.094,-410.112"/>
<polygon fill="black" stroke="black" points="170.908,-408.018 162.533,-401.529 165.033,-411.824 170.908,-408.018"/>
</g>
<!-- Advancing -->
<g id="node4" class="node"><title>Advancing</title>
<polygon fill="none" stroke="gray" points="233.5,-292.5 233.5,-328.5 313.5,-328.5 313.5,-292.5 233.5,-292.5"/>
<text text-anchor="start" x="241.5" y="-314.3" font-family="Times New Roman,serif" font-size="14.00" fill="gray">Advancing </text>
<text text-anchor="start" x="244" y="-300.3" font-family="Times New Roman,serif" font-size="14.00" fill="gray"> </text>
<text text-anchor="start" x="248" y="-300.3" font-family="Times New Roman,serif" font-style="italic" font-size="14.00" fill="gray">Complete</text>
</g>
<!-- Grid&#45;&gt;Advancing -->
<g id="edge3" class="edge"><title>Grid&#45;&gt;Advancing</title>
<path fill="none" stroke="black" d="M251.52,-365.313C254.868,-357.115 258.95,-347.123 262.682,-337.985"/>
<polygon fill="black" stroke="black" points="266.003,-339.11 266.545,-328.529 259.523,-336.463 266.003,-339.11"/>
</g>
<!-- BlockDragging -->
<g id="node6" class="node"><title>BlockDragging</title>
<polygon fill="none" stroke="gray" points="70,-292.5 70,-328.5 177,-328.5 177,-292.5 70,-292.5"/>
<text text-anchor="start" x="78" y="-314.3" font-family="Times New Roman,serif" font-size="14.00" fill="gray">Block Dragging </text>
<text text-anchor="start" x="94" y="-300.3" font-family="Times New Roman,serif" font-size="14.00" fill="gray"> </text>
<text text-anchor="start" x="98" y="-300.3" font-family="Times New Roman,serif" font-style="italic" font-size="14.00" fill="gray">Complete</text>
</g>
<!-- Grid&#45;&gt;BlockDragging -->
<g id="edge4" class="edge"><title>Grid&#45;&gt;BlockDragging</title>
<path fill="none" stroke="black" d="M215.517,-365.494C199.323,-355.991 178.949,-344.036 161.491,-333.792"/>
<polygon fill="black" stroke="black" points="163.062,-330.656 152.665,-328.614 159.519,-336.693 163.062,-330.656"/>
</g>
<!-- Touch&#45;&gt;BlockDragging -->
<g id="edge5" class="edge"><title>Touch&#45;&gt;BlockDragging</title>
<path fill="none" stroke="black" d="M144.722,-365.313C141.489,-357.115 137.549,-347.123 133.945,-337.985"/>
<polygon fill="black" stroke="black" points="137.14,-336.548 130.216,-328.529 130.628,-339.116 137.14,-336.548"/>
</g>
<!-- IntentionalAdvance -->
<g id="node9" class="node"><title>IntentionalAdvance</title>
<polygon fill="none" stroke="gray" points="179,-219.5 179,-255.5 310,-255.5 310,-219.5 179,-219.5"/>
<text text-anchor="start" x="187" y="-241.3" font-family="Times New Roman,serif" font-size="14.00" fill="gray">Intentional Advance </text>
<text text-anchor="start" x="215" y="-227.3" font-family="Times New Roman,serif" font-size="14.00" fill="gray"> </text>
<text text-anchor="start" x="219" y="-227.3" font-family="Times New Roman,serif" font-style="italic" font-size="14.00" fill="gray">Complete</text>
</g>
<!-- Touch&#45;&gt;IntentionalAdvance -->
<g id="edge6" class="edge"><title>Touch&#45;&gt;IntentionalAdvance</title>
<path fill="none" stroke="black" d="M162.534,-365.416C178.754,-340.3 209.151,-293.234 228.023,-264.014"/>
<polygon fill="black" stroke="black" points="230.996,-265.861 233.481,-255.562 225.115,-262.063 230.996,-265.861"/>
</g>
<!-- NewRows -->
<g id="node5" class="node"><title>NewRows</title>
<polygon fill="none" stroke="gray" points="328,-219.5 328,-255.5 411,-255.5 411,-219.5 328,-219.5"/>
<text text-anchor="start" x="336" y="-241.3" font-family="Times New Roman,serif" font-size="14.00" fill="gray">New Rows </text>
<text text-anchor="start" x="340" y="-227.3" font-family="Times New Roman,serif" font-size="14.00" fill="gray"> </text>
<text text-anchor="start" x="344" y="-227.3" font-family="Times New Roman,serif" font-style="italic" font-size="14.00" fill="gray">Complete</text>
</g>
<!-- Advancing&#45;&gt;NewRows -->
<g id="edge7" class="edge"><title>Advancing&#45;&gt;NewRows</title>
<path fill="none" stroke="black" d="M296.739,-292.313C309.238,-283.069 324.822,-271.543 338.358,-261.532"/>
<polygon fill="black" stroke="black" points="340.516,-264.289 346.475,-255.529 336.354,-258.661 340.516,-264.289"/>
</g>
<!-- Advancing&#45;&gt;IntentionalAdvance -->
<g id="edge8" class="edge"><title>Advancing&#45;&gt;IntentionalAdvance</title>
<path fill="none" stroke="black" d="M266.48,-292.313C263.132,-284.115 259.05,-274.123 255.318,-264.985"/>
<polygon fill="black" stroke="black" points="258.477,-263.463 251.455,-255.529 251.997,-266.11 258.477,-263.463"/>
</g>
<!-- Lose -->
<g id="node13" class="node"><title>Lose</title>
<polygon fill="none" stroke="black" points="335.5,-146.5 335.5,-182.5 389.5,-182.5 389.5,-146.5 335.5,-146.5"/>
<text text-anchor="middle" x="362.5" y="-160.8" font-family="Times New Roman,serif" font-size="14.00">Lose</text>
</g>
<!-- NewRows&#45;&gt;Lose -->
<g id="edge9" class="edge"><title>NewRows&#45;&gt;Lose</title>
<path fill="none" stroke="black" d="M367.805,-219.313C367.014,-211.289 366.054,-201.547 365.169,-192.569"/>
<polygon fill="black" stroke="black" points="368.643,-192.137 364.179,-182.529 361.677,-192.824 368.643,-192.137"/>
</g>
<!-- Matches -->
<g id="node7" class="node"><title>Matches</title>
<polygon fill="none" stroke="gray" points="86,-219.5 86,-255.5 161,-255.5 161,-219.5 86,-219.5"/>
<text text-anchor="start" x="97.5" y="-241.3" font-family="Times New Roman,serif" font-size="14.00" fill="gray">Matches </text>
<text text-anchor="start" x="94" y="-227.3" font-family="Times New Roman,serif" font-size="14.00" fill="gray"> </text>
<text text-anchor="start" x="98" y="-227.3" font-family="Times New Roman,serif" font-style="italic" font-size="14.00" fill="gray">Complete</text>
</g>
<!-- BlockDragging&#45;&gt;Matches -->
<g id="edge10" class="edge"><title>BlockDragging&#45;&gt;Matches</title>
<path fill="none" stroke="black" d="M123.5,-292.313C123.5,-284.289 123.5,-274.547 123.5,-265.569"/>
<polygon fill="black" stroke="black" points="127,-265.529 123.5,-255.529 120,-265.529 127,-265.529"/>
</g>
<!-- Falling -->
<g id="node8" class="node"><title>Falling</title>
<polygon fill="none" stroke="gray" points="0,-146.5 0,-182.5 75,-182.5 75,-146.5 0,-146.5"/>
<text text-anchor="start" x="17" y="-168.3" font-family="Times New Roman,serif" font-size="14.00" fill="gray">Falling </text>
<text text-anchor="start" x="8" y="-154.3" font-family="Times New Roman,serif" font-size="14.00" fill="gray"> </text>
<text text-anchor="start" x="12" y="-154.3" font-family="Times New Roman,serif" font-style="italic" font-size="14.00" fill="gray">Complete</text>
</g>
<!-- BlockDragging&#45;&gt;Falling -->
<g id="edge11" class="edge"><title>BlockDragging&#45;&gt;Falling</title>
<path fill="none" stroke="black" d="M105.89,-292.309C96.3412,-282.332 84.8255,-269.166 76.5,-256 63.7704,-235.869 53.3521,-210.868 46.4959,-192.248"/>
<polygon fill="black" stroke="black" points="49.7209,-190.872 43.0613,-182.632 43.1288,-193.226 49.7209,-190.872"/>
</g>
<!-- StopClock -->
<g id="node10" class="node"><title>StopClock</title>
<polygon fill="none" stroke="gray" points="93,-146.5 93,-182.5 178,-182.5 178,-146.5 93,-146.5"/>
<text text-anchor="start" x="101" y="-168.3" font-family="Times New Roman,serif" font-size="14.00" fill="gray">Stop Clock </text>
<text text-anchor="start" x="106" y="-154.3" font-family="Times New Roman,serif" font-size="14.00" fill="gray"> </text>
<text text-anchor="start" x="110" y="-154.3" font-family="Times New Roman,serif" font-style="italic" font-size="14.00" fill="gray">Complete</text>
</g>
<!-- Matches&#45;&gt;StopClock -->
<g id="edge12" class="edge"><title>Matches&#45;&gt;StopClock</title>
<path fill="none" stroke="black" d="M126.405,-219.313C127.761,-211.289 129.407,-201.547 130.925,-192.569"/>
<polygon fill="black" stroke="black" points="134.406,-192.972 132.622,-182.529 127.504,-191.806 134.406,-192.972"/>
</g>
<!-- ClearAnimation -->
<g id="node11" class="node"><title>ClearAnimation</title>
<polygon fill="none" stroke="gray" points="196.5,-146.5 196.5,-182.5 306.5,-182.5 306.5,-146.5 196.5,-146.5"/>
<text text-anchor="start" x="204.5" y="-168.3" font-family="Times New Roman,serif" font-size="14.00" fill="gray">Clear Animation </text>
<text text-anchor="start" x="222" y="-154.3" font-family="Times New Roman,serif" font-size="14.00" fill="gray"> </text>
<text text-anchor="start" x="226" y="-154.3" font-family="Times New Roman,serif" font-style="italic" font-size="14.00" fill="gray">Complete</text>
</g>
<!-- Matches&#45;&gt;ClearAnimation -->
<g id="edge13" class="edge"><title>Matches&#45;&gt;ClearAnimation</title>
<path fill="none" stroke="black" d="M154.159,-219.494C171.447,-209.904 193.239,-197.817 211.818,-187.511"/>
<polygon fill="black" stroke="black" points="213.6,-190.525 220.647,-182.614 210.205,-184.404 213.6,-190.525"/>
</g>
<!-- Combo -->
<g id="node12" class="node"><title>Combo</title>
<polygon fill="none" stroke="black" points="128,-73.5 128,-109.5 215,-109.5 215,-73.5 128,-73.5"/>
<text text-anchor="start" x="148" y="-95.3" font-family="Times New Roman,serif" font-size="14.00">Combo </text>
<text text-anchor="start" x="136" y="-81.3" font-family="Times New Roman,serif" font-size="14.00"> </text>
<text text-anchor="start" x="140" y="-81.3" font-family="Times New Roman,serif" font-style="italic" font-size="14.00">In Progress</text>
</g>
<!-- Falling&#45;&gt;Combo -->
<g id="edge14" class="edge"><title>Falling&#45;&gt;Combo</title>
<path fill="none" stroke="black" d="M69.5963,-146.494C87.7772,-136.861 110.715,-124.707 130.223,-114.37"/>
<polygon fill="black" stroke="black" points="132.004,-117.388 139.201,-109.614 128.726,-111.203 132.004,-117.388"/>
</g>
<!-- StopClock&#45;&gt;Combo -->
<g id="edge15" class="edge"><title>StopClock&#45;&gt;Combo</title>
<path fill="none" stroke="black" d="M144.215,-146.313C148.415,-138.028 153.545,-127.91 158.219,-118.693"/>
<polygon fill="black" stroke="black" points="161.465,-120.031 162.866,-109.529 155.222,-116.865 161.465,-120.031"/>
</g>
<!-- ClearAnimation&#45;&gt;Combo -->
<g id="edge16" class="edge"><title>ClearAnimation&#45;&gt;Combo</title>
<path fill="none" stroke="black" d="M232.134,-146.313C222.013,-137.33 209.464,-126.193 198.413,-116.386"/>
<polygon fill="black" stroke="black" points="200.49,-113.549 190.687,-109.529 195.843,-118.784 200.49,-113.549"/>
</g>
<!-- Garbage -->
<g id="node20" class="node"><title>Garbage</title>
<polygon fill="none" stroke="black" points="316.5,-0.5 316.5,-36.5 380.5,-36.5 380.5,-0.5 316.5,-0.5"/>
<text text-anchor="middle" x="348.5" y="-14.8" font-family="Times New Roman,serif" font-size="14.00">Garbage</text>
</g>
<!-- Combo&#45;&gt;Garbage -->
<g id="edge17" class="edge"><title>Combo&#45;&gt;Garbage</title>
<path fill="none" stroke="black" d="M213.896,-73.4937C242.074,-62.1907 278.903,-47.4175 306.913,-36.1818"/>
<polygon fill="black" stroke="black" points="308.446,-39.338 316.424,-32.3666 305.84,-32.8412 308.446,-39.338"/>
</g>
<!-- DangerAnimation -->
<g id="node14" class="node"><title>DangerAnimation</title>
<polygon fill="none" stroke="black" points="270,-73.5 270,-109.5 387,-109.5 387,-73.5 270,-73.5"/>
<text text-anchor="start" x="278" y="-87.8" font-family="Times New Roman,serif" font-size="14.00">Danger Animation</text>
</g>
<!-- Lose&#45;&gt;DangerAnimation -->
<g id="edge18" class="edge"><title>Lose&#45;&gt;DangerAnimation</title>
<path fill="none" stroke="black" d="M354.27,-146.313C350.302,-138.028 345.457,-127.91 341.043,-118.693"/>
<polygon fill="black" stroke="black" points="344.13,-117.036 336.655,-109.529 337.817,-120.06 344.13,-117.036"/>
</g>
<!-- Replay -->
<g id="node22" class="node"><title>Replay</title>
<polygon fill="none" stroke="black" points="405.5,-73.5 405.5,-109.5 461.5,-109.5 461.5,-73.5 405.5,-73.5"/>
<text text-anchor="middle" x="433.5" y="-87.8" font-family="Times New Roman,serif" font-size="14.00">Replay</text>
</g>
<!-- Lose&#45;&gt;Replay -->
<g id="edge19" class="edge"><title>Lose&#45;&gt;Replay</title>
<path fill="none" stroke="black" d="M379.687,-146.313C388.583,-137.417 399.591,-126.409 409.328,-116.672"/>
<polygon fill="black" stroke="black" points="411.875,-119.075 416.471,-109.529 406.925,-114.125 411.875,-119.075"/>
</g>
<!-- Server -->
<g id="node15" class="node"><title>Server</title>
<polygon fill="none" stroke="black" points="500.5,-438.5 500.5,-474.5 554.5,-474.5 554.5,-438.5 500.5,-438.5"/>
<text text-anchor="middle" x="527.5" y="-452.8" font-family="Times New Roman,serif" font-size="14.00">Server</text>
</g>
<!-- Host -->
<g id="node16" class="node"><title>Host</title>
<polygon fill="none" stroke="black" points="454.5,-365.5 454.5,-401.5 508.5,-401.5 508.5,-365.5 454.5,-365.5"/>
<text text-anchor="middle" x="481.5" y="-379.8" font-family="Times New Roman,serif" font-size="14.00">Host</text>
</g>
<!-- Server&#45;&gt;Host -->
<g id="edge20" class="edge"><title>Server&#45;&gt;Host</title>
<path fill="none" stroke="black" d="M516.365,-438.313C510.884,-429.853 504.165,-419.484 498.094,-410.112"/>
<polygon fill="black" stroke="black" points="500.908,-408.018 492.533,-401.529 495.033,-411.824 500.908,-408.018"/>
</g>
<!-- Disconnected -->
<g id="node18" class="node"><title>Disconnected</title>
<polygon fill="none" stroke="black" points="527,-365.5 527,-401.5 620,-401.5 620,-365.5 527,-365.5"/>
<text text-anchor="middle" x="573.5" y="-379.8" font-family="Times New Roman,serif" font-size="14.00">Disconnected</text>
</g>
<!-- Server&#45;&gt;Disconnected -->
<g id="edge21" class="edge"><title>Server&#45;&gt;Disconnected</title>
<path fill="none" stroke="black" d="M538.635,-438.313C544.116,-429.853 550.835,-419.484 556.906,-410.112"/>
<polygon fill="black" stroke="black" points="559.967,-411.824 562.467,-401.529 554.092,-408.018 559.967,-411.824"/>
</g>
<!-- Join -->
<g id="node17" class="node"><title>Join</title>
<polygon fill="none" stroke="black" points="482.5,-292.5 482.5,-328.5 536.5,-328.5 536.5,-292.5 482.5,-292.5"/>
<text text-anchor="middle" x="509.5" y="-306.8" font-family="Times New Roman,serif" font-size="14.00">Join</text>
</g>
<!-- Host&#45;&gt;Join -->
<g id="edge22" class="edge"><title>Host&#45;&gt;Join</title>
<path fill="none" stroke="black" d="M488.278,-365.313C491.511,-357.115 495.451,-347.123 499.055,-337.985"/>
<polygon fill="black" stroke="black" points="502.372,-339.116 502.784,-328.529 495.86,-336.548 502.372,-339.116"/>
</g>
<!-- ShareState -->
<g id="node19" class="node"><title>ShareState</title>
<polygon fill="none" stroke="black" points="442.5,-219.5 442.5,-255.5 522.5,-255.5 522.5,-219.5 442.5,-219.5"/>
<text text-anchor="start" x="450.5" y="-233.8" font-family="Times New Roman,serif" font-size="14.00">Share State</text>
</g>
<!-- Host&#45;&gt;ShareState -->
<g id="edge23" class="edge"><title>Host&#45;&gt;ShareState</title>
<path fill="none" stroke="black" d="M478.252,-365.225C476.454,-354.781 474.405,-341.175 473.5,-329 472.281,-312.601 472.131,-308.387 473.5,-292 474.217,-283.421 475.569,-274.147 477.012,-265.769"/>
<polygon fill="black" stroke="black" points="480.487,-266.223 478.846,-255.755 473.601,-264.961 480.487,-266.223"/>
</g>
<!-- Join&#45;&gt;ShareState -->
<g id="edge24" class="edge"><title>Join&#45;&gt;ShareState</title>
<path fill="none" stroke="black" d="M502.964,-292.313C499.847,-284.115 496.047,-274.123 492.572,-264.985"/>
<polygon fill="black" stroke="black" points="495.802,-263.632 488.976,-255.529 489.259,-266.12 495.802,-263.632"/>
</g>
<!-- ShareState&#45;&gt;Garbage -->
<g id="edge25" class="edge"><title>ShareState&#45;&gt;Garbage</title>
<path fill="none" stroke="black" d="M486.54,-219.32C493.023,-187.279 502.046,-117.621 470.5,-73 452.01,-46.8461 417.82,-33.3324 390.329,-26.4368"/>
<polygon fill="black" stroke="black" points="391.076,-23.0172 380.545,-24.1847 389.505,-29.8388 391.076,-23.0172"/>
</g>
<!-- Win -->
<g id="node21" class="node"><title>Win</title>
<polygon fill="none" stroke="black" points="407.5,-146.5 407.5,-182.5 461.5,-182.5 461.5,-146.5 407.5,-146.5"/>
<text text-anchor="middle" x="434.5" y="-160.8" font-family="Times New Roman,serif" font-size="14.00">Win</text>
</g>
<!-- ShareState&#45;&gt;Win -->
<g id="edge26" class="edge"><title>ShareState&#45;&gt;Win</title>
<path fill="none" stroke="black" d="M470.881,-219.313C465.103,-210.766 458.006,-200.269 451.62,-190.823"/>
<polygon fill="black" stroke="black" points="454.513,-188.853 446.012,-182.529 448.714,-192.774 454.513,-188.853"/>
</g>
<!-- Win&#45;&gt;Replay -->
<g id="edge27" class="edge"><title>Win&#45;&gt;Replay</title>
<path fill="none" stroke="black" d="M434.258,-146.313C434.145,-138.289 434.008,-128.547 433.881,-119.569"/>
<polygon fill="black" stroke="black" points="437.38,-119.479 433.74,-109.529 430.381,-119.577 437.38,-119.479"/>
</g>
</g>
</svg>
