<?xml version="1.0" encoding="UTF-8" standalone="no"?>
<!DOCTYPE svg PUBLIC "-//W3C//DTD SVG 1.1//EN"
 "http://www.w3.org/Graphics/SVG/1.1/DTD/svg11.dtd">
<!-- Generated by graphviz version 2.38.0 (20140413.2041)
 -->
<!-- Title: %3 Pages: 1 -->
<svg width="616pt" height="483pt"
 viewBox="0.00 0.00 616.00 483.00" xmlns="http://www.w3.org/2000/svg" xmlns:xlink="http://www.w3.org/1999/xlink">
<g id="graph0" class="graph" transform="scale(1 1) rotate(0) translate(4 479)">
<title>%3</title>
<polygon fill="white" stroke="none" points="-4,4 -4,-479 612,-479 612,4 -4,4"/>
<!-- Renderer -->
<g id="node1" class="node"><title>Renderer</title>
<polygon fill="none" stroke="gray" points="155,-438.5 155,-474.5 230,-474.5 230,-438.5 155,-438.5"/>
<text text-anchor="start" x="165" y="-460.3" font-family="Times New Roman,serif" font-size="14.00" fill="gray">Renderer </text>
<text text-anchor="start" x="163" y="-446.3" font-family="Times New Roman,serif" font-size="14.00" fill="gray"> </text>
<text text-anchor="start" x="167" y="-446.3" font-family="Times New Roman,serif" font-style="italic" font-size="14.00" fill="gray">Complete</text>
</g>
<!-- Grid -->
<g id="node2" class="node"><title>Grid</title>
<polygon fill="none" stroke="gray" points="202,-365.5 202,-401.5 277,-401.5 277,-365.5 202,-365.5"/>
<text text-anchor="start" x="224.5" y="-387.3" font-family="Times New Roman,serif" font-size="14.00" fill="gray">Grid </text>
<text text-anchor="start" x="210" y="-373.3" font-family="Times New Roman,serif" font-size="14.00" fill="gray"> </text>
<text text-anchor="start" x="214" y="-373.3" font-family="Times New Roman,serif" font-style="italic" font-size="14.00" fill="gray">Complete</text>
</g>
<!-- Renderer&#45;&gt;Grid -->
<g id="edge1" class="edge"><title>Renderer&#45;&gt;Grid</title>
<path fill="none" stroke="black" d="M203.877,-438.313C209.477,-429.853 216.342,-419.484 222.545,-410.112"/>
<polygon fill="black" stroke="black" points="225.626,-411.799 228.227,-401.529 219.789,-407.935 225.626,-411.799"/>
</g>
<!-- Touch -->
<g id="node3" class="node"><title>Touch</title>
<polygon fill="none" stroke="gray" points="109,-365.5 109,-401.5 184,-401.5 184,-365.5 109,-365.5"/>
<text text-anchor="start" x="126" y="-387.3" font-family="Times New Roman,serif" font-size="14.00" fill="gray">Touch </text>
<text text-anchor="start" x="117" y="-373.3" font-family="Times New Roman,serif" font-size="14.00" fill="gray"> </text>
<text text-anchor="start" x="121" y="-373.3" font-family="Times New Roman,serif" font-style="italic" font-size="14.00" fill="gray">Complete</text>
</g>
<!-- Renderer&#45;&gt;Touch -->
<g id="edge2" class="edge"><title>Renderer&#45;&gt;Touch</title>
<path fill="none" stroke="black" d="M181.365,-438.313C175.884,-429.853 169.165,-419.484 163.094,-410.112"/>
<polygon fill="black" stroke="black" points="165.908,-408.018 157.533,-401.529 160.033,-411.824 165.908,-408.018"/>
</g>
<!-- Advancing -->
<g id="node4" class="node"><title>Advancing</title>
<polygon fill="none" stroke="gray" points="228.5,-292.5 228.5,-328.5 308.5,-328.5 308.5,-292.5 228.5,-292.5"/>
<text text-anchor="start" x="236.5" y="-314.3" font-family="Times New Roman,serif" font-size="14.00" fill="gray">Advancing </text>
<text text-anchor="start" x="239" y="-300.3" font-family="Times New Roman,serif" font-size="14.00" fill="gray"> </text>
<text text-anchor="start" x="243" y="-300.3" font-family="Times New Roman,serif" font-style="italic" font-size="14.00" fill="gray">Complete</text>
</g>
<!-- Grid&#45;&gt;Advancing -->
<g id="edge3" class="edge"><title>Grid&#45;&gt;Advancing</title>
<path fill="none" stroke="black" d="M246.52,-365.313C249.868,-357.115 253.95,-347.123 257.682,-337.985"/>
<polygon fill="black" stroke="black" points="261.003,-339.11 261.545,-328.529 254.523,-336.463 261.003,-339.11"/>
</g>
<!-- BlockDragging -->
<g id="node6" class="node"><title>BlockDragging</title>
<polygon fill="none" stroke="gray" points="65,-292.5 65,-328.5 172,-328.5 172,-292.5 65,-292.5"/>
<text text-anchor="start" x="73" y="-314.3" font-family="Times New Roman,serif" font-size="14.00" fill="gray">Block Dragging </text>
<text text-anchor="start" x="89" y="-300.3" font-family="Times New Roman,serif" font-size="14.00" fill="gray"> </text>
<text text-anchor="start" x="93" y="-300.3" font-family="Times New Roman,serif" font-style="italic" font-size="14.00" fill="gray">Complete</text>
</g>
<!-- Grid&#45;&gt;BlockDragging -->
<g id="edge4" class="edge"><title>Grid&#45;&gt;BlockDragging</title>
<path fill="none" stroke="black" d="M210.517,-365.494C194.323,-355.991 173.949,-344.036 156.491,-333.792"/>
<polygon fill="black" stroke="black" points="158.062,-330.656 147.665,-328.614 154.519,-336.693 158.062,-330.656"/>
</g>
<!-- Touch&#45;&gt;BlockDragging -->
<g id="edge5" class="edge"><title>Touch&#45;&gt;BlockDragging</title>
<path fill="none" stroke="black" d="M139.722,-365.313C136.489,-357.115 132.549,-347.123 128.945,-337.985"/>
<polygon fill="black" stroke="black" points="132.14,-336.548 125.216,-328.529 125.628,-339.116 132.14,-336.548"/>
</g>
<!-- IntentionalAdvance -->
<g id="node9" class="node"><title>IntentionalAdvance</title>
<polygon fill="none" stroke="gray" points="174,-219.5 174,-255.5 305,-255.5 305,-219.5 174,-219.5"/>
<text text-anchor="start" x="182" y="-241.3" font-family="Times New Roman,serif" font-size="14.00" fill="gray">Intentional Advance </text>
<text text-anchor="start" x="210" y="-227.3" font-family="Times New Roman,serif" font-size="14.00" fill="gray"> </text>
<text text-anchor="start" x="214" y="-227.3" font-family="Times New Roman,serif" font-style="italic" font-size="14.00" fill="gray">Complete</text>
</g>
<!-- Touch&#45;&gt;IntentionalAdvance -->
<g id="edge6" class="edge"><title>Touch&#45;&gt;IntentionalAdvance</title>
<path fill="none" stroke="black" d="M157.534,-365.416C173.754,-340.3 204.151,-293.234 223.023,-264.014"/>
<polygon fill="black" stroke="black" points="225.996,-265.861 228.481,-255.562 220.115,-262.063 225.996,-265.861"/>
</g>
<!-- NewRows -->
<g id="node5" class="node"><title>NewRows</title>
<polygon fill="none" stroke="gray" points="323,-219.5 323,-255.5 406,-255.5 406,-219.5 323,-219.5"/>
<text text-anchor="start" x="331" y="-241.3" font-family="Times New Roman,serif" font-size="14.00" fill="gray">New Rows </text>
<text text-anchor="start" x="335" y="-227.3" font-family="Times New Roman,serif" font-size="14.00" fill="gray"> </text>
<text text-anchor="start" x="339" y="-227.3" font-family="Times New Roman,serif" font-style="italic" font-size="14.00" fill="gray">Complete</text>
</g>
<!-- Advancing&#45;&gt;NewRows -->
<g id="edge7" class="edge"><title>Advancing&#45;&gt;NewRows</title>
<path fill="none" stroke="black" d="M291.739,-292.313C304.238,-283.069 319.822,-271.543 333.358,-261.532"/>
<polygon fill="black" stroke="black" points="335.516,-264.289 341.475,-255.529 331.354,-258.661 335.516,-264.289"/>
</g>
<!-- Advancing&#45;&gt;IntentionalAdvance -->
<g id="edge8" class="edge"><title>Advancing&#45;&gt;IntentionalAdvance</title>
<path fill="none" stroke="black" d="M261.48,-292.313C258.132,-284.115 254.05,-274.123 250.318,-264.985"/>
<polygon fill="black" stroke="black" points="253.477,-263.463 246.455,-255.529 246.997,-266.11 253.477,-263.463"/>
</g>
<!-- Lose -->
<g id="node13" class="node"><title>Lose</title>
<polygon fill="none" stroke="black" points="328.5,-146.5 328.5,-182.5 382.5,-182.5 382.5,-146.5 328.5,-146.5"/>
<text text-anchor="middle" x="355.5" y="-160.8" font-family="Times New Roman,serif" font-size="14.00">Lose</text>
</g>
<!-- NewRows&#45;&gt;Lose -->
<g id="edge9" class="edge"><title>NewRows&#45;&gt;Lose</title>
<path fill="none" stroke="black" d="M362.321,-219.313C361.304,-211.289 360.069,-201.547 358.931,-192.569"/>
<polygon fill="black" stroke="black" points="362.388,-192.009 357.659,-182.529 355.444,-192.89 362.388,-192.009"/>
</g>
<!-- Matches -->
<g id="node7" class="node"><title>Matches</title>
<polygon fill="none" stroke="gray" points="81,-219.5 81,-255.5 156,-255.5 156,-219.5 81,-219.5"/>
<text text-anchor="start" x="92.5" y="-241.3" font-family="Times New Roman,serif" font-size="14.00" fill="gray">Matches </text>
<text text-anchor="start" x="89" y="-227.3" font-family="Times New Roman,serif" font-size="14.00" fill="gray"> </text>
<text text-anchor="start" x="93" y="-227.3" font-family="Times New Roman,serif" font-style="italic" font-size="14.00" fill="gray">Complete</text>
</g>
<!-- BlockDragging&#45;&gt;Matches -->
<g id="edge10" class="edge"><title>BlockDragging&#45;&gt;Matches</title>
<path fill="none" stroke="black" d="M118.5,-292.313C118.5,-284.289 118.5,-274.547 118.5,-265.569"/>
<polygon fill="black" stroke="black" points="122,-265.529 118.5,-255.529 115,-265.529 122,-265.529"/>
</g>
<!-- Falling -->
<g id="node8" class="node"><title>Falling</title>
<polygon fill="none" stroke="gray" points="0,-146.5 0,-182.5 75,-182.5 75,-146.5 0,-146.5"/>
<text text-anchor="start" x="17" y="-168.3" font-family="Times New Roman,serif" font-size="14.00" fill="gray">Falling </text>
<text text-anchor="start" x="8" y="-154.3" font-family="Times New Roman,serif" font-size="14.00" fill="gray"> </text>
<text text-anchor="start" x="12" y="-154.3" font-family="Times New Roman,serif" font-style="italic" font-size="14.00" fill="gray">Complete</text>
</g>
<!-- BlockDragging&#45;&gt;Falling -->
<g id="edge11" class="edge"><title>BlockDragging&#45;&gt;Falling</title>
<path fill="none" stroke="black" d="M100.646,-292.459C91.0212,-282.53 79.5104,-269.36 71.5,-256 59.4846,-235.959 50.4824,-210.951 44.7696,-192.305"/>
<polygon fill="black" stroke="black" points="48.116,-191.278 41.936,-182.673 41.4005,-193.254 48.116,-191.278"/>
</g>
<!-- StopClock -->
<g id="node10" class="node"><title>StopClock</title>
<polygon fill="none" stroke="black" points="93,-146.5 93,-182.5 174,-182.5 174,-146.5 93,-146.5"/>
<text text-anchor="start" x="101" y="-160.8" font-family="Times New Roman,serif" font-size="14.00">Stop Clock</text>
</g>
<!-- Matches&#45;&gt;StopClock -->
<g id="edge12" class="edge"><title>Matches&#45;&gt;StopClock</title>
<path fill="none" stroke="black" d="M122.131,-219.313C123.826,-211.289 125.884,-201.547 127.781,-192.569"/>
<polygon fill="black" stroke="black" points="131.26,-193.036 129.902,-182.529 124.411,-191.589 131.26,-193.036"/>
</g>
<!-- ClearAnimation -->
<g id="node11" class="node"><title>ClearAnimation</title>
<polygon fill="none" stroke="gray" points="192.5,-146.5 192.5,-182.5 302.5,-182.5 302.5,-146.5 192.5,-146.5"/>
<text text-anchor="start" x="200.5" y="-168.3" font-family="Times New Roman,serif" font-size="14.00" fill="gray">Clear Animation </text>
<text text-anchor="start" x="218" y="-154.3" font-family="Times New Roman,serif" font-size="14.00" fill="gray"> </text>
<text text-anchor="start" x="222" y="-154.3" font-family="Times New Roman,serif" font-style="italic" font-size="14.00" fill="gray">Complete</text>
</g>
<!-- Matches&#45;&gt;ClearAnimation -->
<g id="edge13" class="edge"><title>Matches&#45;&gt;ClearAnimation</title>
<path fill="none" stroke="black" d="M149.399,-219.494C166.822,-209.904 188.784,-197.817 207.508,-187.511"/>
<polygon fill="black" stroke="black" points="209.333,-190.502 216.406,-182.614 205.958,-184.369 209.333,-190.502"/>
</g>
<!-- Combo -->
<g id="node12" class="node"><title>Combo</title>
<polygon fill="none" stroke="black" points="145,-73.5 145,-109.5 204,-109.5 204,-73.5 145,-73.5"/>
<text text-anchor="middle" x="174.5" y="-87.8" font-family="Times New Roman,serif" font-size="14.00">Combo</text>
</g>
<!-- Falling&#45;&gt;Combo -->
<g id="edge14" class="edge"><title>Falling&#45;&gt;Combo</title>
<path fill="none" stroke="black" d="M70.3149,-146.494C89.948,-136.319 115.007,-123.332 135.629,-112.645"/>
<polygon fill="black" stroke="black" points="137.488,-115.624 144.756,-107.915 134.267,-109.409 137.488,-115.624"/>
</g>
<!-- StopClock&#45;&gt;Combo -->
<g id="edge15" class="edge"><title>StopClock&#45;&gt;Combo</title>
<path fill="none" stroke="black" d="M143.425,-146.313C148.26,-137.941 154.175,-127.697 159.542,-118.403"/>
<polygon fill="black" stroke="black" points="162.697,-119.939 164.666,-109.529 156.635,-116.438 162.697,-119.939"/>
</g>
<!-- ClearAnimation&#45;&gt;Combo -->
<g id="edge16" class="edge"><title>ClearAnimation&#45;&gt;Combo</title>
<path fill="none" stroke="black" d="M229.829,-146.313C220.683,-137.417 209.365,-126.409 199.353,-116.672"/>
<polygon fill="black" stroke="black" points="201.617,-113.992 192.009,-109.529 196.737,-119.01 201.617,-113.992"/>
</g>
<!-- Garbage -->
<g id="node20" class="node"><title>Garbage</title>
<polygon fill="none" stroke="black" points="316.5,-0.5 316.5,-36.5 380.5,-36.5 380.5,-0.5 316.5,-0.5"/>
<text text-anchor="middle" x="348.5" y="-14.8" font-family="Times New Roman,serif" font-size="14.00">Garbage</text>
</g>
<!-- Combo&#45;&gt;Garbage -->
<g id="edge17" class="edge"><title>Combo&#45;&gt;Garbage</title>
<path fill="none" stroke="black" d="M204.017,-78.4558C232.311,-66.9106 275.286,-49.3746 307.017,-36.4269"/>
<polygon fill="black" stroke="black" points="308.538,-39.5864 316.475,-32.5677 305.894,-33.1052 308.538,-39.5864"/>
</g>
<!-- DangerAnimation -->
<g id="node14" class="node"><title>DangerAnimation</title>
<polygon fill="none" stroke="black" points="263,-73.5 263,-109.5 380,-109.5 380,-73.5 263,-73.5"/>
<text text-anchor="start" x="271" y="-87.8" font-family="Times New Roman,serif" font-size="14.00">Danger Animation</text>
</g>
<!-- Lose&#45;&gt;DangerAnimation -->
<g id="edge18" class="edge"><title>Lose&#45;&gt;DangerAnimation</title>
<path fill="none" stroke="black" d="M347.27,-146.313C343.302,-138.028 338.457,-127.91 334.043,-118.693"/>
<polygon fill="black" stroke="black" points="337.13,-117.036 329.655,-109.529 330.817,-120.06 337.13,-117.036"/>
</g>
<!-- Replay -->
<g id="node22" class="node"><title>Replay</title>
<polygon fill="none" stroke="black" points="398.5,-73.5 398.5,-109.5 454.5,-109.5 454.5,-73.5 398.5,-73.5"/>
<text text-anchor="middle" x="426.5" y="-87.8" font-family="Times New Roman,serif" font-size="14.00">Replay</text>
</g>
<!-- Lose&#45;&gt;Replay -->
<g id="edge19" class="edge"><title>Lose&#45;&gt;Replay</title>
<path fill="none" stroke="black" d="M372.687,-146.313C381.583,-137.417 392.591,-126.409 402.328,-116.672"/>
<polygon fill="black" stroke="black" points="404.875,-119.075 409.471,-109.529 399.925,-114.125 404.875,-119.075"/>
</g>
<!-- Server -->
<g id="node15" class="node"><title>Server</title>
<polygon fill="none" stroke="black" points="488.5,-438.5 488.5,-474.5 542.5,-474.5 542.5,-438.5 488.5,-438.5"/>
<text text-anchor="middle" x="515.5" y="-452.8" font-family="Times New Roman,serif" font-size="14.00">Server</text>
</g>
<!-- Host -->
<g id="node16" class="node"><title>Host</title>
<polygon fill="none" stroke="black" points="442.5,-365.5 442.5,-401.5 496.5,-401.5 496.5,-365.5 442.5,-365.5"/>
<text text-anchor="middle" x="469.5" y="-379.8" font-family="Times New Roman,serif" font-size="14.00">Host</text>
</g>
<!-- Server&#45;&gt;Host -->
<g id="edge20" class="edge"><title>Server&#45;&gt;Host</title>
<path fill="none" stroke="black" d="M504.365,-438.313C498.884,-429.853 492.165,-419.484 486.094,-410.112"/>
<polygon fill="black" stroke="black" points="488.908,-408.018 480.533,-401.529 483.033,-411.824 488.908,-408.018"/>
</g>
<!-- Disconnected -->
<g id="node18" class="node"><title>Disconnected</title>
<polygon fill="none" stroke="black" points="515,-365.5 515,-401.5 608,-401.5 608,-365.5 515,-365.5"/>
<text text-anchor="middle" x="561.5" y="-379.8" font-family="Times New Roman,serif" font-size="14.00">Disconnected</text>
</g>
<!-- Server&#45;&gt;Disconnected -->
<g id="edge21" class="edge"><title>Server&#45;&gt;Disconnected</title>
<path fill="none" stroke="black" d="M526.635,-438.313C532.116,-429.853 538.835,-419.484 544.906,-410.112"/>
<polygon fill="black" stroke="black" points="547.967,-411.824 550.467,-401.529 542.092,-408.018 547.967,-411.824"/>
</g>
<!-- Join -->
<g id="node17" class="node"><title>Join</title>
<polygon fill="none" stroke="black" points="470.5,-292.5 470.5,-328.5 524.5,-328.5 524.5,-292.5 470.5,-292.5"/>
<text text-anchor="middle" x="497.5" y="-306.8" font-family="Times New Roman,serif" font-size="14.00">Join</text>
</g>
<!-- Host&#45;&gt;Join -->
<g id="edge22" class="edge"><title>Host&#45;&gt;Join</title>
<path fill="none" stroke="black" d="M476.278,-365.313C479.511,-357.115 483.451,-347.123 487.055,-337.985"/>
<polygon fill="black" stroke="black" points="490.372,-339.116 490.784,-328.529 483.86,-336.548 490.372,-339.116"/>
</g>
<!-- ShareState -->
<g id="node19" class="node"><title>ShareState</title>
<polygon fill="none" stroke="black" points="430.5,-219.5 430.5,-255.5 510.5,-255.5 510.5,-219.5 430.5,-219.5"/>
<text text-anchor="start" x="438.5" y="-233.8" font-family="Times New Roman,serif" font-size="14.00">Share State</text>
</g>
<!-- Host&#45;&gt;ShareState -->
<g id="edge23" class="edge"><title>Host&#45;&gt;ShareState</title>
<path fill="none" stroke="black" d="M466.252,-365.225C464.454,-354.781 462.405,-341.175 461.5,-329 460.281,-312.601 460.131,-308.387 461.5,-292 462.217,-283.421 463.569,-274.147 465.012,-265.769"/>
<polygon fill="black" stroke="black" points="468.487,-266.223 466.846,-255.755 461.601,-264.961 468.487,-266.223"/>
</g>
<!-- Join&#45;&gt;ShareState -->
<g id="edge24" class="edge"><title>Join&#45;&gt;ShareState</title>
<path fill="none" stroke="black" d="M490.964,-292.313C487.847,-284.115 484.047,-274.123 480.572,-264.985"/>
<polygon fill="black" stroke="black" points="483.802,-263.632 476.976,-255.529 477.259,-266.12 483.802,-263.632"/>
</g>
<!-- ShareState&#45;&gt;Garbage -->
<g id="edge25" class="edge"><title>ShareState&#45;&gt;Garbage</title>
<path fill="none" stroke="black" d="M475.089,-219.457C482.591,-187.647 493.807,-118.356 463.5,-73 447.029,-48.3512 416.077,-34.8315 390.431,-27.5524"/>
<polygon fill="black" stroke="black" points="391.104,-24.111 380.544,-24.9722 389.336,-30.8841 391.104,-24.111"/>
</g>
<!-- Win -->
<g id="node21" class="node"><title>Win</title>
<polygon fill="none" stroke="black" points="400.5,-146.5 400.5,-182.5 454.5,-182.5 454.5,-146.5 400.5,-146.5"/>
<text text-anchor="middle" x="427.5" y="-160.8" font-family="Times New Roman,serif" font-size="14.00">Win</text>
</g>
<!-- ShareState&#45;&gt;Win -->
<g id="edge26" class="edge"><title>ShareState&#45;&gt;Win</title>
<path fill="none" stroke="black" d="M460.091,-219.313C454.968,-210.853 448.687,-200.484 443.012,-191.112"/>
<polygon fill="black" stroke="black" points="445.987,-189.269 437.813,-182.529 440,-192.896 445.987,-189.269"/>
</g>
<!-- Win&#45;&gt;Replay -->
<g id="edge27" class="edge"><title>Win&#45;&gt;Replay</title>
<path fill="none" stroke="black" d="M427.258,-146.313C427.145,-138.289 427.008,-128.547 426.881,-119.569"/>
<polygon fill="black" stroke="black" points="430.38,-119.479 426.74,-109.529 423.381,-119.577 430.38,-119.479"/>
</g>
</g>
</svg>
