<?xml version="1.0" encoding="UTF-8" standalone="no"?>
<!DOCTYPE svg PUBLIC "-//W3C//DTD SVG 1.1//EN"
 "http://www.w3.org/Graphics/SVG/1.1/DTD/svg11.dtd">
<!-- Generated by graphviz version 2.38.0 (20140413.2041)
 -->
<!-- Title: %3 Pages: 1 -->
<svg width="274pt" height="337pt"
 viewBox="0.00 0.00 274.00 337.00" xmlns="http://www.w3.org/2000/svg" xmlns:xlink="http://www.w3.org/1999/xlink">
<g id="graph0" class="graph" transform="scale(1 1) rotate(0) translate(4 333)">
<title>%3</title>
<polygon fill="white" stroke="none" points="-4,4 -4,-333 270,-333 270,4 -4,4"/>
<!-- GetPixel -->
<g id="node1" class="node"><title>GetPixel</title>
<polygon fill="none" stroke="gray" points="6,-292.5 6,-328.5 81,-328.5 81,-292.5 6,-292.5"/>
<text text-anchor="start" x="16" y="-314.3" font-family="Times New Roman,serif" font-size="14.00" fill="gray">Get Pixel </text>
<text text-anchor="start" x="14" y="-300.3" font-family="Times New Roman,serif" font-size="14.00" fill="gray"> </text>
<text text-anchor="start" x="18" y="-300.3" font-family="Times New Roman,serif" font-style="italic" font-size="14.00" fill="gray">Complete</text>
</g>
<!-- Collisions -->
<g id="node2" class="node"><title>Collisions</title>
<polygon fill="none" stroke="black" points="0,-219.5 0,-255.5 87,-255.5 87,-219.5 0,-219.5"/>
<text text-anchor="start" x="13.5" y="-241.3" font-family="Times New Roman,serif" font-size="14.00">Collisions </text>
<text text-anchor="start" x="8" y="-227.3" font-family="Times New Roman,serif" font-size="14.00"> </text>
<text text-anchor="start" x="12" y="-227.3" font-family="Times New Roman,serif" font-style="italic" font-size="14.00">In Progress</text>
</g>
<!-- GetPixel&#45;&gt;Collisions -->
<g id="edge1" class="edge"><title>GetPixel&#45;&gt;Collisions</title>
<path fill="none" stroke="black" d="M43.5,-292.313C43.5,-284.289 43.5,-274.547 43.5,-265.569"/>
<polygon fill="black" stroke="black" points="47.0001,-265.529 43.5,-255.529 40.0001,-265.529 47.0001,-265.529"/>
</g>
<!-- Character -->
<g id="node5" class="node"><title>Character</title>
<polygon fill="none" stroke="black" points="6,-146.5 6,-182.5 77,-182.5 77,-146.5 6,-146.5"/>
<text text-anchor="middle" x="41.5" y="-160.8" font-family="Times New Roman,serif" font-size="14.00">Character</text>
</g>
<!-- Collisions&#45;&gt;Character -->
<g id="edge2" class="edge"><title>Collisions&#45;&gt;Character</title>
<path fill="none" stroke="black" d="M43.0159,-219.313C42.7898,-211.289 42.5154,-201.547 42.2625,-192.569"/>
<polygon fill="black" stroke="black" points="45.76,-192.426 41.9797,-182.529 38.7627,-192.623 45.76,-192.426"/>
</g>
<!-- Bombs -->
<g id="node6" class="node"><title>Bombs</title>
<polygon fill="none" stroke="black" points="95,-146.5 95,-182.5 152,-182.5 152,-146.5 95,-146.5"/>
<text text-anchor="middle" x="123.5" y="-160.8" font-family="Times New Roman,serif" font-size="14.00">Bombs</text>
</g>
<!-- Collisions&#45;&gt;Bombs -->
<g id="edge3" class="edge"><title>Collisions&#45;&gt;Bombs</title>
<path fill="none" stroke="black" d="M62.8658,-219.313C72.9871,-210.33 85.5357,-199.193 96.5866,-189.386"/>
<polygon fill="black" stroke="black" points="99.1566,-191.784 104.313,-182.529 94.51,-186.549 99.1566,-191.784"/>
</g>
<!-- MarchingSquaresGrid -->
<g id="node3" class="node"><title>MarchingSquaresGrid</title>
<polygon fill="none" stroke="gray" points="103,-292.5 103,-328.5 254,-328.5 254,-292.5 103,-292.5"/>
<text text-anchor="start" x="111" y="-314.3" font-family="Times New Roman,serif" font-size="14.00" fill="gray">Marching Squares Grid </text>
<text text-anchor="start" x="149" y="-300.3" font-family="Times New Roman,serif" font-size="14.00" fill="gray"> </text>
<text text-anchor="start" x="153" y="-300.3" font-family="Times New Roman,serif" font-style="italic" font-size="14.00" fill="gray">Complete</text>
</g>
<!-- Panels -->
<g id="node4" class="node"><title>Panels</title>
<polygon fill="none" stroke="black" points="151.5,-219.5 151.5,-255.5 205.5,-255.5 205.5,-219.5 151.5,-219.5"/>
<text text-anchor="middle" x="178.5" y="-233.8" font-family="Times New Roman,serif" font-size="14.00">Panels</text>
</g>
<!-- MarchingSquaresGrid&#45;&gt;Panels -->
<g id="edge4" class="edge"><title>MarchingSquaresGrid&#45;&gt;Panels</title>
<path fill="none" stroke="black" d="M178.5,-292.313C178.5,-284.289 178.5,-274.547 178.5,-265.569"/>
<polygon fill="black" stroke="black" points="182,-265.529 178.5,-255.529 175,-265.529 182,-265.529"/>
</g>
<!-- Panels&#45;&gt;Bombs -->
<g id="edge5" class="edge"><title>Panels&#45;&gt;Bombs</title>
<path fill="none" stroke="black" d="M165.186,-219.313C158.498,-210.679 150.268,-200.055 142.893,-190.534"/>
<polygon fill="black" stroke="black" points="145.582,-188.291 136.691,-182.529 140.048,-192.578 145.582,-188.291"/>
</g>
<!-- Score -->
<g id="node7" class="node"><title>Score</title>
<polygon fill="none" stroke="black" points="96.5,-73.5 96.5,-109.5 150.5,-109.5 150.5,-73.5 96.5,-73.5"/>
<text text-anchor="middle" x="123.5" y="-87.8" font-family="Times New Roman,serif" font-size="14.00">Score</text>
</g>
<!-- Panels&#45;&gt;Score -->
<g id="edge6" class="edge"><title>Panels&#45;&gt;Score</title>
<path fill="none" stroke="black" d="M177.167,-219.209C175.253,-200.529 170.748,-170.191 160.5,-146 156.337,-136.173 150.206,-126.311 144.127,-117.779"/>
<polygon fill="black" stroke="black" points="146.92,-115.67 138.14,-109.741 141.306,-119.851 146.92,-115.67"/>
</g>
<!-- Character&#45;&gt;Score -->
<g id="edge7" class="edge"><title>Character&#45;&gt;Score</title>
<path fill="none" stroke="black" d="M61.3499,-146.313C71.825,-137.243 84.8366,-125.977 96.2433,-116.1"/>
<polygon fill="black" stroke="black" points="98.564,-118.721 103.833,-109.529 93.9819,-113.429 98.564,-118.721"/>
</g>
<!-- Bombs&#45;&gt;Score -->
<g id="edge8" class="edge"><title>Bombs&#45;&gt;Score</title>
<path fill="none" stroke="black" d="M123.5,-146.313C123.5,-138.289 123.5,-128.547 123.5,-119.569"/>
<polygon fill="black" stroke="black" points="127,-119.529 123.5,-109.529 120,-119.529 127,-119.529"/>
</g>
<!-- Publish -->
<g id="node9" class="node"><title>Publish</title>
<polygon fill="none" stroke="black" points="141.5,-0.5 141.5,-36.5 199.5,-36.5 199.5,-0.5 141.5,-0.5"/>
<text text-anchor="middle" x="170.5" y="-14.8" font-family="Times New Roman,serif" font-size="14.00">Publish</text>
</g>
<!-- Score&#45;&gt;Publish -->
<g id="edge9" class="edge"><title>Score&#45;&gt;Publish</title>
<path fill="none" stroke="black" d="M134.877,-73.3129C140.477,-64.8534 147.342,-54.4835 153.545,-45.1124"/>
<polygon fill="black" stroke="black" points="156.626,-46.7994 159.227,-36.5288 150.789,-42.9354 156.626,-46.7994"/>
</g>
<!-- SoundEffects -->
<g id="node8" class="node"><title>SoundEffects</title>
<polygon fill="none" stroke="black" points="169,-73.5 169,-109.5 266,-109.5 266,-73.5 169,-73.5"/>
<text text-anchor="start" x="177" y="-87.8" font-family="Times New Roman,serif" font-size="14.00">Sound Effects</text>
</g>
<!-- SoundEffects&#45;&gt;Publish -->
<g id="edge10" class="edge"><title>SoundEffects&#45;&gt;Publish</title>
<path fill="none" stroke="black" d="M206.123,-73.3129C200.523,-64.8534 193.658,-54.4835 187.455,-45.1124"/>
<polygon fill="black" stroke="black" points="190.211,-42.9354 181.773,-36.5288 184.374,-46.7994 190.211,-42.9354"/>
</g>
</g>
</svg>
