<?xml version="1.0" encoding="UTF-8" standalone="no"?>
<!DOCTYPE svg PUBLIC "-//W3C//DTD SVG 1.1//EN"
 "http://www.w3.org/Graphics/SVG/1.1/DTD/svg11.dtd">
<!-- Generated by graphviz version 2.38.0 (20140413.2041)
 -->
<!-- Title: %3 Pages: 1 -->
<svg width="693pt" height="483pt"
 viewBox="0.00 0.00 692.50 483.00" xmlns="http://www.w3.org/2000/svg" xmlns:xlink="http://www.w3.org/1999/xlink">
<g id="graph0" class="graph" transform="scale(1 1) rotate(0) translate(4 479)">
<title>%3</title>
<polygon fill="white" stroke="none" points="-4,4 -4,-479 688.5,-479 688.5,4 -4,4"/>
<!-- Renderer -->
<g id="node1" class="node"><title>Renderer</title>
<polygon fill="none" stroke="gray" points="377.5,-438.5 377.5,-474.5 452.5,-474.5 452.5,-438.5 377.5,-438.5"/>
<text text-anchor="start" x="387.5" y="-460.3" font-family="Times New Roman,serif" font-size="14.00" fill="gray">Renderer </text>
<text text-anchor="start" x="385.5" y="-446.3" font-family="Times New Roman,serif" font-size="14.00" fill="gray"> </text>
<text text-anchor="start" x="389.5" y="-446.3" font-family="Times New Roman,serif" font-style="italic" font-size="14.00" fill="gray">Complete</text>
</g>
<!-- Grid -->
<g id="node2" class="node"><title>Grid</title>
<polygon fill="none" stroke="gray" points="284.5,-365.5 284.5,-401.5 359.5,-401.5 359.5,-365.5 284.5,-365.5"/>
<text text-anchor="start" x="307" y="-387.3" font-family="Times New Roman,serif" font-size="14.00" fill="gray">Grid </text>
<text text-anchor="start" x="292.5" y="-373.3" font-family="Times New Roman,serif" font-size="14.00" fill="gray"> </text>
<text text-anchor="start" x="296.5" y="-373.3" font-family="Times New Roman,serif" font-style="italic" font-size="14.00" fill="gray">Complete</text>
</g>
<!-- Renderer&#45;&gt;Grid -->
<g id="edge1" class="edge"><title>Renderer&#45;&gt;Grid</title>
<path fill="none" stroke="black" d="M392.487,-438.313C380.493,-429.156 365.566,-417.76 352.54,-407.816"/>
<polygon fill="black" stroke="black" points="354.378,-404.815 344.305,-401.529 350.13,-410.379 354.378,-404.815"/>
</g>
<!-- Touch -->
<g id="node3" class="node"><title>Touch</title>
<polygon fill="none" stroke="gray" points="377.5,-365.5 377.5,-401.5 452.5,-401.5 452.5,-365.5 377.5,-365.5"/>
<text text-anchor="start" x="394.5" y="-387.3" font-family="Times New Roman,serif" font-size="14.00" fill="gray">Touch </text>
<text text-anchor="start" x="385.5" y="-373.3" font-family="Times New Roman,serif" font-size="14.00" fill="gray"> </text>
<text text-anchor="start" x="389.5" y="-373.3" font-family="Times New Roman,serif" font-style="italic" font-size="14.00" fill="gray">Complete</text>
</g>
<!-- Renderer&#45;&gt;Touch -->
<g id="edge2" class="edge"><title>Renderer&#45;&gt;Touch</title>
<path fill="none" stroke="black" d="M415,-438.313C415,-430.289 415,-420.547 415,-411.569"/>
<polygon fill="black" stroke="black" points="418.5,-411.529 415,-401.529 411.5,-411.529 418.5,-411.529"/>
</g>
<!-- GarbageLineRendering -->
<g id="node21" class="node"><title>GarbageLineRendering</title>
<polygon fill="none" stroke="gray" points="474,-365.5 474,-401.5 630,-401.5 630,-365.5 474,-365.5"/>
<text text-anchor="start" x="482" y="-387.3" font-family="Times New Roman,serif" font-size="14.00" fill="gray">Garbage Line Rendering </text>
<text text-anchor="start" x="522.5" y="-373.3" font-family="Times New Roman,serif" font-size="14.00" fill="gray"> </text>
<text text-anchor="start" x="526.5" y="-373.3" font-family="Times New Roman,serif" font-style="italic" font-size="14.00" fill="gray">Complete</text>
</g>
<!-- Renderer&#45;&gt;GarbageLineRendering -->
<g id="edge3" class="edge"><title>Renderer&#45;&gt;GarbageLineRendering</title>
<path fill="none" stroke="black" d="M447.815,-438.494C466.487,-428.817 490.067,-416.597 510.07,-406.23"/>
<polygon fill="black" stroke="black" points="511.71,-409.322 518.978,-401.614 508.489,-403.107 511.71,-409.322"/>
</g>
<!-- Advancing -->
<g id="node4" class="node"><title>Advancing</title>
<polygon fill="none" stroke="gray" points="225,-292.5 225,-328.5 305,-328.5 305,-292.5 225,-292.5"/>
<text text-anchor="start" x="233" y="-314.3" font-family="Times New Roman,serif" font-size="14.00" fill="gray">Advancing </text>
<text text-anchor="start" x="235.5" y="-300.3" font-family="Times New Roman,serif" font-size="14.00" fill="gray"> </text>
<text text-anchor="start" x="239.5" y="-300.3" font-family="Times New Roman,serif" font-style="italic" font-size="14.00" fill="gray">Complete</text>
</g>
<!-- Grid&#45;&gt;Advancing -->
<g id="edge4" class="edge"><title>Grid&#45;&gt;Advancing</title>
<path fill="none" stroke="black" d="M308.202,-365.313C301.27,-356.679 292.741,-346.055 285.098,-336.534"/>
<polygon fill="black" stroke="black" points="287.661,-334.136 278.671,-328.529 282.202,-338.518 287.661,-334.136"/>
</g>
<!-- BlockDragging -->
<g id="node6" class="node"><title>BlockDragging</title>
<polygon fill="none" stroke="gray" points="361.5,-292.5 361.5,-328.5 468.5,-328.5 468.5,-292.5 361.5,-292.5"/>
<text text-anchor="start" x="369.5" y="-314.3" font-family="Times New Roman,serif" font-size="14.00" fill="gray">Block Dragging </text>
<text text-anchor="start" x="385.5" y="-300.3" font-family="Times New Roman,serif" font-size="14.00" fill="gray"> </text>
<text text-anchor="start" x="389.5" y="-300.3" font-family="Times New Roman,serif" font-style="italic" font-size="14.00" fill="gray">Complete</text>
</g>
<!-- Grid&#45;&gt;BlockDragging -->
<g id="edge5" class="edge"><title>Grid&#45;&gt;BlockDragging</title>
<path fill="none" stroke="black" d="M344.513,-365.313C356.507,-356.156 371.434,-344.76 384.46,-334.816"/>
<polygon fill="black" stroke="black" points="386.87,-337.379 392.695,-328.529 382.622,-331.815 386.87,-337.379"/>
</g>
<!-- Touch&#45;&gt;BlockDragging -->
<g id="edge6" class="edge"><title>Touch&#45;&gt;BlockDragging</title>
<path fill="none" stroke="black" d="M415,-365.313C415,-357.289 415,-347.547 415,-338.569"/>
<polygon fill="black" stroke="black" points="418.5,-338.529 415,-328.529 411.5,-338.529 418.5,-338.529"/>
</g>
<!-- IntentionalAdvance -->
<g id="node9" class="node"><title>IntentionalAdvance</title>
<polygon fill="none" stroke="gray" points="226.5,-219.5 226.5,-255.5 357.5,-255.5 357.5,-219.5 226.5,-219.5"/>
<text text-anchor="start" x="234.5" y="-241.3" font-family="Times New Roman,serif" font-size="14.00" fill="gray">Intentional Advance </text>
<text text-anchor="start" x="262.5" y="-227.3" font-family="Times New Roman,serif" font-size="14.00" fill="gray"> </text>
<text text-anchor="start" x="266.5" y="-227.3" font-family="Times New Roman,serif" font-style="italic" font-size="14.00" fill="gray">Complete</text>
</g>
<!-- Touch&#45;&gt;IntentionalAdvance -->
<g id="edge7" class="edge"><title>Touch&#45;&gt;IntentionalAdvance</title>
<path fill="none" stroke="black" d="M391.748,-365.346C379.209,-355.482 363.909,-342.412 352,-329 334.144,-308.891 317.557,-283.09 306.369,-264.186"/>
<polygon fill="black" stroke="black" points="309.381,-262.402 301.329,-255.515 303.329,-265.92 309.381,-262.402"/>
</g>
<!-- NewRows -->
<g id="node5" class="node"><title>NewRows</title>
<polygon fill="none" stroke="gray" points="125.5,-219.5 125.5,-255.5 208.5,-255.5 208.5,-219.5 125.5,-219.5"/>
<text text-anchor="start" x="133.5" y="-241.3" font-family="Times New Roman,serif" font-size="14.00" fill="gray">New Rows </text>
<text text-anchor="start" x="137.5" y="-227.3" font-family="Times New Roman,serif" font-size="14.00" fill="gray"> </text>
<text text-anchor="start" x="141.5" y="-227.3" font-family="Times New Roman,serif" font-style="italic" font-size="14.00" fill="gray">Complete</text>
</g>
<!-- Advancing&#45;&gt;NewRows -->
<g id="edge8" class="edge"><title>Advancing&#45;&gt;NewRows</title>
<path fill="none" stroke="black" d="M241.277,-292.313C228.517,-283.069 212.608,-271.543 198.791,-261.532"/>
<polygon fill="black" stroke="black" points="200.656,-258.562 190.505,-255.529 196.549,-264.23 200.656,-258.562"/>
</g>
<!-- Advancing&#45;&gt;IntentionalAdvance -->
<g id="edge9" class="edge"><title>Advancing&#45;&gt;IntentionalAdvance</title>
<path fill="none" stroke="black" d="M271.536,-292.313C274.653,-284.115 278.453,-274.123 281.928,-264.985"/>
<polygon fill="black" stroke="black" points="285.241,-266.12 285.524,-255.529 278.698,-263.632 285.241,-266.12"/>
</g>
<!-- Lose -->
<g id="node13" class="node"><title>Lose</title>
<polygon fill="none" stroke="black" points="147,-146.5 147,-182.5 201,-182.5 201,-146.5 147,-146.5"/>
<text text-anchor="middle" x="174" y="-160.8" font-family="Times New Roman,serif" font-size="14.00">Lose</text>
</g>
<!-- NewRows&#45;&gt;Lose -->
<g id="edge10" class="edge"><title>NewRows&#45;&gt;Lose</title>
<path fill="none" stroke="black" d="M168.695,-219.313C169.486,-211.289 170.446,-201.547 171.331,-192.569"/>
<polygon fill="black" stroke="black" points="174.823,-192.824 172.321,-182.529 167.857,-192.137 174.823,-192.824"/>
</g>
<!-- Matches -->
<g id="node7" class="node"><title>Matches</title>
<polygon fill="none" stroke="gray" points="375.5,-219.5 375.5,-255.5 450.5,-255.5 450.5,-219.5 375.5,-219.5"/>
<text text-anchor="start" x="387" y="-241.3" font-family="Times New Roman,serif" font-size="14.00" fill="gray">Matches </text>
<text text-anchor="start" x="383.5" y="-227.3" font-family="Times New Roman,serif" font-size="14.00" fill="gray"> </text>
<text text-anchor="start" x="387.5" y="-227.3" font-family="Times New Roman,serif" font-style="italic" font-size="14.00" fill="gray">Complete</text>
</g>
<!-- BlockDragging&#45;&gt;Matches -->
<g id="edge11" class="edge"><title>BlockDragging&#45;&gt;Matches</title>
<path fill="none" stroke="black" d="M414.516,-292.313C414.29,-284.289 414.015,-274.547 413.763,-265.569"/>
<polygon fill="black" stroke="black" points="417.26,-265.426 413.48,-255.529 410.263,-265.623 417.26,-265.426"/>
</g>
<!-- Falling -->
<g id="node8" class="node"><title>Falling</title>
<polygon fill="none" stroke="gray" points="473.5,-146.5 473.5,-182.5 548.5,-182.5 548.5,-146.5 473.5,-146.5"/>
<text text-anchor="start" x="490.5" y="-168.3" font-family="Times New Roman,serif" font-size="14.00" fill="gray">Falling </text>
<text text-anchor="start" x="481.5" y="-154.3" font-family="Times New Roman,serif" font-size="14.00" fill="gray"> </text>
<text text-anchor="start" x="485.5" y="-154.3" font-family="Times New Roman,serif" font-style="italic" font-size="14.00" fill="gray">Complete</text>
</g>
<!-- BlockDragging&#45;&gt;Falling -->
<g id="edge12" class="edge"><title>BlockDragging&#45;&gt;Falling</title>
<path fill="none" stroke="black" d="M430.435,-292.246C439.246,-282.037 450.246,-268.662 459,-256 473.391,-235.184 487.556,-210.146 497.459,-191.688"/>
<polygon fill="black" stroke="black" points="500.636,-193.167 502.227,-182.692 494.451,-189.888 500.636,-193.167"/>
</g>
<!-- StopClock -->
<g id="node10" class="node"><title>StopClock</title>
<polygon fill="none" stroke="gray" points="370.5,-146.5 370.5,-182.5 455.5,-182.5 455.5,-146.5 370.5,-146.5"/>
<text text-anchor="start" x="378.5" y="-168.3" font-family="Times New Roman,serif" font-size="14.00" fill="gray">Stop Clock </text>
<text text-anchor="start" x="383.5" y="-154.3" font-family="Times New Roman,serif" font-size="14.00" fill="gray"> </text>
<text text-anchor="start" x="387.5" y="-154.3" font-family="Times New Roman,serif" font-style="italic" font-size="14.00" fill="gray">Complete</text>
</g>
<!-- Matches&#45;&gt;StopClock -->
<g id="edge13" class="edge"><title>Matches&#45;&gt;StopClock</title>
<path fill="none" stroke="black" d="M413,-219.313C413,-211.289 413,-201.547 413,-192.569"/>
<polygon fill="black" stroke="black" points="416.5,-192.529 413,-182.529 409.5,-192.529 416.5,-192.529"/>
</g>
<!-- ClearAnimation -->
<g id="node11" class="node"><title>ClearAnimation</title>
<polygon fill="none" stroke="gray" points="242,-146.5 242,-182.5 352,-182.5 352,-146.5 242,-146.5"/>
<text text-anchor="start" x="250" y="-168.3" font-family="Times New Roman,serif" font-size="14.00" fill="gray">Clear Animation </text>
<text text-anchor="start" x="267.5" y="-154.3" font-family="Times New Roman,serif" font-size="14.00" fill="gray"> </text>
<text text-anchor="start" x="271.5" y="-154.3" font-family="Times New Roman,serif" font-style="italic" font-size="14.00" fill="gray">Complete</text>
</g>
<!-- Matches&#45;&gt;ClearAnimation -->
<g id="edge14" class="edge"><title>Matches&#45;&gt;ClearAnimation</title>
<path fill="none" stroke="black" d="M385.215,-219.494C369.833,-210.079 350.516,-198.255 333.883,-188.075"/>
<polygon fill="black" stroke="black" points="335.317,-184.849 324.96,-182.614 331.662,-190.819 335.317,-184.849"/>
</g>
<!-- Combo -->
<g id="node12" class="node"><title>Combo</title>
<polygon fill="none" stroke="gray" points="375.5,-73.5 375.5,-109.5 450.5,-109.5 450.5,-73.5 375.5,-73.5"/>
<text text-anchor="start" x="389.5" y="-95.3" font-family="Times New Roman,serif" font-size="14.00" fill="gray">Combo </text>
<text text-anchor="start" x="383.5" y="-81.3" font-family="Times New Roman,serif" font-size="14.00" fill="gray"> </text>
<text text-anchor="start" x="387.5" y="-81.3" font-family="Times New Roman,serif" font-style="italic" font-size="14.00" fill="gray">Complete</text>
</g>
<!-- Falling&#45;&gt;Combo -->
<g id="edge15" class="edge"><title>Falling&#45;&gt;Combo</title>
<path fill="none" stroke="black" d="M487.277,-146.313C474.517,-137.069 458.608,-125.543 444.791,-115.532"/>
<polygon fill="black" stroke="black" points="446.656,-112.562 436.505,-109.529 442.549,-118.23 446.656,-112.562"/>
</g>
<!-- StopClock&#45;&gt;Combo -->
<g id="edge16" class="edge"><title>StopClock&#45;&gt;Combo</title>
<path fill="none" stroke="black" d="M413,-146.313C413,-138.289 413,-128.547 413,-119.569"/>
<polygon fill="black" stroke="black" points="416.5,-119.529 413,-109.529 409.5,-119.529 416.5,-119.529"/>
</g>
<!-- ClearAnimation&#45;&gt;Combo -->
<g id="edge17" class="edge"><title>ClearAnimation&#45;&gt;Combo</title>
<path fill="none" stroke="black" d="M324.785,-146.494C340.167,-137.079 359.484,-125.255 376.117,-115.075"/>
<polygon fill="black" stroke="black" points="378.338,-117.819 385.04,-109.614 374.683,-111.849 378.338,-117.819"/>
</g>
<!-- Multiplayer -->
<g id="node26" class="node"><title>Multiplayer</title>
<polygon fill="none" stroke="black" points="373.5,-0.5 373.5,-36.5 452.5,-36.5 452.5,-0.5 373.5,-0.5"/>
<text text-anchor="middle" x="413" y="-14.8" font-family="Times New Roman,serif" font-size="14.00">Multiplayer</text>
</g>
<!-- Combo&#45;&gt;Multiplayer -->
<g id="edge18" class="edge"><title>Combo&#45;&gt;Multiplayer</title>
<path fill="none" stroke="black" d="M413,-73.3129C413,-65.2895 413,-55.5475 413,-46.5691"/>
<polygon fill="black" stroke="black" points="416.5,-46.5288 413,-36.5288 409.5,-46.5289 416.5,-46.5288"/>
</g>
<!-- DangerAnimation -->
<g id="node14" class="node"><title>DangerAnimation</title>
<polygon fill="none" stroke="black" points="149.5,-73.5 149.5,-109.5 266.5,-109.5 266.5,-73.5 149.5,-73.5"/>
<text text-anchor="start" x="157.5" y="-87.8" font-family="Times New Roman,serif" font-size="14.00">Danger Animation</text>
</g>
<!-- Lose&#45;&gt;DangerAnimation -->
<g id="edge19" class="edge"><title>Lose&#45;&gt;DangerAnimation</title>
<path fill="none" stroke="black" d="M182.23,-146.313C186.198,-138.028 191.043,-127.91 195.457,-118.693"/>
<polygon fill="black" stroke="black" points="198.683,-120.06 199.845,-109.529 192.37,-117.036 198.683,-120.06"/>
</g>
<!-- Replay -->
<g id="node28" class="node"><title>Replay</title>
<polygon fill="none" stroke="black" points="75,-73.5 75,-109.5 131,-109.5 131,-73.5 75,-73.5"/>
<text text-anchor="middle" x="103" y="-87.8" font-family="Times New Roman,serif" font-size="14.00">Replay</text>
</g>
<!-- Lose&#45;&gt;Replay -->
<g id="edge20" class="edge"><title>Lose&#45;&gt;Replay</title>
<path fill="none" stroke="black" d="M156.813,-146.313C147.917,-137.417 136.909,-126.409 127.172,-116.672"/>
<polygon fill="black" stroke="black" points="129.575,-114.125 120.029,-109.529 124.625,-119.075 129.575,-114.125"/>
</g>
<!-- Server -->
<g id="node15" class="node"><title>Server</title>
<polygon fill="none" stroke="black" points="74,-438.5 74,-474.5 128,-474.5 128,-438.5 74,-438.5"/>
<text text-anchor="middle" x="101" y="-452.8" font-family="Times New Roman,serif" font-size="14.00">Server</text>
</g>
<!-- Host -->
<g id="node16" class="node"><title>Host</title>
<polygon fill="none" stroke="black" points="28,-365.5 28,-401.5 82,-401.5 82,-365.5 28,-365.5"/>
<text text-anchor="middle" x="55" y="-379.8" font-family="Times New Roman,serif" font-size="14.00">Host</text>
</g>
<!-- Server&#45;&gt;Host -->
<g id="edge21" class="edge"><title>Server&#45;&gt;Host</title>
<path fill="none" stroke="black" d="M89.8647,-438.313C84.3839,-429.853 77.6654,-419.484 71.594,-410.112"/>
<polygon fill="black" stroke="black" points="74.4076,-408.018 66.0328,-401.529 68.5328,-411.824 74.4076,-408.018"/>
</g>
<!-- Disconnected -->
<g id="node18" class="node"><title>Disconnected</title>
<polygon fill="none" stroke="black" points="100.5,-365.5 100.5,-401.5 193.5,-401.5 193.5,-365.5 100.5,-365.5"/>
<text text-anchor="middle" x="147" y="-379.8" font-family="Times New Roman,serif" font-size="14.00">Disconnected</text>
</g>
<!-- Server&#45;&gt;Disconnected -->
<g id="edge22" class="edge"><title>Server&#45;&gt;Disconnected</title>
<path fill="none" stroke="black" d="M112.135,-438.313C117.616,-429.853 124.335,-419.484 130.406,-410.112"/>
<polygon fill="black" stroke="black" points="133.467,-411.824 135.967,-401.529 127.592,-408.018 133.467,-411.824"/>
</g>
<!-- Join -->
<g id="node17" class="node"><title>Join</title>
<polygon fill="none" stroke="black" points="0,-292.5 0,-328.5 54,-328.5 54,-292.5 0,-292.5"/>
<text text-anchor="middle" x="27" y="-306.8" font-family="Times New Roman,serif" font-size="14.00">Join</text>
</g>
<!-- Host&#45;&gt;Join -->
<g id="edge23" class="edge"><title>Host&#45;&gt;Join</title>
<path fill="none" stroke="black" d="M48.222,-365.313C44.989,-357.115 41.0486,-347.123 37.4447,-337.985"/>
<polygon fill="black" stroke="black" points="40.6403,-336.548 33.7156,-328.529 34.1284,-339.116 40.6403,-336.548"/>
</g>
<!-- ShareState -->
<g id="node19" class="node"><title>ShareState</title>
<polygon fill="none" stroke="black" points="14,-219.5 14,-255.5 94,-255.5 94,-219.5 14,-219.5"/>
<text text-anchor="start" x="22" y="-233.8" font-family="Times New Roman,serif" font-size="14.00">Share State</text>
</g>
<!-- Host&#45;&gt;ShareState -->
<g id="edge24" class="edge"><title>Host&#45;&gt;ShareState</title>
<path fill="none" stroke="black" d="M58.2484,-365.225C60.0459,-354.781 62.0947,-341.175 63,-329 64.2193,-312.601 64.3688,-308.387 63,-292 62.2834,-283.421 60.9311,-274.147 59.4885,-265.769"/>
<polygon fill="black" stroke="black" points="62.8988,-264.961 57.6539,-255.755 56.0134,-266.223 62.8988,-264.961"/>
</g>
<!-- Join&#45;&gt;ShareState -->
<g id="edge25" class="edge"><title>Join&#45;&gt;ShareState</title>
<path fill="none" stroke="black" d="M33.5359,-292.313C36.6534,-284.115 40.4532,-274.123 43.9284,-264.985"/>
<polygon fill="black" stroke="black" points="47.2411,-266.12 47.5242,-255.529 40.6983,-263.632 47.2411,-266.12"/>
</g>
<!-- ShareState&#45;&gt;Multiplayer -->
<g id="edge26" class="edge"><title>ShareState&#45;&gt;Multiplayer</title>
<path fill="none" stroke="black" d="M49.116,-219.258C40.9018,-186.169 28.6397,-113.464 66,-73 105.238,-30.5026 277.008,-21.6125 363.24,-19.8567"/>
<polygon fill="black" stroke="black" points="363.382,-23.3548 373.318,-19.6762 363.257,-16.356 363.382,-23.3548"/>
</g>
<!-- Win -->
<g id="node27" class="node"><title>Win</title>
<polygon fill="none" stroke="black" points="75,-146.5 75,-182.5 129,-182.5 129,-146.5 75,-146.5"/>
<text text-anchor="middle" x="102" y="-160.8" font-family="Times New Roman,serif" font-size="14.00">Win</text>
</g>
<!-- ShareState&#45;&gt;Win -->
<g id="edge27" class="edge"><title>ShareState&#45;&gt;Win</title>
<path fill="none" stroke="black" d="M65.6195,-219.313C71.3975,-210.766 78.4939,-200.269 84.8803,-190.823"/>
<polygon fill="black" stroke="black" points="87.7863,-192.774 90.4875,-182.529 81.9872,-188.853 87.7863,-192.774"/>
</g>
<!-- GarbageImages -->
<g id="node20" class="node"><title>GarbageImages</title>
<polygon fill="none" stroke="gray" points="496.5,-438.5 496.5,-474.5 607.5,-474.5 607.5,-438.5 496.5,-438.5"/>
<text text-anchor="start" x="504.5" y="-460.3" font-family="Times New Roman,serif" font-size="14.00" fill="gray">Garbage Images </text>
<text text-anchor="start" x="522.5" y="-446.3" font-family="Times New Roman,serif" font-size="14.00" fill="gray"> </text>
<text text-anchor="start" x="526.5" y="-446.3" font-family="Times New Roman,serif" font-style="italic" font-size="14.00" fill="gray">Complete</text>
</g>
<!-- GarbageImages&#45;&gt;GarbageLineRendering -->
<g id="edge28" class="edge"><title>GarbageImages&#45;&gt;GarbageLineRendering</title>
<path fill="none" stroke="black" d="M552,-438.313C552,-430.289 552,-420.547 552,-411.569"/>
<polygon fill="black" stroke="black" points="555.5,-411.529 552,-401.529 548.5,-411.529 555.5,-411.529"/>
</g>
<!-- GarbagePhysics -->
<g id="node22" class="node"><title>GarbagePhysics</title>
<polygon fill="none" stroke="gray" points="498.5,-292.5 498.5,-328.5 613.5,-328.5 613.5,-292.5 498.5,-292.5"/>
<text text-anchor="start" x="506.5" y="-314.3" font-family="Times New Roman,serif" font-size="14.00" fill="gray">Garbage Physics </text>
<text text-anchor="start" x="526.5" y="-300.3" font-family="Times New Roman,serif" font-size="14.00" fill="gray"> </text>
<text text-anchor="start" x="530.5" y="-300.3" font-family="Times New Roman,serif" font-style="italic" font-size="14.00" fill="gray">Complete</text>
</g>
<!-- GarbageLineRendering&#45;&gt;GarbagePhysics -->
<g id="edge29" class="edge"><title>GarbageLineRendering&#45;&gt;GarbagePhysics</title>
<path fill="none" stroke="black" d="M552.968,-365.313C553.42,-357.289 553.969,-347.547 554.475,-338.569"/>
<polygon fill="black" stroke="black" points="557.973,-338.71 555.041,-328.529 550.984,-338.316 557.973,-338.71"/>
</g>
<!-- CameraShake -->
<g id="node23" class="node"><title>CameraShake</title>
<polygon fill="none" stroke="black" points="507.5,-219.5 507.5,-255.5 604.5,-255.5 604.5,-219.5 507.5,-219.5"/>
<text text-anchor="start" x="515.5" y="-233.8" font-family="Times New Roman,serif" font-size="14.00">Camera Shake</text>
</g>
<!-- GarbagePhysics&#45;&gt;CameraShake -->
<g id="edge30" class="edge"><title>GarbagePhysics&#45;&gt;CameraShake</title>
<path fill="none" stroke="black" d="M556,-292.313C556,-284.289 556,-274.547 556,-265.569"/>
<polygon fill="black" stroke="black" points="559.5,-265.529 556,-255.529 552.5,-265.529 559.5,-265.529"/>
</g>
<!-- GarbageClearing -->
<g id="node24" class="node"><title>GarbageClearing</title>
<polygon fill="none" stroke="black" points="571.5,-146.5 571.5,-182.5 684.5,-182.5 684.5,-146.5 571.5,-146.5"/>
<text text-anchor="start" x="579.5" y="-160.8" font-family="Times New Roman,serif" font-size="14.00">Garbage Clearing</text>
</g>
<!-- GarbagePhysics&#45;&gt;GarbageClearing -->
<g id="edge31" class="edge"><title>GarbagePhysics&#45;&gt;GarbageClearing</title>
<path fill="none" stroke="black" d="M580.671,-292.408C592.322,-283.018 605.326,-270.365 613,-256 623.414,-236.507 626.945,-211.556 627.996,-192.791"/>
<polygon fill="black" stroke="black" points="631.502,-192.664 628.361,-182.545 624.507,-192.414 631.502,-192.664"/>
</g>
<!-- GarbageComboExtension -->
<g id="node25" class="node"><title>GarbageComboExtension</title>
<polygon fill="none" stroke="black" points="505.5,-73.5 505.5,-109.5 674.5,-109.5 674.5,-73.5 505.5,-73.5"/>
<text text-anchor="start" x="513.5" y="-87.8" font-family="Times New Roman,serif" font-size="14.00">Garbage Combo Extension</text>
</g>
<!-- GarbageClearing&#45;&gt;GarbageComboExtension -->
<g id="edge32" class="edge"><title>GarbageClearing&#45;&gt;GarbageComboExtension</title>
<path fill="none" stroke="black" d="M618.801,-146.313C614.32,-137.941 608.838,-127.697 603.863,-118.403"/>
<polygon fill="black" stroke="black" points="606.919,-116.694 599.114,-109.529 600.747,-119.997 606.919,-116.694"/>
</g>
<!-- GarbageComboExtension&#45;&gt;Multiplayer -->
<g id="edge33" class="edge"><title>GarbageComboExtension&#45;&gt;Multiplayer</title>
<path fill="none" stroke="black" d="M547.604,-73.4937C521.918,-63.1901 489.042,-50.0027 462.211,-39.24"/>
<polygon fill="black" stroke="black" points="463.208,-35.869 452.624,-35.3944 460.602,-42.3658 463.208,-35.869"/>
</g>
<!-- Win&#45;&gt;Replay -->
<g id="edge34" class="edge"><title>Win&#45;&gt;Replay</title>
<path fill="none" stroke="black" d="M102.242,-146.313C102.355,-138.289 102.492,-128.547 102.619,-119.569"/>
<polygon fill="black" stroke="black" points="106.119,-119.577 102.76,-109.529 99.1196,-119.479 106.119,-119.577"/>
</g>
</g>
</svg>
