<?xml version="1.0" encoding="UTF-8" standalone="no"?>
<!DOCTYPE svg PUBLIC "-//W3C//DTD SVG 1.1//EN"
 "http://www.w3.org/Graphics/SVG/1.1/DTD/svg11.dtd">
<!-- Generated by graphviz version 2.38.0 (20140413.2041)
 -->
<!-- Title: %3 Pages: 1 -->
<svg width="275pt" height="337pt"
 viewBox="0.00 0.00 275.00 337.00" xmlns="http://www.w3.org/2000/svg" xmlns:xlink="http://www.w3.org/1999/xlink">
<g id="graph0" class="graph" transform="scale(1 1) rotate(0) translate(4 333)">
<title>%3</title>
<polygon fill="white" stroke="none" points="-4,4 -4,-333 271,-333 271,4 -4,4"/>
<!-- a -->
<g id="node1" class="node"><title>a</title>
<polygon fill="none" stroke="black" points="0,-292.5 0,-328.5 87,-328.5 87,-292.5 0,-292.5"/>
<text text-anchor="start" x="16" y="-314.3" font-family="Times New Roman,serif" font-size="14.00">Get Pixel </text>
<text text-anchor="start" x="8" y="-300.3" font-family="Times New Roman,serif" font-size="14.00"> </text>
<text text-anchor="start" x="12" y="-300.3" font-family="Times New Roman,serif" font-style="italic" font-size="14.00">In Progress</text>
</g>
<!-- b -->
<g id="node2" class="node"><title>b</title>
<polygon fill="none" stroke="black" points="7.5,-219.5 7.5,-255.5 79.5,-255.5 79.5,-219.5 7.5,-219.5"/>
<text text-anchor="start" x="15.5" y="-233.8" font-family="Times New Roman,serif" font-size="14.00">Collisions</text>
</g>
<!-- a&#45;&gt;b -->
<g id="edge1" class="edge"><title>a&#45;&gt;b</title>
<path fill="none" stroke="black" d="M43.5,-292.313C43.5,-284.289 43.5,-274.547 43.5,-265.569"/>
<polygon fill="black" stroke="black" points="47.0001,-265.529 43.5,-255.529 40.0001,-265.529 47.0001,-265.529"/>
</g>
<!-- d -->
<g id="node4" class="node"><title>d</title>
<polygon fill="none" stroke="black" points="7,-146.5 7,-182.5 78,-182.5 78,-146.5 7,-146.5"/>
<text text-anchor="start" x="15" y="-160.8" font-family="Times New Roman,serif" font-size="14.00">Character</text>
</g>
<!-- b&#45;&gt;d -->
<g id="edge2" class="edge"><title>b&#45;&gt;d</title>
<path fill="none" stroke="black" d="M43.2579,-219.313C43.1449,-211.289 43.0077,-201.547 42.8813,-192.569"/>
<polygon fill="black" stroke="black" points="46.3804,-192.479 42.7398,-182.529 39.3811,-192.577 46.3804,-192.479"/>
</g>
<!-- f -->
<g id="node6" class="node"><title>f</title>
<polygon fill="none" stroke="black" points="96,-146.5 96,-182.5 153,-182.5 153,-146.5 96,-146.5"/>
<text text-anchor="start" x="104" y="-160.8" font-family="Times New Roman,serif" font-size="14.00">Bombs</text>
</g>
<!-- b&#45;&gt;f -->
<g id="edge3" class="edge"><title>b&#45;&gt;f</title>
<path fill="none" stroke="black" d="M63.1078,-219.313C73.3557,-210.33 86.0611,-199.193 97.2502,-189.386"/>
<polygon fill="black" stroke="black" points="99.8598,-191.753 105.073,-182.529 95.2456,-186.488 99.8598,-191.753"/>
</g>
<!-- c -->
<g id="node3" class="node"><title>c</title>
<polygon fill="none" stroke="black" points="107,-292.5 107,-328.5 254,-328.5 254,-292.5 107,-292.5"/>
<text text-anchor="start" x="115" y="-306.8" font-family="Times New Roman,serif" font-size="14.00">Marching Squares Grid</text>
</g>
<!-- e -->
<g id="node5" class="node"><title>e</title>
<polygon fill="none" stroke="black" points="153.5,-219.5 153.5,-255.5 207.5,-255.5 207.5,-219.5 153.5,-219.5"/>
<text text-anchor="start" x="162" y="-233.8" font-family="Times New Roman,serif" font-size="14.00">Panels</text>
</g>
<!-- c&#45;&gt;e -->
<g id="edge4" class="edge"><title>c&#45;&gt;e</title>
<path fill="none" stroke="black" d="M180.5,-292.313C180.5,-284.289 180.5,-274.547 180.5,-265.569"/>
<polygon fill="black" stroke="black" points="184,-265.529 180.5,-255.529 177,-265.529 184,-265.529"/>
</g>
<!-- g -->
<g id="node7" class="node"><title>g</title>
<polygon fill="none" stroke="black" points="97.5,-73.5 97.5,-109.5 151.5,-109.5 151.5,-73.5 97.5,-73.5"/>
<text text-anchor="start" x="107.5" y="-87.8" font-family="Times New Roman,serif" font-size="14.00">Score</text>
</g>
<!-- d&#45;&gt;g -->
<g id="edge5" class="edge"><title>d&#45;&gt;g</title>
<path fill="none" stroke="black" d="M62.3499,-146.313C72.825,-137.243 85.8366,-125.977 97.2433,-116.1"/>
<polygon fill="black" stroke="black" points="99.564,-118.721 104.833,-109.529 94.9819,-113.429 99.564,-118.721"/>
</g>
<!-- e&#45;&gt;f -->
<g id="edge6" class="edge"><title>e&#45;&gt;f</title>
<path fill="none" stroke="black" d="M166.944,-219.313C160.134,-210.679 151.755,-200.055 144.245,-190.534"/>
<polygon fill="black" stroke="black" points="146.872,-188.213 137.931,-182.529 141.376,-192.548 146.872,-188.213"/>
</g>
<!-- e&#45;&gt;g -->
<g id="edge7" class="edge"><title>e&#45;&gt;g</title>
<path fill="none" stroke="black" d="M178.931,-219.208C176.771,-200.527 171.898,-170.189 161.5,-146 157.285,-136.196 151.14,-126.339 145.065,-117.806"/>
<polygon fill="black" stroke="black" points="147.861,-115.701 139.086,-109.764 142.243,-119.877 147.861,-115.701"/>
</g>
<!-- f&#45;&gt;g -->
<g id="edge8" class="edge"><title>f&#45;&gt;g</title>
<path fill="none" stroke="black" d="M124.5,-146.313C124.5,-138.289 124.5,-128.547 124.5,-119.569"/>
<polygon fill="black" stroke="black" points="128,-119.529 124.5,-109.529 121,-119.529 128,-119.529"/>
</g>
<!-- i -->
<g id="node9" class="node"><title>i</title>
<polygon fill="none" stroke="black" points="142.5,-0.5 142.5,-36.5 200.5,-36.5 200.5,-0.5 142.5,-0.5"/>
<text text-anchor="start" x="150.5" y="-14.8" font-family="Times New Roman,serif" font-size="14.00">Publish</text>
</g>
<!-- g&#45;&gt;i -->
<g id="edge9" class="edge"><title>g&#45;&gt;i</title>
<path fill="none" stroke="black" d="M135.877,-73.3129C141.477,-64.8534 148.342,-54.4835 154.545,-45.1124"/>
<polygon fill="black" stroke="black" points="157.626,-46.7994 160.227,-36.5288 151.789,-42.9354 157.626,-46.7994"/>
</g>
<!-- h -->
<g id="node8" class="node"><title>h</title>
<polygon fill="none" stroke="black" points="170,-73.5 170,-109.5 267,-109.5 267,-73.5 170,-73.5"/>
<text text-anchor="start" x="178" y="-87.8" font-family="Times New Roman,serif" font-size="14.00">Sound Effects</text>
</g>
<!-- h&#45;&gt;i -->
<g id="edge10" class="edge"><title>h&#45;&gt;i</title>
<path fill="none" stroke="black" d="M207.123,-73.3129C201.523,-64.8534 194.658,-54.4835 188.455,-45.1124"/>
<polygon fill="black" stroke="black" points="191.211,-42.9354 182.773,-36.5288 185.374,-46.7994 191.211,-42.9354"/>
</g>
</g>
</svg>
