<?xml version="1.0" encoding="UTF-8" standalone="no"?>
<!DOCTYPE svg PUBLIC "-//W3C//DTD SVG 1.1//EN"
 "http://www.w3.org/Graphics/SVG/1.1/DTD/svg11.dtd">
<!-- Generated by graphviz version 2.38.0 (20140413.2041)
 -->
<!-- Title: %3 Pages: 1 -->
<svg width="590pt" height="410pt"
 viewBox="0.00 0.00 590.00 410.00" xmlns="http://www.w3.org/2000/svg" xmlns:xlink="http://www.w3.org/1999/xlink">
<g id="graph0" class="graph" transform="scale(1 1) rotate(0) translate(4 406)">
<title>%3</title>
<polygon fill="white" stroke="none" points="-4,4 -4,-406 586,-406 586,4 -4,4"/>
<!-- GetPixel -->
<g id="node1" class="node"><title>GetPixel</title>
<polygon fill="none" stroke="gray" points="80,-365.5 80,-401.5 155,-401.5 155,-365.5 80,-365.5"/>
<text text-anchor="start" x="90" y="-387.3" font-family="Times New Roman,serif" font-size="14.00" fill="gray">Get Pixel </text>
<text text-anchor="start" x="88" y="-373.3" font-family="Times New Roman,serif" font-size="14.00" fill="gray"> </text>
<text text-anchor="start" x="92" y="-373.3" font-family="Times New Roman,serif" font-style="italic" font-size="14.00" fill="gray">Complete</text>
</g>
<!-- Collisions -->
<g id="node2" class="node"><title>Collisions</title>
<polygon fill="none" stroke="gray" points="79.5,-292.5 79.5,-328.5 155.5,-328.5 155.5,-292.5 79.5,-292.5"/>
<text text-anchor="start" x="87.5" y="-314.3" font-family="Times New Roman,serif" font-size="14.00" fill="gray">Collisions </text>
<text text-anchor="start" x="88" y="-300.3" font-family="Times New Roman,serif" font-size="14.00" fill="gray"> </text>
<text text-anchor="start" x="92" y="-300.3" font-family="Times New Roman,serif" font-style="italic" font-size="14.00" fill="gray">Complete</text>
</g>
<!-- GetPixel&#45;&gt;Collisions -->
<g id="edge1" class="edge"><title>GetPixel&#45;&gt;Collisions</title>
<path fill="none" stroke="black" d="M117.5,-365.313C117.5,-357.289 117.5,-347.547 117.5,-338.569"/>
<polygon fill="black" stroke="black" points="121,-338.529 117.5,-328.529 114,-338.529 121,-338.529"/>
</g>
<!-- Character -->
<g id="node7" class="node"><title>Character</title>
<polygon fill="none" stroke="black" points="75,-219.5 75,-255.5 146,-255.5 146,-219.5 75,-219.5"/>
<text text-anchor="middle" x="110.5" y="-233.8" font-family="Times New Roman,serif" font-size="14.00">Character</text>
</g>
<!-- Collisions&#45;&gt;Character -->
<g id="edge2" class="edge"><title>Collisions&#45;&gt;Character</title>
<path fill="none" stroke="black" d="M115.805,-292.313C115.014,-284.289 114.054,-274.547 113.169,-265.569"/>
<polygon fill="black" stroke="black" points="116.643,-265.137 112.179,-255.529 109.677,-265.824 116.643,-265.137"/>
</g>
<!-- Bombs -->
<g id="node8" class="node"><title>Bombs</title>
<polygon fill="none" stroke="gray" points="164,-219.5 164,-255.5 239,-255.5 239,-219.5 164,-219.5"/>
<text text-anchor="start" x="179" y="-241.3" font-family="Times New Roman,serif" font-size="14.00" fill="gray">Bombs </text>
<text text-anchor="start" x="172" y="-227.3" font-family="Times New Roman,serif" font-size="14.00" fill="gray"> </text>
<text text-anchor="start" x="176" y="-227.3" font-family="Times New Roman,serif" font-style="italic" font-size="14.00" fill="gray">Complete</text>
</g>
<!-- Collisions&#45;&gt;Bombs -->
<g id="edge3" class="edge"><title>Collisions&#45;&gt;Bombs</title>
<path fill="none" stroke="black" d="M137.834,-292.313C148.565,-283.243 161.894,-271.977 173.578,-262.1"/>
<polygon fill="black" stroke="black" points="175.975,-264.657 181.353,-255.529 171.456,-259.311 175.975,-264.657"/>
</g>
<!-- MarchingSquaresGrid -->
<g id="node3" class="node"><title>MarchingSquaresGrid</title>
<polygon fill="none" stroke="gray" points="179,-365.5 179,-401.5 330,-401.5 330,-365.5 179,-365.5"/>
<text text-anchor="start" x="187" y="-387.3" font-family="Times New Roman,serif" font-size="14.00" fill="gray">Marching Squares Grid </text>
<text text-anchor="start" x="225" y="-373.3" font-family="Times New Roman,serif" font-size="14.00" fill="gray"> </text>
<text text-anchor="start" x="229" y="-373.3" font-family="Times New Roman,serif" font-style="italic" font-size="14.00" fill="gray">Complete</text>
</g>
<!-- Panels -->
<g id="node6" class="node"><title>Panels</title>
<polygon fill="none" stroke="gray" points="230,-292.5 230,-328.5 305,-328.5 305,-292.5 230,-292.5"/>
<text text-anchor="start" x="247.5" y="-314.3" font-family="Times New Roman,serif" font-size="14.00" fill="gray">Panels </text>
<text text-anchor="start" x="238" y="-300.3" font-family="Times New Roman,serif" font-size="14.00" fill="gray"> </text>
<text text-anchor="start" x="242" y="-300.3" font-family="Times New Roman,serif" font-style="italic" font-size="14.00" fill="gray">Complete</text>
</g>
<!-- MarchingSquaresGrid&#45;&gt;Panels -->
<g id="edge4" class="edge"><title>MarchingSquaresGrid&#45;&gt;Panels</title>
<path fill="none" stroke="black" d="M257.647,-365.313C259.116,-357.289 260.9,-347.547 262.544,-338.569"/>
<polygon fill="black" stroke="black" points="266.024,-338.996 264.382,-328.529 259.138,-337.735 266.024,-338.996"/>
</g>
<!-- Camera -->
<g id="node4" class="node"><title>Camera</title>
<polygon fill="none" stroke="gray" points="348,-365.5 348,-401.5 423,-401.5 423,-365.5 348,-365.5"/>
<text text-anchor="start" x="362" y="-387.3" font-family="Times New Roman,serif" font-size="14.00" fill="gray">Camera </text>
<text text-anchor="start" x="356" y="-373.3" font-family="Times New Roman,serif" font-size="14.00" fill="gray"> </text>
<text text-anchor="start" x="360" y="-373.3" font-family="Times New Roman,serif" font-style="italic" font-size="14.00" fill="gray">Complete</text>
</g>
<!-- Camera&#45;&gt;Panels -->
<g id="edge5" class="edge"><title>Camera&#45;&gt;Panels</title>
<path fill="none" stroke="black" d="M357.236,-365.494C341.443,-355.991 321.574,-344.036 304.549,-333.792"/>
<polygon fill="black" stroke="black" points="306.315,-330.77 295.942,-328.614 302.706,-336.768 306.315,-330.77"/>
</g>
<!-- GameEmbed -->
<g id="node5" class="node"><title>GameEmbed</title>
<polygon fill="none" stroke="gray" points="184,-73.5 184,-109.5 281,-109.5 281,-73.5 184,-73.5"/>
<text text-anchor="start" x="192" y="-95.3" font-family="Times New Roman,serif" font-size="14.00" fill="gray">Game Embed </text>
<text text-anchor="start" x="203" y="-81.3" font-family="Times New Roman,serif" font-size="14.00" fill="gray"> </text>
<text text-anchor="start" x="207" y="-81.3" font-family="Times New Roman,serif" font-style="italic" font-size="14.00" fill="gray">Complete</text>
</g>
<!-- Publish -->
<g id="node14" class="node"><title>Publish</title>
<polygon fill="none" stroke="black" points="260.5,-0.5 260.5,-36.5 318.5,-36.5 318.5,-0.5 260.5,-0.5"/>
<text text-anchor="middle" x="289.5" y="-14.8" font-family="Times New Roman,serif" font-size="14.00">Publish</text>
</g>
<!-- GameEmbed&#45;&gt;Publish -->
<g id="edge6" class="edge"><title>GameEmbed&#45;&gt;Publish</title>
<path fill="none" stroke="black" d="M246.298,-73.3129C253.23,-64.679 261.759,-54.0551 269.402,-44.5341"/>
<polygon fill="black" stroke="black" points="272.298,-46.518 275.829,-36.5288 266.839,-42.1357 272.298,-46.518"/>
</g>
<!-- Panels&#45;&gt;Bombs -->
<g id="edge7" class="edge"><title>Panels&#45;&gt;Bombs</title>
<path fill="none" stroke="black" d="M251.523,-292.313C243.335,-283.505 233.222,-272.625 224.236,-262.958"/>
<polygon fill="black" stroke="black" points="226.702,-260.47 217.33,-255.529 221.575,-265.236 226.702,-260.47"/>
</g>
<!-- Score -->
<g id="node9" class="node"><title>Score</title>
<polygon fill="none" stroke="gray" points="118,-146.5 118,-182.5 193,-182.5 193,-146.5 118,-146.5"/>
<text text-anchor="start" x="137" y="-168.3" font-family="Times New Roman,serif" font-size="14.00" fill="gray">Score </text>
<text text-anchor="start" x="126" y="-154.3" font-family="Times New Roman,serif" font-size="14.00" fill="gray"> </text>
<text text-anchor="start" x="130" y="-154.3" font-family="Times New Roman,serif" font-style="italic" font-size="14.00" fill="gray">Complete</text>
</g>
<!-- Panels&#45;&gt;Score -->
<g id="edge8" class="edge"><title>Panels&#45;&gt;Score</title>
<path fill="none" stroke="black" d="M267.675,-292.159C267.031,-272.601 263.348,-240.701 247.5,-219 236.191,-203.515 218.931,-191.792 202.404,-183.327"/>
<polygon fill="black" stroke="black" points="203.868,-180.147 193.341,-178.956 200.827,-186.452 203.868,-180.147"/>
</g>
<!-- TerrainVariation -->
<g id="node11" class="node"><title>TerrainVariation</title>
<polygon fill="none" stroke="gray" points="326.5,-146.5 326.5,-182.5 440.5,-182.5 440.5,-146.5 326.5,-146.5"/>
<text text-anchor="start" x="334.5" y="-168.3" font-family="Times New Roman,serif" font-size="14.00" fill="gray">Terrain Variation </text>
<text text-anchor="start" x="354" y="-154.3" font-family="Times New Roman,serif" font-size="14.00" fill="gray"> </text>
<text text-anchor="start" x="358" y="-154.3" font-family="Times New Roman,serif" font-style="italic" font-size="14.00" fill="gray">Complete</text>
</g>
<!-- Panels&#45;&gt;TerrainVariation -->
<g id="edge9" class="edge"><title>Panels&#45;&gt;TerrainVariation</title>
<path fill="none" stroke="black" d="M281.262,-292.416C301.582,-267.192 339.736,-219.828 363.251,-190.637"/>
<polygon fill="black" stroke="black" points="366.208,-192.545 369.756,-182.562 360.757,-188.154 366.208,-192.545"/>
</g>
<!-- Character&#45;&gt;Score -->
<g id="edge10" class="edge"><title>Character&#45;&gt;Score</title>
<path fill="none" stroke="black" d="M121.393,-219.313C126.755,-210.853 133.327,-200.484 139.267,-191.112"/>
<polygon fill="black" stroke="black" points="142.31,-192.849 144.707,-182.529 136.397,-189.102 142.31,-192.849"/>
</g>
<!-- Bombs&#45;&gt;Score -->
<g id="edge11" class="edge"><title>Bombs&#45;&gt;Score</title>
<path fill="none" stroke="black" d="M190.365,-219.313C184.884,-210.853 178.165,-200.484 172.094,-191.112"/>
<polygon fill="black" stroke="black" points="174.908,-189.018 166.533,-182.529 169.033,-192.824 174.908,-189.018"/>
</g>
<!-- GameOverScreen -->
<g id="node13" class="node"><title>GameOverScreen</title>
<polygon fill="none" stroke="gray" points="0,-73.5 0,-109.5 127,-109.5 127,-73.5 0,-73.5"/>
<text text-anchor="start" x="8" y="-95.3" font-family="Times New Roman,serif" font-size="14.00" fill="gray">Game Over Screen </text>
<text text-anchor="start" x="34" y="-81.3" font-family="Times New Roman,serif" font-size="14.00" fill="gray"> </text>
<text text-anchor="start" x="38" y="-81.3" font-family="Times New Roman,serif" font-style="italic" font-size="14.00" fill="gray">Complete</text>
</g>
<!-- Score&#45;&gt;GameOverScreen -->
<g id="edge12" class="edge"><title>Score&#45;&gt;GameOverScreen</title>
<path fill="none" stroke="black" d="M133.229,-146.313C121.364,-137.156 106.597,-125.76 93.7121,-115.816"/>
<polygon fill="black" stroke="black" points="95.6206,-112.868 85.5655,-109.529 91.3438,-118.409 95.6206,-112.868"/>
</g>
<!-- Score&#45;&gt;Publish -->
<g id="edge13" class="edge"><title>Score&#45;&gt;Publish</title>
<path fill="none" stroke="black" d="M154.746,-146.258C154.786,-126.496 157.727,-94.1214 174.5,-73 193.359,-49.2517 225.209,-35.5717 250.614,-28.0001"/>
<polygon fill="black" stroke="black" points="251.646,-31.3461 260.345,-25.2985 249.773,-24.6012 251.646,-31.3461"/>
</g>
<!-- SoundEffects -->
<g id="node10" class="node"><title>SoundEffects</title>
<polygon fill="none" stroke="black" points="299,-73.5 299,-109.5 396,-109.5 396,-73.5 299,-73.5"/>
<text text-anchor="start" x="307" y="-87.8" font-family="Times New Roman,serif" font-size="14.00">Sound Effects</text>
</g>
<!-- SoundEffects&#45;&gt;Publish -->
<g id="edge14" class="edge"><title>SoundEffects&#45;&gt;Publish</title>
<path fill="none" stroke="black" d="M333.46,-73.3129C326.407,-64.679 317.728,-54.0551 309.95,-44.5341"/>
<polygon fill="black" stroke="black" points="312.448,-42.059 303.411,-36.5288 307.027,-46.4876 312.448,-42.059"/>
</g>
<!-- TerrainVariation&#45;&gt;Publish -->
<g id="edge15" class="edge"><title>TerrainVariation&#45;&gt;Publish</title>
<path fill="none" stroke="black" d="M395.11,-146.191C406.423,-126.948 419.969,-95.6073 405.5,-73 388.645,-46.6643 355.171,-33.1096 328.496,-26.2458"/>
<polygon fill="black" stroke="black" points="329.19,-22.8136 318.654,-23.9301 327.587,-29.6275 329.19,-22.8136"/>
</g>
<!-- ParalaxBackground -->
<g id="node12" class="node"><title>ParalaxBackground</title>
<polygon fill="none" stroke="black" points="453,-73.5 453,-109.5 582,-109.5 582,-73.5 453,-73.5"/>
<text text-anchor="start" x="461" y="-87.8" font-family="Times New Roman,serif" font-size="14.00">Paralax Background</text>
</g>
<!-- ParalaxBackground&#45;&gt;Publish -->
<g id="edge16" class="edge"><title>ParalaxBackground&#45;&gt;Publish</title>
<path fill="none" stroke="black" d="M462.888,-73.4937C421.464,-60.594 365.524,-43.1742 328.522,-31.6515"/>
<polygon fill="black" stroke="black" points="329.204,-28.1981 318.615,-28.5666 327.122,-34.8816 329.204,-28.1981"/>
</g>
<!-- GameOverScreen&#45;&gt;Publish -->
<g id="edge17" class="edge"><title>GameOverScreen&#45;&gt;Publish</title>
<path fill="none" stroke="black" d="M117.633,-73.4937C158.574,-60.6315 213.82,-43.2754 250.5,-31.7522"/>
<polygon fill="black" stroke="black" points="251.835,-35.0016 260.326,-28.6653 249.737,-28.3234 251.835,-35.0016"/>
</g>
</g>
</svg>
