<?xml version="1.0" encoding="UTF-8" standalone="no"?>
<!DOCTYPE svg PUBLIC "-//W3C//DTD SVG 1.1//EN"
 "http://www.w3.org/Graphics/SVG/1.1/DTD/svg11.dtd">
<!-- Generated by graphviz version 2.38.0 (20140413.2041)
 -->
<!-- Title: %3 Pages: 1 -->
<svg width="836pt" height="775pt"
 viewBox="0.00 0.00 835.88 775.00" xmlns="http://www.w3.org/2000/svg" xmlns:xlink="http://www.w3.org/1999/xlink">
<g id="graph0" class="graph" transform="scale(1 1) rotate(0) translate(4 771)">
<title>%3</title>
<polygon fill="white" stroke="none" points="-4,4 -4,-771 831.881,-771 831.881,4 -4,4"/>
<!-- iOSDevelopment -->
<g id="node1" class="node"><title>iOSDevelopment</title>
<polygon fill="none" stroke="black" points="425.881,-730.5 425.881,-766.5 541.881,-766.5 541.881,-730.5 425.881,-730.5"/>
<text text-anchor="start" x="433.881" y="-744.8" font-family="Times New Roman,serif" font-size="14.00">iOS Development</text>
</g>
<!-- MonoGameiOS -->
<g id="node2" class="node"><title>MonoGameiOS</title>
<polygon fill="none" stroke="black" points="429.381,-657.5 429.381,-693.5 538.381,-693.5 538.381,-657.5 429.381,-657.5"/>
<text text-anchor="start" x="437.381" y="-671.8" font-family="Times New Roman,serif" font-size="14.00">MonoGame iOS</text>
</g>
<!-- iOSDevelopment&#45;&gt;MonoGameiOS -->
<g id="edge1" class="edge"><title>iOSDevelopment&#45;&gt;MonoGameiOS</title>
<path fill="none" stroke="black" d="M483.881,-730.313C483.881,-722.289 483.881,-712.547 483.881,-703.569"/>
<polygon fill="black" stroke="black" points="487.381,-703.529 483.881,-693.529 480.381,-703.529 487.381,-703.529"/>
</g>
<!-- TileRenderer -->
<g id="node3" class="node"><title>TileRenderer</title>
<polygon fill="none" stroke="black" points="509.881,-584.5 509.881,-620.5 601.881,-620.5 601.881,-584.5 509.881,-584.5"/>
<text text-anchor="start" x="517.881" y="-598.8" font-family="Times New Roman,serif" font-size="14.00">Tile Renderer</text>
</g>
<!-- MonoGameiOS&#45;&gt;TileRenderer -->
<g id="edge2" class="edge"><title>MonoGameiOS&#45;&gt;TileRenderer</title>
<path fill="none" stroke="black" d="M501.31,-657.313C510.331,-648.417 521.494,-637.409 531.369,-627.672"/>
<polygon fill="black" stroke="black" points="533.949,-630.042 538.612,-620.529 529.034,-625.058 533.949,-630.042"/>
</g>
<!-- TextRendering -->
<g id="node4" class="node"><title>TextRendering</title>
<polygon fill="none" stroke="black" points="361.381,-584.5 361.381,-620.5 464.381,-620.5 464.381,-584.5 361.381,-584.5"/>
<text text-anchor="start" x="369.381" y="-598.8" font-family="Times New Roman,serif" font-size="14.00">Text Rendering</text>
</g>
<!-- MonoGameiOS&#45;&gt;TextRendering -->
<g id="edge3" class="edge"><title>MonoGameiOS&#45;&gt;TextRendering</title>
<path fill="none" stroke="black" d="M466.694,-657.313C457.798,-648.417 446.79,-637.409 437.052,-627.672"/>
<polygon fill="black" stroke="black" points="439.456,-625.125 429.91,-620.529 434.506,-630.075 439.456,-625.125"/>
</g>
<!-- Camera -->
<g id="node5" class="node"><title>Camera</title>
<polygon fill="none" stroke="black" points="634.381,-511.5 634.381,-547.5 693.381,-547.5 693.381,-511.5 634.381,-511.5"/>
<text text-anchor="middle" x="663.881" y="-525.8" font-family="Times New Roman,serif" font-size="14.00">Camera</text>
</g>
<!-- TileRenderer&#45;&gt;Camera -->
<g id="edge4" class="edge"><title>TileRenderer&#45;&gt;Camera</title>
<path fill="none" stroke="black" d="M581.749,-584.494C595.939,-575.166 613.723,-563.474 629.111,-553.358"/>
<polygon fill="black" stroke="black" points="631.415,-556.032 637.849,-547.614 627.57,-550.182 631.415,-556.032"/>
</g>
<!-- WindowInfrastructure -->
<g id="node8" class="node"><title>WindowInfrastructure</title>
<polygon fill="none" stroke="black" points="260.381,-438.5 260.381,-474.5 403.381,-474.5 403.381,-438.5 260.381,-438.5"/>
<text text-anchor="start" x="268.381" y="-452.8" font-family="Times New Roman,serif" font-size="14.00">Window Infrastructure</text>
</g>
<!-- TextRendering&#45;&gt;WindowInfrastructure -->
<g id="edge5" class="edge"><title>TextRendering&#45;&gt;WindowInfrastructure</title>
<path fill="none" stroke="black" d="M403.271,-584.416C389.204,-559.408 362.897,-512.64 346.445,-483.392"/>
<polygon fill="black" stroke="black" points="349.431,-481.562 341.478,-474.562 343.33,-484.994 349.431,-481.562"/>
</g>
<!-- Objects -->
<g id="node6" class="node"><title>Objects</title>
<polygon fill="none" stroke="black" points="633.881,-438.5 633.881,-474.5 693.881,-474.5 693.881,-438.5 633.881,-438.5"/>
<text text-anchor="middle" x="663.881" y="-452.8" font-family="Times New Roman,serif" font-size="14.00">Objects</text>
</g>
<!-- Camera&#45;&gt;Objects -->
<g id="edge6" class="edge"><title>Camera&#45;&gt;Objects</title>
<path fill="none" stroke="black" d="M663.881,-511.313C663.881,-503.289 663.881,-493.547 663.881,-484.569"/>
<polygon fill="black" stroke="black" points="667.381,-484.529 663.881,-474.529 660.381,-484.529 667.381,-484.529"/>
</g>
<!-- EntityAnimations -->
<g id="node7" class="node"><title>EntityAnimations</title>
<polygon fill="none" stroke="black" points="711.881,-438.5 711.881,-474.5 827.881,-474.5 827.881,-438.5 711.881,-438.5"/>
<text text-anchor="start" x="719.881" y="-452.8" font-family="Times New Roman,serif" font-size="14.00">Entity Animations</text>
</g>
<!-- Camera&#45;&gt;EntityAnimations -->
<g id="edge7" class="edge"><title>Camera&#45;&gt;EntityAnimations</title>
<path fill="none" stroke="black" d="M689.27,-511.494C703.197,-502.166 720.652,-490.474 735.755,-480.358"/>
<polygon fill="black" stroke="black" points="737.97,-483.087 744.331,-474.614 734.075,-477.271 737.97,-483.087"/>
</g>
<!-- TileProperties -->
<g id="node10" class="node"><title>TileProperties</title>
<polygon fill="none" stroke="black" points="617.881,-365.5 617.881,-401.5 715.881,-401.5 715.881,-365.5 617.881,-365.5"/>
<text text-anchor="start" x="625.881" y="-379.8" font-family="Times New Roman,serif" font-size="14.00">Tile Properties</text>
</g>
<!-- Objects&#45;&gt;TileProperties -->
<g id="edge8" class="edge"><title>Objects&#45;&gt;TileProperties</title>
<path fill="none" stroke="black" d="M664.607,-438.313C664.946,-430.289 665.358,-420.547 665.737,-411.569"/>
<polygon fill="black" stroke="black" points="669.236,-411.668 666.161,-401.529 662.242,-411.372 669.236,-411.668"/>
</g>
<!-- Character -->
<g id="node11" class="node"><title>Character</title>
<polygon fill="none" stroke="black" points="734.381,-365.5 734.381,-401.5 805.381,-401.5 805.381,-365.5 734.381,-365.5"/>
<text text-anchor="middle" x="769.881" y="-379.8" font-family="Times New Roman,serif" font-size="14.00">Character</text>
</g>
<!-- EntityAnimations&#45;&gt;Character -->
<g id="edge9" class="edge"><title>EntityAnimations&#45;&gt;Character</title>
<path fill="none" stroke="black" d="M769.881,-438.313C769.881,-430.289 769.881,-420.547 769.881,-411.569"/>
<polygon fill="black" stroke="black" points="773.381,-411.529 769.881,-401.529 766.381,-411.529 773.381,-411.529"/>
</g>
<!-- PopupWindow -->
<g id="node9" class="node"><title>PopupWindow</title>
<polygon fill="none" stroke="black" points="376.881,-292.5 376.881,-328.5 482.881,-328.5 482.881,-292.5 376.881,-292.5"/>
<text text-anchor="start" x="384.881" y="-306.8" font-family="Times New Roman,serif" font-size="14.00">Popup Window</text>
</g>
<!-- WindowInfrastructure&#45;&gt;PopupWindow -->
<g id="edge10" class="edge"><title>WindowInfrastructure&#45;&gt;PopupWindow</title>
<path fill="none" stroke="black" d="M343.507,-438.416C360.6,-413.3 392.631,-366.234 412.517,-337.014"/>
<polygon fill="black" stroke="black" points="415.536,-338.798 418.269,-328.562 409.749,-334.86 415.536,-338.798"/>
</g>
<!-- ActionSearch -->
<g id="node13" class="node"><title>ActionSearch</title>
<polygon fill="none" stroke="black" points="224.881,-365.5 224.881,-401.5 320.881,-401.5 320.881,-365.5 224.881,-365.5"/>
<text text-anchor="start" x="232.881" y="-379.8" font-family="Times New Roman,serif" font-size="14.00">Action Search</text>
</g>
<!-- WindowInfrastructure&#45;&gt;ActionSearch -->
<g id="edge11" class="edge"><title>WindowInfrastructure&#45;&gt;ActionSearch</title>
<path fill="none" stroke="black" d="M317.599,-438.313C310.351,-429.592 301.417,-418.84 293.444,-409.246"/>
<polygon fill="black" stroke="black" points="296.115,-406.983 287.031,-401.529 290.731,-411.457 296.115,-406.983"/>
</g>
<!-- RoutineTicker -->
<g id="node14" class="node"><title>RoutineTicker</title>
<polygon fill="none" stroke="black" points="106.881,-365.5 106.881,-401.5 206.881,-401.5 206.881,-365.5 106.881,-365.5"/>
<text text-anchor="start" x="114.881" y="-379.8" font-family="Times New Roman,serif" font-size="14.00">Routine Ticker</text>
</g>
<!-- WindowInfrastructure&#45;&gt;RoutineTicker -->
<g id="edge12" class="edge"><title>WindowInfrastructure&#45;&gt;RoutineTicker</title>
<path fill="none" stroke="black" d="M289.964,-438.494C265.468,-428.555 234.36,-415.934 208.38,-405.394"/>
<polygon fill="black" stroke="black" points="209.644,-402.13 199.062,-401.614 207.013,-408.616 209.644,-402.13"/>
</g>
<!-- RoutineEditor -->
<g id="node20" class="node"><title>RoutineEditor</title>
<polygon fill="none" stroke="black" points="29.8808,-292.5 29.8808,-328.5 127.881,-328.5 127.881,-292.5 29.8808,-292.5"/>
<text text-anchor="start" x="37.8808" y="-306.8" font-family="Times New Roman,serif" font-size="14.00">Routine Editor</text>
</g>
<!-- WindowInfrastructure&#45;&gt;RoutineEditor -->
<g id="edge13" class="edge"><title>WindowInfrastructure&#45;&gt;RoutineEditor</title>
<path fill="none" stroke="black" d="M260.161,-447.611C199.96,-439.506 120.295,-424.817 97.8808,-402 81.6687,-385.496 77.6878,-358.897 77.3052,-338.797"/>
<polygon fill="black" stroke="black" points="80.806,-338.718 77.3975,-328.686 73.8063,-338.654 80.806,-338.718"/>
</g>
<!-- ResourceProgression -->
<g id="node21" class="node"><title>ResourceProgression</title>
<polygon fill="none" stroke="black" points="278.881,-73.5 278.881,-109.5 418.881,-109.5 418.881,-73.5 278.881,-73.5"/>
<text text-anchor="start" x="286.881" y="-87.8" font-family="Times New Roman,serif" font-size="14.00">Resource Progression</text>
</g>
<!-- WindowInfrastructure&#45;&gt;ResourceProgression -->
<g id="edge14" class="edge"><title>WindowInfrastructure&#45;&gt;ResourceProgression</title>
<path fill="none" stroke="black" d="M396.735,-438.49C479.693,-415.268 616.123,-371.64 644.881,-329 694.124,-255.985 642.873,-193.762 568.881,-146 527.213,-119.103 473.177,-105.723 429.087,-99.0701"/>
<polygon fill="black" stroke="black" points="429.368,-95.575 418.975,-97.6346 428.384,-102.505 429.368,-95.575"/>
</g>
<!-- TaptoUse -->
<g id="node18" class="node"><title>TaptoUse</title>
<polygon fill="none" stroke="black" points="381.881,-146.5 381.881,-182.5 461.881,-182.5 461.881,-146.5 381.881,-146.5"/>
<text text-anchor="start" x="389.881" y="-160.8" font-family="Times New Roman,serif" font-size="14.00">Tap to Use</text>
</g>
<!-- PopupWindow&#45;&gt;TaptoUse -->
<g id="edge15" class="edge"><title>PopupWindow&#45;&gt;TaptoUse</title>
<path fill="none" stroke="black" d="M450.226,-292.388C459.994,-282.819 470.685,-270.012 475.881,-256 481.598,-240.581 482.209,-234.178 475.881,-219 471.206,-207.789 462.913,-197.724 454.207,-189.43"/>
<polygon fill="black" stroke="black" points="456.332,-186.636 446.531,-182.613 451.684,-191.87 456.332,-186.636"/>
</g>
<!-- PickandPlace -->
<g id="node19" class="node"><title>PickandPlace</title>
<polygon fill="none" stroke="black" points="221.381,-219.5 221.381,-255.5 320.381,-255.5 320.381,-219.5 221.381,-219.5"/>
<text text-anchor="start" x="229.381" y="-233.8" font-family="Times New Roman,serif" font-size="14.00">Pick and Place</text>
</g>
<!-- PopupWindow&#45;&gt;PickandPlace -->
<g id="edge16" class="edge"><title>PopupWindow&#45;&gt;PickandPlace</title>
<path fill="none" stroke="black" d="M391.796,-292.494C369.833,-282.686 342.019,-270.266 318.606,-259.811"/>
<polygon fill="black" stroke="black" points="319.764,-256.495 309.206,-255.614 316.909,-262.887 319.764,-256.495"/>
</g>
<!-- PathFinding -->
<g id="node12" class="node"><title>PathFinding</title>
<polygon fill="none" stroke="black" points="549.381,-292.5 549.381,-328.5 636.381,-328.5 636.381,-292.5 549.381,-292.5"/>
<text text-anchor="start" x="557.381" y="-306.8" font-family="Times New Roman,serif" font-size="14.00">Path Finding</text>
</g>
<!-- TileProperties&#45;&gt;PathFinding -->
<g id="edge17" class="edge"><title>TileProperties&#45;&gt;PathFinding</title>
<path fill="none" stroke="black" d="M648.967,-365.313C639.696,-356.417 628.223,-345.409 618.074,-335.672"/>
<polygon fill="black" stroke="black" points="620.268,-332.927 610.629,-328.529 615.422,-337.978 620.268,-332.927"/>
</g>
<!-- Character&#45;&gt;PathFinding -->
<g id="edge18" class="edge"><title>Character&#45;&gt;PathFinding</title>
<path fill="none" stroke="black" d="M734.062,-368.132C708.469,-357.866 673.634,-343.893 644.971,-332.395"/>
<polygon fill="black" stroke="black" points="646.093,-329.074 635.509,-328.599 643.487,-335.571 646.093,-329.074"/>
</g>
<!-- Interaction -->
<g id="node15" class="node"><title>Interaction</title>
<polygon fill="none" stroke="black" points="522.881,-219.5 522.881,-255.5 598.881,-255.5 598.881,-219.5 522.881,-219.5"/>
<text text-anchor="middle" x="560.881" y="-233.8" font-family="Times New Roman,serif" font-size="14.00">Interaction</text>
</g>
<!-- PathFinding&#45;&gt;Interaction -->
<g id="edge19" class="edge"><title>PathFinding&#45;&gt;Interaction</title>
<path fill="none" stroke="black" d="M585.134,-292.313C581.4,-284.028 576.84,-273.91 572.686,-264.693"/>
<polygon fill="black" stroke="black" points="575.856,-263.207 568.556,-255.529 569.474,-266.084 575.856,-263.207"/>
</g>
<!-- TaptoMove -->
<g id="node17" class="node"><title>TaptoMove</title>
<polygon fill="none" stroke="black" points="376.881,-219.5 376.881,-255.5 466.881,-255.5 466.881,-219.5 376.881,-219.5"/>
<text text-anchor="start" x="384.881" y="-233.8" font-family="Times New Roman,serif" font-size="14.00">Tap to Move</text>
</g>
<!-- PathFinding&#45;&gt;TaptoMove -->
<g id="edge20" class="edge"><title>PathFinding&#45;&gt;TaptoMove</title>
<path fill="none" stroke="black" d="M551.922,-292.494C528.091,-282.599 497.855,-270.045 472.537,-259.533"/>
<polygon fill="black" stroke="black" points="473.676,-256.216 463.098,-255.614 470.991,-262.681 473.676,-256.216"/>
</g>
<!-- PathFinding&#45;&gt;ResourceProgression -->
<g id="edge21" class="edge"><title>PathFinding&#45;&gt;ResourceProgression</title>
<path fill="none" stroke="black" d="M602.184,-292.213C611.141,-272.991 621.487,-241.667 607.881,-219 570.005,-155.902 490.174,-123.553 429.09,-107.447"/>
<polygon fill="black" stroke="black" points="429.626,-103.972 419.073,-104.906 427.905,-110.758 429.626,-103.972"/>
</g>
<!-- ActionInsertion -->
<g id="node16" class="node"><title>ActionInsertion</title>
<polygon fill="none" stroke="black" points="199.381,-292.5 199.381,-328.5 306.381,-328.5 306.381,-292.5 199.381,-292.5"/>
<text text-anchor="start" x="207.381" y="-306.8" font-family="Times New Roman,serif" font-size="14.00">Action Insertion</text>
</g>
<!-- ActionSearch&#45;&gt;ActionInsertion -->
<g id="edge22" class="edge"><title>ActionSearch&#45;&gt;ActionInsertion</title>
<path fill="none" stroke="black" d="M268.039,-365.313C265.755,-357.202 262.975,-347.336 260.423,-338.277"/>
<polygon fill="black" stroke="black" points="263.758,-337.205 257.678,-328.529 257.02,-339.103 263.758,-337.205"/>
</g>
<!-- ActionSearch&#45;&gt;RoutineEditor -->
<g id="edge23" class="edge"><title>ActionSearch&#45;&gt;RoutineEditor</title>
<path fill="none" stroke="black" d="M226.413,-365.494C199.019,-355.468 164.166,-342.713 135.215,-332.117"/>
<polygon fill="black" stroke="black" points="136.236,-328.764 125.642,-328.614 133.83,-335.337 136.236,-328.764"/>
</g>
<!-- ActionSearch&#45;&gt;ResourceProgression -->
<g id="edge24" class="edge"><title>ActionSearch&#45;&gt;ResourceProgression</title>
<path fill="none" stroke="black" d="M290.023,-365.124C298.766,-355.293 308.81,-342.325 314.881,-329 346.896,-258.732 350.329,-165.605 349.819,-120.018"/>
<polygon fill="black" stroke="black" points="353.313,-119.683 349.626,-109.751 346.314,-119.814 353.313,-119.683"/>
</g>
<!-- ActionProgression -->
<g id="node22" class="node"><title>ActionProgression</title>
<polygon fill="none" stroke="black" points="54.3808,-0.5 54.3808,-36.5 179.381,-36.5 179.381,-0.5 54.3808,-0.5"/>
<text text-anchor="start" x="62.3808" y="-14.8" font-family="Times New Roman,serif" font-size="14.00">Action Progression</text>
</g>
<!-- ActionSearch&#45;&gt;ActionProgression -->
<g id="edge25" class="edge"><title>ActionSearch&#45;&gt;ActionProgression</title>
<path fill="none" stroke="black" d="M234.388,-365.48C218.506,-356.686 201.204,-344.507 189.881,-329 125.652,-241.038 117.064,-104.841 116.504,-46.993"/>
<polygon fill="black" stroke="black" points="120.003,-46.8111 116.482,-36.8185 113.003,-46.8258 120.003,-46.8111"/>
</g>
<!-- RoutineTicker&#45;&gt;ActionInsertion -->
<g id="edge26" class="edge"><title>RoutineTicker&#45;&gt;ActionInsertion</title>
<path fill="none" stroke="black" d="M180.12,-365.313C192.619,-356.069 208.203,-344.543 221.739,-334.532"/>
<polygon fill="black" stroke="black" points="223.897,-337.289 229.856,-328.529 219.735,-331.661 223.897,-337.289"/>
</g>
<!-- RoutineTicker&#45;&gt;RoutineEditor -->
<g id="edge27" class="edge"><title>RoutineTicker&#45;&gt;RoutineEditor</title>
<path fill="none" stroke="black" d="M137.999,-365.313C128.131,-356.33 115.896,-345.193 105.121,-335.386"/>
<polygon fill="black" stroke="black" points="107.34,-332.672 97.5885,-328.529 102.628,-337.849 107.34,-332.672"/>
</g>
<!-- RoutineTicker&#45;&gt;ActionProgression -->
<g id="edge28" class="edge"><title>RoutineTicker&#45;&gt;ActionProgression</title>
<path fill="none" stroke="black" d="M106.613,-374.851C77.4402,-367.804 42.3305,-354.39 20.8808,-329 -5.64229,-297.605 1.88076,-279.599 1.88076,-238.5 1.88076,-238.5 1.88076,-238.5 1.88076,-163.5 1.88076,-111.737 47.8129,-67.8865 81.6199,-42.6217"/>
<polygon fill="black" stroke="black" points="83.8766,-45.3087 89.9184,-36.6053 79.7678,-39.6414 83.8766,-45.3087"/>
</g>
<!-- Interaction&#45;&gt;TaptoUse -->
<g id="edge29" class="edge"><title>Interaction&#45;&gt;TaptoUse</title>
<path fill="none" stroke="black" d="M527.587,-219.494C508.642,-209.817 484.718,-197.597 464.423,-187.23"/>
<polygon fill="black" stroke="black" points="465.882,-184.046 455.385,-182.614 462.698,-190.279 465.882,-184.046"/>
</g>
<!-- ActionInsertion&#45;&gt;TaptoMove -->
<g id="edge30" class="edge"><title>ActionInsertion&#45;&gt;TaptoMove</title>
<path fill="none" stroke="black" d="M293.36,-292.494C316.913,-282.599 346.795,-270.045 371.817,-259.533"/>
<polygon fill="black" stroke="black" points="373.282,-262.714 381.146,-255.614 370.571,-256.26 373.282,-262.714"/>
</g>
<!-- ActionInsertion&#45;&gt;TaptoUse -->
<g id="edge31" class="edge"><title>ActionInsertion&#45;&gt;TaptoUse</title>
<path fill="none" stroke="black" d="M234.726,-292.191C216.766,-272.949 194.31,-241.608 211.881,-219 231.279,-194.041 315.694,-178.797 371.413,-171.268"/>
<polygon fill="black" stroke="black" points="372,-174.721 381.461,-169.951 371.091,-167.78 372,-174.721"/>
</g>
<!-- ActionInsertion&#45;&gt;PickandPlace -->
<g id="edge32" class="edge"><title>ActionInsertion&#45;&gt;PickandPlace</title>
<path fill="none" stroke="black" d="M257.238,-292.313C259.294,-284.202 261.796,-274.336 264.092,-265.277"/>
<polygon fill="black" stroke="black" points="267.499,-266.082 266.564,-255.529 260.713,-264.362 267.499,-266.082"/>
</g>
<!-- ActionInsertion&#45;&gt;ActionProgression -->
<g id="edge33" class="edge"><title>ActionInsertion&#45;&gt;ActionProgression</title>
<path fill="none" stroke="black" d="M232.855,-292.295C222.469,-282.513 210.242,-269.538 201.881,-256 179.42,-219.632 141.548,-100.391 125.013,-46.4408"/>
<polygon fill="black" stroke="black" points="128.266,-45.1093 122.001,-36.5651 121.571,-47.1512 128.266,-45.1093"/>
</g>
<!-- TaptoMove&#45;&gt;TaptoUse -->
<g id="edge34" class="edge"><title>TaptoMove&#45;&gt;TaptoUse</title>
<path fill="none" stroke="black" d="M421.881,-219.313C421.881,-211.289 421.881,-201.547 421.881,-192.569"/>
<polygon fill="black" stroke="black" points="425.381,-192.529 421.881,-182.529 418.381,-192.529 425.381,-192.529"/>
</g>
<!-- TaptoUse&#45;&gt;ResourceProgression -->
<g id="edge35" class="edge"><title>TaptoUse&#45;&gt;ResourceProgression</title>
<path fill="none" stroke="black" d="M404.21,-146.313C395.063,-137.417 383.745,-126.409 373.733,-116.672"/>
<polygon fill="black" stroke="black" points="375.998,-113.992 366.389,-109.529 371.118,-119.01 375.998,-113.992"/>
</g>
<!-- PickandPlace&#45;&gt;ResourceProgression -->
<g id="edge36" class="edge"><title>PickandPlace&#45;&gt;ResourceProgression</title>
<path fill="none" stroke="black" d="M280.135,-219.416C293.68,-194.408 319.013,-147.64 334.856,-118.392"/>
<polygon fill="black" stroke="black" points="337.954,-120.022 339.639,-109.562 331.798,-116.688 337.954,-120.022"/>
</g>
<!-- RoutineEditor&#45;&gt;ResourceProgression -->
<g id="edge37" class="edge"><title>RoutineEditor&#45;&gt;ResourceProgression</title>
<path fill="none" stroke="black" d="M100.067,-292.472C147.957,-253.983 264.635,-160.209 319.479,-116.13"/>
<polygon fill="black" stroke="black" points="321.817,-118.741 327.419,-109.749 317.432,-113.285 321.817,-118.741"/>
</g>
<!-- RoutineEditor&#45;&gt;ActionProgression -->
<g id="edge38" class="edge"><title>RoutineEditor&#45;&gt;ActionProgression</title>
<path fill="none" stroke="black" d="M79.7037,-292.455C81.7873,-253.379 88.1858,-154.431 102.881,-73 104.457,-64.2677 106.719,-54.8674 108.968,-46.4197"/>
<polygon fill="black" stroke="black" points="112.364,-47.2677 111.656,-36.6966 105.617,-45.4024 112.364,-47.2677"/>
</g>
<!-- ResourceProgression&#45;&gt;ActionProgression -->
<g id="edge39" class="edge"><title>ResourceProgression&#45;&gt;ActionProgression</title>
<path fill="none" stroke="black" d="M293.311,-73.4937C259.982,-63.2939 217.419,-50.2682 182.449,-39.5662"/>
<polygon fill="black" stroke="black" points="183.388,-36.1932 172.801,-36.6136 181.339,-42.8868 183.388,-36.1932"/>
</g>
</g>
</svg>
