<?xml version="1.0" encoding="UTF-8" standalone="no"?>
<!DOCTYPE svg PUBLIC "-//W3C//DTD SVG 1.1//EN"
 "http://www.w3.org/Graphics/SVG/1.1/DTD/svg11.dtd">
<!-- Generated by graphviz version 2.38.0 (20140413.2041)
 -->
<!-- Title: %3 Pages: 1 -->
<svg width="385pt" height="337pt"
 viewBox="0.00 0.00 384.50 337.00" xmlns="http://www.w3.org/2000/svg" xmlns:xlink="http://www.w3.org/1999/xlink">
<g id="graph0" class="graph" transform="scale(1 1) rotate(0) translate(4 333)">
<title>%3</title>
<polygon fill="white" stroke="none" points="-4,4 -4,-333 380.5,-333 380.5,4 -4,4"/>
<!-- Brainstorm -->
<g id="node1" class="node"><title>Brainstorm</title>
<polygon fill="none" stroke="gray" points="132,-292.5 132,-328.5 214,-328.5 214,-292.5 132,-292.5"/>
<text text-anchor="start" x="140" y="-314.3" font-family="Times New Roman,serif" font-size="14.00" fill="gray">Brainstorm </text>
<text text-anchor="start" x="143.5" y="-300.3" font-family="Times New Roman,serif" font-size="14.00" fill="gray"> </text>
<text text-anchor="start" x="147.5" y="-300.3" font-family="Times New Roman,serif" font-style="italic" font-size="14.00" fill="gray">Complete</text>
</g>
<!-- SpecifyFormat -->
<g id="node2" class="node"><title>SpecifyFormat</title>
<polygon fill="none" stroke="gray" points="119.5,-219.5 119.5,-255.5 226.5,-255.5 226.5,-219.5 119.5,-219.5"/>
<text text-anchor="start" x="127.5" y="-241.3" font-family="Times New Roman,serif" font-size="14.00" fill="gray">Specify Format </text>
<text text-anchor="start" x="143.5" y="-227.3" font-family="Times New Roman,serif" font-size="14.00" fill="gray"> </text>
<text text-anchor="start" x="147.5" y="-227.3" font-family="Times New Roman,serif" font-style="italic" font-size="14.00" fill="gray">Complete</text>
</g>
<!-- Brainstorm&#45;&gt;SpecifyFormat -->
<g id="edge1" class="edge"><title>Brainstorm&#45;&gt;SpecifyFormat</title>
<path fill="none" stroke="black" d="M173,-292.313C173,-284.289 173,-274.547 173,-265.569"/>
<polygon fill="black" stroke="black" points="176.5,-265.529 173,-255.529 169.5,-265.529 176.5,-265.529"/>
</g>
<!-- AbbreviationResolver -->
<g id="node3" class="node"><title>AbbreviationResolver</title>
<polygon fill="none" stroke="gray" points="11,-146.5 11,-182.5 157,-182.5 157,-146.5 11,-146.5"/>
<text text-anchor="start" x="19" y="-168.3" font-family="Times New Roman,serif" font-size="14.00" fill="gray">Abbreviation Resolver </text>
<text text-anchor="start" x="54.5" y="-154.3" font-family="Times New Roman,serif" font-size="14.00" fill="gray"> </text>
<text text-anchor="start" x="58.5" y="-154.3" font-family="Times New Roman,serif" font-style="italic" font-size="14.00" fill="gray">Complete</text>
</g>
<!-- SpecifyFormat&#45;&gt;AbbreviationResolver -->
<g id="edge2" class="edge"><title>SpecifyFormat&#45;&gt;AbbreviationResolver</title>
<path fill="none" stroke="black" d="M151.456,-219.313C139.977,-210.156 125.692,-198.76 113.227,-188.816"/>
<polygon fill="black" stroke="black" points="115.346,-186.029 105.346,-182.529 110.981,-191.501 115.346,-186.029"/>
</g>
<!-- ImplementParser -->
<g id="node5" class="node"><title>ImplementParser</title>
<polygon fill="none" stroke="gray" points="204,-146.5 204,-182.5 322,-182.5 322,-146.5 204,-146.5"/>
<text text-anchor="start" x="212" y="-168.3" font-family="Times New Roman,serif" font-size="14.00" fill="gray">Implement Parser </text>
<text text-anchor="start" x="233.5" y="-154.3" font-family="Times New Roman,serif" font-size="14.00" fill="gray"> </text>
<text text-anchor="start" x="237.5" y="-154.3" font-family="Times New Roman,serif" font-style="italic" font-size="14.00" fill="gray">Complete</text>
</g>
<!-- SpecifyFormat&#45;&gt;ImplementParser -->
<g id="edge3" class="edge"><title>SpecifyFormat&#45;&gt;ImplementParser</title>
<path fill="none" stroke="black" d="M194.786,-219.313C206.394,-210.156 220.839,-198.76 233.445,-188.816"/>
<polygon fill="black" stroke="black" points="235.731,-191.47 241.414,-182.529 231.395,-185.975 235.731,-191.47"/>
</g>
<!-- DOTGenerator -->
<g id="node4" class="node"><title>DOTGenerator</title>
<polygon fill="none" stroke="gray" points="14.5,-73.5 14.5,-109.5 123.5,-109.5 123.5,-73.5 14.5,-73.5"/>
<text text-anchor="start" x="22.5" y="-95.3" font-family="Times New Roman,serif" font-size="14.00" fill="gray">DOT Generator </text>
<text text-anchor="start" x="39.5" y="-81.3" font-family="Times New Roman,serif" font-size="14.00" fill="gray"> </text>
<text text-anchor="start" x="43.5" y="-81.3" font-family="Times New Roman,serif" font-style="italic" font-size="14.00" fill="gray">Complete</text>
</g>
<!-- AbbreviationResolver&#45;&gt;DOTGenerator -->
<g id="edge4" class="edge"><title>AbbreviationResolver&#45;&gt;DOTGenerator</title>
<path fill="none" stroke="black" d="M80.3689,-146.313C78.6738,-138.289 76.6157,-128.547 74.7188,-119.569"/>
<polygon fill="black" stroke="black" points="78.0892,-118.589 72.5976,-109.529 71.2404,-120.036 78.0892,-118.589"/>
</g>
<!-- CommandLineInterface -->
<g id="node6" class="node"><title>CommandLineInterface</title>
<polygon fill="none" stroke="black" points="217.5,-0.5 217.5,-36.5 376.5,-36.5 376.5,-0.5 217.5,-0.5"/>
<text text-anchor="start" x="225.5" y="-22.3" font-family="Times New Roman,serif" font-size="14.00">Command Line Interface </text>
<text text-anchor="start" x="261.5" y="-8.3" font-family="Times New Roman,serif" font-size="14.00"> </text>
<text text-anchor="start" x="265.5" y="-8.3" font-family="Times New Roman,serif" font-style="italic" font-size="14.00">In Progress</text>
</g>
<!-- DOTGenerator&#45;&gt;CommandLineInterface -->
<g id="edge5" class="edge"><title>DOTGenerator&#45;&gt;CommandLineInterface</title>
<path fill="none" stroke="black" d="M123.612,-73.4937C156.226,-63.3375 197.838,-50.3795 232.121,-39.7035"/>
<polygon fill="black" stroke="black" points="233.537,-42.9286 242.044,-36.6136 231.455,-36.2451 233.537,-42.9286"/>
</g>
<!-- Arcs -->
<g id="node7" class="node"><title>Arcs</title>
<polygon fill="none" stroke="black" points="0,-0.5 0,-36.5 54,-36.5 54,-0.5 0,-0.5"/>
<text text-anchor="middle" x="27" y="-14.8" font-family="Times New Roman,serif" font-size="14.00">Arcs</text>
</g>
<!-- DOTGenerator&#45;&gt;Arcs -->
<g id="edge6" class="edge"><title>DOTGenerator&#45;&gt;Arcs</title>
<path fill="none" stroke="black" d="M58.833,-73.3129C53.8804,-64.9407 47.8208,-54.6971 42.3227,-45.4026"/>
<polygon fill="black" stroke="black" points="45.1772,-43.3537 37.0734,-36.5288 39.1524,-46.9177 45.1772,-43.3537"/>
</g>
<!-- SideTasks -->
<g id="node9" class="node"><title>SideTasks</title>
<polygon fill="none" stroke="black" points="72.5,-0.5 72.5,-36.5 151.5,-36.5 151.5,-0.5 72.5,-0.5"/>
<text text-anchor="start" x="80.5" y="-14.8" font-family="Times New Roman,serif" font-size="14.00">Side Tasks</text>
</g>
<!-- DOTGenerator&#45;&gt;SideTasks -->
<g id="edge7" class="edge"><title>DOTGenerator&#45;&gt;SideTasks</title>
<path fill="none" stroke="black" d="M79.4091,-73.3129C84.5324,-64.8534 90.8128,-54.4835 96.4882,-45.1124"/>
<polygon fill="black" stroke="black" points="99.5001,-46.8956 101.687,-36.5288 93.5126,-43.2693 99.5001,-46.8956"/>
</g>
<!-- ImplementParser&#45;&gt;CommandLineInterface -->
<g id="edge8" class="edge"><title>ImplementParser&#45;&gt;CommandLineInterface</title>
<path fill="none" stroke="black" d="M292.976,-146.318C305.653,-137.293 319.07,-124.976 326,-110 335.721,-88.9927 326.077,-63.8299 315.374,-45.3757"/>
<polygon fill="black" stroke="black" points="318.2,-43.2924 309.947,-36.6491 312.256,-46.9892 318.2,-43.2924"/>
</g>
<!-- TaskLinks -->
<g id="node8" class="node"><title>TaskLinks</title>
<polygon fill="none" stroke="black" points="141.5,-73.5 141.5,-109.5 220.5,-109.5 220.5,-73.5 141.5,-73.5"/>
<text text-anchor="start" x="149.5" y="-87.8" font-family="Times New Roman,serif" font-size="14.00">Task Links</text>
</g>
<!-- ImplementParser&#45;&gt;TaskLinks -->
<g id="edge9" class="edge"><title>ImplementParser&#45;&gt;TaskLinks</title>
<path fill="none" stroke="black" d="M243.15,-146.313C232.675,-137.243 219.663,-125.977 208.257,-116.1"/>
<polygon fill="black" stroke="black" points="210.518,-113.429 200.667,-109.529 205.936,-118.721 210.518,-113.429"/>
</g>
<!-- References -->
<g id="node10" class="node"><title>References</title>
<polygon fill="none" stroke="black" points="238.5,-73.5 238.5,-109.5 317.5,-109.5 317.5,-73.5 238.5,-73.5"/>
<text text-anchor="middle" x="278" y="-87.8" font-family="Times New Roman,serif" font-size="14.00">References</text>
</g>
<!-- ImplementParser&#45;&gt;References -->
<g id="edge10" class="edge"><title>ImplementParser&#45;&gt;References</title>
<path fill="none" stroke="black" d="M266.631,-146.313C268.326,-138.289 270.384,-128.547 272.281,-119.569"/>
<polygon fill="black" stroke="black" points="275.76,-120.036 274.402,-109.529 268.911,-118.589 275.76,-120.036"/>
</g>
</g>
</svg>
