<?xml version="1.0" encoding="UTF-8" standalone="no"?>
<!DOCTYPE svg PUBLIC "-//W3C//DTD SVG 1.1//EN"
 "http://www.w3.org/Graphics/SVG/1.1/DTD/svg11.dtd">
<!-- Generated by graphviz version 2.38.0 (20140413.2041)
 -->
<!-- Title: %3 Pages: 1 -->
<svg width="685pt" height="483pt"
 viewBox="0.00 0.00 685.25 483.00" xmlns="http://www.w3.org/2000/svg" xmlns:xlink="http://www.w3.org/1999/xlink">
<g id="graph0" class="graph" transform="scale(1 1) rotate(0) translate(4 479)">
<title>%3</title>
<polygon fill="white" stroke="none" points="-4,4 -4,-479 681.254,-479 681.254,4 -4,4"/>
<!-- Renderer -->
<g id="node1" class="node"><title>Renderer</title>
<polygon fill="none" stroke="gray" points="227.254,-438.5 227.254,-474.5 302.254,-474.5 302.254,-438.5 227.254,-438.5"/>
<text text-anchor="start" x="237.254" y="-460.3" font-family="Times New Roman,serif" font-size="14.00" fill="gray">Renderer </text>
<text text-anchor="start" x="235.254" y="-446.3" font-family="Times New Roman,serif" font-size="14.00" fill="gray"> </text>
<text text-anchor="start" x="239.254" y="-446.3" font-family="Times New Roman,serif" font-style="italic" font-size="14.00" fill="gray">Complete</text>
</g>
<!-- Grid -->
<g id="node2" class="node"><title>Grid</title>
<polygon fill="none" stroke="gray" points="277.254,-365.5 277.254,-401.5 352.254,-401.5 352.254,-365.5 277.254,-365.5"/>
<text text-anchor="start" x="299.754" y="-387.3" font-family="Times New Roman,serif" font-size="14.00" fill="gray">Grid </text>
<text text-anchor="start" x="285.254" y="-373.3" font-family="Times New Roman,serif" font-size="14.00" fill="gray"> </text>
<text text-anchor="start" x="289.254" y="-373.3" font-family="Times New Roman,serif" font-style="italic" font-size="14.00" fill="gray">Complete</text>
</g>
<!-- Renderer&#45;&gt;Grid -->
<g id="edge1" class="edge"><title>Renderer&#45;&gt;Grid</title>
<path fill="none" stroke="black" d="M276.857,-438.313C282.876,-429.766 290.268,-419.269 296.921,-409.823"/>
<polygon fill="black" stroke="black" points="299.865,-411.72 302.761,-401.529 294.142,-407.69 299.865,-411.72"/>
</g>
<!-- Touch -->
<g id="node3" class="node"><title>Touch</title>
<polygon fill="none" stroke="black" points="172.254,-365.5 172.254,-401.5 259.254,-401.5 259.254,-365.5 172.254,-365.5"/>
<text text-anchor="start" x="195.254" y="-387.3" font-family="Times New Roman,serif" font-size="14.00">Touch </text>
<text text-anchor="start" x="180.254" y="-373.3" font-family="Times New Roman,serif" font-size="14.00"> </text>
<text text-anchor="start" x="184.254" y="-373.3" font-family="Times New Roman,serif" font-style="italic" font-size="14.00">In Progress</text>
</g>
<!-- Renderer&#45;&gt;Touch -->
<g id="edge2" class="edge"><title>Renderer&#45;&gt;Touch</title>
<path fill="none" stroke="black" d="M252.892,-438.313C246.994,-429.766 239.749,-419.269 233.23,-409.823"/>
<polygon fill="black" stroke="black" points="236.067,-407.771 227.506,-401.529 230.305,-411.747 236.067,-407.771"/>
</g>
<!-- Advancing -->
<g id="node4" class="node"><title>Advancing</title>
<polygon fill="none" stroke="black" points="300.254,-292.5 300.254,-328.5 377.254,-328.5 377.254,-292.5 300.254,-292.5"/>
<text text-anchor="middle" x="338.754" y="-306.8" font-family="Times New Roman,serif" font-size="14.00">Advancing</text>
</g>
<!-- Grid&#45;&gt;Advancing -->
<g id="edge3" class="edge"><title>Grid&#45;&gt;Advancing</title>
<path fill="none" stroke="black" d="M320.563,-365.313C323.305,-357.202 326.64,-347.336 329.702,-338.277"/>
<polygon fill="black" stroke="black" points="333.111,-339.123 332.997,-328.529 326.479,-336.881 333.111,-339.123"/>
</g>
<!-- BlockDragging -->
<g id="node6" class="node"><title>BlockDragging</title>
<polygon fill="none" stroke="black" points="139.754,-292.5 139.754,-328.5 243.754,-328.5 243.754,-292.5 139.754,-292.5"/>
<text text-anchor="start" x="147.754" y="-306.8" font-family="Times New Roman,serif" font-size="14.00">Block Dragging</text>
</g>
<!-- Grid&#45;&gt;BlockDragging -->
<g id="edge4" class="edge"><title>Grid&#45;&gt;BlockDragging</title>
<path fill="none" stroke="black" d="M285.292,-365.494C268.83,-355.991 248.119,-344.036 230.373,-333.792"/>
<polygon fill="black" stroke="black" points="231.812,-330.582 221.401,-328.614 228.312,-336.644 231.812,-330.582"/>
</g>
<!-- Touch&#45;&gt;BlockDragging -->
<g id="edge5" class="edge"><title>Touch&#45;&gt;BlockDragging</title>
<path fill="none" stroke="black" d="M209.944,-365.313C207.202,-357.202 203.867,-347.336 200.805,-338.277"/>
<polygon fill="black" stroke="black" points="204.028,-336.881 197.51,-328.529 197.396,-339.123 204.028,-336.881"/>
</g>
<!-- IntentionalAdvance -->
<g id="node9" class="node"><title>IntentionalAdvance</title>
<polygon fill="none" stroke="black" points="241.754,-219.5 241.754,-255.5 369.754,-255.5 369.754,-219.5 241.754,-219.5"/>
<text text-anchor="start" x="249.754" y="-233.8" font-family="Times New Roman,serif" font-size="14.00">Intentional Advance</text>
</g>
<!-- Touch&#45;&gt;IntentionalAdvance -->
<g id="edge6" class="edge"><title>Touch&#45;&gt;IntentionalAdvance</title>
<path fill="none" stroke="black" d="M228.086,-365.374C235.445,-354.983 244.863,-341.38 252.754,-329 266.337,-307.687 280.772,-282.88 291.141,-264.634"/>
<polygon fill="black" stroke="black" points="294.293,-266.172 296.167,-255.744 288.199,-262.727 294.293,-266.172"/>
</g>
<!-- NewRows -->
<g id="node5" class="node"><title>NewRows</title>
<polygon fill="none" stroke="black" points="388.254,-219.5 388.254,-255.5 467.254,-255.5 467.254,-219.5 388.254,-219.5"/>
<text text-anchor="start" x="396.254" y="-233.8" font-family="Times New Roman,serif" font-size="14.00">New Rows</text>
</g>
<!-- Advancing&#45;&gt;NewRows -->
<g id="edge7" class="edge"><title>Advancing&#45;&gt;NewRows</title>
<path fill="none" stroke="black" d="M360.298,-292.313C371.777,-283.156 386.061,-271.76 398.527,-261.816"/>
<polygon fill="black" stroke="black" points="400.773,-264.501 406.408,-255.529 396.408,-259.029 400.773,-264.501"/>
</g>
<!-- Advancing&#45;&gt;IntentionalAdvance -->
<g id="edge8" class="edge"><title>Advancing&#45;&gt;IntentionalAdvance</title>
<path fill="none" stroke="black" d="M330.765,-292.313C326.914,-284.028 322.212,-273.91 317.928,-264.693"/>
<polygon fill="black" stroke="black" points="321.057,-263.122 313.668,-255.529 314.709,-266.072 321.057,-263.122"/>
</g>
<!-- Lose -->
<g id="node14" class="node"><title>Lose</title>
<polygon fill="none" stroke="black" points="393.754,-146.5 393.754,-182.5 447.754,-182.5 447.754,-146.5 393.754,-146.5"/>
<text text-anchor="middle" x="420.754" y="-160.8" font-family="Times New Roman,serif" font-size="14.00">Lose</text>
</g>
<!-- NewRows&#45;&gt;Lose -->
<g id="edge9" class="edge"><title>NewRows&#45;&gt;Lose</title>
<path fill="none" stroke="black" d="M426.059,-219.313C425.268,-211.289 424.308,-201.547 423.422,-192.569"/>
<polygon fill="black" stroke="black" points="426.897,-192.137 422.433,-182.529 419.931,-192.824 426.897,-192.137"/>
</g>
<!-- Matches -->
<g id="node7" class="node"><title>Matches</title>
<polygon fill="none" stroke="black" points="159.754,-219.5 159.754,-255.5 223.754,-255.5 223.754,-219.5 159.754,-219.5"/>
<text text-anchor="middle" x="191.754" y="-233.8" font-family="Times New Roman,serif" font-size="14.00">Matches</text>
</g>
<!-- BlockDragging&#45;&gt;Matches -->
<g id="edge10" class="edge"><title>BlockDragging&#45;&gt;Matches</title>
<path fill="none" stroke="black" d="M191.754,-292.313C191.754,-284.289 191.754,-274.547 191.754,-265.569"/>
<polygon fill="black" stroke="black" points="195.254,-265.529 191.754,-255.529 188.254,-265.529 195.254,-265.529"/>
</g>
<!-- Falling -->
<g id="node8" class="node"><title>Falling</title>
<polygon fill="none" stroke="black" points="48.7536,-219.5 48.7536,-255.5 102.754,-255.5 102.754,-219.5 48.7536,-219.5"/>
<text text-anchor="middle" x="75.7536" y="-233.8" font-family="Times New Roman,serif" font-size="14.00">Falling</text>
</g>
<!-- BlockDragging&#45;&gt;Falling -->
<g id="edge11" class="edge"><title>BlockDragging&#45;&gt;Falling</title>
<path fill="none" stroke="black" d="M163.969,-292.494C148.36,-282.94 128.701,-270.907 111.904,-260.627"/>
<polygon fill="black" stroke="black" points="113.268,-257.358 102.912,-255.123 109.614,-263.328 113.268,-257.358"/>
</g>
<!-- StopClock -->
<g id="node10" class="node"><title>StopClock</title>
<polygon fill="none" stroke="black" points="279.254,-146.5 279.254,-182.5 360.254,-182.5 360.254,-146.5 279.254,-146.5"/>
<text text-anchor="start" x="287.254" y="-160.8" font-family="Times New Roman,serif" font-size="14.00">Stop Clock</text>
</g>
<!-- Matches&#45;&gt;StopClock -->
<g id="edge12" class="edge"><title>Matches&#45;&gt;StopClock</title>
<path fill="none" stroke="black" d="M222.413,-219.494C239.701,-209.904 261.492,-197.817 280.072,-187.511"/>
<polygon fill="black" stroke="black" points="281.854,-190.525 288.901,-182.614 278.458,-184.404 281.854,-190.525"/>
</g>
<!-- ClearAnimation -->
<g id="node12" class="node"><title>ClearAnimation</title>
<polygon fill="none" stroke="black" points="154.254,-146.5 154.254,-182.5 261.254,-182.5 261.254,-146.5 154.254,-146.5"/>
<text text-anchor="start" x="162.254" y="-160.8" font-family="Times New Roman,serif" font-size="14.00">Clear Animation</text>
</g>
<!-- Matches&#45;&gt;ClearAnimation -->
<g id="edge13" class="edge"><title>Matches&#45;&gt;ClearAnimation</title>
<path fill="none" stroke="black" d="M195.627,-219.313C197.435,-211.289 199.63,-201.547 201.654,-192.569"/>
<polygon fill="black" stroke="black" points="205.132,-193.054 203.916,-182.529 198.303,-191.515 205.132,-193.054"/>
</g>
<!-- TumbleAnimation -->
<g id="node11" class="node"><title>TumbleAnimation</title>
<polygon fill="none" stroke="black" points="15.7536,-146.5 15.7536,-182.5 135.754,-182.5 135.754,-146.5 15.7536,-146.5"/>
<text text-anchor="start" x="23.7536" y="-160.8" font-family="Times New Roman,serif" font-size="14.00">Tumble Animation</text>
</g>
<!-- Falling&#45;&gt;TumbleAnimation -->
<g id="edge14" class="edge"><title>Falling&#45;&gt;TumbleAnimation</title>
<path fill="none" stroke="black" d="M75.7536,-219.313C75.7536,-211.289 75.7536,-201.547 75.7536,-192.569"/>
<polygon fill="black" stroke="black" points="79.2537,-192.529 75.7536,-182.529 72.2537,-192.529 79.2537,-192.529"/>
</g>
<!-- Combo -->
<g id="node13" class="node"><title>Combo</title>
<polygon fill="none" stroke="black" points="214.254,-73.5 214.254,-109.5 273.254,-109.5 273.254,-73.5 214.254,-73.5"/>
<text text-anchor="middle" x="243.754" y="-87.8" font-family="Times New Roman,serif" font-size="14.00">Combo</text>
</g>
<!-- Falling&#45;&gt;Combo -->
<g id="edge15" class="edge"><title>Falling&#45;&gt;Combo</title>
<path fill="none" stroke="black" d="M48.716,-223.444C33.3546,-214.423 15.4914,-200.831 6.75362,-183 -0.482402,-168.233 -3.51464,-158.845 6.75362,-146 31.0295,-115.633 143.227,-101.259 204.141,-95.5912"/>
<polygon fill="black" stroke="black" points="204.523,-99.0711 214.172,-94.6935 203.899,-92.099 204.523,-99.0711"/>
</g>
<!-- StopClock&#45;&gt;Combo -->
<g id="edge16" class="edge"><title>StopClock&#45;&gt;Combo</title>
<path fill="none" stroke="black" d="M301.356,-146.313C291.741,-137.33 279.82,-126.193 269.321,-116.386"/>
<polygon fill="black" stroke="black" points="271.678,-113.798 261.982,-109.529 266.9,-118.913 271.678,-113.798"/>
</g>
<!-- ClearAnimation&#45;&gt;Combo -->
<g id="edge17" class="edge"><title>ClearAnimation&#45;&gt;Combo</title>
<path fill="none" stroke="black" d="M216.468,-146.313C220.669,-138.028 225.799,-127.91 230.472,-118.693"/>
<polygon fill="black" stroke="black" points="233.719,-120.031 235.119,-109.529 227.475,-116.865 233.719,-120.031"/>
</g>
<!-- Garbage -->
<g id="node21" class="node"><title>Garbage</title>
<polygon fill="none" stroke="black" points="381.754,-0.5 381.754,-36.5 445.754,-36.5 445.754,-0.5 381.754,-0.5"/>
<text text-anchor="middle" x="413.754" y="-14.8" font-family="Times New Roman,serif" font-size="14.00">Garbage</text>
</g>
<!-- Combo&#45;&gt;Garbage -->
<g id="edge18" class="edge"><title>Combo&#45;&gt;Garbage</title>
<path fill="none" stroke="black" d="M273.365,-78.1327C300.662,-66.7323 341.458,-49.6942 372.047,-36.9185"/>
<polygon fill="black" stroke="black" points="373.712,-40.0164 381.591,-32.9328 371.014,-33.5571 373.712,-40.0164"/>
</g>
<!-- DangerAnimation -->
<g id="node15" class="node"><title>DangerAnimation</title>
<polygon fill="none" stroke="black" points="328.254,-73.5 328.254,-109.5 445.254,-109.5 445.254,-73.5 328.254,-73.5"/>
<text text-anchor="start" x="336.254" y="-87.8" font-family="Times New Roman,serif" font-size="14.00">Danger Animation</text>
</g>
<!-- Lose&#45;&gt;DangerAnimation -->
<g id="edge19" class="edge"><title>Lose&#45;&gt;DangerAnimation</title>
<path fill="none" stroke="black" d="M412.523,-146.313C408.556,-138.028 403.711,-127.91 399.297,-118.693"/>
<polygon fill="black" stroke="black" points="402.384,-117.036 394.908,-109.529 396.071,-120.06 402.384,-117.036"/>
</g>
<!-- Replay -->
<g id="node23" class="node"><title>Replay</title>
<polygon fill="none" stroke="black" points="463.754,-73.5 463.754,-109.5 519.754,-109.5 519.754,-73.5 463.754,-73.5"/>
<text text-anchor="middle" x="491.754" y="-87.8" font-family="Times New Roman,serif" font-size="14.00">Replay</text>
</g>
<!-- Lose&#45;&gt;Replay -->
<g id="edge20" class="edge"><title>Lose&#45;&gt;Replay</title>
<path fill="none" stroke="black" d="M437.941,-146.313C446.836,-137.417 457.844,-126.409 467.582,-116.672"/>
<polygon fill="black" stroke="black" points="470.129,-119.075 474.725,-109.529 465.179,-114.125 470.129,-119.075"/>
</g>
<!-- Server -->
<g id="node16" class="node"><title>Server</title>
<polygon fill="none" stroke="black" points="557.754,-438.5 557.754,-474.5 611.754,-474.5 611.754,-438.5 557.754,-438.5"/>
<text text-anchor="middle" x="584.754" y="-452.8" font-family="Times New Roman,serif" font-size="14.00">Server</text>
</g>
<!-- Host -->
<g id="node17" class="node"><title>Host</title>
<polygon fill="none" stroke="black" points="511.754,-365.5 511.754,-401.5 565.754,-401.5 565.754,-365.5 511.754,-365.5"/>
<text text-anchor="middle" x="538.754" y="-379.8" font-family="Times New Roman,serif" font-size="14.00">Host</text>
</g>
<!-- Server&#45;&gt;Host -->
<g id="edge21" class="edge"><title>Server&#45;&gt;Host</title>
<path fill="none" stroke="black" d="M573.618,-438.313C568.138,-429.853 561.419,-419.484 555.348,-410.112"/>
<polygon fill="black" stroke="black" points="558.161,-408.018 549.786,-401.529 552.286,-411.824 558.161,-408.018"/>
</g>
<!-- Disconnected -->
<g id="node19" class="node"><title>Disconnected</title>
<polygon fill="none" stroke="black" points="584.254,-365.5 584.254,-401.5 677.254,-401.5 677.254,-365.5 584.254,-365.5"/>
<text text-anchor="middle" x="630.754" y="-379.8" font-family="Times New Roman,serif" font-size="14.00">Disconnected</text>
</g>
<!-- Server&#45;&gt;Disconnected -->
<g id="edge22" class="edge"><title>Server&#45;&gt;Disconnected</title>
<path fill="none" stroke="black" d="M595.889,-438.313C601.37,-429.853 608.088,-419.484 614.16,-410.112"/>
<polygon fill="black" stroke="black" points="617.221,-411.824 619.721,-401.529 611.346,-408.018 617.221,-411.824"/>
</g>
<!-- Join -->
<g id="node18" class="node"><title>Join</title>
<polygon fill="none" stroke="black" points="539.754,-292.5 539.754,-328.5 593.754,-328.5 593.754,-292.5 539.754,-292.5"/>
<text text-anchor="middle" x="566.754" y="-306.8" font-family="Times New Roman,serif" font-size="14.00">Join</text>
</g>
<!-- Host&#45;&gt;Join -->
<g id="edge23" class="edge"><title>Host&#45;&gt;Join</title>
<path fill="none" stroke="black" d="M545.532,-365.313C548.765,-357.115 552.705,-347.123 556.309,-337.985"/>
<polygon fill="black" stroke="black" points="559.625,-339.116 560.038,-328.529 553.113,-336.548 559.625,-339.116"/>
</g>
<!-- ShareState -->
<g id="node20" class="node"><title>ShareState</title>
<polygon fill="none" stroke="black" points="499.754,-219.5 499.754,-255.5 579.754,-255.5 579.754,-219.5 499.754,-219.5"/>
<text text-anchor="start" x="507.754" y="-233.8" font-family="Times New Roman,serif" font-size="14.00">Share State</text>
</g>
<!-- Host&#45;&gt;ShareState -->
<g id="edge24" class="edge"><title>Host&#45;&gt;ShareState</title>
<path fill="none" stroke="black" d="M535.505,-365.225C533.708,-354.781 531.659,-341.175 530.754,-329 529.534,-312.601 529.385,-308.387 530.754,-292 531.47,-283.421 532.822,-274.147 534.265,-265.769"/>
<polygon fill="black" stroke="black" points="537.74,-266.223 536.1,-255.755 530.855,-264.961 537.74,-266.223"/>
</g>
<!-- Join&#45;&gt;ShareState -->
<g id="edge25" class="edge"><title>Join&#45;&gt;ShareState</title>
<path fill="none" stroke="black" d="M560.218,-292.313C557.1,-284.115 553.3,-274.123 549.825,-264.985"/>
<polygon fill="black" stroke="black" points="553.055,-263.632 546.229,-255.529 546.512,-266.12 553.055,-263.632"/>
</g>
<!-- ShareState&#45;&gt;Garbage -->
<g id="edge26" class="edge"><title>ShareState&#45;&gt;Garbage</title>
<path fill="none" stroke="black" d="M543.829,-219.399C550.391,-187.49 559.653,-118.043 528.754,-73 512.039,-48.634 481.25,-35.1125 455.734,-27.7615"/>
<polygon fill="black" stroke="black" points="456.46,-24.3331 445.897,-25.1493 454.664,-31.0986 456.46,-24.3331"/>
</g>
<!-- Win -->
<g id="node22" class="node"><title>Win</title>
<polygon fill="none" stroke="black" points="465.754,-146.5 465.754,-182.5 519.754,-182.5 519.754,-146.5 465.754,-146.5"/>
<text text-anchor="middle" x="492.754" y="-160.8" font-family="Times New Roman,serif" font-size="14.00">Win</text>
</g>
<!-- ShareState&#45;&gt;Win -->
<g id="edge27" class="edge"><title>ShareState&#45;&gt;Win</title>
<path fill="none" stroke="black" d="M528.376,-219.313C522.776,-210.853 515.912,-200.484 509.708,-191.112"/>
<polygon fill="black" stroke="black" points="512.465,-188.935 504.026,-182.529 506.628,-192.799 512.465,-188.935"/>
</g>
<!-- Win&#45;&gt;Replay -->
<g id="edge28" class="edge"><title>Win&#45;&gt;Replay</title>
<path fill="none" stroke="black" d="M492.512,-146.313C492.399,-138.289 492.261,-128.547 492.135,-119.569"/>
<polygon fill="black" stroke="black" points="495.634,-119.479 491.993,-109.529 488.635,-119.577 495.634,-119.479"/>
</g>
</g>
</svg>
