<?xml version="1.0" encoding="UTF-8" standalone="no"?>
<!DOCTYPE svg PUBLIC "-//W3C//DTD SVG 1.1//EN"
 "http://www.w3.org/Graphics/SVG/1.1/DTD/svg11.dtd">
<!-- Generated by graphviz version 2.38.0 (20140413.2041)
 -->
<!-- Title: %3 Pages: 1 -->
<svg width="633pt" height="483pt"
 viewBox="0.00 0.00 633.00 483.00" xmlns="http://www.w3.org/2000/svg" xmlns:xlink="http://www.w3.org/1999/xlink">
<g id="graph0" class="graph" transform="scale(1 1) rotate(0) translate(4 479)">
<title>%3</title>
<polygon fill="white" stroke="none" points="-4,4 -4,-479 629,-479 629,4 -4,4"/>
<!-- Renderer -->
<g id="node1" class="node"><title>Renderer</title>
<polygon fill="none" stroke="gray" points="170,-438.5 170,-474.5 245,-474.5 245,-438.5 170,-438.5"/>
<text text-anchor="start" x="180" y="-460.3" font-family="Times New Roman,serif" font-size="14.00" fill="gray">Renderer </text>
<text text-anchor="start" x="178" y="-446.3" font-family="Times New Roman,serif" font-size="14.00" fill="gray"> </text>
<text text-anchor="start" x="182" y="-446.3" font-family="Times New Roman,serif" font-style="italic" font-size="14.00" fill="gray">Complete</text>
</g>
<!-- Grid -->
<g id="node2" class="node"><title>Grid</title>
<polygon fill="none" stroke="gray" points="217,-365.5 217,-401.5 292,-401.5 292,-365.5 217,-365.5"/>
<text text-anchor="start" x="239.5" y="-387.3" font-family="Times New Roman,serif" font-size="14.00" fill="gray">Grid </text>
<text text-anchor="start" x="225" y="-373.3" font-family="Times New Roman,serif" font-size="14.00" fill="gray"> </text>
<text text-anchor="start" x="229" y="-373.3" font-family="Times New Roman,serif" font-style="italic" font-size="14.00" fill="gray">Complete</text>
</g>
<!-- Renderer&#45;&gt;Grid -->
<g id="edge1" class="edge"><title>Renderer&#45;&gt;Grid</title>
<path fill="none" stroke="black" d="M218.877,-438.313C224.477,-429.853 231.342,-419.484 237.545,-410.112"/>
<polygon fill="black" stroke="black" points="240.626,-411.799 243.227,-401.529 234.789,-407.935 240.626,-411.799"/>
</g>
<!-- Touch -->
<g id="node3" class="node"><title>Touch</title>
<polygon fill="none" stroke="gray" points="124,-365.5 124,-401.5 199,-401.5 199,-365.5 124,-365.5"/>
<text text-anchor="start" x="141" y="-387.3" font-family="Times New Roman,serif" font-size="14.00" fill="gray">Touch </text>
<text text-anchor="start" x="132" y="-373.3" font-family="Times New Roman,serif" font-size="14.00" fill="gray"> </text>
<text text-anchor="start" x="136" y="-373.3" font-family="Times New Roman,serif" font-style="italic" font-size="14.00" fill="gray">Complete</text>
</g>
<!-- Renderer&#45;&gt;Touch -->
<g id="edge2" class="edge"><title>Renderer&#45;&gt;Touch</title>
<path fill="none" stroke="black" d="M196.365,-438.313C190.884,-429.853 184.165,-419.484 178.094,-410.112"/>
<polygon fill="black" stroke="black" points="180.908,-408.018 172.533,-401.529 175.033,-411.824 180.908,-408.018"/>
</g>
<!-- Advancing -->
<g id="node4" class="node"><title>Advancing</title>
<polygon fill="none" stroke="gray" points="243.5,-292.5 243.5,-328.5 323.5,-328.5 323.5,-292.5 243.5,-292.5"/>
<text text-anchor="start" x="251.5" y="-314.3" font-family="Times New Roman,serif" font-size="14.00" fill="gray">Advancing </text>
<text text-anchor="start" x="254" y="-300.3" font-family="Times New Roman,serif" font-size="14.00" fill="gray"> </text>
<text text-anchor="start" x="258" y="-300.3" font-family="Times New Roman,serif" font-style="italic" font-size="14.00" fill="gray">Complete</text>
</g>
<!-- Grid&#45;&gt;Advancing -->
<g id="edge3" class="edge"><title>Grid&#45;&gt;Advancing</title>
<path fill="none" stroke="black" d="M261.52,-365.313C264.868,-357.115 268.95,-347.123 272.682,-337.985"/>
<polygon fill="black" stroke="black" points="276.003,-339.11 276.545,-328.529 269.523,-336.463 276.003,-339.11"/>
</g>
<!-- BlockDragging -->
<g id="node6" class="node"><title>BlockDragging</title>
<polygon fill="none" stroke="black" points="80,-292.5 80,-328.5 187,-328.5 187,-292.5 80,-292.5"/>
<text text-anchor="start" x="88" y="-314.3" font-family="Times New Roman,serif" font-size="14.00">Block Dragging </text>
<text text-anchor="start" x="98" y="-300.3" font-family="Times New Roman,serif" font-size="14.00"> </text>
<text text-anchor="start" x="102" y="-300.3" font-family="Times New Roman,serif" font-style="italic" font-size="14.00">In Progress</text>
</g>
<!-- Grid&#45;&gt;BlockDragging -->
<g id="edge4" class="edge"><title>Grid&#45;&gt;BlockDragging</title>
<path fill="none" stroke="black" d="M225.517,-365.494C209.323,-355.991 188.949,-344.036 171.491,-333.792"/>
<polygon fill="black" stroke="black" points="173.062,-330.656 162.665,-328.614 169.519,-336.693 173.062,-330.656"/>
</g>
<!-- Touch&#45;&gt;BlockDragging -->
<g id="edge5" class="edge"><title>Touch&#45;&gt;BlockDragging</title>
<path fill="none" stroke="black" d="M154.722,-365.313C151.489,-357.115 147.549,-347.123 143.945,-337.985"/>
<polygon fill="black" stroke="black" points="147.14,-336.548 140.216,-328.529 140.628,-339.116 147.14,-336.548"/>
</g>
<!-- IntentionalAdvance -->
<g id="node9" class="node"><title>IntentionalAdvance</title>
<polygon fill="none" stroke="black" points="184,-219.5 184,-255.5 315,-255.5 315,-219.5 184,-219.5"/>
<text text-anchor="start" x="192" y="-241.3" font-family="Times New Roman,serif" font-size="14.00">Intentional Advance </text>
<text text-anchor="start" x="214" y="-227.3" font-family="Times New Roman,serif" font-size="14.00"> </text>
<text text-anchor="start" x="218" y="-227.3" font-family="Times New Roman,serif" font-style="italic" font-size="14.00">In Progress</text>
</g>
<!-- Touch&#45;&gt;IntentionalAdvance -->
<g id="edge6" class="edge"><title>Touch&#45;&gt;IntentionalAdvance</title>
<path fill="none" stroke="black" d="M172.649,-365.23C179.347,-354.787 187.997,-341.181 195.5,-329 208.819,-307.377 223.57,-282.596 234.284,-264.439"/>
<polygon fill="black" stroke="black" points="237.431,-265.992 239.49,-255.6 231.4,-262.44 237.431,-265.992"/>
</g>
<!-- NewRows -->
<g id="node5" class="node"><title>NewRows</title>
<polygon fill="none" stroke="gray" points="333,-219.5 333,-255.5 416,-255.5 416,-219.5 333,-219.5"/>
<text text-anchor="start" x="341" y="-241.3" font-family="Times New Roman,serif" font-size="14.00" fill="gray">New Rows </text>
<text text-anchor="start" x="345" y="-227.3" font-family="Times New Roman,serif" font-size="14.00" fill="gray"> </text>
<text text-anchor="start" x="349" y="-227.3" font-family="Times New Roman,serif" font-style="italic" font-size="14.00" fill="gray">Complete</text>
</g>
<!-- Advancing&#45;&gt;NewRows -->
<g id="edge7" class="edge"><title>Advancing&#45;&gt;NewRows</title>
<path fill="none" stroke="black" d="M305.529,-292.313C317.265,-283.156 331.871,-271.76 344.616,-261.816"/>
<polygon fill="black" stroke="black" points="346.943,-264.44 352.674,-255.529 342.637,-258.921 346.943,-264.44"/>
</g>
<!-- Advancing&#45;&gt;IntentionalAdvance -->
<g id="edge8" class="edge"><title>Advancing&#45;&gt;IntentionalAdvance</title>
<path fill="none" stroke="black" d="M275.27,-292.313C271.302,-284.028 266.457,-273.91 262.043,-264.693"/>
<polygon fill="black" stroke="black" points="265.13,-263.036 257.655,-255.529 258.817,-266.06 265.13,-263.036"/>
</g>
<!-- Lose -->
<g id="node13" class="node"><title>Lose</title>
<polygon fill="none" stroke="black" points="340.5,-146.5 340.5,-182.5 394.5,-182.5 394.5,-146.5 340.5,-146.5"/>
<text text-anchor="middle" x="367.5" y="-160.8" font-family="Times New Roman,serif" font-size="14.00">Lose</text>
</g>
<!-- NewRows&#45;&gt;Lose -->
<g id="edge9" class="edge"><title>NewRows&#45;&gt;Lose</title>
<path fill="none" stroke="black" d="M372.805,-219.313C372.014,-211.289 371.054,-201.547 370.169,-192.569"/>
<polygon fill="black" stroke="black" points="373.643,-192.137 369.179,-182.529 366.677,-192.824 373.643,-192.137"/>
</g>
<!-- Matches -->
<g id="node7" class="node"><title>Matches</title>
<polygon fill="none" stroke="black" points="101.5,-219.5 101.5,-255.5 165.5,-255.5 165.5,-219.5 101.5,-219.5"/>
<text text-anchor="middle" x="133.5" y="-233.8" font-family="Times New Roman,serif" font-size="14.00">Matches</text>
</g>
<!-- BlockDragging&#45;&gt;Matches -->
<g id="edge10" class="edge"><title>BlockDragging&#45;&gt;Matches</title>
<path fill="none" stroke="black" d="M133.5,-292.313C133.5,-284.289 133.5,-274.547 133.5,-265.569"/>
<polygon fill="black" stroke="black" points="137,-265.529 133.5,-255.529 130,-265.529 137,-265.529"/>
</g>
<!-- Falling -->
<g id="node8" class="node"><title>Falling</title>
<polygon fill="none" stroke="black" points="0,-146.5 0,-182.5 87,-182.5 87,-146.5 0,-146.5"/>
<text text-anchor="start" x="23" y="-168.3" font-family="Times New Roman,serif" font-size="14.00">Falling </text>
<text text-anchor="start" x="8" y="-154.3" font-family="Times New Roman,serif" font-size="14.00"> </text>
<text text-anchor="start" x="12" y="-154.3" font-family="Times New Roman,serif" font-style="italic" font-size="14.00">In Progress</text>
</g>
<!-- BlockDragging&#45;&gt;Falling -->
<g id="edge11" class="edge"><title>BlockDragging&#45;&gt;Falling</title>
<path fill="none" stroke="black" d="M119.11,-292.177C110.897,-281.944 100.647,-268.569 92.5,-256 78.9287,-235.061 65.5819,-210.035 56.2535,-191.612"/>
<polygon fill="black" stroke="black" points="59.3672,-190.013 51.7618,-182.637 53.1073,-193.146 59.3672,-190.013"/>
</g>
<!-- StopClock -->
<g id="node10" class="node"><title>StopClock</title>
<polygon fill="none" stroke="black" points="105,-146.5 105,-182.5 186,-182.5 186,-146.5 105,-146.5"/>
<text text-anchor="start" x="113" y="-160.8" font-family="Times New Roman,serif" font-size="14.00">Stop Clock</text>
</g>
<!-- Matches&#45;&gt;StopClock -->
<g id="edge12" class="edge"><title>Matches&#45;&gt;StopClock</title>
<path fill="none" stroke="black" d="M136.405,-219.313C137.761,-211.289 139.407,-201.547 140.925,-192.569"/>
<polygon fill="black" stroke="black" points="144.406,-192.972 142.622,-182.529 137.504,-191.806 144.406,-192.972"/>
</g>
<!-- ClearAnimation -->
<g id="node11" class="node"><title>ClearAnimation</title>
<polygon fill="none" stroke="black" points="204,-146.5 204,-182.5 311,-182.5 311,-146.5 204,-146.5"/>
<text text-anchor="start" x="212" y="-160.8" font-family="Times New Roman,serif" font-size="14.00">Clear Animation</text>
</g>
<!-- Matches&#45;&gt;ClearAnimation -->
<g id="edge13" class="edge"><title>Matches&#45;&gt;ClearAnimation</title>
<path fill="none" stroke="black" d="M163.201,-219.494C179.797,-209.991 200.676,-198.036 218.567,-187.792"/>
<polygon fill="black" stroke="black" points="220.673,-190.62 227.611,-182.614 217.194,-184.545 220.673,-190.62"/>
</g>
<!-- Combo -->
<g id="node12" class="node"><title>Combo</title>
<polygon fill="none" stroke="black" points="157,-73.5 157,-109.5 216,-109.5 216,-73.5 157,-73.5"/>
<text text-anchor="middle" x="186.5" y="-87.8" font-family="Times New Roman,serif" font-size="14.00">Combo</text>
</g>
<!-- Falling&#45;&gt;Combo -->
<g id="edge14" class="edge"><title>Falling&#45;&gt;Combo</title>
<path fill="none" stroke="black" d="M77.7521,-146.494C98.8634,-136.012 125.986,-122.546 147.862,-111.684"/>
<polygon fill="black" stroke="black" points="149.484,-114.787 156.884,-107.205 146.371,-108.517 149.484,-114.787"/>
</g>
<!-- StopClock&#45;&gt;Combo -->
<g id="edge15" class="edge"><title>StopClock&#45;&gt;Combo</title>
<path fill="none" stroke="black" d="M155.425,-146.313C160.26,-137.941 166.175,-127.697 171.542,-118.403"/>
<polygon fill="black" stroke="black" points="174.697,-119.939 176.666,-109.529 168.635,-116.438 174.697,-119.939"/>
</g>
<!-- ClearAnimation&#45;&gt;Combo -->
<g id="edge16" class="edge"><title>ClearAnimation&#45;&gt;Combo</title>
<path fill="none" stroke="black" d="M240.313,-146.313C231.417,-137.417 220.409,-126.409 210.672,-116.672"/>
<polygon fill="black" stroke="black" points="213.075,-114.125 203.529,-109.529 208.125,-119.075 213.075,-114.125"/>
</g>
<!-- Garbage -->
<g id="node20" class="node"><title>Garbage</title>
<polygon fill="none" stroke="black" points="328.5,-0.5 328.5,-36.5 392.5,-36.5 392.5,-0.5 328.5,-0.5"/>
<text text-anchor="middle" x="360.5" y="-14.8" font-family="Times New Roman,serif" font-size="14.00">Garbage</text>
</g>
<!-- Combo&#45;&gt;Garbage -->
<g id="edge17" class="edge"><title>Combo&#45;&gt;Garbage</title>
<path fill="none" stroke="black" d="M216.017,-78.4558C244.311,-66.9106 287.286,-49.3746 319.017,-36.4269"/>
<polygon fill="black" stroke="black" points="320.538,-39.5864 328.475,-32.5677 317.894,-33.1052 320.538,-39.5864"/>
</g>
<!-- DangerAnimation -->
<g id="node14" class="node"><title>DangerAnimation</title>
<polygon fill="none" stroke="black" points="275,-73.5 275,-109.5 392,-109.5 392,-73.5 275,-73.5"/>
<text text-anchor="start" x="283" y="-87.8" font-family="Times New Roman,serif" font-size="14.00">Danger Animation</text>
</g>
<!-- Lose&#45;&gt;DangerAnimation -->
<g id="edge18" class="edge"><title>Lose&#45;&gt;DangerAnimation</title>
<path fill="none" stroke="black" d="M359.27,-146.313C355.302,-138.028 350.457,-127.91 346.043,-118.693"/>
<polygon fill="black" stroke="black" points="349.13,-117.036 341.655,-109.529 342.817,-120.06 349.13,-117.036"/>
</g>
<!-- Replay -->
<g id="node22" class="node"><title>Replay</title>
<polygon fill="none" stroke="black" points="410.5,-73.5 410.5,-109.5 466.5,-109.5 466.5,-73.5 410.5,-73.5"/>
<text text-anchor="middle" x="438.5" y="-87.8" font-family="Times New Roman,serif" font-size="14.00">Replay</text>
</g>
<!-- Lose&#45;&gt;Replay -->
<g id="edge19" class="edge"><title>Lose&#45;&gt;Replay</title>
<path fill="none" stroke="black" d="M384.687,-146.313C393.583,-137.417 404.591,-126.409 414.328,-116.672"/>
<polygon fill="black" stroke="black" points="416.875,-119.075 421.471,-109.529 411.925,-114.125 416.875,-119.075"/>
</g>
<!-- Server -->
<g id="node15" class="node"><title>Server</title>
<polygon fill="none" stroke="black" points="505.5,-438.5 505.5,-474.5 559.5,-474.5 559.5,-438.5 505.5,-438.5"/>
<text text-anchor="middle" x="532.5" y="-452.8" font-family="Times New Roman,serif" font-size="14.00">Server</text>
</g>
<!-- Host -->
<g id="node16" class="node"><title>Host</title>
<polygon fill="none" stroke="black" points="459.5,-365.5 459.5,-401.5 513.5,-401.5 513.5,-365.5 459.5,-365.5"/>
<text text-anchor="middle" x="486.5" y="-379.8" font-family="Times New Roman,serif" font-size="14.00">Host</text>
</g>
<!-- Server&#45;&gt;Host -->
<g id="edge20" class="edge"><title>Server&#45;&gt;Host</title>
<path fill="none" stroke="black" d="M521.365,-438.313C515.884,-429.853 509.165,-419.484 503.094,-410.112"/>
<polygon fill="black" stroke="black" points="505.908,-408.018 497.533,-401.529 500.033,-411.824 505.908,-408.018"/>
</g>
<!-- Disconnected -->
<g id="node18" class="node"><title>Disconnected</title>
<polygon fill="none" stroke="black" points="532,-365.5 532,-401.5 625,-401.5 625,-365.5 532,-365.5"/>
<text text-anchor="middle" x="578.5" y="-379.8" font-family="Times New Roman,serif" font-size="14.00">Disconnected</text>
</g>
<!-- Server&#45;&gt;Disconnected -->
<g id="edge21" class="edge"><title>Server&#45;&gt;Disconnected</title>
<path fill="none" stroke="black" d="M543.635,-438.313C549.116,-429.853 555.835,-419.484 561.906,-410.112"/>
<polygon fill="black" stroke="black" points="564.967,-411.824 567.467,-401.529 559.092,-408.018 564.967,-411.824"/>
</g>
<!-- Join -->
<g id="node17" class="node"><title>Join</title>
<polygon fill="none" stroke="black" points="487.5,-292.5 487.5,-328.5 541.5,-328.5 541.5,-292.5 487.5,-292.5"/>
<text text-anchor="middle" x="514.5" y="-306.8" font-family="Times New Roman,serif" font-size="14.00">Join</text>
</g>
<!-- Host&#45;&gt;Join -->
<g id="edge22" class="edge"><title>Host&#45;&gt;Join</title>
<path fill="none" stroke="black" d="M493.278,-365.313C496.511,-357.115 500.451,-347.123 504.055,-337.985"/>
<polygon fill="black" stroke="black" points="507.372,-339.116 507.784,-328.529 500.86,-336.548 507.372,-339.116"/>
</g>
<!-- ShareState -->
<g id="node19" class="node"><title>ShareState</title>
<polygon fill="none" stroke="black" points="447.5,-219.5 447.5,-255.5 527.5,-255.5 527.5,-219.5 447.5,-219.5"/>
<text text-anchor="start" x="455.5" y="-233.8" font-family="Times New Roman,serif" font-size="14.00">Share State</text>
</g>
<!-- Host&#45;&gt;ShareState -->
<g id="edge23" class="edge"><title>Host&#45;&gt;ShareState</title>
<path fill="none" stroke="black" d="M483.252,-365.225C481.454,-354.781 479.405,-341.175 478.5,-329 477.281,-312.601 477.131,-308.387 478.5,-292 479.217,-283.421 480.569,-274.147 482.012,-265.769"/>
<polygon fill="black" stroke="black" points="485.487,-266.223 483.846,-255.755 478.601,-264.961 485.487,-266.223"/>
</g>
<!-- Join&#45;&gt;ShareState -->
<g id="edge24" class="edge"><title>Join&#45;&gt;ShareState</title>
<path fill="none" stroke="black" d="M507.964,-292.313C504.847,-284.115 501.047,-274.123 497.572,-264.985"/>
<polygon fill="black" stroke="black" points="500.802,-263.632 493.976,-255.529 494.259,-266.12 500.802,-263.632"/>
</g>
<!-- ShareState&#45;&gt;Garbage -->
<g id="edge25" class="edge"><title>ShareState&#45;&gt;Garbage</title>
<path fill="none" stroke="black" d="M491.447,-219.385C497.775,-187.453 506.55,-117.968 475.5,-73 458.711,-48.685 427.926,-35.161 402.43,-27.7961"/>
<polygon fill="black" stroke="black" points="403.166,-24.37 392.602,-25.1779 401.364,-31.1342 403.166,-24.37"/>
</g>
<!-- Win -->
<g id="node21" class="node"><title>Win</title>
<polygon fill="none" stroke="black" points="412.5,-146.5 412.5,-182.5 466.5,-182.5 466.5,-146.5 412.5,-146.5"/>
<text text-anchor="middle" x="439.5" y="-160.8" font-family="Times New Roman,serif" font-size="14.00">Win</text>
</g>
<!-- ShareState&#45;&gt;Win -->
<g id="edge26" class="edge"><title>ShareState&#45;&gt;Win</title>
<path fill="none" stroke="black" d="M475.881,-219.313C470.103,-210.766 463.006,-200.269 456.62,-190.823"/>
<polygon fill="black" stroke="black" points="459.513,-188.853 451.012,-182.529 453.714,-192.774 459.513,-188.853"/>
</g>
<!-- Win&#45;&gt;Replay -->
<g id="edge27" class="edge"><title>Win&#45;&gt;Replay</title>
<path fill="none" stroke="black" d="M439.258,-146.313C439.145,-138.289 439.008,-128.547 438.881,-119.569"/>
<polygon fill="black" stroke="black" points="442.38,-119.479 438.74,-109.529 435.381,-119.577 442.38,-119.479"/>
</g>
</g>
</svg>
