<?xml version="1.0" encoding="UTF-8" standalone="no"?>
<!DOCTYPE svg PUBLIC "-//W3C//DTD SVG 1.1//EN"
 "http://www.w3.org/Graphics/SVG/1.1/DTD/svg11.dtd">
<!-- Generated by graphviz version 2.38.0 (20140413.2041)
 -->
<!-- Title: %3 Pages: 1 -->
<svg width="340pt" height="337pt"
 viewBox="0.00 0.00 339.50 337.00" xmlns="http://www.w3.org/2000/svg" xmlns:xlink="http://www.w3.org/1999/xlink">
<g id="graph0" class="graph" transform="scale(1 1) rotate(0) translate(4 333)">
<title>%3</title>
<polygon fill="white" stroke="none" points="-4,4 -4,-333 335.5,-333 335.5,4 -4,4"/>
<!-- iOSDevelopment -->
<g id="node1" class="node"><title>iOSDevelopment</title>
<polygon fill="none" stroke="black" points="141,-292.5 141,-328.5 257,-328.5 257,-292.5 141,-292.5"/>
<text text-anchor="start" x="149" y="-306.8" font-family="Times New Roman,serif" font-size="14.00">iOS Development</text>
</g>
<!-- MonoGameiOS -->
<g id="node2" class="node"><title>MonoGameiOS</title>
<polygon fill="none" stroke="black" points="144.5,-219.5 144.5,-255.5 253.5,-255.5 253.5,-219.5 144.5,-219.5"/>
<text text-anchor="start" x="152.5" y="-233.8" font-family="Times New Roman,serif" font-size="14.00">MonoGame iOS</text>
</g>
<!-- iOSDevelopment&#45;&gt;MonoGameiOS -->
<g id="edge1" class="edge"><title>iOSDevelopment&#45;&gt;MonoGameiOS</title>
<path fill="none" stroke="black" d="M199,-292.313C199,-284.289 199,-274.547 199,-265.569"/>
<polygon fill="black" stroke="black" points="202.5,-265.529 199,-255.529 195.5,-265.529 202.5,-265.529"/>
</g>
<!-- TileRenderer -->
<g id="node3" class="node"><title>TileRenderer</title>
<polygon fill="none" stroke="black" points="94,-146.5 94,-182.5 186,-182.5 186,-146.5 94,-146.5"/>
<text text-anchor="start" x="102" y="-160.8" font-family="Times New Roman,serif" font-size="14.00">Tile Renderer</text>
</g>
<!-- MonoGameiOS&#45;&gt;TileRenderer -->
<g id="edge2" class="edge"><title>MonoGameiOS&#45;&gt;TileRenderer</title>
<path fill="none" stroke="black" d="M184.718,-219.313C177.471,-210.592 168.536,-199.84 160.564,-190.246"/>
<polygon fill="black" stroke="black" points="163.234,-187.983 154.151,-182.529 157.85,-192.457 163.234,-187.983"/>
</g>
<!-- TextRendering -->
<g id="node4" class="node"><title>TextRendering</title>
<polygon fill="none" stroke="black" points="206.5,-146.5 206.5,-182.5 309.5,-182.5 309.5,-146.5 206.5,-146.5"/>
<text text-anchor="start" x="214.5" y="-160.8" font-family="Times New Roman,serif" font-size="14.00">Text Rendering</text>
</g>
<!-- MonoGameiOS&#45;&gt;TextRendering -->
<g id="edge3" class="edge"><title>MonoGameiOS&#45;&gt;TextRendering</title>
<path fill="none" stroke="black" d="M213.282,-219.313C220.529,-210.592 229.464,-199.84 237.436,-190.246"/>
<polygon fill="black" stroke="black" points="240.15,-192.457 243.849,-182.529 234.766,-187.983 240.15,-192.457"/>
</g>
<!-- Camera -->
<g id="node5" class="node"><title>Camera</title>
<polygon fill="none" stroke="black" points="106.5,-73.5 106.5,-109.5 165.5,-109.5 165.5,-73.5 106.5,-73.5"/>
<text text-anchor="middle" x="136" y="-87.8" font-family="Times New Roman,serif" font-size="14.00">Camera</text>
</g>
<!-- TileRenderer&#45;&gt;Camera -->
<g id="edge4" class="edge"><title>TileRenderer&#45;&gt;Camera</title>
<path fill="none" stroke="black" d="M139.032,-146.313C138.58,-138.289 138.031,-128.547 137.525,-119.569"/>
<polygon fill="black" stroke="black" points="141.016,-119.316 136.959,-109.529 134.027,-119.71 141.016,-119.316"/>
</g>
<!-- WindowInfrastructure -->
<g id="node8" class="node"><title>WindowInfrastructure</title>
<polygon fill="none" stroke="black" points="188.5,-73.5 188.5,-109.5 331.5,-109.5 331.5,-73.5 188.5,-73.5"/>
<text text-anchor="start" x="196.5" y="-87.8" font-family="Times New Roman,serif" font-size="14.00">Window Infrastructure</text>
</g>
<!-- TextRendering&#45;&gt;WindowInfrastructure -->
<g id="edge5" class="edge"><title>TextRendering&#45;&gt;WindowInfrastructure</title>
<path fill="none" stroke="black" d="M258.484,-146.313C258.71,-138.289 258.985,-128.547 259.237,-119.569"/>
<polygon fill="black" stroke="black" points="262.737,-119.623 259.52,-109.529 255.74,-119.426 262.737,-119.623"/>
</g>
<!-- Objects -->
<g id="node6" class="node"><title>Objects</title>
<polygon fill="none" stroke="black" points="0,-0.5 0,-36.5 60,-36.5 60,-0.5 0,-0.5"/>
<text text-anchor="middle" x="30" y="-14.8" font-family="Times New Roman,serif" font-size="14.00">Objects</text>
</g>
<!-- Camera&#45;&gt;Objects -->
<g id="edge6" class="edge"><title>Camera&#45;&gt;Objects</title>
<path fill="none" stroke="black" d="M110.61,-73.4937C96.684,-64.1657 79.229,-52.4742 64.126,-42.358"/>
<polygon fill="black" stroke="black" points="65.8061,-39.2707 55.5498,-36.6136 61.9105,-45.0867 65.8061,-39.2707"/>
</g>
<!-- EntityAnimations -->
<g id="node7" class="node"><title>EntityAnimations</title>
<polygon fill="none" stroke="black" points="78,-0.5 78,-36.5 194,-36.5 194,-0.5 78,-0.5"/>
<text text-anchor="start" x="86" y="-14.8" font-family="Times New Roman,serif" font-size="14.00">Entity Animations</text>
</g>
<!-- Camera&#45;&gt;EntityAnimations -->
<g id="edge7" class="edge"><title>Camera&#45;&gt;EntityAnimations</title>
<path fill="none" stroke="black" d="M136,-73.3129C136,-65.2895 136,-55.5475 136,-46.5691"/>
<polygon fill="black" stroke="black" points="139.5,-46.5288 136,-36.5288 132.5,-46.5289 139.5,-46.5288"/>
</g>
<!-- PopupWindow -->
<g id="node9" class="node"><title>PopupWindow</title>
<polygon fill="none" stroke="black" points="212,-0.5 212,-36.5 318,-36.5 318,-0.5 212,-0.5"/>
<text text-anchor="start" x="220" y="-14.8" font-family="Times New Roman,serif" font-size="14.00">Popup Window</text>
</g>
<!-- WindowInfrastructure&#45;&gt;PopupWindow -->
<g id="edge8" class="edge"><title>WindowInfrastructure&#45;&gt;PopupWindow</title>
<path fill="none" stroke="black" d="M261.21,-73.3129C261.775,-65.2895 262.461,-55.5475 263.094,-46.5691"/>
<polygon fill="black" stroke="black" points="266.59,-46.75 263.801,-36.5288 259.607,-46.2582 266.59,-46.75"/>
</g>
</g>
</svg>
