<svg xmlns="http://www.w3.org/2000/svg" xmlns:xlink="http://www.w3.org/1999/xlink" width="565pt" height="556pt" viewBox="0.00 0.00 565.27 556.00">
<g id="graph0" class="graph" transform="scale(1 1) rotate(0) translate(4 552)">
<title>%0</title>
<polygon fill="#ffffff" stroke="transparent" points="-4,4 -4,-552 561.2735,-552 561.2735,4 -4,4"/>
<!-- iOSDevelopment -->
<g id="node1" class="node">
<title>iOSDevelopment</title>
<polygon fill="none" stroke="#000000" points="243.6462,-511.5 243.6462,-547.5 363.8482,-547.5 363.8482,-511.5 243.6462,-511.5"/>
<text text-anchor="start" x="251.6462" y="-531.9" font-family="Times,serif" font-size="14.00" fill="#000000">iOS Development </text>
<text text-anchor="start" x="270.3131" y="-517.9" font-family="Times,serif" font-size="14.00" fill="#000000"> </text>
<text text-anchor="start" x="273.8131" y="-517.9" font-family="Times,serif" font-style="italic" font-size="14.00" fill="#000000">In Progress</text>
</g>
<!-- TextRendering -->
<g id="node2" class="node">
<title>TextRendering</title>
<polygon fill="none" stroke="#000000" points="194.0098,-438.5 194.0098,-474.5 297.4846,-474.5 297.4846,-438.5 194.0098,-438.5"/>
<text text-anchor="start" x="202.0098" y="-452.3" font-family="Times,serif" font-size="14.00" fill="#000000">Text Rendering</text>
</g>
<!-- iOSDevelopment&#45;&gt;TextRendering -->
<g id="edge1" class="edge">
<title>iOSDevelopment-&gt;TextRendering</title>
<path fill="none" stroke="#000000" d="M289.4101,-511.4551C282.5086,-502.7686 274.1035,-492.1898 266.5176,-482.642"/>
<polygon fill="#000000" stroke="#000000" points="269.0815,-480.2427 260.1204,-474.5904 263.6008,-484.5972 269.0815,-480.2427"/>
</g>
<!-- TileRenderer -->
<g id="node3" class="node">
<title>TileRenderer</title>
<polygon fill="none" stroke="#000000" points="316.0722,-438.5 316.0722,-474.5 409.4222,-474.5 409.4222,-438.5 316.0722,-438.5"/>
<text text-anchor="start" x="324.0722" y="-452.3" font-family="Times,serif" font-size="14.00" fill="#000000">Tile Renderer</text>
</g>
<!-- iOSDevelopment&#45;&gt;TileRenderer -->
<g id="edge2" class="edge">
<title>iOSDevelopment-&gt;TileRenderer</title>
<path fill="none" stroke="#000000" d="M318.3315,-511.4551C325.352,-502.7686 333.902,-492.1898 341.6187,-482.642"/>
<polygon fill="#000000" stroke="#000000" points="344.5624,-484.5678 348.1262,-474.5904 339.1182,-480.1677 344.5624,-484.5678"/>
</g>
<!-- WindowInfrastructure -->
<g id="node14" class="node">
<title>WindowInfrastructure</title>
<polygon fill="none" stroke="#000000" points="144.805,-292.5 144.805,-328.5 288.6894,-328.5 288.6894,-292.5 144.805,-292.5"/>
<text text-anchor="start" x="152.805" y="-306.3" font-family="Times,serif" font-size="14.00" fill="#000000">Window Infrastructure</text>
</g>
<!-- TextRendering&#45;&gt;WindowInfrastructure -->
<g id="edge3" class="edge">
<title>TextRendering-&gt;WindowInfrastructure</title>
<path fill="none" stroke="#000000" d="M242.133,-438.3042C237.1836,-413.3868 228.2467,-368.3938 222.4057,-338.9877"/>
<polygon fill="#000000" stroke="#000000" points="225.7882,-338.0516 220.407,-328.9251 218.9224,-339.4154 225.7882,-338.0516"/>
</g>
<!-- Camera -->
<g id="node4" class="node">
<title>Camera</title>
<polygon fill="none" stroke="#000000" points="360.9814,-365.5 360.9814,-401.5 420.513,-401.5 420.513,-365.5 360.9814,-365.5"/>
<text text-anchor="middle" x="390.7472" y="-379.3" font-family="Times,serif" font-size="14.00" fill="#000000">Camera</text>
</g>
<!-- TileRenderer&#45;&gt;Camera -->
<g id="edge4" class="edge">
<title>TileRenderer-&gt;Camera</title>
<path fill="none" stroke="#000000" d="M369.6686,-438.4551C372.8321,-430.2074 376.6499,-420.2536 380.1624,-411.0962"/>
<polygon fill="#000000" stroke="#000000" points="383.495,-412.1806 383.8084,-401.5904 376.9593,-409.6737 383.495,-412.1806"/>
</g>
<!-- Objects -->
<g id="node5" class="node">
<title>Objects</title>
<polygon fill="none" stroke="#000000" points="361.3664,-292.5 361.3664,-328.5 420.128,-328.5 420.128,-292.5 361.3664,-292.5"/>
<text text-anchor="middle" x="390.7472" y="-306.3" font-family="Times,serif" font-size="14.00" fill="#000000">Objects</text>
</g>
<!-- Camera&#45;&gt;Objects -->
<g id="edge5" class="edge">
<title>Camera-&gt;Objects</title>
<path fill="none" stroke="#000000" d="M390.7472,-365.4551C390.7472,-357.3828 390.7472,-347.6764 390.7472,-338.6817"/>
<polygon fill="#000000" stroke="#000000" points="394.2473,-338.5903 390.7472,-328.5904 387.2473,-338.5904 394.2473,-338.5903"/>
</g>
<!-- EntityAnimations -->
<g id="node6" class="node">
<title>EntityAnimations</title>
<polygon fill="none" stroke="#000000" points="438.2209,-292.5 438.2209,-328.5 557.2735,-328.5 557.2735,-292.5 438.2209,-292.5"/>
<text text-anchor="start" x="446.2209" y="-306.3" font-family="Times,serif" font-size="14.00" fill="#000000">Entity Animations</text>
</g>
<!-- Camera&#45;&gt;EntityAnimations -->
<g id="edge6" class="edge">
<title>Camera-&gt;EntityAnimations</title>
<path fill="none" stroke="#000000" d="M417.1966,-365.4551C430.9576,-356.0667 447.9588,-344.4678 462.7903,-334.3491"/>
<polygon fill="#000000" stroke="#000000" points="464.9431,-337.1174 471.2312,-328.5904 460.998,-331.3349 464.9431,-337.1174"/>
</g>
<!-- TileProperties -->
<g id="node7" class="node">
<title>TileProperties</title>
<polygon fill="none" stroke="#000000" points="345.3436,-219.5 345.3436,-255.5 444.1508,-255.5 444.1508,-219.5 345.3436,-219.5"/>
<text text-anchor="start" x="353.3436" y="-233.3" font-family="Times,serif" font-size="14.00" fill="#000000">Tile Properties</text>
</g>
<!-- Objects&#45;&gt;TileProperties -->
<g id="edge7" class="edge">
<title>Objects-&gt;TileProperties</title>
<path fill="none" stroke="#000000" d="M391.736,-292.4551C392.1783,-284.3828 392.7101,-274.6764 393.203,-265.6817"/>
<polygon fill="#000000" stroke="#000000" points="396.7035,-265.7669 393.7559,-255.5904 389.714,-265.3839 396.7035,-265.7669"/>
</g>
<!-- Character -->
<g id="node8" class="node">
<title>Character</title>
<polygon fill="none" stroke="#000000" points="462.5438,-219.5 462.5438,-255.5 532.9506,-255.5 532.9506,-219.5 462.5438,-219.5"/>
<text text-anchor="middle" x="497.7472" y="-233.3" font-family="Times,serif" font-size="14.00" fill="#000000">Character</text>
</g>
<!-- EntityAnimations&#45;&gt;Character -->
<g id="edge8" class="edge">
<title>EntityAnimations-&gt;Character</title>
<path fill="none" stroke="#000000" d="M497.7472,-292.4551C497.7472,-284.3828 497.7472,-274.6764 497.7472,-265.6817"/>
<polygon fill="#000000" stroke="#000000" points="501.2473,-265.5903 497.7472,-255.5904 494.2473,-265.5904 501.2473,-265.5903"/>
</g>
<!-- PathFinding -->
<g id="node9" class="node">
<title>PathFinding</title>
<polygon fill="none" stroke="#000000" points="362.7714,-146.5 362.7714,-182.5 450.723,-182.5 450.723,-146.5 362.7714,-146.5"/>
<text text-anchor="start" x="370.7714" y="-160.3" font-family="Times,serif" font-size="14.00" fill="#000000">Path Finding</text>
</g>
<!-- TileProperties&#45;&gt;PathFinding -->
<g id="edge9" class="edge">
<title>TileProperties-&gt;PathFinding</title>
<path fill="none" stroke="#000000" d="M397.7135,-219.4551C399.0404,-211.3828 400.636,-201.6764 402.1146,-192.6817"/>
<polygon fill="#000000" stroke="#000000" points="405.6049,-193.0257 403.7734,-182.5904 398.6976,-191.8902 405.6049,-193.0257"/>
</g>
<!-- Character&#45;&gt;PathFinding -->
<g id="edge10" class="edge">
<title>Character-&gt;PathFinding</title>
<path fill="none" stroke="#000000" d="M475.2528,-219.4551C463.7683,-210.2422 449.6302,-198.9006 437.1861,-188.918"/>
<polygon fill="#000000" stroke="#000000" points="439.2886,-186.1177 429.2982,-182.5904 434.9084,-191.5779 439.2886,-186.1177"/>
</g>
<!-- Interaction -->
<g id="node10" class="node">
<title>Interaction</title>
<polygon fill="none" stroke="#000000" points="362.4288,-73.5 362.4288,-109.5 439.0656,-109.5 439.0656,-73.5 362.4288,-73.5"/>
<text text-anchor="middle" x="400.7472" y="-87.3" font-family="Times,serif" font-size="14.00" fill="#000000">Interaction</text>
</g>
<!-- PathFinding&#45;&gt;Interaction -->
<g id="edge11" class="edge">
<title>PathFinding-&gt;Interaction</title>
<path fill="none" stroke="#000000" d="M405.2641,-146.4551C404.6006,-138.3828 403.8028,-128.6764 403.0635,-119.6817"/>
<polygon fill="#000000" stroke="#000000" points="406.5416,-119.27 402.2341,-109.5904 399.5651,-119.8435 406.5416,-119.27"/>
</g>
<!-- TaptoMove -->
<g id="node11" class="node">
<title>TaptoMove</title>
<polygon fill="none" stroke="#000000" points="246.5887,-73.5 246.5887,-109.5 334.9057,-109.5 334.9057,-73.5 246.5887,-73.5"/>
<text text-anchor="start" x="254.5887" y="-87.3" font-family="Times,serif" font-size="14.00" fill="#000000">Tap to Move</text>
</g>
<!-- PathFinding&#45;&gt;TaptoMove -->
<g id="edge12" class="edge">
<title>PathFinding-&gt;TaptoMove</title>
<path fill="none" stroke="#000000" d="M378.073,-146.4551C363.0152,-136.979 344.3786,-125.2508 328.1942,-115.0658"/>
<polygon fill="#000000" stroke="#000000" points="329.8213,-111.9544 319.4935,-109.5904 326.0929,-117.8788 329.8213,-111.9544"/>
</g>
<!-- TaptoUse -->
<g id="node12" class="node">
<title>TaptoUse</title>
<polygon fill="none" stroke="#000000" points="158.0354,-.5 158.0354,-36.5 235.459,-36.5 235.459,-.5 158.0354,-.5"/>
<text text-anchor="start" x="166.0354" y="-14.3" font-family="Times,serif" font-size="14.00" fill="#000000">Tap to Use</text>
</g>
<!-- Interaction&#45;&gt;TaptoUse -->
<g id="edge13" class="edge">
<title>Interaction-&gt;TaptoUse</title>
<path fill="none" stroke="#000000" d="M362.3764,-77.7693C329.2497,-65.9151 281.2147,-48.7261 245.3958,-35.9086"/>
<polygon fill="#000000" stroke="#000000" points="246.2342,-32.4913 235.6396,-32.4174 243.8757,-39.082 246.2342,-32.4913"/>
</g>
<!-- TaptoMove&#45;&gt;TaptoUse -->
<g id="edge14" class="edge">
<title>TaptoMove-&gt;TaptoUse</title>
<path fill="none" stroke="#000000" d="M267.5112,-73.4551C255.6481,-64.2422 241.0439,-52.9006 228.1896,-42.918"/>
<polygon fill="#000000" stroke="#000000" points="230.0865,-39.9597 220.0416,-36.5904 225.7929,-45.4883 230.0865,-39.9597"/>
</g>
<!-- PopupWindow -->
<g id="node13" class="node">
<title>PopupWindow</title>
<polygon fill="none" stroke="#000000" points="0,-146.5 0,-182.5 103.4944,-182.5 103.4944,-146.5 0,-146.5"/>
<text text-anchor="start" x="8" y="-160.3" font-family="Times,serif" font-size="14.00" fill="#000000">Popup Window</text>
</g>
<!-- PopupWindow&#45;&gt;TaptoUse -->
<g id="edge15" class="edge">
<title>PopupWindow-&gt;TaptoUse</title>
<path fill="none" stroke="#000000" d="M60.8946,-146.4255C71.472,-126.7481 90.3338,-95.1358 112.7472,-73 124.6182,-61.2761 139.3948,-50.6826 153.2299,-42.0199"/>
<polygon fill="#000000" stroke="#000000" points="155.4096,-44.7914 162.1455,-36.6135 151.78,-38.8059 155.4096,-44.7914"/>
</g>
<!-- WindowInfrastructure&#45;&gt;PopupWindow -->
<g id="edge16" class="edge">
<title>WindowInfrastructure-&gt;PopupWindow</title>
<path fill="none" stroke="#000000" d="M162.9082,-292.4087C142.6757,-283.7058 120.5337,-271.6916 103.7472,-256 84.7922,-238.2814 70.8655,-212.0648 62.2212,-192.2304"/>
<polygon fill="#000000" stroke="#000000" points="65.3681,-190.6824 58.2935,-182.7956 58.9057,-193.3728 65.3681,-190.6824"/>
</g>
<!-- ActionSearch -->
<g id="node15" class="node">
<title>ActionSearch</title>
<polygon fill="none" stroke="#000000" points="112.9025,-219.5 112.9025,-255.5 208.5919,-255.5 208.5919,-219.5 112.9025,-219.5"/>
<text text-anchor="start" x="120.9025" y="-233.3" font-family="Times,serif" font-size="14.00" fill="#000000">Action Search</text>
</g>
<!-- WindowInfrastructure&#45;&gt;ActionSearch -->
<g id="edge17" class="edge">
<title>WindowInfrastructure-&gt;ActionSearch</title>
<path fill="none" stroke="#000000" d="M202.9045,-292.4551C196.241,-283.7686 188.1257,-273.1898 180.8013,-263.642"/>
<polygon fill="#000000" stroke="#000000" points="183.4884,-261.3944 174.6247,-255.5904 177.9344,-265.655 183.4884,-261.3944"/>
</g>
<!-- RoutineTicker -->
<g id="node16" class="node">
<title>RoutineTicker</title>
<polygon fill="none" stroke="#000000" points="226.5645,-219.5 226.5645,-255.5 326.9299,-255.5 326.9299,-219.5 226.5645,-219.5"/>
<text text-anchor="start" x="234.5645" y="-233.3" font-family="Times,serif" font-size="14.00" fill="#000000">Routine Ticker</text>
</g>
<!-- WindowInfrastructure&#45;&gt;RoutineTicker -->
<g id="edge18" class="edge">
<title>WindowInfrastructure-&gt;RoutineTicker</title>
<path fill="none" stroke="#000000" d="M231.5787,-292.4551C238.7903,-283.6809 247.5889,-272.9759 255.4982,-263.353"/>
<polygon fill="#000000" stroke="#000000" points="258.2326,-265.5382 261.8784,-255.5904 252.8248,-261.0934 258.2326,-265.5382"/>
</g>
<!-- ActionInsertion -->
<g id="node18" class="node">
<title>ActionInsertion</title>
<polygon fill="none" stroke="#000000" points="121.0652,-146.5 121.0652,-182.5 228.4292,-182.5 228.4292,-146.5 121.0652,-146.5"/>
<text text-anchor="start" x="129.0652" y="-160.3" font-family="Times,serif" font-size="14.00" fill="#000000">Action Insertion</text>
</g>
<!-- ActionSearch&#45;&gt;ActionInsertion -->
<g id="edge19" class="edge">
<title>ActionSearch-&gt;ActionInsertion</title>
<path fill="none" stroke="#000000" d="M164.2079,-219.4551C165.756,-211.3828 167.6175,-201.6764 169.3425,-192.6817"/>
<polygon fill="#000000" stroke="#000000" points="172.8316,-193.0706 171.2778,-182.5904 165.9569,-191.7521 172.8316,-193.0706"/>
</g>
<!-- RoutineEditor -->
<g id="node17" class="node">
<title>RoutineEditor</title>
<polygon fill="none" stroke="#000000" points="246.3338,-146.5 246.3338,-182.5 345.1606,-182.5 345.1606,-146.5 246.3338,-146.5"/>
<text text-anchor="start" x="254.3338" y="-160.3" font-family="Times,serif" font-size="14.00" fill="#000000">Routine Editor</text>
</g>
<!-- RoutineTicker&#45;&gt;RoutineEditor -->
<g id="edge20" class="edge">
<title>RoutineTicker-&gt;RoutineEditor</title>
<path fill="none" stroke="#000000" d="M281.4438,-219.4551C283.5677,-211.2951 286.1261,-201.4652 288.4885,-192.3887"/>
<polygon fill="#000000" stroke="#000000" points="291.907,-193.1496 291.0388,-182.5904 285.1327,-191.3863 291.907,-193.1496"/>
</g>
<!-- RoutineTicker&#45;&gt;ActionInsertion -->
<g id="edge21" class="edge">
<title>RoutineTicker-&gt;ActionInsertion</title>
<path fill="none" stroke="#000000" d="M251.5337,-219.4551C238.5384,-210.1545 222.5117,-198.6844 208.4676,-188.6332"/>
<polygon fill="#000000" stroke="#000000" points="210.1931,-185.5641 200.0241,-182.5904 206.1191,-191.2565 210.1931,-185.5641"/>
</g>
<!-- ActionInsertion&#45;&gt;TaptoMove -->
<g id="edge22" class="edge">
<title>ActionInsertion-&gt;TaptoMove</title>
<path fill="none" stroke="#000000" d="M203.4214,-146.4551C218.4792,-136.979 237.1158,-125.2508 253.3002,-115.0658"/>
<polygon fill="#000000" stroke="#000000" points="255.4015,-117.8788 262.0009,-109.5904 251.6731,-111.9544 255.4015,-117.8788"/>
</g>
<!-- ActionInsertion&#45;&gt;TaptoUse -->
<g id="edge23" class="edge">
<title>ActionInsertion-&gt;TaptoUse</title>
<path fill="none" stroke="#000000" d="M149.9779,-146.4C139.1266,-136.9206 127.5569,-124.3073 121.7472,-110 115.5603,-94.7638 114.2822,-87.6524 121.7472,-73 128.0971,-60.5363 138.7791,-50.254 150.1201,-42.1085"/>
<polygon fill="#000000" stroke="#000000" points="152.0674,-45.0168 158.442,-36.5543 148.1814,-39.1945 152.0674,-45.0168"/>
</g>
<!-- PickandPlace -->
<g id="node19" class="node">
<title>PickandPlace</title>
<polygon fill="none" stroke="#000000" points="130.5375,-73.5 130.5375,-109.5 228.9569,-109.5 228.9569,-73.5 130.5375,-73.5"/>
<text text-anchor="start" x="138.5375" y="-87.3" font-family="Times,serif" font-size="14.00" fill="#000000">Pick and Place</text>
</g>
<!-- ActionInsertion&#45;&gt;PickandPlace -->
<g id="edge24" class="edge">
<title>ActionInsertion-&gt;PickandPlace</title>
<path fill="none" stroke="#000000" d="M175.9832,-146.4551C176.536,-138.3828 177.2009,-128.6764 177.8169,-119.6817"/>
<polygon fill="#000000" stroke="#000000" points="181.3165,-119.8062 178.5081,-109.5904 174.3329,-119.3278 181.3165,-119.8062"/>
</g>
</g>
</svg>