<?xml version="1.0" encoding="UTF-8" standalone="no"?>
<!DOCTYPE svg PUBLIC "-//W3C//DTD SVG 1.1//EN"
 "http://www.w3.org/Graphics/SVG/1.1/DTD/svg11.dtd">
<!-- Generated by graphviz version 2.38.0 (20140413.2041)
 -->
<!-- Title: %3 Pages: 1 -->
<svg width="659pt" height="702pt"
 viewBox="0.00 0.00 658.57 702.00" xmlns="http://www.w3.org/2000/svg" xmlns:xlink="http://www.w3.org/1999/xlink">
<g id="graph0" class="graph" transform="scale(1 1) rotate(0) translate(4 698)">
<title>%3</title>
<polygon fill="white" stroke="none" points="-4,4 -4,-698 654.569,-698 654.569,4 -4,4"/>
<!-- ProofofConcept -->
<g id="node1" class="node"><title>ProofofConcept</title>
<polygon fill="none" stroke="gray" points="281.317,-657.5 281.317,-693.5 401.317,-693.5 401.317,-657.5 281.317,-657.5"/>
<text text-anchor="start" x="289.317" y="-679.3" font-family="Times New Roman,serif" font-size="14.00" fill="gray">Proof of Concept </text>
<text text-anchor="start" x="311.817" y="-665.3" font-family="Times New Roman,serif" font-size="14.00" fill="gray"> </text>
<text text-anchor="start" x="315.817" y="-665.3" font-family="Times New Roman,serif" font-style="italic" font-size="14.00" fill="gray">Complete</text>
</g>
<!-- DependenciesandDependents -->
<g id="node2" class="node"><title>DependenciesandDependents</title>
<polygon fill="none" stroke="black" points="245.317,-584.5 245.317,-620.5 437.317,-620.5 437.317,-584.5 245.317,-584.5"/>
<text text-anchor="start" x="253.317" y="-606.3" font-family="Times New Roman,serif" font-size="14.00">Dependencies and Dependents </text>
<text text-anchor="start" x="305.817" y="-592.3" font-family="Times New Roman,serif" font-size="14.00"> </text>
<text text-anchor="start" x="309.817" y="-592.3" font-family="Times New Roman,serif" font-style="italic" font-size="14.00">In Progress</text>
</g>
<!-- ProofofConcept&#45;&gt;DependenciesandDependents -->
<g id="edge1" class="edge"><title>ProofofConcept&#45;&gt;DependenciesandDependents</title>
<path fill="none" stroke="black" d="M341.317,-657.313C341.317,-649.289 341.317,-639.547 341.317,-630.569"/>
<polygon fill="black" stroke="black" points="344.818,-630.529 341.317,-620.529 337.818,-630.529 344.818,-630.529"/>
</g>
<!-- Tiers -->
<g id="node3" class="node"><title>Tiers</title>
<polygon fill="none" stroke="black" points="314.317,-511.5 314.317,-547.5 368.317,-547.5 368.317,-511.5 314.317,-511.5"/>
<text text-anchor="middle" x="341.317" y="-525.8" font-family="Times New Roman,serif" font-size="14.00">Tiers</text>
</g>
<!-- DependenciesandDependents&#45;&gt;Tiers -->
<g id="edge2" class="edge"><title>DependenciesandDependents&#45;&gt;Tiers</title>
<path fill="none" stroke="black" d="M341.317,-584.313C341.317,-576.289 341.317,-566.547 341.317,-557.569"/>
<polygon fill="black" stroke="black" points="344.818,-557.529 341.317,-547.529 337.818,-557.529 344.818,-557.529"/>
</g>
<!-- Vias -->
<g id="node4" class="node"><title>Vias</title>
<polygon fill="none" stroke="black" points="275.317,-438.5 275.317,-474.5 329.317,-474.5 329.317,-438.5 275.317,-438.5"/>
<text text-anchor="middle" x="302.317" y="-452.8" font-family="Times New Roman,serif" font-size="14.00">Vias</text>
</g>
<!-- Tiers&#45;&gt;Vias -->
<g id="edge3" class="edge"><title>Tiers&#45;&gt;Vias</title>
<path fill="none" stroke="black" d="M331.877,-511.313C327.278,-502.941 321.651,-492.697 316.546,-483.403"/>
<polygon fill="black" stroke="black" points="319.553,-481.609 311.671,-474.529 313.418,-484.979 319.553,-481.609"/>
</g>
<!-- Conflicts -->
<g id="node5" class="node"><title>Conflicts</title>
<polygon fill="none" stroke="black" points="347.317,-438.5 347.317,-474.5 415.317,-474.5 415.317,-438.5 347.317,-438.5"/>
<text text-anchor="middle" x="381.317" y="-452.8" font-family="Times New Roman,serif" font-size="14.00">Conflicts</text>
</g>
<!-- Tiers&#45;&gt;Conflicts -->
<g id="edge4" class="edge"><title>Tiers&#45;&gt;Conflicts</title>
<path fill="none" stroke="black" d="M351,-511.313C355.717,-502.941 361.488,-492.697 366.724,-483.403"/>
<polygon fill="black" stroke="black" points="369.865,-484.959 371.724,-474.529 363.766,-481.523 369.865,-484.959"/>
</g>
<!-- SortOrder -->
<g id="node6" class="node"><title>SortOrder</title>
<polygon fill="none" stroke="black" points="302.817,-365.5 302.817,-401.5 379.817,-401.5 379.817,-365.5 302.817,-365.5"/>
<text text-anchor="start" x="310.817" y="-379.8" font-family="Times New Roman,serif" font-size="14.00">Sort Order</text>
</g>
<!-- Vias&#45;&gt;SortOrder -->
<g id="edge5" class="edge"><title>Vias&#45;&gt;SortOrder</title>
<path fill="none" stroke="black" d="M311.758,-438.313C316.357,-429.941 321.984,-419.697 327.089,-410.403"/>
<polygon fill="black" stroke="black" points="330.217,-411.979 331.964,-401.529 324.081,-408.609 330.217,-411.979"/>
</g>
<!-- Conflicts&#45;&gt;SortOrder -->
<g id="edge6" class="edge"><title>Conflicts&#45;&gt;SortOrder</title>
<path fill="none" stroke="black" d="M371.635,-438.313C366.918,-429.941 361.147,-419.697 355.91,-410.403"/>
<polygon fill="black" stroke="black" points="358.869,-408.523 350.911,-401.529 352.77,-411.959 358.869,-408.523"/>
</g>
<!-- DragandDrop -->
<g id="node7" class="node"><title>DragandDrop</title>
<polygon fill="none" stroke="black" points="163.817,-219.5 163.817,-255.5 264.817,-255.5 264.817,-219.5 163.817,-219.5"/>
<text text-anchor="start" x="171.817" y="-233.8" font-family="Times New Roman,serif" font-size="14.00">Drag and Drop</text>
</g>
<!-- SortOrder&#45;&gt;DragandDrop -->
<g id="edge7" class="edge"><title>SortOrder&#45;&gt;DragandDrop</title>
<path fill="none" stroke="black" d="M326.25,-365.416C303.908,-340.083 261.873,-292.421 236.156,-263.262"/>
<polygon fill="black" stroke="black" points="238.605,-260.747 229.365,-255.562 233.355,-265.377 238.605,-260.747"/>
</g>
<!-- Renderer -->
<g id="node8" class="node"><title>Renderer</title>
<polygon fill="none" stroke="black" points="401.317,-292.5 401.317,-328.5 469.317,-328.5 469.317,-292.5 401.317,-292.5"/>
<text text-anchor="middle" x="435.317" y="-306.8" font-family="Times New Roman,serif" font-size="14.00">Renderer</text>
</g>
<!-- SortOrder&#45;&gt;Renderer -->
<g id="edge8" class="edge"><title>SortOrder&#45;&gt;Renderer</title>
<path fill="none" stroke="black" d="M364.072,-365.313C376.196,-356.156 391.283,-344.76 404.449,-334.816"/>
<polygon fill="black" stroke="black" points="406.902,-337.349 412.772,-328.529 402.683,-331.763 406.902,-337.349"/>
</g>
<!-- Website -->
<g id="node19" class="node"><title>Website</title>
<polygon fill="none" stroke="black" points="377.317,-0.5 377.317,-36.5 439.317,-36.5 439.317,-0.5 377.317,-0.5"/>
<text text-anchor="middle" x="408.317" y="-14.8" font-family="Times New Roman,serif" font-size="14.00">Website</text>
</g>
<!-- DragandDrop&#45;&gt;Website -->
<g id="edge9" class="edge"><title>DragandDrop&#45;&gt;Website</title>
<path fill="none" stroke="black" d="M163.568,-220.098C87.5661,-192.991 -41.3615,-135.584 13.3175,-73 36.3852,-46.5973 270.459,-28.4702 367.013,-22.0618"/>
<polygon fill="black" stroke="black" points="367.523,-25.536 377.273,-21.3907 367.066,-18.551 367.523,-25.536"/>
</g>
<!-- Renderer&#45;&gt;DragandDrop -->
<g id="edge10" class="edge"><title>Renderer&#45;&gt;DragandDrop</title>
<path fill="none" stroke="black" d="M401.271,-298.562C367.531,-287.722 315.139,-270.891 274.392,-257.8"/>
<polygon fill="black" stroke="black" points="275.423,-254.455 264.832,-254.729 273.282,-261.12 275.423,-254.455"/>
</g>
<!-- UI -->
<g id="node9" class="node"><title>UI</title>
<polygon fill="none" stroke="black" points="283.317,-219.5 283.317,-255.5 337.317,-255.5 337.317,-219.5 283.317,-219.5"/>
<text text-anchor="middle" x="310.317" y="-233.8" font-family="Times New Roman,serif" font-size="14.00">UI</text>
</g>
<!-- Renderer&#45;&gt;UI -->
<g id="edge11" class="edge"><title>Renderer&#45;&gt;UI</title>
<path fill="none" stroke="black" d="M405.377,-292.494C387.625,-282.411 365.011,-269.566 346.293,-258.934"/>
<polygon fill="black" stroke="black" points="347.88,-255.81 337.456,-253.915 344.423,-261.897 347.88,-255.81"/>
</g>
<!-- Export -->
<g id="node15" class="node"><title>Export</title>
<polygon fill="none" stroke="black" points="559.817,-146.5 559.817,-182.5 614.817,-182.5 614.817,-146.5 559.817,-146.5"/>
<text text-anchor="middle" x="587.317" y="-160.8" font-family="Times New Roman,serif" font-size="14.00">Export</text>
</g>
<!-- Renderer&#45;&gt;Export -->
<g id="edge12" class="edge"><title>Renderer&#45;&gt;Export</title>
<path fill="none" stroke="black" d="M453.351,-292.416C480.319,-266.867 531.262,-218.605 561.965,-189.518"/>
<polygon fill="black" stroke="black" points="564.455,-191.98 569.308,-182.562 559.641,-186.899 564.455,-191.98"/>
</g>
<!-- TaskLinks -->
<g id="node18" class="node"><title>TaskLinks</title>
<polygon fill="none" stroke="black" points="542.817,-219.5 542.817,-255.5 621.817,-255.5 621.817,-219.5 542.817,-219.5"/>
<text text-anchor="start" x="550.817" y="-233.8" font-family="Times New Roman,serif" font-size="14.00">Task Links</text>
</g>
<!-- Renderer&#45;&gt;TaskLinks -->
<g id="edge13" class="edge"><title>Renderer&#45;&gt;TaskLinks</title>
<path fill="none" stroke="black" d="M469.412,-293.033C489.746,-283.211 515.794,-270.631 537.745,-260.028"/>
<polygon fill="black" stroke="black" points="539.391,-263.12 546.873,-255.619 536.346,-256.817 539.391,-263.12"/>
</g>
<!-- Renderer&#45;&gt;Website -->
<g id="edge14" class="edge"><title>Renderer&#45;&gt;Website</title>
<path fill="none" stroke="black" d="M469.461,-304.661C519.493,-296.849 609.102,-279.884 630.317,-256 662.947,-219.266 647.242,-194.774 641.317,-146 637.288,-112.828 646.921,-96.654 623.317,-73 599.197,-48.8278 505.109,-32.4499 449.713,-24.6826"/>
<polygon fill="black" stroke="black" points="449.895,-21.175 439.513,-23.2883 448.947,-28.1105 449.895,-21.175"/>
</g>
<!-- NewTask -->
<g id="node10" class="node"><title>NewTask</title>
<polygon fill="none" stroke="black" points="22.3175,-73.5 22.3175,-109.5 96.3175,-109.5 96.3175,-73.5 22.3175,-73.5"/>
<text text-anchor="start" x="30.3175" y="-87.8" font-family="Times New Roman,serif" font-size="14.00">New Task</text>
</g>
<!-- UI&#45;&gt;NewTask -->
<g id="edge15" class="edge"><title>UI&#45;&gt;NewTask</title>
<path fill="none" stroke="black" d="M283.082,-223.6C251.242,-208.503 202.346,-185.261 198.317,-183 160.702,-161.891 119.518,-134.501 91.8185,-115.407"/>
<polygon fill="black" stroke="black" points="93.5335,-112.337 83.3207,-109.518 89.5461,-118.091 93.5335,-112.337"/>
</g>
<!-- ConnectionDrawer -->
<g id="node11" class="node"><title>ConnectionDrawer</title>
<polygon fill="none" stroke="black" points="114.817,-73.5 114.817,-109.5 239.817,-109.5 239.817,-73.5 114.817,-73.5"/>
<text text-anchor="start" x="122.817" y="-87.8" font-family="Times New Roman,serif" font-size="14.00">Connection Drawer</text>
</g>
<!-- UI&#45;&gt;ConnectionDrawer -->
<g id="edge16" class="edge"><title>UI&#45;&gt;ConnectionDrawer</title>
<path fill="none" stroke="black" d="M283.194,-223.164C265.954,-213.707 244.009,-199.744 228.317,-183 210.78,-164.285 196.989,-138.436 188.194,-119.153"/>
<polygon fill="black" stroke="black" points="191.285,-117.487 184.056,-109.741 184.876,-120.304 191.285,-117.487"/>
</g>
<!-- StatusModifier -->
<g id="node12" class="node"><title>StatusModifier</title>
<polygon fill="none" stroke="black" points="257.817,-73.5 257.817,-109.5 360.817,-109.5 360.817,-73.5 257.817,-73.5"/>
<text text-anchor="start" x="265.817" y="-87.8" font-family="Times New Roman,serif" font-size="14.00">Status Modifier</text>
</g>
<!-- UI&#45;&gt;StatusModifier -->
<g id="edge17" class="edge"><title>UI&#45;&gt;StatusModifier</title>
<path fill="none" stroke="black" d="M283.237,-224.623C266.685,-215.763 246.909,-201.92 237.317,-183 229.882,-168.332 229.93,-160.692 237.317,-146 243.505,-133.693 254.013,-123.504 265.116,-115.438"/>
<polygon fill="black" stroke="black" points="267.321,-118.172 273.661,-109.684 263.411,-112.366 267.321,-118.172"/>
</g>
<!-- RemoveTask -->
<g id="node13" class="node"><title>RemoveTask</title>
<polygon fill="none" stroke="black" points="246.817,-146.5 246.817,-182.5 341.817,-182.5 341.817,-146.5 246.817,-146.5"/>
<text text-anchor="start" x="254.817" y="-160.8" font-family="Times New Roman,serif" font-size="14.00">Remove Task</text>
</g>
<!-- UI&#45;&gt;RemoveTask -->
<g id="edge18" class="edge"><title>UI&#45;&gt;RemoveTask</title>
<path fill="none" stroke="black" d="M306.444,-219.313C304.636,-211.289 302.441,-201.547 300.418,-192.569"/>
<polygon fill="black" stroke="black" points="303.768,-191.515 298.155,-182.529 296.939,-193.054 303.768,-191.515"/>
</g>
<!-- RenameTask -->
<g id="node14" class="node"><title>RenameTask</title>
<polygon fill="none" stroke="black" points="359.817,-146.5 359.817,-182.5 452.817,-182.5 452.817,-146.5 359.817,-146.5"/>
<text text-anchor="start" x="367.817" y="-160.8" font-family="Times New Roman,serif" font-size="14.00">Rename Task</text>
</g>
<!-- UI&#45;&gt;RenameTask -->
<g id="edge19" class="edge"><title>UI&#45;&gt;RenameTask</title>
<path fill="none" stroke="black" d="M333.556,-219.313C346.056,-210.069 361.64,-198.543 375.175,-188.532"/>
<polygon fill="black" stroke="black" points="377.334,-191.289 383.293,-182.529 373.171,-185.661 377.334,-191.289"/>
</g>
<!-- Grouping -->
<g id="node16" class="node"><title>Grouping</title>
<polygon fill="none" stroke="black" points="471.317,-146.5 471.317,-182.5 541.317,-182.5 541.317,-146.5 471.317,-146.5"/>
<text text-anchor="middle" x="506.317" y="-160.8" font-family="Times New Roman,serif" font-size="14.00">Grouping</text>
</g>
<!-- UI&#45;&gt;Grouping -->
<g id="edge20" class="edge"><title>UI&#45;&gt;Grouping</title>
<path fill="none" stroke="black" d="M337.411,-227.179C367.701,-216.693 418.17,-199.029 461.317,-183 461.416,-182.964 461.514,-182.927 461.612,-182.89"/>
<polygon fill="black" stroke="black" points="462.86,-186.16 470.983,-179.358 460.391,-179.61 462.86,-186.16"/>
</g>
<!-- NewTask&#45;&gt;Website -->
<g id="edge21" class="edge"><title>NewTask&#45;&gt;Website</title>
<path fill="none" stroke="black" d="M96.5276,-75.6698C99.4801,-74.7001 102.435,-73.7952 105.317,-73 197.13,-47.6745 308.028,-31.6748 366.892,-24.2951"/>
<polygon fill="black" stroke="black" points="367.421,-27.7566 376.917,-23.0589 366.564,-20.8092 367.421,-27.7566"/>
</g>
<!-- ConnectionDrawer&#45;&gt;Website -->
<g id="edge22" class="edge"><title>ConnectionDrawer&#45;&gt;Website</title>
<path fill="none" stroke="black" d="M232.648,-73.4937C274.184,-60.7272 330.124,-43.5334 367.615,-32.0103"/>
<polygon fill="black" stroke="black" points="368.67,-35.3477 377.2,-29.0641 366.613,-28.6566 368.67,-35.3477"/>
</g>
<!-- StatusModifier&#45;&gt;Website -->
<g id="edge23" class="edge"><title>StatusModifier&#45;&gt;Website</title>
<path fill="none" stroke="black" d="M333.03,-73.4937C345.916,-64.2529 362.035,-52.6925 376.049,-42.642"/>
<polygon fill="black" stroke="black" points="378.368,-45.2857 384.455,-36.6136 374.289,-39.5973 378.368,-45.2857"/>
</g>
<!-- RemoveTask&#45;&gt;Website -->
<g id="edge24" class="edge"><title>RemoveTask&#45;&gt;Website</title>
<path fill="none" stroke="black" d="M325.87,-146.425C340.604,-137.201 357.464,-124.687 369.317,-110 384.528,-91.1535 394.842,-65.4778 401.023,-46.2882"/>
<polygon fill="black" stroke="black" points="404.394,-47.2334 403.96,-36.6475 397.698,-45.1934 404.394,-47.2334"/>
</g>
<!-- RenameTask&#45;&gt;Website -->
<g id="edge25" class="edge"><title>RenameTask&#45;&gt;Website</title>
<path fill="none" stroke="black" d="M406.555,-146.416C406.896,-121.841 407.529,-76.2528 407.937,-46.9273"/>
<polygon fill="black" stroke="black" points="411.441,-46.6096 408.08,-36.5619 404.442,-46.5123 411.441,-46.6096"/>
</g>
<!-- Export&#45;&gt;Website -->
<g id="edge26" class="edge"><title>Export&#45;&gt;Website</title>
<path fill="none" stroke="black" d="M588.925,-146.293C589.817,-126.261 588.107,-93.334 570.317,-73 539.923,-38.2583 486.496,-25.9889 449.345,-21.7062"/>
<polygon fill="black" stroke="black" points="449.631,-18.2174 439.331,-20.698 448.93,-25.1822 449.631,-18.2174"/>
</g>
<!-- GroupCollapse -->
<g id="node17" class="node"><title>GroupCollapse</title>
<polygon fill="none" stroke="black" points="455.317,-73.5 455.317,-109.5 561.317,-109.5 561.317,-73.5 455.317,-73.5"/>
<text text-anchor="start" x="463.317" y="-87.8" font-family="Times New Roman,serif" font-size="14.00">Group Collapse</text>
</g>
<!-- Grouping&#45;&gt;GroupCollapse -->
<g id="edge27" class="edge"><title>Grouping&#45;&gt;GroupCollapse</title>
<path fill="none" stroke="black" d="M506.802,-146.313C507.028,-138.289 507.302,-128.547 507.555,-119.569"/>
<polygon fill="black" stroke="black" points="511.055,-119.623 507.838,-109.529 504.057,-119.426 511.055,-119.623"/>
</g>
<!-- GroupCollapse&#45;&gt;Website -->
<g id="edge28" class="edge"><title>GroupCollapse&#45;&gt;Website</title>
<path fill="none" stroke="black" d="M484.365,-73.4937C471.35,-64.2529 455.067,-52.6925 440.912,-42.642"/>
<polygon fill="black" stroke="black" points="442.601,-39.549 432.421,-36.6136 438.549,-45.2567 442.601,-39.549"/>
</g>
<!-- TaskLinks&#45;&gt;Website -->
<g id="edge29" class="edge"><title>TaskLinks&#45;&gt;Website</title>
<path fill="none" stroke="black" d="M600.061,-219.457C608.892,-209.723 618.657,-196.742 623.317,-183 639.592,-135.01 631.038,-106.838 593.317,-73 553.366,-37.161 490.776,-25.232 449.648,-21.319"/>
<polygon fill="black" stroke="black" points="449.68,-17.8097 439.425,-20.4689 449.1,-24.7856 449.68,-17.8097"/>
</g>
</g>
</svg>
