<svg xmlns="http://www.w3.org/2000/svg" xmlns:xlink="http://www.w3.org/1999/xlink" width="754pt" height="483pt" viewBox="0.00 0.00 754.06 483.00">
<g id="graph0" class="graph" transform="scale(1 1) rotate(0) translate(4 479)">
<title>%0</title>
<polygon fill="#ffffff" stroke="transparent" points="-4,4 -4,-479 750.0575,-479 750.0575,4 -4,4"/>
<!-- Server -->
<g id="node1" class="node">
<title>Server</title>
<polygon fill="none" stroke="#000000" points="49,-438.5 49,-474.5 103,-474.5 103,-438.5 49,-438.5"/>
<text text-anchor="middle" x="75.7665" y="-452.3" font-family="Times,serif" font-size="14.00" fill="#000000">Server</text>
</g>
<!-- Host -->
<g id="node2" class="node">
<title>Host</title>
<polygon fill="none" stroke="#000000" points="3,-365.5 3,-401.5 57,-401.5 57,-365.5 3,-365.5"/>
<text text-anchor="middle" x="29.7209" y="-379.3" font-family="Times,serif" font-size="14.00" fill="#000000">Host</text>
</g>
<!-- Server&#45;&gt;Host -->
<g id="edge1" class="edge">
<title>Server-&gt;Host</title>
<path fill="none" stroke="#000000" d="M64.6292,-438.4551C59.2662,-429.9441 52.7583,-419.6165 46.8385,-410.2219"/>
<polygon fill="#000000" stroke="#000000" points="49.6918,-408.1848 41.3994,-401.5904 43.7695,-411.9167 49.6918,-408.1848"/>
</g>
<!-- Disconnected -->
<g id="node3" class="node">
<title>Disconnected</title>
<polygon fill="none" stroke="#000000" points="74.9046,-365.5 74.9046,-401.5 167.0954,-401.5 167.0954,-365.5 74.9046,-365.5"/>
<text text-anchor="middle" x="121" y="-379.3" font-family="Times,serif" font-size="14.00" fill="#000000">Disconnected</text>
</g>
<!-- Server&#45;&gt;Disconnected -->
<g id="edge2" class="edge">
<title>Server-&gt;Disconnected</title>
<path fill="none" stroke="#000000" d="M87.1236,-438.4551C92.3701,-429.9441 98.7364,-419.6165 104.5276,-410.2219"/>
<polygon fill="#000000" stroke="#000000" points="107.5803,-411.9396 109.8484,-401.5904 101.6215,-408.2663 107.5803,-411.9396"/>
</g>
<!-- Join -->
<g id="node4" class="node">
<title>Join</title>
<polygon fill="none" stroke="#000000" points="0,-292.5 0,-328.5 54,-328.5 54,-292.5 0,-292.5"/>
<text text-anchor="middle" x="26.6676" y="-306.3" font-family="Times,serif" font-size="14.00" fill="#000000">Join</text>
</g>
<!-- Host&#45;&gt;Join -->
<g id="edge3" class="edge">
<title>Host-&gt;Join</title>
<path fill="none" stroke="#000000" d="M29.2584,-365.4551C28.9267,-357.3828 28.5278,-347.6764 28.1582,-338.6817"/>
<polygon fill="#000000" stroke="#000000" points="31.6512,-338.4382 27.7434,-328.5904 24.6571,-338.7257 31.6512,-338.4382"/>
</g>
<!-- ShareState -->
<g id="node5" class="node">
<title>ShareState</title>
<polygon fill="none" stroke="#000000" points="6.3173,-219.5 6.3173,-255.5 85.6827,-255.5 85.6827,-219.5 6.3173,-219.5"/>
<text text-anchor="start" x="14.3173" y="-233.3" font-family="Times,serif" font-size="14.00" fill="#000000">Share State</text>
</g>
<!-- Host&#45;&gt;ShareState -->
<g id="edge4" class="edge">
<title>Host-&gt;ShareState</title>
<path fill="none" stroke="#000000" d="M44.6769,-365.0189C51.7068,-354.9845 59.3716,-341.9977 63,-329 68.9015,-307.8596 63.753,-283.3907 57.62,-265.0784"/>
<polygon fill="#000000" stroke="#000000" points="60.8801,-263.8019 54.1753,-255.5985 54.301,-266.1926 60.8801,-263.8019"/>
</g>
<!-- Join&#45;&gt;ShareState -->
<g id="edge5" class="edge">
<title>Join-&gt;ShareState</title>
<path fill="none" stroke="#000000" d="M31.6966,-292.4551C33.8205,-284.2951 36.3789,-274.4652 38.7413,-265.3887"/>
<polygon fill="#000000" stroke="#000000" points="42.1598,-266.1496 41.2916,-255.5904 35.3855,-264.3863 42.1598,-266.1496"/>
</g>
<!-- Win -->
<g id="node6" class="node">
<title>Win</title>
<polygon fill="none" stroke="#000000" points="74,-146.5 74,-182.5 128,-182.5 128,-146.5 74,-146.5"/>
<text text-anchor="middle" x="100.5526" y="-160.3" font-family="Times,serif" font-size="14.00" fill="#000000">Win</text>
</g>
<!-- ShareState&#45;&gt;Win -->
<g id="edge6" class="edge">
<title>ShareState-&gt;Win</title>
<path fill="none" stroke="#000000" d="M59.5955,-219.4551C66.1401,-210.7686 74.1104,-200.1898 81.304,-190.642"/>
<polygon fill="#000000" stroke="#000000" points="84.1482,-192.6834 87.3703,-182.5904 78.5573,-188.4711 84.1482,-192.6834"/>
</g>
<!-- Multiplayer -->
<g id="node21" class="node">
<title>Multiplayer</title>
<polygon fill="none" stroke="#000000" points="191.9516,-.5 191.9516,-36.5 274.0484,-36.5 274.0484,-.5 191.9516,-.5"/>
<text text-anchor="middle" x="233" y="-14.3" font-family="Times,serif" font-size="14.00" fill="#000000">Multiplayer</text>
</g>
<!-- ShareState&#45;&gt;Multiplayer -->
<g id="edge7" class="edge">
<title>ShareState-&gt;Multiplayer</title>
<path fill="none" stroke="#000000" d="M42.3251,-219.2875C36.7594,-186.1454 30.2152,-115.4872 65,-73 80.0023,-54.6757 138.0654,-38.6225 181.7625,-28.7711"/>
<polygon fill="#000000" stroke="#000000" points="182.673,-32.1545 191.6851,-26.5838 181.1661,-25.3186 182.673,-32.1545"/>
</g>
<!-- Replay -->
<g id="node8" class="node">
<title>Replay</title>
<polygon fill="none" stroke="#000000" points="74.1718,-73.5 74.1718,-109.5 129.8282,-109.5 129.8282,-73.5 74.1718,-73.5"/>
<text text-anchor="middle" x="102" y="-87.3" font-family="Times,serif" font-size="14.00" fill="#000000">Replay</text>
</g>
<!-- Win&#45;&gt;Replay -->
<g id="edge8" class="edge">
<title>Win-&gt;Replay</title>
<path fill="none" stroke="#000000" d="M101.2472,-146.4551C101.3578,-138.3828 101.4907,-128.6764 101.6139,-119.6817"/>
<polygon fill="#000000" stroke="#000000" points="105.1148,-119.6374 101.7522,-109.5904 98.1154,-119.5414 105.1148,-119.6374"/>
</g>
<!-- Lose -->
<g id="node7" class="node">
<title>Lose</title>
<polygon fill="none" stroke="#000000" points="314,-146.5 314,-182.5 368,-182.5 368,-146.5 314,-146.5"/>
<text text-anchor="middle" x="340.6059" y="-160.3" font-family="Times,serif" font-size="14.00" fill="#000000">Lose</text>
</g>
<!-- Lose&#45;&gt;Replay -->
<g id="edge9" class="edge">
<title>Lose-&gt;Replay</title>
<path fill="none" stroke="#000000" d="M313.9632,-154.6867C305.3941,-151.7251 295.8482,-148.5785 287,-146 224.659,-127.8328 203.8092,-133.1564 139.7811,-110.2805"/>
<polygon fill="#000000" stroke="#000000" points="140.6046,-106.8545 130.011,-106.6946 138.1927,-113.4259 140.6046,-106.8545"/>
</g>
<!-- DangerAnimation -->
<g id="node9" class="node">
<title>DangerAnimation</title>
<polygon fill="none" stroke="#000000" points="336.71,-73.5 336.71,-109.5 457.29,-109.5 457.29,-73.5 336.71,-73.5"/>
<text text-anchor="start" x="344.71" y="-87.3" font-family="Times,serif" font-size="14.00" fill="#000000">Danger Animation</text>
</g>
<!-- Lose&#45;&gt;DangerAnimation -->
<g id="edge10" class="edge">
<title>Lose-&gt;DangerAnimation</title>
<path fill="none" stroke="#000000" d="M354.8427,-146.4551C361.5062,-137.7686 369.6215,-127.1898 376.9459,-117.642"/>
<polygon fill="#000000" stroke="#000000" points="379.8128,-119.655 383.1225,-109.5904 374.2588,-115.3944 379.8128,-119.655"/>
</g>
<!-- NewRows -->
<g id="node10" class="node">
<title>NewRows</title>
<polygon fill="none" stroke="#c0c0c0" points="300.3422,-219.5 300.3422,-255.5 381.6578,-255.5 381.6578,-219.5 300.3422,-219.5"/>
<text text-anchor="start" x="308.3422" y="-239.9" font-family="Times,serif" font-size="14.00" fill="#c0c0c0">New Rows </text>
<text text-anchor="start" x="312.0312" y="-225.9" font-family="Times,serif" font-size="14.00" fill="#c0c0c0"> </text>
<text text-anchor="start" x="315.5312" y="-225.9" font-family="Times,serif" font-style="italic" font-size="14.00" fill="#c0c0c0">Complete</text>
</g>
<!-- NewRows&#45;&gt;Lose -->
<g id="edge11" class="edge">
<title>NewRows-&gt;Lose</title>
<path fill="none" stroke="#000000" d="M341,-219.4551C341,-211.3828 341,-201.6764 341,-192.6817"/>
<polygon fill="#000000" stroke="#000000" points="344.5001,-192.5903 341,-182.5904 337.5001,-192.5904 344.5001,-192.5903"/>
</g>
<!-- Advancing -->
<g id="node11" class="node">
<title>Advancing</title>
<polygon fill="none" stroke="#c0c0c0" points="360.5368,-292.5 360.5368,-328.5 441.4632,-328.5 441.4632,-292.5 360.5368,-292.5"/>
<text text-anchor="start" x="368.5368" y="-312.9" font-family="Times,serif" font-size="14.00" fill="#c0c0c0">Advancing </text>
<text text-anchor="start" x="372.0312" y="-298.9" font-family="Times,serif" font-size="14.00" fill="#c0c0c0"> </text>
<text text-anchor="start" x="375.5312" y="-298.9" font-family="Times,serif" font-style="italic" font-size="14.00" fill="#c0c0c0">Complete</text>
</g>
<!-- Advancing&#45;&gt;NewRows -->
<g id="edge12" class="edge">
<title>Advancing-&gt;NewRows</title>
<path fill="none" stroke="#000000" d="M386.1685,-292.4551C378.9569,-283.6809 370.1583,-272.9759 362.249,-263.353"/>
<polygon fill="#000000" stroke="#000000" points="364.9224,-261.0934 355.8688,-255.5904 359.5146,-265.5382 364.9224,-261.0934"/>
</g>
<!-- IntentionalAdvance -->
<g id="node12" class="node">
<title>IntentionalAdvance</title>
<polygon fill="none" stroke="#c0c0c0" points="399.2987,-219.5 399.2987,-255.5 532.7013,-255.5 532.7013,-219.5 399.2987,-219.5"/>
<text text-anchor="start" x="407.2987" y="-239.9" font-family="Times,serif" font-size="14.00" fill="#c0c0c0">Intentional Advance </text>
<text text-anchor="start" x="437.0312" y="-225.9" font-family="Times,serif" font-size="14.00" fill="#c0c0c0"> </text>
<text text-anchor="start" x="440.5312" y="-225.9" font-family="Times,serif" font-style="italic" font-size="14.00" fill="#c0c0c0">Complete</text>
</g>
<!-- Advancing&#45;&gt;IntentionalAdvance -->
<g id="edge13" class="edge">
<title>Advancing-&gt;IntentionalAdvance</title>
<path fill="none" stroke="#000000" d="M417.0674,-292.4551C424.9581,-283.5932 434.6026,-272.7616 443.237,-263.0646"/>
<polygon fill="#000000" stroke="#000000" points="445.8561,-265.3863 449.8921,-255.5904 440.6282,-260.7313 445.8561,-265.3863"/>
</g>
<!-- ClearAnimation -->
<g id="node13" class="node">
<title>ClearAnimation</title>
<polygon fill="none" stroke="#c0c0c0" points="532.3997,-146.5 532.3997,-182.5 645.6003,-182.5 645.6003,-146.5 532.3997,-146.5"/>
<text text-anchor="start" x="540.3997" y="-166.9" font-family="Times,serif" font-size="14.00" fill="#c0c0c0">Clear Animation </text>
<text text-anchor="start" x="560.0312" y="-152.9" font-family="Times,serif" font-size="14.00" fill="#c0c0c0"> </text>
<text text-anchor="start" x="563.5312" y="-152.9" font-family="Times,serif" font-style="italic" font-size="14.00" fill="#c0c0c0">Complete</text>
</g>
<!-- Combo -->
<g id="node20" class="node">
<title>Combo</title>
<polygon fill="none" stroke="#c0c0c0" points="516.0312,-73.5 516.0312,-109.5 589.9688,-109.5 589.9688,-73.5 516.0312,-73.5"/>
<text text-anchor="start" x="530.6364" y="-93.9" font-family="Times,serif" font-size="14.00" fill="#c0c0c0">Combo </text>
<text text-anchor="start" x="524.0312" y="-79.9" font-family="Times,serif" font-size="14.00" fill="#c0c0c0"> </text>
<text text-anchor="start" x="527.5312" y="-79.9" font-family="Times,serif" font-style="italic" font-size="14.00" fill="#c0c0c0">Complete</text>
</g>
<!-- ClearAnimation&#45;&gt;Combo -->
<g id="edge14" class="edge">
<title>ClearAnimation-&gt;Combo</title>
<path fill="none" stroke="#000000" d="M580.1011,-146.4551C575.9905,-138.1196 571.0205,-128.0416 566.4651,-118.8042"/>
<polygon fill="#000000" stroke="#000000" points="569.4833,-117.011 561.9213,-109.5904 563.2052,-120.1071 569.4833,-117.011"/>
</g>
<!-- Grid -->
<g id="node14" class="node">
<title>Grid</title>
<polygon fill="none" stroke="#c0c0c0" points="364.0312,-365.5 364.0312,-401.5 437.9688,-401.5 437.9688,-365.5 364.0312,-365.5"/>
<text text-anchor="start" x="386.4211" y="-385.9" font-family="Times,serif" font-size="14.00" fill="#c0c0c0">Grid </text>
<text text-anchor="start" x="372.0312" y="-371.9" font-family="Times,serif" font-size="14.00" fill="#c0c0c0"> </text>
<text text-anchor="start" x="375.5312" y="-371.9" font-family="Times,serif" font-style="italic" font-size="14.00" fill="#c0c0c0">Complete</text>
</g>
<!-- Grid&#45;&gt;Advancing -->
<g id="edge15" class="edge">
<title>Grid-&gt;Advancing</title>
<path fill="none" stroke="#000000" d="M401,-365.4551C401,-357.3828 401,-347.6764 401,-338.6817"/>
<polygon fill="#000000" stroke="#000000" points="404.5001,-338.5903 401,-328.5904 397.5001,-338.5904 404.5001,-338.5903"/>
</g>
<!-- BlockDragging -->
<g id="node17" class="node">
<title>BlockDragging</title>
<polygon fill="none" stroke="#c0c0c0" points="503.3429,-292.5 503.3429,-328.5 612.6571,-328.5 612.6571,-292.5 503.3429,-292.5"/>
<text text-anchor="start" x="511.3429" y="-312.9" font-family="Times,serif" font-size="14.00" fill="#c0c0c0">Block Dragging </text>
<text text-anchor="start" x="529.0312" y="-298.9" font-family="Times,serif" font-size="14.00" fill="#c0c0c0"> </text>
<text text-anchor="start" x="532.5312" y="-298.9" font-family="Times,serif" font-style="italic" font-size="14.00" fill="#c0c0c0">Complete</text>
</g>
<!-- Grid&#45;&gt;BlockDragging -->
<g id="edge16" class="edge">
<title>Grid-&gt;BlockDragging</title>
<path fill="none" stroke="#000000" d="M438.2068,-366.2C459.6454,-356.2318 486.8282,-343.5926 509.8789,-332.8748"/>
<polygon fill="#000000" stroke="#000000" points="511.5533,-335.9562 519.1453,-328.5662 508.6019,-329.6087 511.5533,-335.9562"/>
</g>
<!-- Renderer -->
<g id="node15" class="node">
<title>Renderer</title>
<polygon fill="none" stroke="#c0c0c0" points="364.0312,-438.5 364.0312,-474.5 437.9688,-474.5 437.9688,-438.5 364.0312,-438.5"/>
<text text-anchor="start" x="373.5992" y="-458.9" font-family="Times,serif" font-size="14.00" fill="#c0c0c0">Renderer </text>
<text text-anchor="start" x="372.0312" y="-444.9" font-family="Times,serif" font-size="14.00" fill="#c0c0c0"> </text>
<text text-anchor="start" x="375.5312" y="-444.9" font-family="Times,serif" font-style="italic" font-size="14.00" fill="#c0c0c0">Complete</text>
</g>
<!-- Renderer&#45;&gt;Grid -->
<g id="edge17" class="edge">
<title>Renderer-&gt;Grid</title>
<path fill="none" stroke="#000000" d="M401,-438.4551C401,-430.3828 401,-420.6764 401,-411.6817"/>
<polygon fill="#000000" stroke="#000000" points="404.5001,-411.5903 401,-401.5904 397.5001,-411.5904 404.5001,-411.5903"/>
</g>
<!-- Touch -->
<g id="node16" class="node">
<title>Touch</title>
<polygon fill="none" stroke="#c0c0c0" points="456.0312,-365.5 456.0312,-401.5 529.9688,-401.5 529.9688,-365.5 456.0312,-365.5"/>
<text text-anchor="start" x="473.3664" y="-385.9" font-family="Times,serif" font-size="14.00" fill="#c0c0c0">Touch </text>
<text text-anchor="start" x="464.0312" y="-371.9" font-family="Times,serif" font-size="14.00" fill="#c0c0c0"> </text>
<text text-anchor="start" x="467.5312" y="-371.9" font-family="Times,serif" font-style="italic" font-size="14.00" fill="#c0c0c0">Complete</text>
</g>
<!-- Renderer&#45;&gt;Touch -->
<g id="edge18" class="edge">
<title>Renderer-&gt;Touch</title>
<path fill="none" stroke="#000000" d="M423.7416,-438.4551C435.3523,-429.2422 449.6458,-417.9006 462.2266,-407.918"/>
<polygon fill="#000000" stroke="#000000" points="464.5431,-410.5479 470.2012,-401.5904 460.1921,-405.0644 464.5431,-410.5479"/>
</g>
<!-- GarbageLineRendering -->
<g id="node25" class="node">
<title>GarbageLineRendering</title>
<polygon fill="none" stroke="#c0c0c0" points="187.0571,-365.5 187.0571,-401.5 344.9429,-401.5 344.9429,-365.5 187.0571,-365.5"/>
<text text-anchor="start" x="195.0571" y="-385.9" font-family="Times,serif" font-size="14.00" fill="#c0c0c0">Garbage Line Rendering </text>
<text text-anchor="start" x="237.0312" y="-371.9" font-family="Times,serif" font-size="14.00" fill="#c0c0c0"> </text>
<text text-anchor="start" x="240.5312" y="-371.9" font-family="Times,serif" font-style="italic" font-size="14.00" fill="#c0c0c0">Complete</text>
</g>
<!-- Renderer&#45;&gt;GarbageLineRendering -->
<g id="edge19" class="edge">
<title>Renderer-&gt;GarbageLineRendering</title>
<path fill="none" stroke="#000000" d="M367.6292,-438.4551C349.6993,-428.7596 327.4095,-416.7066 308.2773,-406.361"/>
<polygon fill="#000000" stroke="#000000" points="309.9159,-403.2682 299.4548,-401.5904 306.5863,-409.4257 309.9159,-403.2682"/>
</g>
<!-- Touch&#45;&gt;IntentionalAdvance -->
<g id="edge20" class="edge">
<title>Touch-&gt;IntentionalAdvance</title>
<path fill="none" stroke="#000000" d="M489.635,-365.3042C485.027,-340.3868 476.7064,-295.3938 471.2683,-265.9877"/>
<polygon fill="#000000" stroke="#000000" points="474.6676,-265.1219 469.4074,-255.9251 467.7843,-266.3949 474.6676,-265.1219"/>
</g>
<!-- Touch&#45;&gt;BlockDragging -->
<g id="edge21" class="edge">
<title>Touch-&gt;BlockDragging</title>
<path fill="none" stroke="#000000" d="M509.0674,-365.4551C516.9581,-356.5932 526.6026,-345.7616 535.237,-336.0646"/>
<polygon fill="#000000" stroke="#000000" points="537.8561,-338.3863 541.8921,-328.5904 532.6282,-333.7313 537.8561,-338.3863"/>
</g>
<!-- Matches -->
<g id="node18" class="node">
<title>Matches</title>
<polygon fill="none" stroke="#c0c0c0" points="589.0312,-219.5 589.0312,-255.5 662.9688,-255.5 662.9688,-219.5 589.0312,-219.5"/>
<text text-anchor="start" x="600.5382" y="-239.9" font-family="Times,serif" font-size="14.00" fill="#c0c0c0">Matches </text>
<text text-anchor="start" x="597.0312" y="-225.9" font-family="Times,serif" font-size="14.00" fill="#c0c0c0"> </text>
<text text-anchor="start" x="600.5312" y="-225.9" font-family="Times,serif" font-style="italic" font-size="14.00" fill="#c0c0c0">Complete</text>
</g>
<!-- BlockDragging&#45;&gt;Matches -->
<g id="edge22" class="edge">
<title>BlockDragging-&gt;Matches</title>
<path fill="none" stroke="#000000" d="M574.809,-292.4551C583.0639,-283.5932 593.1535,-272.7616 602.1864,-263.0646"/>
<polygon fill="#000000" stroke="#000000" points="604.8937,-265.2932 609.1487,-255.5904 599.7716,-260.522 604.8937,-265.2932"/>
</g>
<!-- Falling -->
<g id="node22" class="node">
<title>Falling</title>
<polygon fill="none" stroke="#c0c0c0" points="440.0312,-146.5 440.0312,-182.5 513.9688,-182.5 513.9688,-146.5 440.0312,-146.5"/>
<text text-anchor="start" x="455.4155" y="-166.9" font-family="Times,serif" font-size="14.00" fill="#c0c0c0">Falling </text>
<text text-anchor="start" x="448.0312" y="-152.9" font-family="Times,serif" font-size="14.00" fill="#c0c0c0"> </text>
<text text-anchor="start" x="451.5312" y="-152.9" font-family="Times,serif" font-style="italic" font-size="14.00" fill="#c0c0c0">Complete</text>
</g>
<!-- BlockDragging&#45;&gt;Falling -->
<g id="edge23" class="edge">
<title>BlockDragging-&gt;Falling</title>
<path fill="none" stroke="#000000" d="M558.4049,-292.4188C558.0623,-273.0189 555.2117,-241.911 542,-219 535.3245,-207.4237 525.2146,-197.2065 514.9437,-188.8395"/>
<polygon fill="#000000" stroke="#000000" points="516.7977,-185.8502 506.7348,-182.5353 512.5341,-191.402 516.7977,-185.8502"/>
</g>
<!-- Matches&#45;&gt;ClearAnimation -->
<g id="edge24" class="edge">
<title>Matches-&gt;ClearAnimation</title>
<path fill="none" stroke="#000000" d="M616.8539,-219.4551C612.5846,-211.0319 607.4135,-200.8292 602.6914,-191.5128"/>
<polygon fill="#000000" stroke="#000000" points="605.812,-189.9277 598.1691,-182.5904 599.5682,-193.0924 605.812,-189.9277"/>
</g>
<!-- StopClock -->
<g id="node19" class="node">
<title>StopClock</title>
<polygon fill="none" stroke="#c0c0c0" points="663.9425,-146.5 663.9425,-182.5 746.0575,-182.5 746.0575,-146.5 663.9425,-146.5"/>
<text text-anchor="start" x="671.9425" y="-166.9" font-family="Times,serif" font-size="14.00" fill="#c0c0c0">Stop Clock </text>
<text text-anchor="start" x="676.0312" y="-152.9" font-family="Times,serif" font-size="14.00" fill="#c0c0c0"> </text>
<text text-anchor="start" x="679.5312" y="-152.9" font-family="Times,serif" font-style="italic" font-size="14.00" fill="#c0c0c0">Complete</text>
</g>
<!-- Matches&#45;&gt;StopClock -->
<g id="edge25" class="edge">
<title>Matches-&gt;StopClock</title>
<path fill="none" stroke="#000000" d="M645.5281,-219.4551C655.3083,-210.4177 667.3052,-199.3319 677.9561,-189.4899"/>
<polygon fill="#000000" stroke="#000000" points="680.4536,-191.9476 685.4228,-182.5904 675.7029,-186.8065 680.4536,-191.9476"/>
</g>
<!-- StopClock&#45;&gt;Combo -->
<g id="edge26" class="edge">
<title>StopClock-&gt;Combo</title>
<path fill="none" stroke="#000000" d="M667.427,-146.4551C646.8113,-136.5541 621.0764,-124.1946 599.2362,-113.7055"/>
<polygon fill="#000000" stroke="#000000" points="600.6704,-110.5117 590.1408,-109.3374 597.6399,-116.8217 600.6704,-110.5117"/>
</g>
<!-- Combo&#45;&gt;Multiplayer -->
<g id="edge27" class="edge">
<title>Combo-&gt;Multiplayer</title>
<path fill="none" stroke="#000000" d="M515.9793,-83.0547C458.823,-70.0159 348.9432,-44.9495 284.2062,-30.1814"/>
<polygon fill="#000000" stroke="#000000" points="284.7468,-26.7149 274.2188,-27.9031 283.1899,-33.5396 284.7468,-26.7149"/>
</g>
<!-- Falling&#45;&gt;Combo -->
<g id="edge28" class="edge">
<title>Falling-&gt;Combo</title>
<path fill="none" stroke="#000000" d="M495.7865,-146.4551C505.1039,-137.5054 516.5127,-126.547 526.6843,-116.7769"/>
<polygon fill="#000000" stroke="#000000" points="529.3788,-119.0419 534.1662,-109.5904 524.5296,-113.9935 529.3788,-119.0419"/>
</g>
<!-- CameraShake -->
<g id="node23" class="node">
<title>CameraShake</title>
<polygon fill="none" stroke="#000000" points="185.3783,-219.5 185.3783,-255.5 282.6217,-255.5 282.6217,-219.5 185.3783,-219.5"/>
<text text-anchor="start" x="193.3783" y="-233.3" font-family="Times,serif" font-size="14.00" fill="#000000">Camera Shake</text>
</g>
<!-- GarbagePhysics -->
<g id="node24" class="node">
<title>GarbagePhysics</title>
<polygon fill="none" stroke="#c0c0c0" points="177.406,-292.5 177.406,-328.5 290.594,-328.5 290.594,-292.5 177.406,-292.5"/>
<text text-anchor="start" x="185.406" y="-312.9" font-family="Times,serif" font-size="14.00" fill="#c0c0c0">Garbage Physics </text>
<text text-anchor="start" x="205.0312" y="-298.9" font-family="Times,serif" font-size="14.00" fill="#c0c0c0"> </text>
<text text-anchor="start" x="208.5312" y="-298.9" font-family="Times,serif" font-style="italic" font-size="14.00" fill="#c0c0c0">Complete</text>
</g>
<!-- GarbagePhysics&#45;&gt;CameraShake -->
<g id="edge29" class="edge">
<title>GarbagePhysics-&gt;CameraShake</title>
<path fill="none" stroke="#000000" d="M234,-292.4551C234,-284.3828 234,-274.6764 234,-265.6817"/>
<polygon fill="#000000" stroke="#000000" points="237.5001,-265.5903 234,-255.5904 230.5001,-265.5904 237.5001,-265.5903"/>
</g>
<!-- GarbageClearing -->
<g id="node28" class="node">
<title>GarbageClearing</title>
<polygon fill="none" stroke="#c0c0c0" points="159.6907,-146.5 159.6907,-182.5 278.3093,-182.5 278.3093,-146.5 159.6907,-146.5"/>
<text text-anchor="start" x="167.6907" y="-166.9" font-family="Times,serif" font-size="14.00" fill="#c0c0c0">Garbage Clearing </text>
<text text-anchor="start" x="190.0312" y="-152.9" font-family="Times,serif" font-size="14.00" fill="#c0c0c0"> </text>
<text text-anchor="start" x="193.5312" y="-152.9" font-family="Times,serif" font-style="italic" font-size="14.00" fill="#c0c0c0">Complete</text>
</g>
<!-- GarbagePhysics&#45;&gt;GarbageClearing -->
<g id="edge30" class="edge">
<title>GarbagePhysics-&gt;GarbageClearing</title>
<path fill="none" stroke="#000000" d="M206.3383,-292.3856C194.6533,-283.0632 182.3084,-270.5841 176,-256 169.4715,-240.907 170.6092,-234.5357 176,-219 179.5929,-208.6457 186.0592,-198.7705 192.9041,-190.3406"/>
<polygon fill="#000000" stroke="#000000" points="195.5941,-192.5809 199.5012,-182.7328 190.3055,-187.9949 195.5941,-192.5809"/>
</g>
<!-- GarbageLineRendering&#45;&gt;GarbagePhysics -->
<g id="edge31" class="edge">
<title>GarbageLineRendering-&gt;GarbagePhysics</title>
<path fill="none" stroke="#000000" d="M258.0899,-365.4551C254.436,-357.1196 250.0182,-347.0416 245.969,-337.8042"/>
<polygon fill="#000000" stroke="#000000" points="249.1504,-336.3439 241.93,-328.5904 242.7393,-339.1542 249.1504,-336.3439"/>
</g>
<!-- GarbageImages -->
<g id="node26" class="node">
<title>GarbageImages</title>
<polygon fill="none" stroke="#c0c0c0" points="210.582,-438.5 210.582,-474.5 321.418,-474.5 321.418,-438.5 210.582,-438.5"/>
<text text-anchor="start" x="218.582" y="-458.9" font-family="Times,serif" font-size="14.00" fill="#c0c0c0">Garbage Images </text>
<text text-anchor="start" x="237.0312" y="-444.9" font-family="Times,serif" font-size="14.00" fill="#c0c0c0"> </text>
<text text-anchor="start" x="240.5312" y="-444.9" font-family="Times,serif" font-style="italic" font-size="14.00" fill="#c0c0c0">Complete</text>
</g>
<!-- GarbageImages&#45;&gt;GarbageLineRendering -->
<g id="edge32" class="edge">
<title>GarbageImages-&gt;GarbageLineRendering</title>
<path fill="none" stroke="#000000" d="M266,-438.4551C266,-430.3828 266,-420.6764 266,-411.6817"/>
<polygon fill="#000000" stroke="#000000" points="269.5001,-411.5903 266,-401.5904 262.5001,-411.5904 269.5001,-411.5903"/>
</g>
<!-- GarbageComboExtension -->
<g id="node27" class="node">
<title>GarbageComboExtension</title>
<polygon fill="none" stroke="#000000" points="147.4344,-73.5 147.4344,-109.5 318.5656,-109.5 318.5656,-73.5 147.4344,-73.5"/>
<text text-anchor="start" x="155.4344" y="-93.9" font-family="Times,serif" font-size="14.00" fill="#000000">Garbage Combo Extension </text>
<text text-anchor="start" x="199.5659" y="-79.9" font-family="Times,serif" font-size="14.00" fill="#000000"> </text>
<text text-anchor="start" x="203.0659" y="-79.9" font-family="Times,serif" font-style="italic" font-size="14.00" fill="#000000">In Progress</text>
</g>
<!-- GarbageComboExtension&#45;&gt;Multiplayer -->
<g id="edge33" class="edge">
<title>GarbageComboExtension-&gt;Multiplayer</title>
<path fill="none" stroke="#000000" d="M233,-73.4551C233,-65.3828 233,-55.6764 233,-46.6817"/>
<polygon fill="#000000" stroke="#000000" points="236.5001,-46.5903 233,-36.5904 229.5001,-46.5904 236.5001,-46.5903"/>
</g>
<!-- GarbageClearing&#45;&gt;GarbageComboExtension -->
<g id="edge34" class="edge">
<title>GarbageClearing-&gt;GarbageComboExtension</title>
<path fill="none" stroke="#000000" d="M222.4607,-146.4551C224.0088,-138.3828 225.8703,-128.6764 227.5953,-119.6817"/>
<polygon fill="#000000" stroke="#000000" points="231.0844,-120.0706 229.5306,-109.5904 224.2097,-118.7521 231.0844,-120.0706"/>
</g>
</g>
</svg>