<?xml version="1.0" encoding="UTF-8" standalone="no"?>
<!DOCTYPE svg PUBLIC "-//W3C//DTD SVG 1.1//EN"
 "http://www.w3.org/Graphics/SVG/1.1/DTD/svg11.dtd">
<!-- Generated by graphviz version 2.38.0 (20140413.2041)
 -->
<!-- Title: %3 Pages: 1 -->
<svg width="268pt" height="337pt"
 viewBox="0.00 0.00 268.00 337.00" xmlns="http://www.w3.org/2000/svg" xmlns:xlink="http://www.w3.org/1999/xlink">
<g id="graph0" class="graph" transform="scale(1 1) rotate(0) translate(4 333)">
<title>%3</title>
<polygon fill="white" stroke="none" points="-4,4 -4,-333 264,-333 264,4 -4,4"/>
<!-- GetPixel -->
<g id="node1" class="node"><title>GetPixel</title>
<polygon fill="none" stroke="gray" points="0,-292.5 0,-328.5 75,-328.5 75,-292.5 0,-292.5"/>
<text text-anchor="start" x="10" y="-314.3" font-family="Times New Roman,serif" font-size="14.00" fill="gray">Get Pixel </text>
<text text-anchor="start" x="8" y="-300.3" font-family="Times New Roman,serif" font-size="14.00" fill="gray"> </text>
<text text-anchor="start" x="12" y="-300.3" font-family="Times New Roman,serif" font-style="italic" font-size="14.00" fill="gray">Complete</text>
</g>
<!-- Collisions -->
<g id="node2" class="node"><title>Collisions</title>
<polygon fill="none" stroke="black" points="1.5,-219.5 1.5,-255.5 73.5,-255.5 73.5,-219.5 1.5,-219.5"/>
<text text-anchor="middle" x="37.5" y="-233.8" font-family="Times New Roman,serif" font-size="14.00">Collisions</text>
</g>
<!-- GetPixel&#45;&gt;Collisions -->
<g id="edge1" class="edge"><title>GetPixel&#45;&gt;Collisions</title>
<path fill="none" stroke="black" d="M37.5,-292.313C37.5,-284.289 37.5,-274.547 37.5,-265.569"/>
<polygon fill="black" stroke="black" points="41.0001,-265.529 37.5,-255.529 34.0001,-265.529 41.0001,-265.529"/>
</g>
<!-- Character -->
<g id="node5" class="node"><title>Character</title>
<polygon fill="none" stroke="black" points="0,-146.5 0,-182.5 71,-182.5 71,-146.5 0,-146.5"/>
<text text-anchor="middle" x="35.5" y="-160.8" font-family="Times New Roman,serif" font-size="14.00">Character</text>
</g>
<!-- Collisions&#45;&gt;Character -->
<g id="edge2" class="edge"><title>Collisions&#45;&gt;Character</title>
<path fill="none" stroke="black" d="M37.0159,-219.313C36.7898,-211.289 36.5154,-201.547 36.2625,-192.569"/>
<polygon fill="black" stroke="black" points="39.76,-192.426 35.9797,-182.529 32.7627,-192.623 39.76,-192.426"/>
</g>
<!-- Bombs -->
<g id="node6" class="node"><title>Bombs</title>
<polygon fill="none" stroke="black" points="89,-146.5 89,-182.5 146,-182.5 146,-146.5 89,-146.5"/>
<text text-anchor="middle" x="117.5" y="-160.8" font-family="Times New Roman,serif" font-size="14.00">Bombs</text>
</g>
<!-- Collisions&#45;&gt;Bombs -->
<g id="edge3" class="edge"><title>Collisions&#45;&gt;Bombs</title>
<path fill="none" stroke="black" d="M56.8658,-219.313C66.9871,-210.33 79.5357,-199.193 90.5866,-189.386"/>
<polygon fill="black" stroke="black" points="93.1566,-191.784 98.3126,-182.529 88.51,-186.549 93.1566,-191.784"/>
</g>
<!-- MarchingSquaresGrid -->
<g id="node3" class="node"><title>MarchingSquaresGrid</title>
<polygon fill="none" stroke="black" points="97,-292.5 97,-328.5 248,-328.5 248,-292.5 97,-292.5"/>
<text text-anchor="start" x="105" y="-314.3" font-family="Times New Roman,serif" font-size="14.00">Marching Squares Grid </text>
<text text-anchor="start" x="137" y="-300.3" font-family="Times New Roman,serif" font-size="14.00"> </text>
<text text-anchor="start" x="141" y="-300.3" font-family="Times New Roman,serif" font-style="italic" font-size="14.00">In Progress</text>
</g>
<!-- Panels -->
<g id="node4" class="node"><title>Panels</title>
<polygon fill="none" stroke="black" points="145.5,-219.5 145.5,-255.5 199.5,-255.5 199.5,-219.5 145.5,-219.5"/>
<text text-anchor="middle" x="172.5" y="-233.8" font-family="Times New Roman,serif" font-size="14.00">Panels</text>
</g>
<!-- MarchingSquaresGrid&#45;&gt;Panels -->
<g id="edge4" class="edge"><title>MarchingSquaresGrid&#45;&gt;Panels</title>
<path fill="none" stroke="black" d="M172.5,-292.313C172.5,-284.289 172.5,-274.547 172.5,-265.569"/>
<polygon fill="black" stroke="black" points="176,-265.529 172.5,-255.529 169,-265.529 176,-265.529"/>
</g>
<!-- Panels&#45;&gt;Bombs -->
<g id="edge5" class="edge"><title>Panels&#45;&gt;Bombs</title>
<path fill="none" stroke="black" d="M159.186,-219.313C152.498,-210.679 144.268,-200.055 136.893,-190.534"/>
<polygon fill="black" stroke="black" points="139.582,-188.291 130.691,-182.529 134.048,-192.578 139.582,-188.291"/>
</g>
<!-- Score -->
<g id="node7" class="node"><title>Score</title>
<polygon fill="none" stroke="black" points="90.5,-73.5 90.5,-109.5 144.5,-109.5 144.5,-73.5 90.5,-73.5"/>
<text text-anchor="middle" x="117.5" y="-87.8" font-family="Times New Roman,serif" font-size="14.00">Score</text>
</g>
<!-- Panels&#45;&gt;Score -->
<g id="edge6" class="edge"><title>Panels&#45;&gt;Score</title>
<path fill="none" stroke="black" d="M171.167,-219.209C169.253,-200.529 164.748,-170.191 154.5,-146 150.337,-136.173 144.206,-126.311 138.127,-117.779"/>
<polygon fill="black" stroke="black" points="140.92,-115.67 132.14,-109.741 135.306,-119.851 140.92,-115.67"/>
</g>
<!-- Character&#45;&gt;Score -->
<g id="edge7" class="edge"><title>Character&#45;&gt;Score</title>
<path fill="none" stroke="black" d="M55.3499,-146.313C65.825,-137.243 78.8366,-125.977 90.2433,-116.1"/>
<polygon fill="black" stroke="black" points="92.564,-118.721 97.8329,-109.529 87.9819,-113.429 92.564,-118.721"/>
</g>
<!-- Bombs&#45;&gt;Score -->
<g id="edge8" class="edge"><title>Bombs&#45;&gt;Score</title>
<path fill="none" stroke="black" d="M117.5,-146.313C117.5,-138.289 117.5,-128.547 117.5,-119.569"/>
<polygon fill="black" stroke="black" points="121,-119.529 117.5,-109.529 114,-119.529 121,-119.529"/>
</g>
<!-- Publish -->
<g id="node9" class="node"><title>Publish</title>
<polygon fill="none" stroke="black" points="135.5,-0.5 135.5,-36.5 193.5,-36.5 193.5,-0.5 135.5,-0.5"/>
<text text-anchor="middle" x="164.5" y="-14.8" font-family="Times New Roman,serif" font-size="14.00">Publish</text>
</g>
<!-- Score&#45;&gt;Publish -->
<g id="edge9" class="edge"><title>Score&#45;&gt;Publish</title>
<path fill="none" stroke="black" d="M128.877,-73.3129C134.477,-64.8534 141.342,-54.4835 147.545,-45.1124"/>
<polygon fill="black" stroke="black" points="150.626,-46.7994 153.227,-36.5288 144.789,-42.9354 150.626,-46.7994"/>
</g>
<!-- SoundEffects -->
<g id="node8" class="node"><title>SoundEffects</title>
<polygon fill="none" stroke="black" points="163,-73.5 163,-109.5 260,-109.5 260,-73.5 163,-73.5"/>
<text text-anchor="start" x="171" y="-87.8" font-family="Times New Roman,serif" font-size="14.00">Sound Effects</text>
</g>
<!-- SoundEffects&#45;&gt;Publish -->
<g id="edge10" class="edge"><title>SoundEffects&#45;&gt;Publish</title>
<path fill="none" stroke="black" d="M200.123,-73.3129C194.523,-64.8534 187.658,-54.4835 181.455,-45.1124"/>
<polygon fill="black" stroke="black" points="184.211,-42.9354 175.773,-36.5288 178.374,-46.7994 184.211,-42.9354"/>
</g>
</g>
</svg>
