<?xml version="1.0" encoding="UTF-8" standalone="no"?>
<!DOCTYPE svg PUBLIC "-//W3C//DTD SVG 1.1//EN"
 "http://www.w3.org/Graphics/SVG/1.1/DTD/svg11.dtd">
<!-- Generated by graphviz version 2.38.0 (20140413.2041)
 -->
<!-- Title: %3 Pages: 1 -->
<svg width="220pt" height="264pt"
 viewBox="0.00 0.00 220.00 264.00" xmlns="http://www.w3.org/2000/svg" xmlns:xlink="http://www.w3.org/1999/xlink">
<g id="graph0" class="graph" transform="scale(1 1) rotate(0) translate(4 260)">
<title>%3</title>
<polygon fill="white" stroke="none" points="-4,4 -4,-260 216,-260 216,4 -4,4"/>
<!-- a -->
<g id="node1" class="node"><title>a</title>
<polygon fill="none" stroke="gray" points="61.5,-219.5 61.5,-255.5 143.5,-255.5 143.5,-219.5 61.5,-219.5"/>
<text text-anchor="start" x="69.5" y="-241.3" font-family="Times New Roman,serif" font-size="14.00" fill="gray">Brainstorm </text>
<text text-anchor="start" x="73" y="-227.3" font-family="Times New Roman,serif" font-size="14.00" fill="gray"> </text>
<text text-anchor="start" x="77" y="-227.3" font-family="Times New Roman,serif" font-style="italic" font-size="14.00" fill="gray">Complete</text>
</g>
<!-- b -->
<g id="node2" class="node"><title>b</title>
<polygon fill="none" stroke="gray" points="0,-146.5 0,-182.5 107,-182.5 107,-146.5 0,-146.5"/>
<text text-anchor="start" x="8" y="-168.3" font-family="Times New Roman,serif" font-size="14.00" fill="gray">Specify Format </text>
<text text-anchor="start" x="24" y="-154.3" font-family="Times New Roman,serif" font-size="14.00" fill="gray"> </text>
<text text-anchor="start" x="28" y="-154.3" font-family="Times New Roman,serif" font-style="italic" font-size="14.00" fill="gray">Complete</text>
</g>
<!-- a&#45;&gt;b -->
<g id="edge1" class="edge"><title>a&#45;&gt;b</title>
<path fill="none" stroke="black" d="M90.6385,-219.313C84.7401,-210.766 77.4958,-200.269 70.9764,-190.823"/>
<polygon fill="black" stroke="black" points="73.813,-188.771 65.2523,-182.529 68.0518,-192.747 73.813,-188.771"/>
</g>
<!-- c -->
<g id="node3" class="node"><title>c</title>
<polygon fill="none" stroke="black" points="107,-73.5 107,-109.5 212,-109.5 212,-73.5 107,-73.5"/>
<text text-anchor="start" x="115" y="-87.8" font-family="Times New Roman,serif" font-size="14.00">DOT Generator</text>
</g>
<!-- a&#45;&gt;c -->
<g id="edge2" class="edge"><title>a&#45;&gt;c</title>
<path fill="none" stroke="black" d="M109.262,-219.416C119.076,-194.625 137.354,-148.448 148.949,-119.156"/>
<polygon fill="black" stroke="black" points="152.32,-120.148 152.746,-109.562 145.811,-117.572 152.32,-120.148"/>
</g>
<!-- d -->
<g id="node4" class="node"><title>d</title>
<polygon fill="none" stroke="black" points="2,-73.5 2,-109.5 89,-109.5 89,-73.5 2,-73.5"/>
<text text-anchor="start" x="25.5" y="-95.3" font-family="Times New Roman,serif" font-size="14.00">Parser </text>
<text text-anchor="start" x="10" y="-81.3" font-family="Times New Roman,serif" font-size="14.00"> </text>
<text text-anchor="start" x="14" y="-81.3" font-family="Times New Roman,serif" font-style="italic" font-size="14.00">In Progress</text>
</g>
<!-- b&#45;&gt;d -->
<g id="edge3" class="edge"><title>b&#45;&gt;d</title>
<path fill="none" stroke="black" d="M51.5634,-146.313C50.6594,-138.289 49.5617,-128.547 48.55,-119.569"/>
<polygon fill="black" stroke="black" points="52.0165,-119.074 47.4187,-109.529 45.0605,-119.858 52.0165,-119.074"/>
</g>
<!-- e -->
<g id="node5" class="node"><title>e</title>
<polygon fill="none" stroke="black" points="51,-0.5 51,-36.5 154,-36.5 154,-0.5 51,-0.5"/>
<text text-anchor="start" x="59" y="-14.8" font-family="Times New Roman,serif" font-size="14.00">Command Line</text>
</g>
<!-- c&#45;&gt;e -->
<g id="edge5" class="edge"><title>c&#45;&gt;e</title>
<path fill="none" stroke="black" d="M145.702,-73.3129C138.77,-64.679 130.241,-54.0551 122.598,-44.5341"/>
<polygon fill="black" stroke="black" points="125.161,-42.1357 116.171,-36.5288 119.702,-46.518 125.161,-42.1357"/>
</g>
<!-- d&#45;&gt;e -->
<g id="edge4" class="edge"><title>d&#45;&gt;e</title>
<path fill="none" stroke="black" d="M59.2981,-73.3129C66.2295,-64.679 74.7586,-54.0551 82.4022,-44.5341"/>
<polygon fill="black" stroke="black" points="85.2979,-46.518 88.829,-36.5288 79.8393,-42.1357 85.2979,-46.518"/>
</g>
</g>
</svg>
